<svg width="347" height="56" viewBox="0 0 347 56" fill="none" xmlns="http://www.w3.org/2000/svg">
<rect width="347" height="56" rx="28" fill="#FEE500"/>
<g clip-path="url(#clip0_908_23938)">
<path opacity="0.902" fill-rule="evenodd" clip-rule="evenodd" d="M117 19.9434C112.29 19.9434 108 23.7294 108 26.9324C108 29.3324 109.558 31.4494 111.931 32.7074L110.933 36.3734C110.844 36.6984 111.213 36.9564 111.496 36.7694L115.873 33.8644C116.242 33.9004 116.618 33.9214 117 33.9214C121.97 33.9214 126 30.7924 126 26.9324C126 23.7294 121.97 19.9434 117 19.9434Z" fill="black"/>
</g>
<path d="M145.812 22.6562C145.812 26.9219 144.641 30.5781 139.438 33.1719L138.484 31.8594C140.93 30.6484 142.383 29.2422 143.203 27.5625L138.812 27.9844L138.594 26.4844L143.734 26.1562C143.914 25.5 144.023 24.8047 144.078 24.0625H139.328V22.6562H145.812ZM149.531 21.2656V26.7969H151.625V28.2188H149.531V35.3594H147.797V21.2656H149.531ZM159.641 22.6562C159.641 26.9219 158.469 30.5781 153.266 33.1719L152.312 31.8594C154.758 30.6484 156.211 29.2422 157.031 27.5625L152.641 27.9844L152.422 26.4844L157.562 26.1562C157.742 25.5 157.852 24.8047 157.906 24.0625H153.156V22.6562H159.641ZM163.359 21.2656V26.7969H165.453V28.2188H163.359V35.3594H161.625V21.2656H163.359ZM172.547 22.0625C175.578 22.0625 177.812 23.5781 177.812 25.875C177.812 27.9922 175.992 29.4062 173.406 29.6562V32.25H179.031V33.6719H166.125V32.25H171.688V29.6562C169.117 29.4062 167.297 27.9922 167.312 25.875C167.297 23.5781 169.531 22.0625 172.547 22.0625ZM172.547 23.4688C170.484 23.4531 169 24.3906 169.016 25.875C169 27.4062 170.484 28.3125 172.547 28.3125C174.641 28.3125 176.109 27.4062 176.109 25.875C176.109 24.3906 174.641 23.4531 172.547 23.4688ZM192.859 32.3125V33.75H179.953V32.3125H185.516V30.0156H181.484V25.3906H189.609V23.6406H181.453V22.2344H191.328V26.7656H183.219V28.5938H191.656V30.0156H187.234V32.3125H192.859ZM210.484 32.3125V33.75H197.578V32.3125H203.141V30.0156H199.109V25.3906H207.234V23.6406H199.078V22.2344H208.953V26.7656H200.844V28.5938H209.281V30.0156H204.859V32.3125H210.484ZM222.641 22.6406V24.2344C222.641 26.125 222.641 28.0781 222.125 31.0469L220.359 30.8906C220.906 28.1094 220.906 26.0625 220.906 24.2344V24.0469H212.766V22.6406H222.641ZM224.281 32.0312V33.4531H211.406V32.0312H224.281ZM237 21.2812V31.4844H235.25V21.2812H237ZM237.391 33.7031V35.1094H227.656V30.4531H229.406V33.7031H237.391ZM229.297 22.2031C231.438 22.2031 233.094 23.6875 233.094 25.7344C233.094 27.8281 231.438 29.2812 229.297 29.2812C227.141 29.2812 225.484 27.8281 225.484 25.7344C225.484 23.6875 227.141 22.2031 229.297 22.2031ZM229.297 23.7188C228.094 23.7188 227.172 24.5156 227.188 25.7344C227.172 26.9844 228.094 27.7656 229.297 27.7656C230.469 27.7656 231.391 26.9844 231.391 25.7344C231.391 24.5156 230.469 23.7188 229.297 23.7188Z" fill="#101828"/>
<defs>
<clipPath id="clip0_908_23938">
<rect width="18" height="18" fill="white" transform="translate(108 19)"/>
</clipPath>
</defs>
</svg>
