<svg width="50" height="50" viewBox="0 0 50 50" fill="none" xmlns="http://www.w3.org/2000/svg">
<path d="M10.417 20.6726C10.417 30.7806 19.2596 39.1394 23.1736 42.3442C23.7338 42.8028 24.0172 43.0349 24.4351 43.1526C24.7605 43.2442 25.2395 43.2442 25.5649 43.1526C25.9836 43.0347 26.265 42.8049 26.8273 42.3445C30.7413 39.1397 39.5835 30.7815 39.5835 20.6735C39.5835 16.8483 38.0471 13.1793 35.3122 10.4744C32.5773 7.76957 28.8682 6.25 25.0005 6.25C21.1328 6.25 17.4233 7.7698 14.6884 10.4746C11.9534 13.1795 10.417 16.8474 10.417 20.6726Z" fill="#F70102"/>
<path d="M20.8337 18.75C20.8337 21.0512 22.6991 22.9167 25.0003 22.9167C27.3015 22.9167 29.167 21.0512 29.167 18.75C29.167 16.4488 27.3015 14.5833 25.0003 14.5833C22.6991 14.5833 20.8337 16.4488 20.8337 18.75Z" fill="#F70102"/>
<path d="M10.417 20.6726C10.417 30.7806 19.2596 39.1394 23.1736 42.3442C23.7338 42.8028 24.0172 43.0349 24.4351 43.1526C24.7605 43.2442 25.2395 43.2442 25.5649 43.1526C25.9836 43.0347 26.265 42.8049 26.8273 42.3445C30.7413 39.1397 39.5835 30.7815 39.5835 20.6735C39.5835 16.8483 38.0471 13.1793 35.3122 10.4744C32.5773 7.76957 28.8682 6.25 25.0005 6.25C21.1328 6.25 17.4233 7.7698 14.6884 10.4746C11.9534 13.1795 10.417 16.8474 10.417 20.6726Z" stroke="white" stroke-width="2.91667" stroke-linecap="round" stroke-linejoin="round"/>
<path d="M20.8337 18.75C20.8337 21.0512 22.6991 22.9167 25.0003 22.9167C27.3015 22.9167 29.167 21.0512 29.167 18.75C29.167 16.4488 27.3015 14.5833 25.0003 14.5833C22.6991 14.5833 20.8337 16.4488 20.8337 18.75Z" stroke="white" stroke-width="2.91667" stroke-linecap="round" stroke-linejoin="round"/>
</svg>
