<svg width="102" height="32" viewBox="0 0 102 32" fill="none" xmlns="http://www.w3.org/2000/svg">
<g filter="url(#filter0_ddd_752_19188)">
<path d="M8.21108 12.5571C8.25463 10.7673 10.8899 7.56359 12.6758 7.12937M26.7528 12.2801C27.23 10.5984 29.302 7.24302 30.9496 6.65375M45.2428 14.5058C44.9213 12.6419 44.9213 8.84251 45.8371 7.5789M64.8683 6.49355C64.498 6.4585 63.603 6.81005 62.9856 8.49671C62.3682 10.1834 62.1058 11.6855 62.0517 12.2257M79.3791 8.56565C78.4732 7.69981 79.3792 6.15616 81.8326 5.93606L83.1178 5.92142M15.2131 25.0077C13.6717 25.0077 12.0201 24.6062 10.6989 23.8031C9.2676 22.9196 8.13905 21.5276 7.42339 20.0285C6.51505 18.0475 6.2398 15.7185 6.51505 13.5233C6.79031 11.3014 7.67112 9.02591 9.21255 7.36616C10.6439 5.78672 12.8734 4.71591 15.0204 4.52852C16.8371 4.3679 18.7914 4.9033 20.3053 5.86703C21.1311 6.40243 21.9293 7.20554 22.1771 8.11573C22.4523 9.15977 22.0494 10.386 21.1311 11.1675C20.6907 11.5423 20.0851 11.7297 19.5071 11.7297C18.351 11.7029 17.25 11.1675 16.204 10.6857C15.8737 10.5518 15.4884 10.4715 15.1305 10.5518C14.7727 10.6054 14.4699 10.8463 14.2222 11.114C13.8368 11.5959 13.6166 12.1848 13.4515 12.7737C13.2313 13.5501 13.1212 14.3532 13.0936 15.1563C13.0661 15.8523 13.0936 16.5751 13.3138 17.2711C13.479 17.7262 13.7818 18.1813 14.2222 18.3955C14.6626 18.5829 15.1581 18.6096 15.626 18.5561C16.6169 18.4223 17.5528 18.0742 18.4886 17.8065C19.0116 17.6727 19.5346 17.5656 20.0851 17.5656C21.9018 17.5656 23.0303 19.4395 22.4248 21.126C21.9844 22.3842 20.8008 23.4015 19.5897 23.9637C18.2409 24.5794 16.727 24.981 15.2131 25.0077ZM13.6842 6.62931C13.6844 6.6319 13.6845 6.63449 13.6864 6.64922C13.6883 6.66395 13.692 6.69075 13.6971 6.71492C13.7022 6.73909 13.7086 6.75984 13.7178 6.78244C13.7271 6.80505 13.7391 6.8289 13.7554 6.85269C13.7717 6.87648 13.7919 6.89949 13.8041 6.91267C13.8251 6.93544 13.8405 6.94637 13.854 6.95889C13.8667 6.97062 13.8855 6.98045 13.9044 6.99093C13.9332 7.00691 13.9577 7.01629 13.9709 7.02251C13.9761 7.02491 14.0027 7.02928 14.0519 7.03734L14.054 7.03769C14.0803 7.042 14.1093 7.04199 14.1351 7.04222C14.161 7.04245 14.1831 7.04177 14.2076 7.03917C14.2322 7.03656 14.2584 7.03206 14.2961 7.0227C14.3337 7.01333 14.382 6.99925 14.4302 6.98124C14.4784 6.96323 14.525 6.94173 14.5628 6.92191C14.6006 6.9021 14.6281 6.88461 14.6434 6.87501C14.668 6.85956 14.6815 6.84495 14.6914 6.8349C14.7053 6.82081 14.7102 6.80844 14.7222 6.78964C14.7319 6.77451 14.7467 6.74724 14.755 6.73239C14.7671 6.71061 14.7741 6.69899 14.7813 6.68682C14.7952 6.66327 14.791 6.65262 14.7939 6.64144C14.7967 6.63031 14.7966 6.61916 14.7989 6.59645C14.8 6.58565 14.7965 6.57353 14.7962 6.56269C14.7958 6.55163 14.7968 6.53785 14.7949 6.52512C14.792 6.50575 14.7892 6.49173 14.7832 6.46883C14.7818 6.46359 14.7816 6.4605 14.7751 6.43842C14.7686 6.41634 14.756 6.37534 14.7474 6.35062C14.7361 6.31821 14.7259 6.30575 14.7161 6.29431C14.6978 6.27301 14.6878 6.2685 14.6775 6.25959C14.6661 6.24985 14.6541 6.23856 14.6224 6.21864C14.5992 6.20409 14.573 6.19104 14.5552 6.1819C14.5238 6.16576 14.508 6.16589 14.4865 6.16029C14.4698 6.15594 14.4402 6.15091 14.4155 6.14791C14.3908 6.14491 14.3716 6.14471 14.3566 6.144C14.3417 6.14329 14.3314 6.14207 14.308 6.14228C14.2845 6.14248 14.2482 6.14414 14.2267 6.14555C14.1997 6.14732 14.1882 6.14982 14.1534 6.1589C14.1241 6.16654 14.0721 6.18364 14.0429 6.19298C14.0009 6.20639 13.9838 6.21524 13.9659 6.22396C13.9577 6.2279 13.9473 6.23492 13.9296 6.24618C13.9187 6.25316 13.9027 6.26169 13.8843 6.27529C13.8434 6.30545 13.8218 6.32786 13.8178 6.33195C13.8053 6.34458 13.7876 6.36542 13.7801 6.37772C13.7741 6.38754 13.7671 6.39587 13.7604 6.40757C13.7476 6.43022 13.7373 6.44809 13.734 6.45543C13.7252 6.47448 13.7158 6.49471 13.7112 6.50877C13.6992 6.54561 13.6978 6.55679 13.6951 6.56556C13.6884 6.58605 13.6823 6.60788 13.6842 6.62931ZM23.2428 19.1767C23.801 13.7488 27.1496 3.97894 32.7303 4.5217C38.3109 5.06487 40.5436 12.6634 41.1017 15.3772C41.6598 18.091 42.7756 21.3473 41.1017 22.9761C39.4276 24.6048 36.7546 23.974 36.0789 22.9761C35.0222 21.4146 34.9657 21.3502 34.9627 21.3478H29.3818C29.3818 22.4332 28.9349 24.6041 27.1494 24.6044C24.9171 24.6044 22.6847 24.6044 23.2428 19.1767ZM33.2884 11.0128C30.808 10.3763 30.2809 13.8448 29.6608 16.3907H35.2417C35.035 14.2691 34.251 11.2597 33.2884 11.0128ZM31.9326 6.10705C31.9328 6.10963 31.9331 6.1122 31.9357 6.12683C31.9383 6.14146 31.9433 6.16806 31.9495 6.19197C31.9558 6.21589 31.9632 6.23631 31.9736 6.25847C31.9839 6.28063 31.997 6.3039 32.0145 6.32692C32.0319 6.34993 32.0532 6.37199 32.066 6.3846C32.0881 6.40638 32.104 6.41659 32.1181 6.42848C32.1313 6.43962 32.1506 6.44857 32.17 6.45817C32.1995 6.47281 32.2245 6.48106 32.238 6.48667C32.2433 6.48883 32.2701 6.49197 32.3196 6.49777L32.3218 6.49802C32.3482 6.50112 32.3772 6.49978 32.403 6.49883C32.4288 6.49788 32.4509 6.49618 32.4753 6.49246C32.4996 6.48873 32.5256 6.48303 32.5628 6.47195C32.5999 6.46087 32.6475 6.44459 32.6948 6.42439C32.742 6.4042 32.7876 6.38058 32.8244 6.35906C32.8611 6.33753 32.8877 6.3188 32.9026 6.30851C32.9264 6.29195 32.9392 6.27673 32.9486 6.26624C32.9618 6.25153 32.9661 6.23895 32.9772 6.21963C32.9861 6.20406 32.9995 6.17615 33.0071 6.16093C33.0182 6.13862 33.0246 6.1267 33.0312 6.1142C33.044 6.09004 33.0393 6.0796 33.0416 6.0683C33.0439 6.05705 33.0432 6.04592 33.0445 6.02313C33.045 6.01229 33.0409 6.00034 33.0401 5.98954C33.0392 5.97851 33.0395 5.9647 33.0369 5.95206C33.0331 5.93285 33.0297 5.91897 33.0225 5.89637C33.0209 5.8912 33.0205 5.88812 33.013 5.86636C33.0055 5.8446 32.9908 5.80423 32.981 5.77994C32.9682 5.74808 32.9574 5.7361 32.9471 5.72512C32.9278 5.70468 32.9176 5.70064 32.9068 5.69221C32.895 5.683 32.8824 5.67227 32.8498 5.65383C32.8259 5.64036 32.7991 5.62853 32.7809 5.62021C32.7488 5.60553 32.733 5.60638 32.7112 5.60178C32.6943 5.5982 32.6645 5.59453 32.6397 5.59266C32.6148 5.5908 32.5957 5.59148 32.5807 5.59146C32.5657 5.59143 32.5554 5.59069 32.532 5.59196C32.5086 5.59324 32.4724 5.59657 32.451 5.59896C32.4241 5.60197 32.4127 5.60499 32.3784 5.61565C32.3495 5.62463 32.2984 5.6441 32.2697 5.65476C32.2284 5.67008 32.2118 5.6797 32.1943 5.68923C32.1863 5.69355 32.1763 5.70104 32.1591 5.71309C32.1485 5.72057 32.133 5.72982 32.1153 5.74425C32.0758 5.77625 32.0554 5.79963 32.0516 5.8039C32.0397 5.81708 32.023 5.83872 32.0161 5.85134C32.0106 5.86143 32.004 5.87007 31.9979 5.88206C31.9862 5.90527 31.9768 5.9236 31.9738 5.93108C31.966 5.95051 31.9576 5.97115 31.9537 5.98541C31.9434 6.02275 31.9426 6.03398 31.9404 6.04287C31.9346 6.06365 31.9296 6.08573 31.9326 6.10705ZM49.9443 19.7362C49.9443 21.3645 49.4978 24.6212 47.7119 24.6212C45.4795 24.6212 44.6004 23.4931 43.8053 16.4795C43.2471 11.5564 43.8052 8.66158 43.8052 8.29973C43.8052 7.21418 44.3634 4.97267 46.5957 4.53845C49.3862 3.99567 50.5024 9.42344 50.5024 9.42344C51.6185 8.33789 54.1858 6.05823 55.5252 5.62401C57.1994 5.08124 61.6642 5.62401 59.4318 9.96623C57.6459 13.44 54.9671 14.6703 53.8509 14.8512C53.8509 14.8512 55.5252 16.4795 58.3156 19.7362C61.1061 22.9929 57.0547 25.8188 54.9671 24.0784C52.8794 22.3381 50.5024 20.279 49.9443 19.7362ZM46.387 6.61728C46.3886 6.61935 46.3902 6.62142 46.4002 6.63262C46.4102 6.64381 46.4286 6.66407 46.4467 6.68138C46.4648 6.69869 46.482 6.71243 46.5027 6.72617C46.5233 6.73991 46.5469 6.75322 46.5741 6.76413C46.6013 6.77504 46.6313 6.78316 46.6489 6.78751C46.6794 6.79502 46.6984 6.79575 46.7169 6.79881C46.7341 6.80167 46.7554 6.79961 46.777 6.79807C46.8101 6.79572 46.8359 6.7902 46.8504 6.78818C46.856 6.7874 46.8806 6.77659 46.9261 6.75659L46.9281 6.75573C46.9524 6.74505 46.9764 6.72932 46.998 6.71551C47.0196 6.70169 47.0376 6.68911 47.0564 6.67365C47.0753 6.65818 47.0945 6.64022 47.1204 6.61203C47.1463 6.58383 47.1783 6.54596 47.208 6.50487C47.2377 6.46379 47.2641 6.42065 47.284 6.38371C47.304 6.34677 47.3168 6.31734 47.324 6.30108C47.3356 6.27491 47.3385 6.25543 47.3409 6.24172C47.3443 6.22252 47.3413 6.20959 47.3405 6.18747C47.3399 6.16965 47.3365 6.139 47.3349 6.12218C47.3325 6.09752 47.3316 6.08408 47.3306 6.07007C47.3287 6.04298 47.3191 6.0364 47.3151 6.02557C47.311 6.0148 47.3046 6.0056 47.2935 5.98548C47.2882 5.97592 47.2783 5.96776 47.2718 5.95896C47.2652 5.94998 47.2581 5.938 47.2492 5.92847C47.2357 5.91397 47.2254 5.90382 47.2072 5.88809C47.2031 5.8845 47.2011 5.88204 47.1831 5.86722C47.165 5.8524 47.131 5.82523 47.1097 5.80938C47.0818 5.7886 47.0662 5.78377 47.0515 5.7796C47.0241 5.77184 47.0132 5.77351 46.9995 5.77173C46.9845 5.7698 46.968 5.76695 46.9303 5.76762C46.9027 5.7681 46.8734 5.7715 46.8535 5.77355C46.8182 5.77716 46.8051 5.78583 46.784 5.79286C46.7677 5.79832 46.7402 5.81021 46.718 5.82112C46.6957 5.83202 46.6797 5.84223 46.6669 5.84977C46.6541 5.8573 46.6449 5.86184 46.6255 5.87472C46.6062 5.8876 46.577 5.90868 46.5599 5.92151C46.5385 5.93766 46.5304 5.94596 46.5067 5.97236C46.4868 5.99459 46.4534 6.03697 46.4345 6.06057C46.4074 6.09447 46.3983 6.11107 46.3884 6.12805C46.3839 6.13575 46.3793 6.14721 46.371 6.16615C46.3659 6.1779 46.3576 6.19362 46.3501 6.21491C46.3334 6.26213 46.3283 6.29243 46.3273 6.29802C46.3242 6.31525 46.3215 6.34217 46.3223 6.35645C46.3229 6.36786 46.3219 6.37859 46.3231 6.39189C46.3254 6.41764 46.3271 6.43806 46.3286 6.44598C46.3322 6.46653 46.336 6.48841 46.3403 6.50258C46.3514 6.53969 46.3566 6.54973 46.3595 6.55844C46.3656 6.57911 46.3731 6.60056 46.387 6.61728ZM73.886 23.9374C72.0968 25.0082 69.8397 25.383 67.7478 25.2492C66.4541 25.1689 65.1329 24.8744 64.0319 24.2319C63.5089 23.9374 63.0409 23.5627 62.7106 23.0808C62.2427 22.4383 61.995 21.6887 61.7748 20.9392C61.4445 19.8148 61.2518 18.6637 61.1967 17.5126C61.0866 14.7285 60.949 11.9176 61.6371 9.21383C61.8574 8.22333 62.2427 7.23283 62.9033 6.4565C63.2612 6.00141 63.7566 5.62662 64.3071 5.38569C65.8485 4.74321 67.5827 4.50227 69.2342 4.50227C70.9408 4.4755 72.7024 4.71644 74.2438 5.466C76.4459 6.51004 76.1156 9.53507 73.7759 10.2846C72.7024 10.6326 71.5188 10.3649 70.3627 10.3649C69.8673 10.3382 69.3168 10.3649 68.8764 10.6059C68.6561 10.7397 68.491 11.0074 68.4635 11.2751C68.4084 11.5428 68.3809 11.9979 68.6561 12.0782C68.8488 12.1586 69.6471 12.1318 69.8397 12.1318C70.8857 12.105 71.9317 12.0247 72.9501 12.2121C73.5006 12.3192 74.1062 12.5333 74.4915 12.9617C75.0421 13.6041 74.932 15.13 74.5466 15.8796C74.3264 16.2544 73.941 16.5489 73.5282 16.7095C72.2895 17.1646 70.8857 16.763 69.5645 16.7363C69.069 16.7363 68.5185 16.7363 68.1332 17.0307C67.7753 17.2984 67.6377 18.0748 67.7478 18.4763C67.968 19.44 69.3443 19.2527 70.3352 19.092C71.0509 18.9582 73.5832 18.6369 74.2713 18.8511C75.2072 19.1723 75.7853 20.5644 75.7577 21.5281C75.7577 21.9029 75.6476 22.3312 75.3999 22.6257C75.0145 23.1611 74.464 23.5894 73.886 23.9374ZM65.6893 6.26525C65.6894 6.26783 65.6895 6.27042 65.6912 6.28519C65.6928 6.29995 65.696 6.3268 65.7006 6.35106C65.7053 6.37532 65.7113 6.39616 65.7202 6.41892C65.7291 6.44169 65.7406 6.46573 65.7564 6.4898C65.7723 6.51386 65.7921 6.5372 65.8041 6.5506C65.8246 6.57371 65.8398 6.5849 65.8532 6.59766C65.8656 6.6096 65.8843 6.61974 65.903 6.63054C65.9315 6.647 65.9558 6.6568 65.9689 6.66324C65.974 6.66573 66.0006 6.67055 66.0496 6.67945L66.0518 6.67983C66.0779 6.68458 66.1069 6.68506 66.1328 6.68573C66.1586 6.6864 66.1807 6.6861 66.2053 6.68391C66.2299 6.68172 66.2562 6.67767 66.294 6.66894C66.3318 6.66022 66.3804 6.64695 66.4289 6.62976C66.4774 6.61258 66.5244 6.59187 66.5625 6.5727C66.6007 6.55352 66.6285 6.5365 66.6439 6.52716C66.6688 6.51213 66.6826 6.49776 66.6927 6.48787C66.7068 6.47402 66.7119 6.46174 66.7243 6.44315C66.7342 6.42818 66.7495 6.40116 66.758 6.38646C66.7706 6.36488 66.7778 6.35339 66.7852 6.34134C66.7995 6.31803 66.7955 6.30732 66.7986 6.29618C66.8016 6.2851 66.8017 6.27395 66.8045 6.25129C66.8058 6.2405 66.8025 6.22832 66.8023 6.21748C66.8021 6.20642 66.8034 6.19266 66.8017 6.17989C66.7991 6.16048 66.7966 6.14641 66.791 6.12342C66.7897 6.11816 66.7895 6.11506 66.7835 6.09287C66.7774 6.07068 66.7655 6.02948 66.7573 6.00462C66.7466 5.97203 66.7367 5.95939 66.727 5.94779C66.7091 5.92617 66.6992 5.92151 66.689 5.91242C66.6779 5.90249 66.666 5.89099 66.6347 5.87054C66.6118 5.8556 66.5858 5.84211 66.5682 5.83267C66.5371 5.81599 66.5213 5.81586 66.4999 5.8099C66.4832 5.80526 66.4537 5.79973 66.4291 5.79631C66.4044 5.79289 66.3853 5.79237 66.3703 5.79141C66.3554 5.79044 66.3451 5.78905 66.3217 5.78886C66.2983 5.78866 66.2619 5.78971 66.2404 5.79075C66.2133 5.79207 66.2018 5.79436 66.1668 5.80286C66.1374 5.81 66.0851 5.82622 66.0557 5.83506C66.0135 5.84775 65.9963 5.85631 65.9782 5.86473C65.97 5.86854 65.9595 5.87538 65.9416 5.88633C65.9305 5.89312 65.9144 5.90138 65.8957 5.91467C65.8542 5.94413 65.8323 5.96617 65.8282 5.9702C65.8155 5.98261 65.7974 6.00315 65.7897 6.01532C65.7835 6.02503 65.7763 6.03325 65.7695 6.04483C65.7563 6.06726 65.7456 6.08496 65.7422 6.09224C65.7331 6.11114 65.7233 6.1312 65.7185 6.14518C65.7058 6.18181 65.7042 6.19296 65.7014 6.20169C65.6943 6.22206 65.6877 6.24378 65.6893 6.26525ZM85.2929 23.6089C84.6323 25.2954 82.5404 25.9647 80.8889 25.1616C80.476 24.9742 80.0906 24.6797 79.8429 24.3049C79.6502 24.0372 79.5401 23.716 79.4851 23.4215C79.3474 22.9129 79.2924 22.431 79.2373 21.9224C78.7969 18.2281 79.2098 14.507 79.1272 10.786C79.1272 10.5986 78.907 10.6789 78.7419 10.7324C78.2464 10.8128 77.6959 10.5183 77.3656 10.1703C76.5123 9.17978 76.5398 7.27909 77.3381 6.26183C78.0262 5.32487 81.054 4.81624 82.2376 4.68238C84.9351 4.38791 87.7427 4.41468 90.3852 5.0304C91.8715 5.40518 93.3579 6.1012 94.4589 7.17201C95.3398 8.02866 96.0279 9.20655 96.2756 10.4112C96.716 12.3922 96.0829 14.4803 94.5966 15.9526C93.8809 16.6487 92.9726 17.1841 92.0092 17.5321C92.945 18.3352 93.8534 19.2186 94.4865 20.2626C94.8443 20.8784 95.1471 21.5744 95.2572 22.2704C95.3397 22.8326 95.2847 23.4483 95.0645 23.9569C94.7067 24.6797 94.0185 25.1348 93.1928 25.1616C92.4771 25.1884 91.7614 24.8403 91.1559 24.4656C89.119 23.1538 87.5776 21.1996 86.0361 19.3525C85.926 20.798 85.8159 22.2704 85.2929 23.6089ZM86.0086 12.6867C86.4215 13.5165 87.495 13.6772 88.1831 13.0615C89.2841 12.071 88.7887 10.2506 87.2748 10.1435C86.7243 10.09 86.2288 10.3309 85.9811 10.7592C85.6508 11.3214 85.7058 12.0977 86.0086 12.6867ZM84.9382 6.34586C84.9413 6.34636 84.9444 6.34685 84.9623 6.34896C84.9803 6.35107 85.013 6.35478 85.0431 6.35698C85.0733 6.35917 85.0999 6.35974 85.1297 6.35888C85.1595 6.35801 85.1917 6.35569 85.2254 6.35057C85.2591 6.34544 85.2933 6.33758 85.3131 6.33271C85.3473 6.32432 85.3656 6.31685 85.3851 6.31096C85.4034 6.30543 85.4216 6.2955 85.4407 6.28568C85.4697 6.27071 85.4895 6.25699 85.5015 6.24985C85.5061 6.24709 85.5208 6.23089 85.5479 6.20093L85.549 6.19964C85.5635 6.18364 85.5738 6.16492 85.5834 6.14829C85.5929 6.13167 85.6 6.11721 85.6057 6.10077C85.6115 6.08434 85.6156 6.06638 85.6181 6.03994C85.6206 6.0135 85.6214 5.97913 85.6176 5.94393C85.6137 5.90873 85.6052 5.87373 85.5955 5.84484C85.5858 5.81595 85.5752 5.79423 85.5694 5.78218C85.5601 5.76278 85.5479 5.75072 85.5396 5.74206C85.5281 5.72992 85.5154 5.72395 85.4976 5.71192C85.4834 5.70224 85.4567 5.68651 85.4423 5.6778C85.4211 5.66502 85.41 5.65787 85.3983 5.65046C85.3757 5.63613 85.3618 5.63641 85.3497 5.63204C85.3377 5.62768 85.3246 5.62522 85.2988 5.61857C85.2865 5.61541 85.2711 5.61493 85.2583 5.6127C85.2452 5.61043 85.2294 5.60666 85.2138 5.60502C85.1901 5.60251 85.1726 5.6011 85.1437 5.59982C85.137 5.59953 85.1333 5.59895 85.1051 5.59813C85.077 5.5973 85.0244 5.59618 84.9924 5.59614C84.9504 5.59608 84.9321 5.59983 84.9152 5.60357C84.8837 5.61056 84.8749 5.61597 84.8607 5.62065C84.8452 5.62576 84.8277 5.63098 84.793 5.64695C84.7677 5.6586 84.743 5.67259 84.7259 5.68199C84.6958 5.69859 84.6903 5.70882 84.676 5.72145C84.6649 5.73126 84.6484 5.74926 84.6361 5.76453C84.6237 5.7798 84.6166 5.79211 84.6104 5.80162C84.6042 5.81114 84.5991 5.81747 84.591 5.83266C84.5828 5.84784 84.5718 5.87167 84.5657 5.88587C84.5581 5.90376 84.5569 5.91174 84.5551 5.93626C84.5536 5.9569 84.555 5.99434 84.5555 6.01534C84.5562 6.04549 84.5604 6.05851 84.5642 6.0721C84.5659 6.07825 84.5704 6.08655 84.5773 6.10053C84.5815 6.1092 84.5858 6.12142 84.5951 6.13642C84.6158 6.16968 84.6344 6.18868 84.6377 6.19222C84.648 6.20312 84.6661 6.21929 84.6778 6.22693C84.6872 6.23304 84.6944 6.23946 84.7058 6.24639C84.7277 6.25981 84.745 6.2705 84.7523 6.27434C84.7715 6.2843 84.7919 6.29495 84.8067 6.30111C84.8455 6.31724 84.8581 6.32067 84.8675 6.32436C84.8894 6.33352 84.9122 6.34091 84.9356 6.34539L84.9382 6.34586Z" stroke="white" stroke-width="3.34854" stroke-linecap="round"/>
<path d="M73.3843 14.2705C73.8307 13.402 75.6524 10.213 76.1747 9.3855H81.7554V18.6127C81.7554 19.1555 75.0585 21.8694 73.3843 21.8694C71.71 21.8694 72.8262 15.356 73.3843 14.2705Z" fill="white"/>
<path d="M34.3173 14.8116L32.643 11.5549L31.1276 15.4852L34.3173 14.8116Z" fill="white"/>
<path d="M61.6639 11.5549L54.9668 15.8971L60.5477 20.2394C60.5477 20.2394 62.222 18.2492 62.7801 16.9827L61.6639 11.5549Z" fill="white"/>
<path d="M15.2131 25.0074C13.6717 25.0074 12.0201 24.6059 10.6989 23.8028C9.2676 22.9194 8.13905 21.5273 7.42339 20.0282C6.51505 18.0472 6.2398 15.7182 6.51505 13.523C6.79031 11.3011 7.67112 9.02562 9.21255 7.36587C10.6439 5.78642 12.8734 4.71562 15.0204 4.52823C16.8371 4.3676 18.7914 4.90301 20.3053 5.86674C21.1311 6.40214 21.9293 7.20525 22.1771 8.11543C22.4523 9.15947 22.0494 10.3857 21.1311 11.1672C20.6907 11.542 20.0851 11.7294 19.5071 11.7294C18.351 11.7026 17.25 11.1672 16.204 10.6854C15.8737 10.5515 15.4884 10.4712 15.1305 10.5515C14.7727 10.6051 14.4699 10.846 14.2222 11.1137C13.8368 11.5956 13.6166 12.1845 13.4515 12.7734C13.2313 13.5498 13.1212 14.3529 13.0936 15.156C13.0661 15.852 13.0936 16.5748 13.3138 17.2708C13.479 17.7259 13.7818 18.181 14.2222 18.3952C14.6626 18.5826 15.1581 18.6093 15.626 18.5558C16.6169 18.422 17.5528 18.0739 18.4886 17.8062C19.0116 17.6724 19.5346 17.5653 20.0851 17.5653C21.9018 17.5653 23.0303 19.4392 22.4248 21.1257C21.9844 22.3839 20.8008 23.4012 19.5897 23.9634C18.2409 24.5791 16.727 24.9807 15.2131 25.0074Z" fill="#FF3A4E"/>
<path d="M13.6861 6.64959C13.6842 6.63486 13.6841 6.63227 13.684 6.62968C13.682 6.60823 13.688 6.58691 13.6947 6.56653L13.6949 6.56593C13.6975 6.55716 13.6989 6.54598 13.7109 6.50914C13.7155 6.49508 13.7249 6.47485 13.7337 6.4558C13.737 6.44846 13.7473 6.43059 13.7601 6.40794C13.7668 6.39624 13.7738 6.38791 13.7798 6.37809C13.7873 6.36579 13.805 6.34495 13.8175 6.33232C13.8215 6.32823 13.8431 6.30581 13.884 6.27566C13.9025 6.26206 13.9184 6.25353 13.9294 6.24654C13.9471 6.23529 13.9575 6.22827 13.9656 6.22433C13.9836 6.21561 14.0006 6.20676 14.0426 6.19335C14.0718 6.18401 14.1238 6.16691 14.1531 6.15927C14.1879 6.15018 14.1994 6.14769 14.2264 6.14592C14.2479 6.14451 14.2843 6.14285 14.3077 6.14265C14.3311 6.14244 14.3414 6.14366 14.3564 6.14437C14.3713 6.14508 14.3905 6.14528 14.4152 6.14828C14.4399 6.15128 14.4695 6.15631 14.4862 6.16066C14.5078 6.16626 14.5236 6.16613 14.5549 6.18227C14.5727 6.19141 14.5989 6.20446 14.6221 6.21901C14.6538 6.23893 14.6658 6.25022 14.6772 6.25996C14.6876 6.26887 14.6975 6.27337 14.7158 6.29468C14.7256 6.30612 14.7358 6.31858 14.7471 6.35099C14.7557 6.37571 14.7684 6.41671 14.7748 6.43879C14.7813 6.46087 14.7815 6.46396 14.7829 6.4692C14.789 6.49209 14.7917 6.50612 14.7946 6.52549C14.7965 6.53822 14.7955 6.552 14.7959 6.56306C14.7963 6.5739 14.7998 6.58602 14.7987 6.59682C14.7963 6.61953 14.7964 6.63068 14.7936 6.64181C14.7908 6.65299 14.7949 6.66364 14.781 6.68719C14.7738 6.69936 14.7668 6.71098 14.7547 6.73276C14.7464 6.74761 14.7316 6.77488 14.7219 6.79001C14.7099 6.80881 14.705 6.82118 14.6911 6.83527C14.6813 6.84532 14.6677 6.85993 14.6431 6.87538C14.6278 6.88498 14.6003 6.90247 14.5625 6.92228C14.5248 6.9421 14.4781 6.9636 14.4299 6.98161C14.3817 6.99962 14.3334 7.0137 14.2958 7.02307C14.2581 7.03243 14.2319 7.03693 14.2074 7.03953C14.1828 7.04214 14.1607 7.04282 14.1349 7.04259C14.109 7.04236 14.08 7.04237 14.0538 7.03806L14.0516 7.03771C14.0024 7.02964 13.9758 7.02528 13.9707 7.02288C13.9574 7.01666 13.9329 7.00728 13.9041 6.9913C13.8852 6.98082 13.8664 6.97099 13.8537 6.95926C13.8402 6.94674 13.8248 6.9358 13.8038 6.91304C13.7916 6.89986 13.7714 6.87685 13.7551 6.85306C13.7388 6.82927 13.7268 6.80542 13.7176 6.78281C13.7083 6.7602 13.7019 6.73946 13.6968 6.71529C13.6917 6.69112 13.688 6.66432 13.6861 6.64959Z" fill="white"/>
<path d="M8.21094 12.5567C8.2545 10.7668 10.8898 7.56313 12.6757 7.12891" stroke="white" stroke-width="0.781327" stroke-linecap="round"/>
<path d="M23.2432 19.1768C23.8013 13.749 27.1496 3.97876 32.7305 4.52148C38.3114 5.06426 40.5435 12.6631 41.1016 15.377C41.6597 18.0908 42.7758 21.3468 41.1016 22.9756C39.4273 24.6042 36.7544 23.9736 36.0791 22.9756C34.9942 21.3723 34.9637 21.3478 34.9629 21.3477H29.3818C29.3818 22.4332 28.9353 24.6045 27.1494 24.6045C24.9171 24.6045 22.6851 24.6043 23.2432 19.1768ZM33.2891 11.0117C30.8089 10.3756 30.2812 13.8439 29.6611 16.3896H35.2422C35.0355 14.2681 34.2516 11.2587 33.2891 11.0117Z" fill="#FF5F25"/>
<path d="M31.936 6.1251C31.9334 6.11048 31.9331 6.1079 31.9329 6.10532C31.9298 6.08398 31.9348 6.06241 31.9405 6.04173L31.9407 6.04114C31.9429 6.03225 31.9437 6.02102 31.954 5.98368C31.9579 5.96942 31.9663 5.94879 31.9741 5.92936C31.9771 5.92187 31.9865 5.90354 31.9982 5.88034C32.0043 5.86835 32.0109 5.8597 32.0164 5.84961C32.0233 5.83699 32.04 5.81535 32.0518 5.80217C32.0557 5.7979 32.0761 5.77452 32.1155 5.74252C32.1333 5.72809 32.1488 5.71884 32.1594 5.71136C32.1766 5.69931 32.1866 5.69182 32.1945 5.6875C32.2121 5.67797 32.2287 5.66835 32.27 5.65303C32.2987 5.64237 32.3498 5.6229 32.3787 5.61392C32.413 5.60326 32.4243 5.60024 32.4513 5.59723C32.4727 5.59484 32.5089 5.59151 32.5323 5.59023C32.5557 5.58896 32.566 5.5897 32.581 5.58973C32.596 5.58975 32.6151 5.58907 32.6399 5.59093C32.6648 5.5928 32.6946 5.59647 32.7115 5.60005C32.7333 5.60465 32.7491 5.6038 32.7812 5.61849C32.7994 5.6268 32.8262 5.63864 32.8501 5.6521C32.8827 5.67054 32.8953 5.68128 32.9071 5.69048C32.9179 5.69891 32.928 5.70295 32.9473 5.72339C32.9577 5.73437 32.9685 5.74635 32.9813 5.77821C32.9911 5.8025 33.0057 5.84288 33.0133 5.86463C33.0208 5.88639 33.0212 5.88948 33.0228 5.89464C33.03 5.91724 33.0334 5.93112 33.0372 5.95033C33.0398 5.96297 33.0394 5.97678 33.0403 5.98781C33.0412 5.99861 33.0453 6.01056 33.0447 6.0214C33.0435 6.04419 33.0442 6.05533 33.0419 6.06657C33.0396 6.07787 33.0442 6.08831 33.0315 6.11248C33.0249 6.12497 33.0185 6.13689 33.0074 6.1592C32.9998 6.17442 32.9864 6.20233 32.9775 6.2179C32.9664 6.23722 32.9621 6.2498 32.9489 6.26451C32.9395 6.275 32.9267 6.29022 32.9028 6.30678C32.888 6.31707 32.8614 6.3358 32.8246 6.35733C32.7879 6.37885 32.7423 6.40247 32.695 6.42266C32.6478 6.44286 32.6002 6.45914 32.5631 6.47022C32.5259 6.4813 32.4999 6.487 32.4756 6.49073C32.4512 6.49445 32.4291 6.49615 32.4033 6.4971C32.3775 6.49805 32.3485 6.49939 32.322 6.4963L32.3199 6.49604C32.2703 6.49024 32.2435 6.4871 32.2383 6.48494C32.2248 6.47933 32.1998 6.47108 32.1703 6.45644C32.1509 6.44684 32.1316 6.43789 32.1184 6.42675C32.1043 6.41486 32.0884 6.40465 32.0663 6.38287C32.0535 6.37026 32.0322 6.3482 32.0147 6.32519C31.9973 6.30217 31.9842 6.2789 31.9738 6.25674C31.9635 6.23458 31.9561 6.21416 31.9498 6.19024C31.9436 6.16633 31.9386 6.13973 31.936 6.1251Z" fill="white"/>
<path d="M26.7533 12.2811C27.2304 10.5994 29.3025 7.244 30.95 6.65473" stroke="white" stroke-width="0.781327" stroke-linecap="round"/>
<path d="M47.7123 24.6209C49.4982 24.6209 49.9447 21.3642 49.9447 19.7359C50.5028 20.2787 52.8799 22.3378 54.9675 24.0781C57.0552 25.8185 61.1065 22.9926 58.3161 19.7359C55.5256 16.4792 53.8513 14.8509 53.8513 14.8509C54.9675 14.67 57.6464 13.4397 59.4322 9.96593C61.6646 5.62372 57.1999 5.08094 55.5256 5.62372C54.1862 6.05794 51.619 8.3376 50.5028 9.42315C50.5028 9.42315 49.3866 3.99538 46.5962 4.53815C44.3638 4.97238 43.8056 7.21388 43.8056 8.29944C43.8056 8.66129 43.2475 11.5561 43.8057 16.4792C44.6009 23.4928 45.48 24.6209 47.7123 24.6209Z" fill="#F8E72E"/>
<path d="M46.4001 6.63295C46.39 6.62175 46.3884 6.61968 46.3868 6.61761C46.3729 6.6009 46.3656 6.57987 46.3595 6.55918L46.3593 6.55878C46.3565 6.55006 46.3512 6.54003 46.3401 6.50292C46.3359 6.48875 46.3321 6.46687 46.3284 6.44631C46.327 6.43839 46.3253 6.41798 46.323 6.39223C46.3217 6.37892 46.3228 6.36819 46.3221 6.35679C46.3213 6.3425 46.3241 6.31559 46.3272 6.29835C46.3282 6.29277 46.3332 6.26247 46.3499 6.21524C46.3574 6.19395 46.3658 6.17823 46.3709 6.16648C46.3791 6.14754 46.3837 6.13608 46.3882 6.12839C46.3981 6.11141 46.4072 6.09481 46.4344 6.06091C46.4533 6.03731 46.4866 5.99493 46.5066 5.9727C46.5302 5.9463 46.5383 5.938 46.5598 5.92184C46.5768 5.90902 46.606 5.88794 46.6254 5.87506C46.6447 5.86218 46.6539 5.85763 46.6668 5.8501C46.6796 5.84257 46.6956 5.83235 46.7178 5.82145C46.74 5.81055 46.7675 5.79865 46.7839 5.79319C46.805 5.78617 46.818 5.77749 46.8533 5.77388C46.8733 5.77184 46.9026 5.76844 46.9301 5.76795C46.9679 5.76729 46.9844 5.77013 46.9993 5.77207C47.0131 5.77384 47.0239 5.77217 47.0513 5.77994C47.066 5.78411 47.0816 5.78894 47.1096 5.80972C47.1309 5.82556 47.1649 5.85274 47.1829 5.86755C47.201 5.88237 47.2029 5.88483 47.2071 5.88843C47.2252 5.90415 47.2355 5.9143 47.2491 5.9288C47.258 5.93833 47.265 5.95031 47.2717 5.95929C47.2782 5.9681 47.288 5.97626 47.2933 5.98582C47.3044 6.00593 47.3109 6.01513 47.3149 6.02591C47.319 6.03674 47.3285 6.04331 47.3305 6.07041C47.3315 6.08442 47.3323 6.09786 47.3347 6.12252C47.3364 6.13933 47.3397 6.16999 47.3404 6.18781C47.3412 6.20993 47.3442 6.22286 47.3408 6.24206C47.3383 6.25577 47.3355 6.27524 47.3239 6.30141C47.3167 6.31768 47.3039 6.34711 47.2839 6.38405C47.2639 6.42098 47.2375 6.46413 47.2078 6.50521C47.1782 6.54629 47.1462 6.58417 47.1203 6.61236C47.0944 6.64055 47.0752 6.65852 47.0563 6.67398C47.0374 6.68945 47.0194 6.70203 46.9979 6.71584C46.9763 6.72965 46.9522 6.74539 46.928 6.75606L46.926 6.75693C46.8805 6.77693 46.8559 6.78774 46.8503 6.78852C46.8357 6.79054 46.81 6.79606 46.7769 6.79841C46.7552 6.79995 46.734 6.802 46.7167 6.79914C46.6983 6.79608 46.6792 6.79536 46.6488 6.78784C46.6311 6.78349 46.6011 6.77538 46.574 6.76446C46.5468 6.75355 46.5232 6.74024 46.5025 6.72651C46.4819 6.71277 46.4647 6.69902 46.4466 6.68171C46.4285 6.6644 46.4101 6.64415 46.4001 6.63295Z" fill="white"/>
<path d="M45.2428 14.5066C44.9213 12.6428 44.9213 8.84334 45.837 7.57972" stroke="white" stroke-width="0.781327" stroke-linecap="round"/>
<path d="M73.8865 23.9371C72.0973 25.008 69.8402 25.3827 67.7483 25.2489C66.4546 25.1686 65.1334 24.8741 64.0323 24.2316C63.5094 23.9371 63.0414 23.5624 62.7111 23.0805C62.2432 22.438 61.9955 21.6884 61.7753 20.9389C61.4449 19.8145 61.2523 18.6634 61.1972 17.5123C61.0871 14.7282 60.9495 11.9173 61.6376 9.21353C61.8578 8.22304 62.2432 7.23254 62.9038 6.4562C63.2616 6.00111 63.7571 5.62633 64.3076 5.3854C65.849 4.74291 67.5831 4.50198 69.2347 4.50198C70.9412 4.47521 72.7029 4.71614 74.2443 5.46571C76.4463 6.50974 76.116 9.53478 73.7764 10.2843C72.7029 10.6324 71.5193 10.3647 70.3632 10.3647C69.8677 10.3379 69.3172 10.3647 68.8768 10.6056C68.6566 10.7394 68.4915 11.0071 68.4639 11.2748C68.4089 11.5425 68.3814 11.9976 68.6566 12.0779C68.8493 12.1583 69.6475 12.1315 69.8402 12.1315C70.8862 12.1047 71.9322 12.0244 72.9506 12.2118C73.5011 12.3189 74.1067 12.533 74.492 12.9614C75.0425 13.6038 74.9324 15.1298 74.5471 15.8793C74.3269 16.2541 73.9415 16.5486 73.5286 16.7092C72.29 17.1643 70.8862 16.7627 69.565 16.736C69.0695 16.736 68.519 16.736 68.1336 17.0304C67.7758 17.2981 67.6382 18.0745 67.7483 18.476C67.9685 19.4398 69.3448 19.2524 70.3357 19.0917C71.0513 18.9579 73.5837 18.6366 74.2718 18.8508C75.2077 19.172 75.7857 20.5641 75.7582 21.5278C75.7582 21.9026 75.6481 22.3309 75.4004 22.6254C75.015 23.1608 74.4645 23.5891 73.8865 23.9371Z" fill="#69EF4E"/>
<path d="M65.6914 6.28611C65.6898 6.27135 65.6897 6.26876 65.6896 6.26617C65.688 6.24468 65.6943 6.22347 65.7014 6.20321L65.7016 6.20261C65.7044 6.19388 65.706 6.18273 65.7187 6.1461C65.7236 6.13212 65.7333 6.11206 65.7424 6.09316C65.7459 6.08588 65.7565 6.06818 65.7697 6.04576C65.7766 6.03417 65.7837 6.02595 65.7899 6.01624C65.7976 6.00407 65.8157 5.98353 65.8284 5.97112C65.8325 5.96709 65.8545 5.94505 65.8959 5.91559C65.9146 5.90231 65.9307 5.89404 65.9418 5.88725C65.9597 5.8763 65.9702 5.86946 65.9784 5.86565C65.9965 5.85724 66.0138 5.84868 66.056 5.83598C66.0854 5.82714 66.1377 5.81093 66.1671 5.80378C66.202 5.79529 66.2135 5.79299 66.2406 5.79167C66.2622 5.79063 66.2985 5.78959 66.3219 5.78978C66.3454 5.78997 66.3556 5.79136 66.3706 5.79233C66.3855 5.79329 66.4047 5.79382 66.4293 5.79723C66.4539 5.80065 66.4835 5.80619 66.5001 5.81082C66.5215 5.81678 66.5373 5.81692 66.5684 5.83359C66.586 5.84303 66.612 5.85653 66.6349 5.87146C66.6663 5.89191 66.6781 5.90341 66.6893 5.91334C66.6995 5.92243 66.7094 5.9271 66.7273 5.94871C66.7369 5.96031 66.7468 5.97295 66.7575 6.00554C66.7657 6.0304 66.7776 6.07161 66.7837 6.09379C66.7898 6.11598 66.7899 6.11908 66.7912 6.12434C66.7969 6.14733 66.7994 6.1614 66.8019 6.18082C66.8036 6.19358 66.8024 6.20735 66.8025 6.21841C66.8027 6.22925 66.806 6.24143 66.8047 6.25221C66.802 6.27488 66.8019 6.28602 66.7988 6.2971C66.7958 6.30824 66.7998 6.31895 66.7854 6.34226C66.778 6.35431 66.7708 6.36581 66.7583 6.38738C66.7497 6.40209 66.7345 6.4291 66.7245 6.44407C66.7121 6.46266 66.707 6.47494 66.6929 6.48879C66.6829 6.49868 66.669 6.51305 66.6442 6.52808C66.6287 6.53743 66.6009 6.55444 66.5628 6.57362C66.5246 6.59279 66.4776 6.6135 66.4291 6.63069C66.3806 6.64787 66.3321 6.66114 66.2943 6.66987C66.2564 6.67859 66.2301 6.68265 66.2056 6.68483C66.181 6.68702 66.1588 6.68732 66.133 6.68666C66.1072 6.68599 66.0782 6.68551 66.052 6.68076L66.0499 6.68037C66.0008 6.67147 65.9743 6.66665 65.9692 6.66416C65.9561 6.65772 65.9317 6.64792 65.9032 6.63146C65.8845 6.62066 65.8658 6.61052 65.8534 6.59858C65.8401 6.58583 65.8249 6.57463 65.8043 6.55152C65.7924 6.53813 65.7725 6.51478 65.7567 6.49072C65.7408 6.46666 65.7293 6.44261 65.7204 6.41985C65.7115 6.39708 65.7055 6.37624 65.7009 6.35198C65.6962 6.32772 65.693 6.30087 65.6914 6.28611Z" fill="white"/>
<path d="M64.8683 6.49206C64.498 6.45701 63.6031 6.80856 62.9857 8.49522C62.3683 10.1819 62.1058 11.684 62.0518 12.2242" stroke="white" stroke-width="0.781327" stroke-linecap="round"/>
<path d="M85.2928 23.6086C84.6322 25.2951 82.5403 25.9644 80.8888 25.1613C80.4759 24.9739 80.0905 24.6794 79.8428 24.3046C79.6501 24.0369 79.54 23.7157 79.485 23.4212C79.3473 22.9126 79.2923 22.4307 79.2372 21.9221C78.7968 18.2278 79.2097 14.5068 79.1271 10.7857C79.1271 10.5983 78.9069 10.6786 78.7418 10.7322C78.2463 10.8125 77.6958 10.518 77.3655 10.17C76.5122 9.17948 76.5397 7.2788 77.338 6.26153C78.0261 5.32457 81.0539 4.81594 82.2375 4.68209C84.935 4.38762 87.7426 4.41439 90.3851 5.0301C91.8714 5.40488 93.3578 6.10091 94.4588 7.17172C95.3397 8.02836 96.0278 9.20625 96.2755 10.4109C96.7159 12.3919 96.0828 14.48 94.5965 15.9523C93.8808 16.6484 92.9725 17.1838 92.0091 17.5318C92.9449 18.3349 93.8533 19.2183 94.4864 20.2623C94.8442 20.8781 95.147 21.5741 95.2571 22.2701C95.3397 22.8323 95.2846 23.448 95.0644 23.9566C94.7066 24.6794 94.0184 25.1345 93.1927 25.1613C92.477 25.1881 91.7613 24.84 91.1558 24.4653C89.1189 23.1535 87.5775 21.1993 86.036 19.3522C85.9259 20.7977 85.8158 22.2701 85.2928 23.6086ZM86.0085 12.6864C86.4214 13.5163 87.4949 13.6769 88.183 13.0612C89.284 12.0707 88.7886 10.2503 87.2747 10.1432C86.7242 10.0897 86.2287 10.3306 85.981 10.7589C85.6507 11.3211 85.7057 12.0974 86.0085 12.6864Z" fill="#5AC0F3"/>
<path d="M84.9619 6.34777C84.9439 6.34566 84.9408 6.34517 84.9378 6.34467L84.935 6.34418C84.9116 6.3397 84.8889 6.33233 84.867 6.32317C84.8576 6.31948 84.845 6.31605 84.8062 6.29992C84.7914 6.29376 84.771 6.28311 84.7519 6.27315C84.7445 6.26931 84.7272 6.25861 84.7053 6.2452C84.6939 6.23827 84.6867 6.23185 84.6773 6.22574C84.6656 6.2181 84.6475 6.20193 84.6372 6.19102C84.6339 6.18749 84.6153 6.16849 84.5946 6.13523C84.5853 6.12023 84.581 6.10801 84.5768 6.09934C84.5699 6.08536 84.5654 6.07706 84.5637 6.0709C84.5599 6.05732 84.5557 6.0443 84.555 6.01414C84.5545 5.99315 84.5531 5.95571 84.5546 5.93507C84.5564 5.91055 84.5576 5.90257 84.5652 5.88468C84.5713 5.87048 84.5824 5.84665 84.5905 5.83146C84.5987 5.81628 84.6037 5.80994 84.6099 5.80043C84.6161 5.79092 84.6232 5.77861 84.6356 5.76334C84.6479 5.74807 84.6644 5.73007 84.6755 5.72026C84.6898 5.70763 84.6953 5.6974 84.7254 5.6808C84.7425 5.6714 84.7672 5.65741 84.7925 5.64575C84.8272 5.62979 84.8447 5.62457 84.8602 5.61946C84.8744 5.61478 84.8832 5.60936 84.9147 5.60238C84.9316 5.59864 84.9499 5.59489 84.9919 5.59494C85.0239 5.59499 85.0765 5.59611 85.1046 5.59694C85.1328 5.59776 85.1365 5.59834 85.1432 5.59863C85.1721 5.59991 85.1896 5.60131 85.2133 5.60382C85.2289 5.60547 85.2447 5.60924 85.2578 5.61151C85.2706 5.61374 85.286 5.61422 85.2983 5.61738C85.3241 5.62403 85.3372 5.62649 85.3492 5.63084C85.3613 5.63522 85.3752 5.63494 85.3978 5.64927C85.4095 5.65668 85.4206 5.66383 85.4418 5.67661C85.4562 5.68532 85.4829 5.70105 85.4971 5.71073C85.5149 5.72275 85.5276 5.72873 85.5391 5.74087C85.5474 5.74953 85.5596 5.76159 85.5689 5.78099C85.5747 5.79304 85.5853 5.81476 85.595 5.84365C85.6047 5.87254 85.6132 5.90753 85.6171 5.94274C85.6209 5.97794 85.6201 6.01231 85.6176 6.03875C85.6151 6.06519 85.611 6.08315 85.6052 6.09958C85.5995 6.11602 85.5924 6.13048 85.5829 6.1471C85.5734 6.16372 85.563 6.18245 85.5485 6.19844L85.5474 6.19974C85.5203 6.2297 85.5056 6.2459 85.501 6.24866C85.489 6.2558 85.4692 6.26952 85.4402 6.28449C85.4211 6.29431 85.4029 6.30424 85.3846 6.30977C85.3651 6.31566 85.3468 6.32313 85.3126 6.33152C85.2928 6.33639 85.2586 6.34425 85.2249 6.34938C85.1912 6.3545 85.159 6.35682 85.1292 6.35769C85.0994 6.35855 85.0728 6.35798 85.0426 6.35579C85.0125 6.35359 84.9798 6.34988 84.9619 6.34777Z" fill="white"/>
<path d="M79.3789 8.56623C78.473 7.70039 79.379 6.15673 81.8324 5.93663L83.1177 5.922" stroke="white" stroke-width="0.781327" stroke-linecap="round"/>
</g>
<defs>
<filter id="filter0_ddd_752_19188" x="0.963328" y="-0.00650799" width="100.9" height="31.8956" filterUnits="userSpaceOnUse" color-interpolation-filters="sRGB">
<feFlood flood-opacity="0" result="BackgroundImageFix"/>
<feColorMatrix in="SourceAlpha" type="matrix" values="0 0 0 0 0 0 0 0 0 0 0 0 0 0 0 0 0 0 127 0" result="hardAlpha"/>
<feOffset/>
<feGaussianBlur stdDeviation="0.471991"/>
<feComposite in2="hardAlpha" operator="out"/>
<feColorMatrix type="matrix" values="0 0 0 0 0 0 0 0 0 0 0 0 0 0 0 0 0 0 0.08 0"/>
<feBlend mode="normal" in2="BackgroundImageFix" result="effect1_dropShadow_752_19188"/>
<feColorMatrix in="SourceAlpha" type="matrix" values="0 0 0 0 0 0 0 0 0 0 0 0 0 0 0 0 0 0 127 0" result="hardAlpha"/>
<feOffset dy="0.943982"/>
<feGaussianBlur stdDeviation="1.88796"/>
<feComposite in2="hardAlpha" operator="out"/>
<feColorMatrix type="matrix" values="0 0 0 0 0 0 0 0 0 0 0 0 0 0 0 0 0 0 0.08 0"/>
<feBlend mode="normal" in2="effect1_dropShadow_752_19188" result="effect2_dropShadow_752_19188"/>
<feColorMatrix in="SourceAlpha" type="matrix" values="0 0 0 0 0 0 0 0 0 0 0 0 0 0 0 0 0 0 127 0" result="hardAlpha"/>
<feOffset dy="1"/>
<feGaussianBlur stdDeviation="1"/>
<feComposite in2="hardAlpha" operator="out"/>
<feColorMatrix type="matrix" values="0 0 0 0 0 0 0 0 0 0 0 0 0 0 0 0 0 0 0.12 0"/>
<feBlend mode="normal" in2="effect2_dropShadow_752_19188" result="effect3_dropShadow_752_19188"/>
<feBlend mode="normal" in="SourceGraphic" in2="effect3_dropShadow_752_19188" result="shape"/>
</filter>
</defs>
</svg>
