<svg width="697" height="221" viewBox="0 0 697 221" fill="none" xmlns="http://www.w3.org/2000/svg">
<g filter="url(#filter0_ddd_752_19189)">
<path d="M50.1725 86.8946C50.4733 74.5362 68.6692 52.4153 81.0004 49.4171M178.199 84.9819C181.493 73.3699 195.801 50.2019 207.177 46.1331M305.868 100.349C303.648 87.4802 303.648 61.246 309.971 52.521M441.377 45.027C438.82 44.7849 432.64 47.2123 428.378 58.8583C424.115 70.5042 422.302 80.8759 421.929 84.606M541.571 59.3343C535.316 53.3559 541.571 42.6973 558.512 41.1776L567.386 41.0765M98.5199 172.863C87.8767 172.863 76.4732 170.09 67.3505 164.545C57.4676 158.445 49.6752 148.833 44.7337 138.482C38.4619 124.804 36.5613 108.723 38.4619 93.5658C40.3624 78.2239 46.4442 62.5123 57.0874 51.0521C66.9704 40.1465 82.365 32.7528 97.1895 31.4589C109.733 30.3498 123.227 34.0467 133.68 40.701C139.382 44.3978 144.894 49.9431 146.604 56.2277C148.505 63.4365 145.723 71.9036 139.382 77.2997C136.341 79.8875 132.16 81.1813 128.169 81.1813C120.186 80.9965 112.584 77.2997 105.362 73.9725C103.081 73.0483 100.42 72.4938 97.9497 73.0483C95.4789 73.418 93.3883 75.0816 91.6778 76.93C89.017 80.2571 87.4965 84.3237 86.3562 88.3902C84.8358 93.7506 84.0755 99.2959 83.8855 104.841C83.6954 109.647 83.8855 114.638 85.4059 119.444C86.5463 122.586 88.6369 125.728 91.6778 127.207C94.7187 128.501 98.1397 128.686 101.371 128.316C108.213 127.392 114.675 124.989 121.137 123.14C124.748 122.216 128.359 121.477 132.16 121.477C144.704 121.477 152.496 134.416 148.315 146.061C145.274 154.748 137.101 161.772 128.739 165.654C119.426 169.905 108.973 172.678 98.5199 172.863ZM87.9634 45.9644C87.9644 45.9822 87.9653 46.0001 87.9785 46.1018C87.9916 46.2035 88.0169 46.3885 88.052 46.5555C88.0872 46.7224 88.1313 46.8656 88.1954 47.0217C88.2595 47.1778 88.3421 47.3425 88.4545 47.5067C88.567 47.671 88.7068 47.8298 88.7908 47.9209C88.9357 48.0781 89.0421 48.1536 89.1355 48.24C89.223 48.321 89.353 48.3889 89.4834 48.4612C89.6822 48.5715 89.8516 48.6363 89.9431 48.6793C89.9784 48.6959 90.1622 48.726 90.5021 48.7817L90.5168 48.7841C90.6982 48.8139 90.8984 48.8138 91.0767 48.8154C91.255 48.817 91.408 48.8123 91.5774 48.7943C91.7468 48.7763 91.928 48.7452 92.1879 48.6806C92.4479 48.6159 92.7813 48.5187 93.114 48.3943C93.4468 48.27 93.7689 48.1215 94.0297 47.9847C94.2906 47.8479 94.4804 47.7271 94.586 47.6608C94.756 47.5541 94.8496 47.4533 94.9178 47.3839C95.0134 47.2866 95.0473 47.2012 95.1303 47.0714C95.1972 46.9669 95.2993 46.7786 95.3564 46.6761C95.4402 46.5257 95.4886 46.4455 95.5382 46.3614C95.6343 46.1988 95.6056 46.1253 95.6252 46.0481C95.6448 45.9713 95.6441 45.8943 95.6602 45.7375C95.6678 45.6629 95.6435 45.5792 95.6411 45.5044C95.6386 45.428 95.6454 45.3329 95.6322 45.2449C95.6121 45.1112 95.5931 45.0144 95.5513 44.8563C95.5418 44.8201 95.5404 44.7987 95.4957 44.6463C95.451 44.4938 95.3636 44.2107 95.3042 44.0401C95.2262 43.8163 95.1559 43.7302 95.0882 43.6513C94.9619 43.5041 94.893 43.4731 94.8214 43.4115C94.7431 43.3443 94.6599 43.2663 94.441 43.1288C94.2811 43.0283 94.0999 42.9382 93.9772 42.8751C93.7606 42.7636 93.6515 42.7645 93.503 42.7259C93.3874 42.6958 93.1828 42.6611 93.0123 42.6404C92.8418 42.6197 92.7096 42.6183 92.6062 42.6134C92.5028 42.6085 92.432 42.6001 92.2702 42.6015C92.1084 42.6029 91.8576 42.6144 91.7091 42.6241C91.5222 42.6363 91.4429 42.6535 91.2027 42.7163C91.0005 42.7691 90.6417 42.8871 90.4398 42.9516C90.1499 43.0442 90.0321 43.1053 89.908 43.1655C89.8518 43.1927 89.7801 43.2412 89.6579 43.3189C89.582 43.3671 89.4721 43.426 89.3447 43.5199C89.0622 43.7281 88.9133 43.8829 88.8854 43.9112C88.7995 43.9983 88.6771 44.1423 88.6252 44.2272C88.5837 44.295 88.5352 44.3525 88.4895 44.4333C88.4009 44.5897 88.3299 44.7131 88.3067 44.7638C88.2463 44.8953 88.1815 45.0349 88.1497 45.1321C88.0665 45.3864 88.0569 45.4636 88.0387 45.5242C87.9921 45.6657 87.9497 45.8164 87.9634 45.9644ZM153.963 132.601C157.817 95.1229 180.938 27.6641 219.472 31.4118C258.004 35.1623 273.421 87.6285 277.274 106.367C281.128 125.104 288.832 147.588 277.274 158.835C265.715 170.081 247.259 165.725 242.593 158.835C235.297 148.053 234.907 147.608 234.886 147.592H196.351C196.351 155.087 193.266 170.076 180.937 170.078C165.523 170.078 150.109 170.078 153.963 132.601ZM223.326 76.231C206.199 71.8364 202.56 95.7857 198.278 113.364H236.813C235.386 98.7155 229.972 77.9364 223.326 76.231ZM213.964 42.3582C213.966 42.376 213.967 42.3939 213.986 42.4949C214.004 42.5959 214.038 42.7795 214.081 42.9446C214.124 43.1098 214.175 43.2508 214.247 43.4038C214.318 43.5568 214.409 43.7175 214.529 43.8764C214.649 44.0353 214.797 44.1876 214.885 44.2747C215.038 44.425 215.147 44.4956 215.245 44.5777C215.336 44.6546 215.469 44.7164 215.603 44.7827C215.807 44.8838 215.979 44.9407 216.073 44.9794C216.109 44.9944 216.294 45.016 216.636 45.0561L216.651 45.0578C216.834 45.0792 217.034 45.07 217.212 45.0634C217.39 45.0568 217.543 45.0451 217.711 45.0194C217.879 44.9937 218.059 44.9543 218.315 44.8778C218.572 44.8013 218.9 44.6889 219.226 44.5494C219.553 44.41 219.867 44.2469 220.121 44.0983C220.375 43.9496 220.559 43.8203 220.661 43.7493C220.826 43.6349 220.914 43.5299 220.979 43.4574C221.07 43.3559 221.1 43.269 221.176 43.1356C221.238 43.0281 221.331 42.8353 221.383 42.7303C221.46 42.5762 221.504 42.4939 221.549 42.4077C221.638 42.2408 221.605 42.1687 221.621 42.0907C221.637 42.0131 221.633 41.9362 221.641 41.7788C221.645 41.704 221.617 41.6215 221.611 41.5468C221.605 41.4707 221.607 41.3753 221.589 41.2881C221.563 41.1554 221.539 41.0596 221.49 40.9036C221.478 40.8679 221.476 40.8466 221.424 40.6964C221.372 40.5461 221.271 40.2674 221.203 40.0996C221.114 39.8797 221.04 39.7969 220.969 39.7212C220.835 39.58 220.765 39.5521 220.69 39.4939C220.609 39.4303 220.522 39.3562 220.297 39.2289C220.132 39.1359 219.947 39.0542 219.821 38.9968C219.6 38.8954 219.491 38.9013 219.34 38.8695C219.223 38.8448 219.017 38.8194 218.846 38.8065C218.675 38.7937 218.543 38.7984 218.439 38.7982C218.336 38.798 218.264 38.7929 218.103 38.8017C217.941 38.8105 217.691 38.8335 217.544 38.85C217.357 38.8708 217.279 38.8916 217.042 38.9653C216.843 39.0273 216.49 39.1617 216.292 39.2353C216.006 39.3411 215.892 39.4075 215.771 39.4733C215.716 39.5031 215.647 39.5549 215.528 39.6381C215.455 39.6897 215.348 39.7536 215.225 39.8532C214.953 40.0741 214.812 40.2356 214.785 40.2651C214.704 40.3561 214.588 40.5055 214.541 40.5927C214.503 40.6623 214.457 40.722 214.415 40.8048C214.334 40.965 214.269 41.0916 214.249 41.1433C214.195 41.2774 214.137 41.4199 214.11 41.5183C214.039 41.7762 214.033 41.8538 214.018 41.9151C213.978 42.0586 213.943 42.2111 213.964 42.3582ZM338.33 136.464C338.33 147.708 335.247 170.194 322.916 170.194C307.502 170.194 301.432 162.405 295.942 113.978C292.088 79.9847 295.941 59.9967 295.941 57.4982C295.941 50.0027 299.795 34.5256 315.209 31.5275C334.477 27.7797 342.184 65.2572 342.184 65.2572C349.891 57.7617 367.617 42.0212 376.865 39.023C388.426 35.2753 419.253 39.023 403.84 69.005C391.508 92.9905 373.012 101.485 365.305 102.735C365.305 102.735 376.865 113.978 396.133 136.464C415.4 158.951 387.426 178.463 373.012 166.446C358.597 154.43 342.184 140.212 338.33 136.464ZM313.768 45.8812C313.779 45.8956 313.79 45.9099 313.859 45.9872C313.929 46.0645 314.056 46.2043 314.181 46.3239C314.305 46.4434 314.424 46.5383 314.567 46.6331C314.71 46.728 314.872 46.8199 315.06 46.8952C315.248 46.9706 315.455 47.0266 315.577 47.0567C315.787 47.1085 315.919 47.1135 316.046 47.1347C316.165 47.1544 316.312 47.1402 316.461 47.1296C316.69 47.1134 316.867 47.0753 316.968 47.0613C317.007 47.0559 317.177 46.9813 317.491 46.8432L317.504 46.8372C317.672 46.7635 317.838 46.6549 317.987 46.5595C318.136 46.4641 318.26 46.3773 318.391 46.2705C318.521 46.1637 318.653 46.0397 318.832 45.845C319.011 45.6503 319.232 45.3888 319.437 45.1051C319.642 44.8215 319.824 44.5236 319.962 44.2685C320.1 44.0135 320.189 43.8103 320.238 43.698C320.318 43.5173 320.338 43.3828 320.355 43.2882C320.378 43.1556 320.358 43.0663 320.352 42.9135C320.348 42.7905 320.324 42.5789 320.313 42.4628C320.296 42.2925 320.291 42.1997 320.284 42.1029C320.27 41.9159 320.204 41.8704 320.176 41.7957C320.148 41.7213 320.104 41.6577 320.027 41.5189C319.991 41.4528 319.923 41.3965 319.878 41.3357C319.832 41.2737 319.783 41.191 319.721 41.1252C319.628 41.0251 319.557 40.955 319.432 40.8464C319.403 40.8216 319.389 40.8046 319.265 40.7023C319.14 40.6 318.906 40.4123 318.758 40.3029C318.565 40.1595 318.458 40.1261 318.356 40.0973C318.167 40.0437 318.092 40.0552 317.997 40.043C317.894 40.0296 317.78 40.01 317.519 40.0146C317.329 40.0179 317.127 40.0414 316.989 40.0555C316.745 40.0804 316.655 40.1403 316.51 40.1888C316.397 40.2265 316.207 40.3087 316.053 40.384C315.9 40.4592 315.789 40.5298 315.701 40.5818C315.612 40.6338 315.549 40.6652 315.415 40.7541C315.282 40.843 315.08 40.9886 314.962 41.0771C314.814 41.1887 314.758 41.246 314.595 41.4283C314.457 41.5818 314.227 41.8744 314.096 42.0373C313.909 42.2714 313.846 42.386 313.778 42.5033C313.747 42.5564 313.715 42.6356 313.658 42.7663C313.623 42.8475 313.565 42.956 313.513 43.103C313.398 43.4291 313.363 43.6383 313.356 43.6769C313.335 43.7958 313.316 43.9817 313.321 44.0803C313.326 44.1591 313.319 44.2332 313.327 44.325C313.343 44.5028 313.355 44.6438 313.365 44.6985C313.39 44.8404 313.416 44.9915 313.446 45.0893C313.522 45.3456 313.559 45.4148 313.578 45.475C313.621 45.6177 313.672 45.7658 313.768 45.8812ZM503.642 165.473C491.288 172.867 475.704 175.454 461.259 174.53C452.327 173.976 443.204 171.942 435.602 167.506C431.991 165.473 428.76 162.885 426.479 159.558C423.248 155.122 421.538 149.946 420.017 144.771C417.736 137.007 416.406 129.059 416.026 121.111C415.266 101.887 414.315 82.4789 419.067 63.8098C420.587 56.9707 423.248 50.1315 427.809 44.7711C430.28 41.6288 433.701 39.041 437.502 37.3774C448.146 32.9412 460.119 31.2777 471.523 31.2777C483.306 31.0928 495.47 32.7564 506.113 37.932C521.317 45.1408 519.037 66.0279 502.882 71.2035C495.47 73.6065 487.297 71.758 479.315 71.758C475.894 71.5732 472.093 71.758 469.052 73.4216C467.531 74.3458 466.391 76.1942 466.201 78.0427C465.821 79.8911 465.631 83.0334 467.531 83.5879C468.862 84.1424 474.373 83.9576 475.704 83.9576C482.926 83.7728 490.148 83.2182 497.18 84.5121C500.981 85.2515 505.163 86.7302 507.823 89.6877C511.625 94.1239 510.864 104.66 508.204 109.835C506.683 112.423 504.022 114.457 501.171 115.566C492.619 118.708 482.926 115.935 473.803 115.75C470.382 115.75 466.581 115.75 463.92 117.784C461.45 119.632 460.499 124.992 461.259 127.765C462.78 134.419 472.283 133.126 479.125 132.016C484.066 131.092 501.552 128.874 506.303 130.353C512.765 132.571 516.756 142.183 516.566 148.837C516.566 151.425 515.806 154.382 514.095 156.416C511.435 160.112 507.633 163.07 503.642 165.473ZM447.046 43.4506C447.047 43.4684 447.047 43.4863 447.059 43.5882C447.07 43.6902 447.092 43.8756 447.124 44.0431C447.156 44.2106 447.198 44.3545 447.259 44.5117C447.32 44.6688 447.4 44.8349 447.51 45.001C447.619 45.1672 447.756 45.3284 447.838 45.4208C447.98 45.5804 448.085 45.6577 448.177 45.7458C448.263 45.8282 448.392 45.8983 448.521 45.9728C448.718 46.0865 448.886 46.1541 448.977 46.1986C449.012 46.2158 449.195 46.2491 449.534 46.3105L449.549 46.3132C449.729 46.346 449.93 46.3493 450.108 46.3539C450.286 46.3585 450.439 46.3564 450.609 46.3413C450.779 46.3262 450.96 46.2982 451.221 46.238C451.483 46.1778 451.818 46.0862 452.152 45.9675C452.487 45.8488 452.812 45.7058 453.075 45.5734C453.339 45.441 453.531 45.3235 453.637 45.259C453.809 45.1553 453.905 45.056 453.974 44.9877C454.071 44.8921 454.107 44.8073 454.192 44.6789C454.261 44.5756 454.366 44.389 454.425 44.2875C454.512 44.1385 454.562 44.0592 454.613 43.976C454.712 43.815 454.684 43.7411 454.705 43.6642C454.726 43.5877 454.727 43.5107 454.746 43.3542C454.755 43.2797 454.732 43.1956 454.731 43.1208C454.73 43.0444 454.738 42.9494 454.727 42.8612C454.709 42.7272 454.692 42.63 454.653 42.4713C454.644 42.4349 454.643 42.4136 454.601 42.2604C454.559 42.1072 454.477 41.8226 454.42 41.651C454.346 41.426 454.278 41.3387 454.211 41.2586C454.088 41.1094 454.019 41.0771 453.949 41.0144C453.872 40.9458 453.79 40.8664 453.574 40.7252C453.416 40.6221 453.236 40.5289 453.114 40.4637C452.9 40.3486 452.791 40.3477 452.643 40.3065C452.528 40.2745 452.324 40.2363 452.154 40.2127C451.984 40.1891 451.852 40.1855 451.748 40.1788C451.645 40.1722 451.574 40.1626 451.413 40.1612C451.251 40.1599 451 40.1671 450.851 40.1743C450.664 40.1834 450.584 40.1992 450.343 40.2579C450.14 40.3072 449.779 40.4192 449.576 40.4802C449.285 40.5679 449.166 40.627 449.041 40.6851C448.984 40.7114 448.911 40.7586 448.788 40.8342C448.711 40.8811 448.6 40.9382 448.471 41.0299C448.185 41.2333 448.033 41.3855 448.005 41.4133C447.917 41.499 447.792 41.6409 447.739 41.7249C447.696 41.7919 447.647 41.8487 447.6 41.9287C447.508 42.0835 447.435 42.2057 447.411 42.256C447.348 42.3865 447.281 42.525 447.247 42.6216C447.16 42.8744 447.149 42.9515 447.129 43.0117C447.08 43.1524 447.035 43.3024 447.046 43.4506ZM582.404 163.204C577.843 174.85 563.399 179.471 551.995 173.925C549.144 172.631 546.484 170.598 544.773 168.01C543.443 166.162 542.683 163.944 542.302 161.911C541.352 158.399 540.972 155.071 540.592 151.559C537.551 126.051 540.402 100.358 539.832 74.6652C539.832 73.3713 538.311 73.9258 537.171 74.2955C533.75 74.8501 529.949 72.8168 527.668 70.4139C521.776 63.5747 521.966 50.4509 527.478 43.4269C532.229 36.9575 553.136 33.4455 561.308 32.5213C579.934 30.488 599.32 30.6729 617.565 34.9242C627.828 37.512 638.091 42.3179 645.693 49.7116C651.775 55.6265 656.527 63.7596 658.237 72.0774C661.278 85.7557 656.907 100.173 646.644 110.34C641.702 115.146 635.43 118.842 628.778 121.245C635.24 126.791 641.512 132.89 645.883 140.099C648.354 144.351 650.445 149.156 651.205 153.962C651.775 157.844 651.395 162.095 649.875 165.607C647.404 170.598 642.652 173.74 636.951 173.925C632.009 174.11 627.068 171.707 622.887 169.119C608.822 160.062 598.179 146.569 587.536 133.815C586.776 143.796 586.016 153.962 582.404 163.204ZM587.346 87.789C590.197 93.5191 597.609 94.6281 602.36 90.3768C609.963 83.5376 606.542 70.9684 596.089 70.229C592.287 69.8593 588.866 71.5229 587.156 74.4804C584.875 78.3621 585.255 83.7225 587.346 87.789ZM579.955 44.0072C579.977 44.0106 579.998 44.014 580.122 44.0286C580.246 44.0432 580.471 44.0688 580.68 44.084C580.888 44.0991 581.071 44.103 581.277 44.0971C581.483 44.0911 581.705 44.0751 581.938 44.0397C582.171 44.0043 582.407 43.95 582.544 43.9164C582.78 43.8585 582.906 43.8069 583.041 43.7662C583.167 43.7281 583.293 43.6594 583.424 43.5917C583.625 43.4883 583.761 43.3936 583.844 43.3443C583.877 43.3252 583.978 43.2133 584.165 43.0065L584.173 42.9975C584.272 42.8871 584.344 42.7578 584.41 42.643C584.475 42.5282 584.525 42.4284 584.564 42.3149C584.604 42.2015 584.632 42.0774 584.65 41.8949C584.667 41.7123 584.672 41.475 584.646 41.232C584.619 40.9889 584.561 40.7472 584.494 40.5478C584.427 40.3483 584.353 40.1983 584.313 40.1151C584.249 39.9812 584.165 39.8979 584.108 39.8381C584.028 39.7543 583.94 39.713 583.818 39.63C583.719 39.5631 583.535 39.4545 583.436 39.3944C583.289 39.3062 583.213 39.2568 583.132 39.2056C582.976 39.1067 582.88 39.1086 582.796 39.0784C582.713 39.0484 582.623 39.0313 582.445 38.9854C582.36 38.9636 582.254 38.9603 582.165 38.9449C582.075 38.9292 581.966 38.9032 581.858 38.8918C581.694 38.8745 581.574 38.8648 581.374 38.856C581.328 38.8539 581.302 38.85 581.108 38.8443C580.913 38.8386 580.55 38.8308 580.329 38.8305C580.039 38.8301 579.913 38.856 579.796 38.8819C579.579 38.9301 579.518 38.9675 579.42 38.9998C579.313 39.0351 579.192 39.0711 578.952 39.1813C578.778 39.2618 578.607 39.3584 578.489 39.4233C578.281 39.5379 578.243 39.6086 578.145 39.6958C578.068 39.7636 577.954 39.8878 577.869 39.9932C577.784 40.0987 577.735 40.1837 577.692 40.2494C577.649 40.315 577.614 40.3588 577.558 40.4636C577.501 40.5685 577.425 40.733 577.383 40.8311C577.331 40.9546 577.323 41.0097 577.31 41.179C577.299 41.3215 577.309 41.58 577.313 41.725C577.317 41.9332 577.347 42.0231 577.373 42.1169C577.385 42.1594 577.416 42.2167 577.463 42.3132C577.492 42.3731 577.522 42.4575 577.586 42.561C577.729 42.7907 577.857 42.9219 577.88 42.9463C577.952 43.0216 578.076 43.1333 578.157 43.186C578.222 43.2282 578.272 43.2725 578.35 43.3204C578.502 43.413 578.621 43.4868 578.672 43.5133C578.804 43.5821 578.945 43.6557 579.047 43.6982C579.315 43.8096 579.402 43.8333 579.467 43.8588C579.618 43.922 579.775 43.973 579.937 44.0039L579.955 44.0072Z" stroke="white" stroke-width="23.1209" stroke-linecap="round"/>
<path d="M500.178 98.7248C503.261 92.7284 515.839 70.7087 519.445 64.9951H557.978V128.707C557.978 132.455 511.738 151.193 500.178 151.193C488.618 151.193 496.324 106.22 500.178 98.7248Z" fill="white"/>
<path d="M230.436 102.461L218.876 79.9746L208.412 107.112L230.436 102.461Z" fill="white"/>
<path d="M419.252 79.9746L373.01 109.957L411.545 139.939C411.545 139.939 423.105 126.197 426.959 117.452L419.252 79.9746Z" fill="white"/>
<path d="M98.5198 172.861C87.8767 172.861 76.4732 170.088 67.3505 164.543C57.4675 158.443 49.6752 148.831 44.7337 138.48C38.4619 124.802 36.5613 108.721 38.4619 93.5637C40.3624 78.2218 46.4442 62.5103 57.0874 51.0501C66.9704 40.1444 82.365 32.7507 97.1894 31.4569C109.733 30.3478 123.227 34.0446 133.68 40.6989C139.382 44.3958 144.894 49.941 146.604 56.2257C148.505 63.4345 145.723 71.9016 139.382 77.2976C136.341 79.8854 132.16 81.1793 128.169 81.1793C120.186 80.9945 112.584 77.2976 105.362 73.9705C103.081 73.0463 100.42 72.4917 97.9497 73.0463C95.4789 73.416 93.3883 75.0795 91.6778 76.928C89.017 80.2551 87.4965 84.3216 86.3562 88.3881C84.8357 93.7486 84.0755 99.2938 83.8855 104.839C83.6954 109.645 83.8855 114.636 85.4059 119.442C86.5463 122.584 88.6369 125.726 91.6778 127.205C94.7187 128.499 98.1397 128.684 101.371 128.314C108.213 127.39 114.675 124.987 121.137 123.138C124.748 122.214 128.359 121.475 132.16 121.475C144.704 121.475 152.496 134.414 148.315 146.059C145.274 154.746 137.101 161.77 128.739 165.652C119.426 169.903 108.973 172.676 98.5198 172.861Z" fill="#FF3A4E"/>
<path d="M87.9829 46.1042C87.9698 46.0025 87.9688 45.9846 87.9678 45.9668C87.9541 45.8186 87.9955 45.6714 88.0418 45.5307L88.0431 45.5266C88.0613 45.466 88.0709 45.3888 88.1541 45.1345C88.1859 45.0374 88.2508 44.8977 88.3111 44.7662C88.3343 44.7155 88.4054 44.5921 88.4939 44.4357C88.5396 44.3549 88.5881 44.2974 88.6296 44.2296C88.6815 44.1447 88.8039 44.0007 88.8899 43.9136C88.9178 43.8853 89.0666 43.7305 89.3491 43.5223C89.4765 43.4284 89.5865 43.3695 89.6623 43.3213C89.7845 43.2436 89.8562 43.1951 89.9124 43.1679C90.0365 43.1077 90.1544 43.0466 90.4443 42.954C90.6461 42.8895 91.0049 42.7715 91.2071 42.7187C91.4473 42.656 91.5266 42.6387 91.7135 42.6265C91.862 42.6168 92.1128 42.6053 92.2746 42.6039C92.4365 42.6025 92.5072 42.6109 92.6106 42.6158C92.714 42.6207 92.8462 42.6221 93.0167 42.6428C93.1872 42.6635 93.3919 42.6983 93.5074 42.7283C93.656 42.7669 93.765 42.766 93.9817 42.8775C94.1043 42.9406 94.2855 43.0307 94.4454 43.1312C94.6644 43.2687 94.7475 43.3467 94.8258 43.4139C94.8974 43.4755 94.9663 43.5066 95.0926 43.6537C95.1604 43.7326 95.2306 43.8187 95.3086 44.0425C95.3681 44.2131 95.4554 44.4962 95.5001 44.6487C95.5448 44.8011 95.5462 44.8225 95.5557 44.8587C95.5976 45.0168 95.6165 45.1136 95.6366 45.2473C95.6499 45.3353 95.643 45.4304 95.6455 45.5068C95.648 45.5816 95.6722 45.6653 95.6646 45.7399C95.6486 45.8967 95.6492 45.9737 95.6297 46.0505C95.61 46.1277 95.6388 46.2012 95.5427 46.3638C95.493 46.4479 95.4446 46.5281 95.3608 46.6785C95.3037 46.781 95.2016 46.9693 95.1347 47.0738C95.0517 47.2036 95.0179 47.289 94.9222 47.3863C94.854 47.4557 94.7604 47.5565 94.5905 47.6632C94.4848 47.7295 94.295 47.8503 94.0342 47.9871C93.7733 48.124 93.4512 48.2724 93.1185 48.3967C92.7857 48.5211 92.4524 48.6183 92.1924 48.683C91.9324 48.7477 91.7512 48.7787 91.5818 48.7967C91.4124 48.8147 91.2595 48.8194 91.0812 48.8178C90.9028 48.8162 90.7026 48.8163 90.5212 48.7865L90.5065 48.7841C90.1666 48.7284 89.9828 48.6983 89.9475 48.6817C89.8561 48.6387 89.6866 48.574 89.4878 48.4636C89.3575 48.3913 89.2274 48.3234 89.1399 48.2425C89.0465 48.156 88.9402 48.0805 88.7952 47.9233C88.7113 47.8323 88.5714 47.6734 88.4589 47.5091C88.3465 47.3449 88.2639 47.1802 88.1998 47.0241C88.1358 46.868 88.0916 46.7248 88.0565 46.5579C88.0213 46.391 87.996 46.2059 87.9829 46.1042Z" fill="white"/>
<path d="M50.165 86.8913C50.4658 74.5329 68.6618 52.412 80.9929 49.4138" stroke="white" stroke-width="5.39488" stroke-linecap="round"/>
<path d="M153.958 132.6C157.812 95.1228 180.932 27.6641 219.467 31.4119C258.001 35.1598 273.415 87.6243 277.269 106.363C281.122 125.102 288.829 147.585 277.269 158.832C265.708 170.078 247.251 165.723 242.588 158.832C235.148 147.837 234.89 147.595 234.881 147.592H196.347C196.347 155.087 193.263 170.078 180.933 170.078C165.519 170.078 150.105 170.078 153.958 132.6ZM223.318 76.2244C206.192 71.8298 202.548 95.7785 198.267 113.357H236.802C235.375 98.7083 229.964 77.9297 223.318 76.2244Z" fill="#FF5F25"/>
<path d="M213.988 42.4827C213.97 42.3817 213.968 42.3639 213.967 42.3461C213.946 42.1987 213.98 42.0498 214.019 41.907L214.02 41.9029C214.036 41.8416 214.042 41.764 214.112 41.5062C214.139 41.4077 214.197 41.2652 214.251 41.1311C214.272 41.0794 214.337 40.9528 214.418 40.7926C214.46 40.7098 214.505 40.6501 214.543 40.5805C214.591 40.4933 214.706 40.3439 214.788 40.2529C214.815 40.2234 214.956 40.062 215.228 39.841C215.351 39.7414 215.457 39.6775 215.531 39.6259C215.649 39.5427 215.719 39.491 215.773 39.4612C215.894 39.3953 216.009 39.3289 216.294 39.2231C216.493 39.1495 216.845 39.0151 217.045 38.9531C217.282 38.8794 217.36 38.8586 217.546 38.8378C217.694 38.8213 217.944 38.7983 218.106 38.7895C218.267 38.7807 218.338 38.7859 218.442 38.786C218.545 38.7862 218.677 38.7815 218.849 38.7944C219.02 38.8072 219.226 38.8326 219.343 38.8573C219.493 38.8891 219.602 38.8832 219.824 38.9846C219.95 39.042 220.135 39.1237 220.299 39.2167C220.525 39.3441 220.612 39.4181 220.693 39.4817C220.768 39.5399 220.838 39.5678 220.971 39.709C221.043 39.7847 221.117 39.8675 221.206 40.0874C221.274 40.2552 221.375 40.534 221.427 40.6842C221.479 40.8344 221.481 40.8557 221.492 40.8914C221.542 41.0474 221.565 41.1432 221.592 41.2759C221.609 41.3632 221.607 41.4585 221.613 41.5347C221.619 41.6093 221.648 41.6918 221.644 41.7666C221.635 41.924 221.64 42.0009 221.624 42.0785C221.608 42.1566 221.64 42.2287 221.552 42.3955C221.507 42.4817 221.462 42.5641 221.386 42.7181C221.334 42.8232 221.241 43.0159 221.179 43.1234C221.102 43.2568 221.073 43.3437 220.982 43.4452C220.917 43.5177 220.829 43.6227 220.664 43.7371C220.562 43.8082 220.378 43.9375 220.124 44.0861C219.87 44.2348 219.556 44.3978 219.229 44.5373C218.903 44.6767 218.575 44.7891 218.318 44.8656C218.061 44.9421 217.882 44.9815 217.714 45.0072C217.545 45.0329 217.393 45.0446 217.215 45.0512C217.036 45.0578 216.836 45.0671 216.654 45.0457L216.639 45.0439C216.297 45.0039 216.112 44.9822 216.076 44.9672C215.982 44.9285 215.81 44.8716 215.606 44.7705C215.472 44.7042 215.339 44.6424 215.248 44.5655C215.15 44.4834 215.04 44.4129 214.888 44.2625C214.8 44.1754 214.652 44.0231 214.532 43.8642C214.412 43.7053 214.321 43.5446 214.249 43.3916C214.178 43.2386 214.127 43.0976 214.084 42.9324C214.041 42.7673 214.006 42.5837 213.988 42.4827Z" fill="white"/>
<path d="M178.195 84.9885C181.489 73.3764 195.797 50.2085 207.173 46.1397" stroke="white" stroke-width="5.39488" stroke-linecap="round"/>
<path d="M322.92 170.192C335.251 170.192 338.334 147.705 338.334 136.462C342.187 140.21 358.6 154.428 373.015 166.444C387.43 178.461 415.403 158.949 396.136 136.462C376.869 113.976 365.308 102.733 365.308 102.733C373.015 101.483 391.512 92.9885 403.843 69.0029C419.257 39.021 388.429 35.2732 376.869 39.021C367.62 42.0192 349.894 57.7596 342.187 65.2551C342.187 65.2551 334.48 27.7777 315.213 31.5254C299.799 34.5236 295.945 50.0007 295.945 57.4962C295.945 59.9947 292.091 79.9826 295.945 113.976C301.436 162.403 307.506 170.192 322.92 170.192Z" fill="#F8E72E"/>
<path d="M313.858 45.9893C313.789 45.912 313.778 45.8977 313.767 45.8834C313.671 45.768 313.621 45.6228 313.578 45.4799L313.577 45.4771C313.558 45.417 313.521 45.3477 313.445 45.0915C313.415 44.9936 313.389 44.8425 313.364 44.7006C313.354 44.6459 313.342 44.505 313.326 44.3272C313.318 44.2353 313.325 44.1612 313.32 44.0825C313.315 43.9838 313.334 43.798 313.355 43.679C313.362 43.6404 313.397 43.4312 313.512 43.1051C313.564 42.9581 313.622 42.8496 313.657 42.7684C313.714 42.6377 313.746 42.5585 313.777 42.5054C313.845 42.3882 313.908 42.2735 314.095 42.0395C314.226 41.8765 314.456 41.5839 314.594 41.4304C314.757 41.2481 314.813 41.1908 314.961 41.0793C315.079 40.9907 315.281 40.8452 315.414 40.7562C315.548 40.6673 315.611 40.6359 315.7 40.5839C315.788 40.5319 315.899 40.4614 316.052 40.3861C316.206 40.3108 316.396 40.2287 316.509 40.191C316.654 40.1425 316.744 40.0826 316.988 40.0576C317.126 40.0435 317.328 40.02 317.518 40.0167C317.779 40.0121 317.893 40.0318 317.996 40.0451C318.091 40.0574 318.166 40.0458 318.355 40.0995C318.457 40.1282 318.564 40.1616 318.757 40.3051C318.905 40.4145 319.139 40.6021 319.264 40.7044C319.388 40.8067 319.402 40.8237 319.431 40.8486C319.556 40.9571 319.627 41.0272 319.72 41.1273C319.782 41.1931 319.831 41.2758 319.877 41.3379C319.922 41.3986 319.99 41.455 320.026 41.521C320.103 41.6599 320.147 41.7234 320.175 41.7978C320.203 41.8726 320.269 41.918 320.283 42.1051C320.29 42.2018 320.295 42.2946 320.312 42.4649C320.323 42.581 320.347 42.7927 320.351 42.9157C320.357 43.0684 320.377 43.1577 320.354 43.2903C320.337 43.3849 320.317 43.5194 320.237 43.7001C320.188 43.8124 320.099 44.0156 319.961 44.2707C319.823 44.5257 319.641 44.8236 319.436 45.1073C319.231 45.391 319.01 45.6525 318.831 45.8471C318.652 46.0418 318.52 46.1659 318.39 46.2726C318.259 46.3794 318.135 46.4663 317.986 46.5616C317.837 46.657 317.671 46.7657 317.503 46.8394L317.49 46.8453C317.176 46.9834 317.006 47.0581 316.967 47.0635C316.866 47.0774 316.689 47.1155 316.46 47.1317C316.311 47.1424 316.164 47.1566 316.045 47.1368C315.918 47.1157 315.786 47.1107 315.576 47.0588C315.454 47.0288 315.247 46.9727 315.059 46.8974C314.872 46.822 314.709 46.7301 314.566 46.6353C314.423 46.5404 314.304 46.4455 314.18 46.326C314.055 46.2065 313.928 46.0666 313.858 45.9893Z" fill="white"/>
<path d="M305.868 100.355C303.648 87.4859 303.648 61.2516 309.971 52.5267" stroke="white" stroke-width="5.39488" stroke-linecap="round"/>
<path d="M503.645 165.471C491.292 172.864 475.707 175.452 461.263 174.528C452.33 173.974 443.207 171.94 435.605 167.504C431.994 165.471 428.763 162.883 426.482 159.556C423.251 155.12 421.541 149.944 420.02 144.769C417.74 137.005 416.409 129.057 416.029 121.109C415.269 101.885 414.319 82.4768 419.07 63.8078C420.59 56.9686 423.251 50.1295 427.813 44.7691C430.283 41.6268 433.704 39.039 437.506 37.3754C448.149 32.9392 460.122 31.2756 471.526 31.2756C483.309 31.0908 495.473 32.7544 506.116 37.9299C521.321 45.1388 519.04 66.0259 502.885 71.2015C495.473 73.6044 487.3 71.756 479.318 71.756C475.897 71.5712 472.096 71.756 469.055 73.4196C467.535 74.3438 466.394 76.1922 466.204 78.0406C465.824 79.889 465.634 83.0313 467.535 83.5859C468.865 84.1404 474.377 83.9556 475.707 83.9556C482.929 83.7707 490.151 83.2162 497.183 84.5101C500.985 85.2495 505.166 86.7282 507.827 89.6857C511.628 94.1219 510.867 104.658 508.207 109.833C506.686 112.421 504.025 114.454 501.175 115.564C492.622 118.706 482.929 115.933 473.806 115.748C470.385 115.748 466.584 115.748 463.923 117.782C461.453 119.63 460.502 124.99 461.263 127.763C462.783 134.417 472.286 133.123 479.128 132.014C484.069 131.09 501.555 128.872 506.306 130.351C512.768 132.569 516.759 142.181 516.569 148.835C516.569 151.423 515.809 154.38 514.098 156.414C511.438 160.11 507.637 163.068 503.645 165.471Z" fill="#69EF4E"/>
<path d="M447.068 43.5945C447.056 43.4926 447.056 43.4747 447.055 43.4568C447.044 43.3085 447.088 43.162 447.137 43.0221L447.138 43.018C447.157 42.9577 447.168 42.8807 447.256 42.6278C447.29 42.5313 447.357 42.3927 447.42 42.2622C447.444 42.212 447.517 42.0898 447.608 41.9349C447.656 41.8549 447.705 41.7982 447.748 41.7311C447.801 41.6471 447.926 41.5053 448.014 41.4196C448.042 41.3918 448.194 41.2396 448.48 41.0362C448.609 40.9444 448.72 40.8874 448.797 40.8405C448.92 40.7649 448.993 40.7176 449.05 40.6913C449.175 40.6333 449.294 40.5741 449.585 40.4865C449.788 40.4255 450.149 40.3135 450.352 40.2641C450.593 40.2055 450.673 40.1896 450.86 40.1806C451.009 40.1734 451.26 40.1661 451.421 40.1675C451.583 40.1688 451.654 40.1784 451.757 40.1851C451.86 40.1917 451.993 40.1954 452.163 40.2189C452.333 40.2425 452.537 40.2808 452.652 40.3128C452.8 40.3539 452.909 40.3549 453.123 40.47C453.245 40.5352 453.424 40.6283 453.582 40.7315C453.799 40.8727 453.881 40.9521 453.958 41.0206C454.028 41.0834 454.097 41.1156 454.22 41.2649C454.287 41.3449 454.355 41.4322 454.429 41.6573C454.486 41.8289 454.568 42.1134 454.61 42.2666C454.652 42.4198 454.653 42.4412 454.662 42.4775C454.701 42.6363 454.718 42.7334 454.736 42.8675C454.747 42.9556 454.739 43.0507 454.74 43.1271C454.741 43.2019 454.764 43.286 454.755 43.3604C454.736 43.517 454.735 43.5939 454.714 43.6704C454.693 43.7473 454.721 43.8213 454.622 43.9822C454.57 44.0655 454.521 44.1448 454.434 44.2938C454.375 44.3953 454.27 44.5818 454.201 44.6852C454.116 44.8136 454.08 44.8984 453.983 44.994C453.913 45.0623 453.818 45.1615 453.646 45.2653C453.539 45.3298 453.347 45.4473 453.084 45.5797C452.821 45.7121 452.496 45.8551 452.161 45.9737C451.826 46.0924 451.491 46.184 451.23 46.2443C450.969 46.3045 450.787 46.3325 450.618 46.3476C450.448 46.3627 450.295 46.3648 450.117 46.3602C449.939 46.3556 449.738 46.3523 449.557 46.3195L449.543 46.3168C449.204 46.2553 449.021 46.2221 448.986 46.2049C448.895 46.1604 448.727 46.0928 448.53 45.9791C448.401 45.9045 448.272 45.8345 448.186 45.752C448.094 45.664 447.989 45.5867 447.847 45.4271C447.765 45.3346 447.628 45.1734 447.518 45.0073C447.409 44.8412 447.329 44.6751 447.268 44.5179C447.207 44.3608 447.165 44.2168 447.133 44.0493C447.101 43.8819 447.079 43.6964 447.068 43.5945Z" fill="white"/>
<path d="M441.378 45.0167C438.821 44.7747 432.641 47.2021 428.378 58.848C424.115 70.4939 422.303 80.8656 421.93 84.5958" stroke="white" stroke-width="5.39488" stroke-linecap="round"/>
<path d="M582.404 163.202C577.842 174.847 563.398 179.469 551.994 173.923C549.144 172.629 546.483 170.596 544.772 168.008C543.442 166.16 542.682 163.942 542.302 161.909C541.351 158.397 540.971 155.069 540.591 151.557C537.55 126.049 540.401 100.356 539.831 74.6632C539.831 73.3693 538.31 73.9238 537.17 74.2935C533.749 74.848 529.948 72.8148 527.667 70.4118C521.775 63.5727 521.966 50.4489 527.477 43.4249C532.229 36.9554 553.135 33.4435 561.307 32.5192C579.933 30.486 599.319 30.6708 617.564 34.9222C627.827 37.51 638.09 42.3159 645.693 49.7095C651.774 55.6245 656.526 63.7575 658.236 72.0754C661.277 85.7537 656.906 100.171 646.643 110.338C641.701 115.144 635.43 118.84 628.778 121.243C635.239 126.789 641.511 132.888 645.883 140.097C648.353 144.349 650.444 149.154 651.204 153.96C651.774 157.842 651.394 162.093 649.874 165.605C647.403 170.596 642.652 173.738 636.95 173.923C632.008 174.108 627.067 171.705 622.886 169.117C608.822 160.06 598.178 146.567 587.535 133.813C586.775 143.794 586.015 153.96 582.404 163.202ZM587.345 87.7869C590.196 93.517 597.608 94.6261 602.36 90.3747C609.962 83.5356 606.541 70.9663 596.088 70.227C592.287 69.8573 588.866 71.5209 587.155 74.4783C584.874 78.36 585.254 83.7204 587.345 87.7869Z" fill="#5AC0F3"/>
<path d="M580.125 44.0204C580.001 44.0059 579.98 44.0024 579.958 43.999C579.955 43.9985 579.949 43.9974 579.94 43.9956C579.778 43.9647 579.621 43.9138 579.47 43.8506C579.405 43.8251 579.318 43.8014 579.05 43.69C578.948 43.6475 578.807 43.5739 578.675 43.5052C578.624 43.4787 578.505 43.4048 578.353 43.3122C578.275 43.2643 578.225 43.22 578.16 43.1778C578.079 43.1251 577.955 43.0134 577.883 42.9381C577.86 42.9137 577.732 42.7825 577.589 42.5528C577.525 42.4493 577.495 42.3649 577.466 42.305C577.419 42.2085 577.388 42.1512 577.376 42.1087C577.35 42.0149 577.32 41.925 577.316 41.7168C577.312 41.5719 577.303 41.3134 577.313 41.1708C577.326 41.0015 577.334 40.9464 577.386 40.8229C577.428 40.7248 577.505 40.5603 577.561 40.4554C577.617 40.3506 577.652 40.3069 577.695 40.2412C577.738 40.1755 577.787 40.0905 577.872 39.9851C577.957 39.8796 578.071 39.7554 578.148 39.6876C578.246 39.6004 578.284 39.5297 578.492 39.4151C578.61 39.3503 578.781 39.2536 578.956 39.1732C579.195 39.063 579.316 39.0269 579.423 38.9916C579.521 38.9593 579.582 38.9219 579.799 38.8737C579.916 38.8478 580.042 38.822 580.332 38.8223C580.553 38.8226 580.916 38.8304 581.111 38.8361C581.305 38.8418 581.331 38.8457 581.377 38.8478C581.577 38.8566 581.697 38.8663 581.861 38.8836C581.969 38.895 582.078 38.921 582.168 38.9367C582.257 38.9521 582.363 38.9554 582.448 38.9772C582.626 39.0231 582.716 39.0402 582.799 39.0702C582.883 39.1004 582.979 39.0985 583.135 39.1974C583.216 39.2486 583.293 39.298 583.439 39.3862C583.538 39.4463 583.722 39.5549 583.821 39.6218C583.943 39.7048 584.031 39.7461 584.111 39.8299C584.168 39.8897 584.252 39.973 584.317 40.1069C584.356 40.1901 584.43 40.3401 584.497 40.5396C584.564 40.739 584.622 40.9807 584.649 41.2238C584.675 41.4668 584.67 41.7041 584.653 41.8867C584.635 42.0692 584.607 42.1933 584.567 42.3067C584.528 42.4202 584.479 42.52 584.413 42.6348C584.347 42.7496 584.276 42.8789 584.176 42.9894L584.168 42.9983C583.981 43.2051 583.88 43.317 583.848 43.3361C583.765 43.3854 583.628 43.4801 583.428 43.5835C583.296 43.6513 583.17 43.7199 583.044 43.758C582.909 43.7987 582.783 43.8503 582.547 43.9082C582.41 43.9418 582.174 43.9961 581.941 44.0315C581.708 44.0669 581.486 44.0829 581.28 44.0889C581.074 44.0949 580.891 44.0909 580.683 44.0758C580.475 44.0606 580.249 44.035 580.125 44.0204Z" fill="white"/>
<path d="M541.569 59.3382C535.314 53.3598 541.57 42.7013 558.51 41.1815L567.384 41.0805" stroke="white" stroke-width="5.39488" stroke-linecap="round"/>
</g>
<defs>
<filter id="filter0_ddd_752_19189" x="0.126345" y="0.144807" width="696.694" height="220.233" filterUnits="userSpaceOnUse" color-interpolation-filters="sRGB">
<feFlood flood-opacity="0" result="BackgroundImageFix"/>
<feColorMatrix in="SourceAlpha" type="matrix" values="0 0 0 0 0 0 0 0 0 0 0 0 0 0 0 0 0 0 127 0" result="hardAlpha"/>
<feOffset/>
<feGaussianBlur stdDeviation="3.25899"/>
<feComposite in2="hardAlpha" operator="out"/>
<feColorMatrix type="matrix" values="0 0 0 0 0 0 0 0 0 0 0 0 0 0 0 0 0 0 0.08 0"/>
<feBlend mode="normal" in2="BackgroundImageFix" result="effect1_dropShadow_752_19189"/>
<feColorMatrix in="SourceAlpha" type="matrix" values="0 0 0 0 0 0 0 0 0 0 0 0 0 0 0 0 0 0 127 0" result="hardAlpha"/>
<feOffset dy="6.51797"/>
<feGaussianBlur stdDeviation="13.0359"/>
<feComposite in2="hardAlpha" operator="out"/>
<feColorMatrix type="matrix" values="0 0 0 0 0 0 0 0 0 0 0 0 0 0 0 0 0 0 0.08 0"/>
<feBlend mode="normal" in2="effect1_dropShadow_752_19189" result="effect2_dropShadow_752_19189"/>
<feColorMatrix in="SourceAlpha" type="matrix" values="0 0 0 0 0 0 0 0 0 0 0 0 0 0 0 0 0 0 127 0" result="hardAlpha"/>
<feOffset dy="6.90476"/>
<feGaussianBlur stdDeviation="6.90476"/>
<feComposite in2="hardAlpha" operator="out"/>
<feColorMatrix type="matrix" values="0 0 0 0 0 0 0 0 0 0 0 0 0 0 0 0 0 0 0.12 0"/>
<feBlend mode="normal" in2="effect2_dropShadow_752_19189" result="effect3_dropShadow_752_19189"/>
<feBlend mode="normal" in="SourceGraphic" in2="effect3_dropShadow_752_19189" result="shape"/>
</filter>
</defs>
</svg>
