<svg width="14" height="14" viewBox="0 0 14 14" fill="none" xmlns="http://www.w3.org/2000/svg">
<path d="M5.33497 1.41627C5.13249 0.91006 4.64221 0.578125 4.09701 0.578125H2.26316C1.56554 0.578125 1 1.14352 1 1.84115C1 7.77094 5.80719 12.5781 11.737 12.5781C12.4346 12.5781 13 12.0125 13 11.3149L13.0003 9.48076C13.0003 8.93556 12.6685 8.44536 12.1622 8.24288L10.4046 7.54008C9.94991 7.3582 9.43219 7.44006 9.05596 7.75358L8.60235 8.13191C8.07258 8.57338 7.29309 8.53827 6.80546 8.05065L5.52815 6.77216C5.04052 6.28454 5.00449 5.50568 5.44596 4.97591L5.82422 4.52232C6.13774 4.1461 6.22033 3.62823 6.03844 3.17352L5.33497 1.41627Z" stroke="#48464C" stroke-width="0.933333" stroke-linecap="round" stroke-linejoin="round"/>
</svg>
