<svg width="16" height="13" viewBox="0 0 16 13" fill="none" xmlns="http://www.w3.org/2000/svg">
<path d="M1.3335 11.9125H2.66683M2.66683 11.9125H6.66683M2.66683 11.9125V6.21392C2.66683 5.85769 2.66683 5.67948 2.71014 5.51372C2.74853 5.36683 2.81202 5.22781 2.8973 5.1022C2.99352 4.96044 3.12726 4.8429 3.39534 4.60832L6.5964 1.80739C7.09339 1.37253 7.3419 1.15508 7.62178 1.07232C7.86857 0.999332 8.13162 0.999332 8.37842 1.07232C8.6585 1.15514 8.90737 1.3728 9.40511 1.80832L12.6051 4.60832C12.8732 4.84289 13.007 4.96045 13.1032 5.1022C13.1885 5.22781 13.2515 5.36683 13.2899 5.51372C13.3332 5.67948 13.3335 5.85769 13.3335 6.21392V11.9125M6.66683 11.9125H9.3335M6.66683 11.9125V9.24582C6.66683 8.50944 7.26378 7.91248 8.00016 7.91248C8.73654 7.91248 9.3335 8.50944 9.3335 9.24582V11.9125M9.3335 11.9125H13.3335M13.3335 11.9125H14.6668" stroke="#48464C" stroke-width="0.933333" stroke-linecap="round" stroke-linejoin="round"/>
</svg>
