<svg width="14" height="13" viewBox="0 0 14 13" fill="none" xmlns="http://www.w3.org/2000/svg">
<path d="M1 2.57747H1.01279M1.01279 2.57747H12.9873M1.01279 2.57747C1 2.78706 1 3.04541 1 3.3776V9.77761C1 10.5243 1 10.8972 1.14532 11.1824C1.27316 11.4333 1.47698 11.6378 1.72786 11.7656C2.0128 11.9108 2.386 11.9108 3.13129 11.9108L10.8687 11.9108C11.614 11.9108 11.9867 11.9108 12.2716 11.7656C12.5225 11.6378 12.727 11.4333 12.8548 11.1824C13 10.8975 13 10.5248 13 9.77951L13 3.37541C13 3.04428 13 2.7866 12.9873 2.57747M1.01279 2.57747C1.02876 2.31593 1.06465 2.13034 1.14532 1.97201C1.27316 1.72112 1.47698 1.5173 1.72786 1.38947C2.01308 1.24414 2.38673 1.24414 3.13346 1.24414H10.8668C11.6135 1.24414 11.9864 1.24414 12.2716 1.38947C12.5225 1.5173 12.727 1.72112 12.8548 1.97201C12.9355 2.13034 12.9713 2.31593 12.9873 2.57747M12.9873 2.57747H13" stroke="#48464C" stroke-width="0.933333" stroke-linecap="round" stroke-linejoin="round"/>
</svg>
