<svg width="45" height="46" viewBox="0 0 45 46" fill="none" xmlns="http://www.w3.org/2000/svg">
<g filter="url(#filter0_ddd_752_16566)">
<path d="M19.6834 9.8844C20.09 10.4524 19.6834 11.3689 19.6834 11.3689C17.506 12.1607 16.3947 15.6576 16.1885 17.3071L29.3019 16.9359C29.137 16.2762 28.9617 14.8329 28.6834 13.9669C28.2275 12.5487 25.6215 10.7504 25.6215 10.7504C25.6215 10.7504 25.5418 10.3294 25.5703 10.061C25.6049 9.73516 26.3532 9.27808 26.3532 9.27808C27.3017 9.77292 29.3019 10.3792 30.539 12.3586C31.8405 14.441 32.271 18.1731 32.6421 22.0081C33.0133 25.8432 30.539 28.4411 28.0648 29.8019C26.0719 30.898 21.1369 31.6576 18.4153 30.4205C15.6937 29.1834 14.4564 27.0803 13.3431 24.7298C12.2298 22.3792 12.7246 16.9359 12.8483 16.4411C12.972 15.9463 13.4668 14.7091 13.838 13.9669C14.2091 13.2246 15.1988 11.9875 15.1988 11.9875C15.1988 11.9875 16.425 10.6688 17.4566 10.2555C18.275 9.9277 19.2767 9.31637 19.6834 9.8844Z" fill="#5AC0F3" stroke="white" stroke-width="4.15877"/>
<path d="M24.9937 19.4113C23.1702 19.4113 22.376 21.6331 22.376 21.6331C22.376 21.6331 21.5818 19.4113 19.7583 19.4113C17.4597 19.4113 15.3962 23.6546 22.3364 26.8265H22.4156C29.3558 23.6546 27.2923 19.4113 24.9937 19.4113Z" fill="#F70102" stroke="white" stroke-width="2.74716" stroke-linecap="round" stroke-linejoin="round"/>
<path d="M19.3072 10.0595C18.2865 8.80581 16.5597 8.6362 15.7165 9.18454L15.6376 9.23844C14.8117 9.80553 14.5282 10.8249 14.898 11.6849C13.9661 11.3896 12.9084 11.7294 12.3709 12.5589L12.3462 12.5941C11.8112 13.4236 11.969 14.4758 12.6692 15.1319C11.6732 15.2139 10.8423 15.9427 10.719 16.9246V16.9316C10.5711 17.8783 11.1283 18.7664 12.0109 19.1226C11.2245 19.4694 10.7018 20.2521 10.7634 21.1238V21.166C10.8275 22.0588 11.4833 22.7806 12.3413 23.0102C11.5154 23.5258 11.1431 24.524 11.5055 25.4403V25.4473C11.8482 26.3752 12.8048 26.9236 13.8033 26.8158C13.2412 27.5961 13.3078 28.6717 14.0203 29.3864L14.0376 29.4052C14.7377 30.1199 15.8521 30.2535 16.7052 29.7848C16.5203 30.701 17.0109 31.6501 17.9453 32.0485L18.0094 32.0766C18.9537 32.4656 20.0237 32.1609 20.6055 31.4017C20.8151 32.3156 21.6657 33.0045 22.6913 33.0163H22.7628C22.8121 33.0163 22.8589 33.0163 22.9058 33.0116C23.8747 32.9506 24.6637 32.2804 24.8658 31.4017C25.4452 32.1727 26.5374 32.482 27.4915 32.093L27.5014 32.0883C28.4531 31.704 28.9683 30.7479 28.7859 29.8199C29.6414 30.3003 30.7632 30.1668 31.4658 29.445L31.4831 29.4263C32.1907 28.7139 32.2573 27.6477 31.705 26.8697C32.6665 26.9822 33.6231 26.4666 33.988 25.5691L34.025 25.4731C34.3628 24.5568 33.9831 23.5609 33.1596 23.0547C34.1014 22.7853 34.7572 21.9253 34.6907 20.9504L34.6857 20.8708C34.6266 20.0272 34.0398 19.3359 33.2508 19.0687C34.0201 18.6844 34.5008 17.876 34.3899 17.0043L34.3776 16.9105C34.2296 15.9498 33.4062 15.2397 32.4323 15.1554C33.1325 14.5086 33.3026 13.4682 32.7824 12.6339L32.7331 12.5566C32.1932 11.7364 31.1404 11.4013 30.2159 11.6943C30.5882 10.8342 30.3071 9.8149 29.4787 9.24781L29.4146 9.20329C28.5739 8.64557 27.2365 7.95781 25.9619 9.27711" stroke="white" stroke-width="4.15877" stroke-linecap="round" stroke-linejoin="round"/>
<path d="M19.3062 10.0603C18.2855 8.80665 16.5587 8.63704 15.7156 9.18538L15.6367 9.23928C14.8107 9.80637 14.5272 10.8257 14.897 11.6857C13.9651 11.3905 12.9074 11.7302 12.3699 12.5598L12.3453 12.5949C11.8103 13.4245 11.9681 14.4766 12.6682 15.1328C11.6722 15.2148 10.8413 15.9436 10.7181 16.9254V16.9324C10.5701 17.8792 11.1273 18.7673 12.01 19.1235C11.2235 19.4703 10.7008 20.2529 10.7624 21.1247V21.1669C10.8266 22.0597 11.4824 22.7814 12.3403 23.0111C11.5144 23.5266 11.1421 24.5249 11.5045 25.4411V25.4481C11.8472 26.3761 12.8038 26.9244 13.8024 26.8166C13.2402 27.597 13.3068 28.6726 14.0193 29.3873L14.0366 29.406C14.7368 30.1207 15.8511 30.2543 16.7042 29.7856C16.5193 30.7019 17.0099 31.6509 17.9443 32.0493L18.0084 32.0774C18.9527 32.4664 20.0227 32.1618 20.6045 31.4025C20.8141 32.3164 21.6647 33.0054 22.6903 33.0171H22.7618C22.8111 33.0171 22.858 33.0171 22.9048 33.0124C23.8737 32.9515 24.6627 32.2813 24.8649 31.4025C25.4442 32.1735 26.5364 32.4828 27.4906 32.0938L27.5004 32.0891C28.4521 31.7048 28.9674 30.7487 28.7849 29.8208C29.6404 30.3012 30.7622 30.1676 31.4649 29.4459L31.4821 29.4271C32.1897 28.7147 32.2563 27.6485 31.704 26.8705C32.6656 26.983 33.6221 26.4675 33.987 25.57L34.024 25.4739C34.3618 24.5577 33.9821 23.5617 33.1586 23.0556C34.1005 22.7861 34.7563 21.9261 34.6897 20.9513L34.6848 20.8716C34.6256 20.028 34.0388 19.3367 33.2499 19.0696C34.0191 18.6853 34.4999 17.8768 34.3889 17.0051L34.3766 16.9114C34.2287 15.9506 33.4052 15.2406 32.4313 15.1562C33.1315 14.5094 33.3016 13.469 32.7814 12.6348L32.7321 12.5574C32.1922 11.7373 31.1394 11.4022 30.2149 11.6951C30.5872 10.8351 30.3061 9.81574 29.4777 9.24865L29.4136 9.20413C28.5729 8.64641 27.3902 8.19352 26.1156 9.51281" stroke="#5AC0F3" stroke-width="0.868197" stroke-linecap="round" stroke-linejoin="round"/>
<path d="M19.6834 9.88357C20.09 10.4516 19.6834 11.3681 19.6834 11.3681C17.506 12.1599 16.3947 15.6568 16.1885 17.3063L29.3019 16.9351C29.137 16.2753 28.9617 14.832 28.6834 13.966C28.2275 12.5478 25.6215 10.7496 25.6215 10.7496C25.6215 10.7496 25.5418 10.3286 25.5703 10.0601C25.6049 9.73434 25.838 9.26501 25.838 9.26501C26.7865 9.75986 29.3019 10.3784 30.539 12.3578C31.8405 14.4401 32.271 18.1722 32.6421 22.0073C33.0133 25.8423 30.539 28.4403 28.0648 29.8011C26.0719 30.8972 21.1369 31.6568 18.4153 30.4197C15.6937 29.1825 14.4564 27.0794 13.3431 24.7289C12.2298 22.3784 12.7246 16.9351 12.8483 16.4403C12.972 15.9454 13.4668 14.7083 13.838 13.966C14.2091 13.2238 15.1988 11.9867 15.1988 11.9867C15.1988 11.9867 16.425 10.6679 17.4566 10.2547C18.275 9.92687 19.2767 9.31555 19.6834 9.88357Z" fill="#5AC0F3"/>
<path d="M24.9937 19.4104C23.1702 19.4104 22.376 21.6323 22.376 21.6323C22.376 21.6323 21.5818 19.4104 19.7583 19.4104C17.4597 19.4104 15.3962 23.6537 22.3364 26.8257H22.4156C29.3558 23.6537 27.2923 19.4104 24.9937 19.4104Z" fill="#F70102"/>
</g>
<defs>
<filter id="filter0_ddd_752_16566" x="-1.75" y="-1" width="48" height="48" filterUnits="userSpaceOnUse" color-interpolation-filters="sRGB">
<feFlood flood-opacity="0" result="BackgroundImageFix"/>
<feColorMatrix in="SourceAlpha" type="matrix" values="0 0 0 0 0 0 0 0 0 0 0 0 0 0 0 0 0 0 127 0" result="hardAlpha"/>
<feOffset/>
<feGaussianBlur stdDeviation="0.5"/>
<feComposite in2="hardAlpha" operator="out"/>
<feColorMatrix type="matrix" values="0 0 0 0 0 0 0 0 0 0 0 0 0 0 0 0 0 0 0.08 0"/>
<feBlend mode="normal" in2="BackgroundImageFix" result="effect1_dropShadow_752_16566"/>
<feColorMatrix in="SourceAlpha" type="matrix" values="0 0 0 0 0 0 0 0 0 0 0 0 0 0 0 0 0 0 127 0" result="hardAlpha"/>
<feOffset dy="1"/>
<feGaussianBlur stdDeviation="2"/>
<feComposite in2="hardAlpha" operator="out"/>
<feColorMatrix type="matrix" values="0 0 0 0 0 0 0 0 0 0 0 0 0 0 0 0 0 0 0.08 0"/>
<feBlend mode="normal" in2="effect1_dropShadow_752_16566" result="effect2_dropShadow_752_16566"/>
<feColorMatrix in="SourceAlpha" type="matrix" values="0 0 0 0 0 0 0 0 0 0 0 0 0 0 0 0 0 0 127 0" result="hardAlpha"/>
<feOffset dy="2"/>
<feGaussianBlur stdDeviation="4"/>
<feComposite in2="hardAlpha" operator="out"/>
<feColorMatrix type="matrix" values="0 0 0 0 0 0 0 0 0 0 0 0 0 0 0 0 0 0 0.12 0"/>
<feBlend mode="normal" in2="effect2_dropShadow_752_16566" result="effect3_dropShadow_752_16566"/>
<feBlend mode="normal" in="SourceGraphic" in2="effect3_dropShadow_752_16566" result="shape"/>
</filter>
</defs>
</svg>
