<svg width="46" height="45" viewBox="0 0 46 45" fill="none" xmlns="http://www.w3.org/2000/svg">
<g filter="url(#filter0_ddd_752_15775)">
<path d="M11.5445 26.5561C11.5445 26.5561 10.5288 24.9818 11.4576 22.7012L34.9458 22.1001C34.9458 22.1001 35.7592 23.9258 34.9564 25.9579C34.9564 25.9579 31.3846 28.2237 23.2733 28.4328C15.1624 28.64 11.546 26.5584 11.546 26.5584L11.5445 26.5561Z" fill="#FFFBCA"/>
<path d="M12.1535 17.058C9.30353 18.1168 10.2931 18.9946 10.5054 20.4245C10.7177 21.8544 9.21284 22.7562 11.4991 24.5853C12.8868 25.6956 13.6497 26.8908 14.5092 25.6358C15.3683 24.3826 15.3969 23.7439 16.4414 23.8408C17.4859 23.9378 18.1532 26.0965 19.3515 26.1054C20.5495 26.1163 20.4869 25.0513 21.1783 24.8694C21.8696 24.6876 22.0742 25.2066 22.7291 26.2668C23.5157 27.5393 24.0798 26.765 24.9639 24.9373C25.8501 23.108 26.5978 24.3061 26.9613 24.9543C27.3231 25.602 29.0535 28.0714 31.472 25.2023C32.6639 23.788 33.3156 24.0403 33.922 24.7494C34.9533 25.9535 36.3714 24.589 35.7298 22.7319C34.8245 20.1086 36.9714 18.4733 35.1516 17.1238C33.3319 15.7743 21.2135 13.6902 12.1521 17.0558L12.1535 17.058Z" fill="#FF838E"/>
<path d="M13.9926 20.9819C12.15 20.6238 10.6765 20.1195 10.1874 19.4489C10.1558 19.4074 10.1644 19.3462 10.2035 19.3126C10.2426 19.2789 10.3001 19.2881 10.3318 19.3296C11.9135 21.4932 25.5669 22.3062 30.6246 20.5372C30.6718 20.5209 30.7243 20.5488 30.7397 20.5989C30.7551 20.649 30.7289 20.7048 30.6817 20.7212C28.4019 21.5175 23.9042 21.8593 19.2212 21.5915C17.4711 21.491 15.594 21.2912 13.9947 20.9804L13.9926 20.9819Z" fill="white"/>
<path d="M11.5799 28.1547C11.5799 28.1547 11.0913 27.6748 11.543 26.5546C11.543 26.5546 18.2818 27.982 23.2582 27.8551C28.2347 27.7282 34.9552 25.9544 34.9552 25.9544C34.9552 25.9544 35.4348 26.6801 34.9922 27.5546C34.9922 27.5546 25.6428 32.2273 11.5817 28.1551L11.5799 28.1547Z" fill="#F72B3E"/>
<path d="M11.5799 28.1547C11.0383 29.1533 11.152 30.3402 11.6406 30.8201C12.1292 31.3001 18.8346 32.2772 23.2356 32.1641C27.6366 32.051 33.9151 30.7826 34.8947 29.9359C35.8742 29.0891 34.9908 27.5523 34.9908 27.5523C34.9908 27.5523 29.476 29.3346 23.2958 29.4947C17.1142 29.6526 11.5803 28.1528 11.5803 28.1528L11.5799 28.1547Z" fill="#FFFBCA"/>
<path d="M24.5309 13.9595H22.3346V17.7006H24.5309V13.9595Z" fill="#FF4D59"/>
<path d="M24.5903 11.3969L23.8883 10.8444L23.3097 10.1674L22.8881 10.7478L22.1606 11.7138C21.5203 12.4659 21.5678 13.4396 22.2757 14.1199C22.9836 14.8002 24.075 14.7409 24.7153 13.9888C25.3556 13.2367 25.2521 12.1968 24.7152 11.5198L24.5903 11.3969Z" fill="#FFEF45"/>
<path d="M11.5799 28.1547C11.5799 28.1547 11.0913 27.6748 11.543 26.5546C11.543 26.5546 18.2818 27.982 23.2582 27.8551C28.2347 27.7282 34.9552 25.9544 34.9552 25.9544C34.9552 25.9544 35.4348 26.6801 34.9922 27.5546C34.9922 27.5546 25.6428 32.2273 11.5817 28.1551L11.5799 28.1547ZM11.5799 28.1547C11.0383 29.1533 11.152 30.3402 11.6406 30.8201C12.1292 31.3001 18.8346 32.2772 23.2356 32.1641C27.6366 32.051 33.9151 30.7826 34.8947 29.9359C35.8742 29.0891 34.9908 27.5523 34.9908 27.5523C34.9908 27.5523 29.476 29.3346 23.2958 29.4947C17.1142 29.6526 11.5803 28.1528 11.5803 28.1528L11.5799 28.1547ZM11.5445 26.5561C11.5445 26.5561 10.5288 24.9818 11.4576 22.7012L34.9458 22.1001C34.9458 22.1001 35.7592 23.9258 34.9564 25.9579C34.9564 25.9579 31.3846 28.2238 23.2733 28.4328C15.1624 28.64 11.546 26.5584 11.546 26.5584L11.5445 26.5561ZM12.1535 17.058C9.30353 18.1168 10.2931 18.9946 10.5054 20.4245C10.7177 21.8544 9.21284 22.7562 11.4991 24.5853C12.8868 25.6956 13.6497 26.8908 14.5092 25.6358C15.3683 24.3826 15.3969 23.7439 16.4414 23.8408C17.4859 23.9378 18.1532 26.0965 19.3515 26.1054C20.5495 26.1163 20.4869 25.0513 21.1783 24.8694C21.8696 24.6876 22.0742 25.2066 22.7291 26.2668C23.5157 27.5393 24.0798 26.765 24.9639 24.9373C25.8501 23.108 26.5978 24.3061 26.9613 24.9543C27.3231 25.602 29.0535 28.0714 31.472 25.2023C32.664 23.788 33.3156 24.0403 33.922 24.7494C34.9533 25.9535 36.3714 24.589 35.7298 22.7319C34.8245 20.1086 36.9714 18.4733 35.1516 17.1238C33.3319 15.7743 21.2135 13.6902 12.1521 17.0558L12.1535 17.058ZM13.9926 20.9819C12.15 20.6238 10.6765 20.1195 10.1874 19.4489C10.1558 19.4074 10.1644 19.3462 10.2035 19.3126C10.2426 19.2789 10.3001 19.2881 10.3318 19.3296C11.9135 21.4932 25.5669 22.3062 30.6246 20.5372C30.6718 20.5209 30.7243 20.5488 30.7397 20.5989C30.7551 20.649 30.7289 20.7048 30.6817 20.7212C28.4019 21.5175 23.9042 21.8593 19.2212 21.5915C17.4711 21.491 15.594 21.2912 13.9947 20.9804L13.9926 20.9819ZM22.3346 13.9595H24.5309V17.7006H22.3346V13.9595ZM24.5903 11.3969L24.7152 11.5198C25.2521 12.1968 25.3556 13.2367 24.7153 13.9888C24.075 14.7409 22.9836 14.8002 22.2757 14.1199C21.5678 13.4396 21.5203 12.4659 22.1606 11.7138L22.8881 10.7478L23.3097 10.1674L23.8883 10.8444L24.5903 11.3969Z" stroke="white" stroke-width="4"/>
<path d="M11.5461 26.5583C11.5461 26.5583 10.5304 24.9841 11.4592 22.7034L34.9474 22.1023C34.9474 22.1023 35.7609 23.928 34.9581 25.9601C34.9581 25.9601 31.3863 28.226 23.275 28.4351C15.164 28.6423 11.5476 26.5606 11.5476 26.5606L11.5461 26.5583Z" fill="#FFFBCA"/>
<path d="M12.1548 17.0596C9.30477 18.1183 10.2943 18.9961 10.5066 20.426C10.7189 21.856 9.21407 22.7578 11.5003 24.5868C12.888 25.6972 13.651 26.8924 14.5104 25.6373C15.3695 24.3842 15.3981 23.7455 16.4426 23.8424C17.4871 23.9393 18.1545 26.098 19.3527 26.107C20.5507 26.1178 20.4882 25.0529 21.1795 24.871C21.8708 24.6891 22.0754 25.2081 22.7303 26.2684C23.517 27.5408 24.081 26.7666 24.9651 24.9389C25.8513 23.1096 26.599 24.3077 26.9625 24.9558C27.3243 25.6036 29.0548 28.073 31.4733 25.2039C32.6652 23.7895 33.3169 24.0419 33.9232 24.7509C34.9545 25.9551 36.3727 24.5906 35.731 22.7335C34.8257 20.1101 36.9726 18.4748 35.1529 17.1253C33.3331 15.7758 21.2148 13.6918 12.1533 17.0573L12.1548 17.0596Z" fill="#FF838E"/>
<path d="M13.634 20.9526C11.7512 20.5867 10.2454 20.0713 9.74566 19.386C9.71329 19.3436 9.72216 19.2811 9.76208 19.2467C9.80201 19.2123 9.86084 19.2218 9.89321 19.2642C11.5094 21.475 25.4615 22.3058 30.6297 20.4982C30.678 20.4814 30.7316 20.5099 30.7474 20.5612C30.7631 20.6124 30.7363 20.6694 30.6881 20.6861C28.3584 21.4999 23.7624 21.8491 18.977 21.5755C17.1887 21.4728 15.2704 21.2686 13.6362 20.951L13.634 20.9526Z" fill="white" stroke="white" stroke-width="0.9"/>
<path d="M11.581 28.1567C11.581 28.1567 11.0924 27.6768 11.5441 26.5566C11.5441 26.5566 18.2828 27.984 23.2593 27.8571C28.2358 27.7302 34.9563 25.9564 34.9563 25.9564C34.9563 25.9564 35.4359 26.6821 34.9933 27.5565C34.9933 27.5565 25.6439 32.2293 11.5828 28.157L11.581 28.1567Z" fill="#F72B3E"/>
<path d="M11.5815 28.1577C11.0399 29.1563 11.1535 30.3432 11.6421 30.8231C12.1308 31.303 18.8362 32.2801 23.2371 32.1671C27.6381 32.054 33.9167 30.7855 34.8962 29.9388C35.8758 29.0921 34.9923 27.5553 34.9923 27.5553C34.9923 27.5553 29.4776 29.3375 23.2974 29.4976C17.1158 29.6555 11.5819 28.1558 11.5819 28.1558L11.5815 28.1577Z" fill="#FFFBCA"/>
<path d="M24.5322 13.9596L22.3359 13.9596L22.3359 17.7007L24.5322 17.7007L24.5322 13.9596Z" fill="#F72B3E"/>
<path d="M24.5915 11.3969L23.8895 10.8444L23.3109 10.1674L22.8892 10.7478L22.1617 11.7138C21.5214 12.4659 21.569 13.4396 22.2769 14.1199C22.9848 14.8002 24.0762 14.7409 24.7165 13.9888C25.3568 13.2367 25.2533 12.1968 24.7164 11.5198L24.5915 11.3969Z" fill="#FFCC00"/>
</g>
<defs>
<filter id="filter0_ddd_752_15775" x="0.166992" y="0.939819" width="46.083" height="46.0602" filterUnits="userSpaceOnUse" color-interpolation-filters="sRGB">
<feFlood flood-opacity="0" result="BackgroundImageFix"/>
<feColorMatrix in="SourceAlpha" type="matrix" values="0 0 0 0 0 0 0 0 0 0 0 0 0 0 0 0 0 0 127 0" result="hardAlpha"/>
<feOffset/>
<feGaussianBlur stdDeviation="0.5"/>
<feComposite in2="hardAlpha" operator="out"/>
<feColorMatrix type="matrix" values="0 0 0 0 0 0 0 0 0 0 0 0 0 0 0 0 0 0 0.08 0"/>
<feBlend mode="normal" in2="BackgroundImageFix" result="effect1_dropShadow_752_15775"/>
<feColorMatrix in="SourceAlpha" type="matrix" values="0 0 0 0 0 0 0 0 0 0 0 0 0 0 0 0 0 0 127 0" result="hardAlpha"/>
<feOffset dy="1"/>
<feGaussianBlur stdDeviation="2"/>
<feComposite in2="hardAlpha" operator="out"/>
<feColorMatrix type="matrix" values="0 0 0 0 0 0 0 0 0 0 0 0 0 0 0 0 0 0 0.08 0"/>
<feBlend mode="normal" in2="effect1_dropShadow_752_15775" result="effect2_dropShadow_752_15775"/>
<feColorMatrix in="SourceAlpha" type="matrix" values="0 0 0 0 0 0 0 0 0 0 0 0 0 0 0 0 0 0 127 0" result="hardAlpha"/>
<feOffset dy="2"/>
<feGaussianBlur stdDeviation="4"/>
<feComposite in2="hardAlpha" operator="out"/>
<feColorMatrix type="matrix" values="0 0 0 0 0 0 0 0 0 0 0 0 0 0 0 0 0 0 0.12 0"/>
<feBlend mode="normal" in2="effect2_dropShadow_752_15775" result="effect3_dropShadow_752_15775"/>
<feBlend mode="normal" in="SourceGraphic" in2="effect3_dropShadow_752_15775" result="shape"/>
</filter>
</defs>
</svg>
