<svg width="43" height="43" viewBox="0 0 43 43" fill="none" xmlns="http://www.w3.org/2000/svg">
<g filter="url(#filter0_ddd_752_17185)">
<path d="M23.6176 13.2266C23.9829 13.2665 24.0457 13.2764 24.1085 13.2863C24.1854 13.2965 24.8409 13.4412 24.8792 13.4462C24.9174 13.4512 25.5175 13.7372 25.5558 13.7474C25.7471 13.828 26.0046 13.901 26.8007 14.2541C27.1047 14.3889 27.5225 14.6246 27.9168 14.8451C28.0687 14.93 28.4242 15.1682 28.8759 15.467C29.1092 15.6213 29.2595 15.766 29.4523 15.9023C29.6936 16.0728 30.0682 16.4371 30.283 16.6837C30.3527 16.7636 30.738 17.193 31.1733 17.9504C31.3696 18.2918 31.4624 18.5717 31.5527 18.7698C31.6981 19.089 31.7934 19.2784 31.831 19.4195C31.914 19.7311 32.0065 20.0296 32.0341 20.7252C32.0533 21.2094 32.0996 22.0728 32.0781 22.5499C32.0526 23.1167 32.0321 23.3016 31.8856 23.7181C31.7693 24.0489 31.5557 24.6044 31.3972 24.9588C31.2386 25.3132 31.1381 25.462 31.0166 25.6846C30.8952 25.9072 30.757 26.1948 30.5131 26.5533C30.2693 26.9118 29.9423 27.3353 29.7216 27.5674C29.4378 27.8659 29.3308 28.1047 28.7262 28.5027C28.384 28.728 27.889 29.0631 27.38 29.3446C26.6829 29.7302 26.329 29.8593 26.0172 29.9849C25.7319 30.0999 25.5548 30.2293 24.9181 30.406C24.5764 30.5009 24.2075 30.5964 23.3543 30.6159C22.7036 30.6307 21.6357 30.6307 21.0629 30.6256C20.4901 30.6205 20.4148 30.6091 20.28 30.6056C19.6906 30.5905 19.3364 30.5666 18.8532 30.5204C18.5355 30.4901 18.2131 30.411 17.9464 30.365C17.685 30.3199 17.3708 30.3165 17.1204 30.2496C16.5938 30.1089 16.3268 30.0585 16.0806 29.964C15.8332 29.869 15.5498 29.8823 15.0841 29.5629C14.8433 29.3977 14.6146 29.2381 14.1788 28.9537C13.8816 28.7598 13.3331 28.4099 13.0389 28.1935C12.6736 27.9248 12.4122 27.7932 12.1722 27.5188C12.0008 27.323 11.7463 27.0506 11.5487 26.6076C11.426 26.3322 11.1998 25.8362 10.9897 25.1743C10.7795 24.5124 10.591 23.7089 10.4968 22.8983C10.4026 22.0878 10.4026 21.2942 10.4414 20.6828C10.4803 20.0714 10.5556 19.6548 10.6645 19.2727C10.7734 18.8906 10.9116 18.5534 11.0972 18.165C11.2828 17.7766 11.4848 17.3392 11.7709 16.9631L11.7941 16.9326C12.3301 16.2278 12.62 15.8466 12.7132 15.7807C12.9542 15.6099 13.3495 15.2835 13.932 14.9237C14.3141 14.6877 14.6803 14.4493 15.0489 14.3128C15.4426 14.1671 15.8112 13.9857 16.5015 13.7751C16.9015 13.653 17.5925 13.4546 18.2745 13.3197C18.9566 13.1847 19.6099 13.1153 20.2149 13.0805C20.8198 13.0458 21.3601 13.0458 21.9732 13.0816C22.5864 13.1174 23.2522 13.1868 23.6176 13.2266Z" fill="#E2C69D"/>
<path d="M16.2839 10.2505C16.4463 10.2702 16.4742 10.2751 16.5021 10.28C16.5363 10.285 16.8276 10.3564 16.8446 10.3588C16.8616 10.3612 17.1283 10.5023 17.1453 10.5074C17.2304 10.5471 17.3448 10.5831 17.6987 10.7572C17.8338 10.8237 18.0195 10.9399 18.1947 11.0486C18.2622 11.0905 18.4202 11.208 18.6209 11.3554C18.7247 11.4315 18.7914 11.5028 18.8771 11.57C18.9844 11.6541 19.1509 11.8338 19.2463 11.9554C19.2773 11.9948 19.4485 12.2065 19.642 12.58C19.7292 12.7484 19.7705 12.8864 19.8106 12.9841C19.8753 13.1416 19.9176 13.235 19.9343 13.3046C19.9712 13.4582 20.0123 13.6054 20.0246 13.9484C20.0331 14.1872 20.0537 14.613 20.0441 14.8483C20.0328 15.1278 20.0237 15.219 19.9586 15.4244C19.9069 15.5875 19.812 15.8615 19.7415 16.0362C19.671 16.211 19.6264 16.2844 19.5724 16.3942C19.5184 16.5039 19.457 16.6458 19.3486 16.8226C19.2402 16.9994 19.0949 17.2082 18.9968 17.3227C18.8707 17.4699 18.8231 17.5877 18.5544 17.7839C18.4023 17.895 18.1823 18.0603 17.9561 18.1991C17.6463 18.3892 17.489 18.4529 17.3504 18.5149C17.2236 18.5716 17.1449 18.6354 16.8619 18.7226C16.7101 18.7693 16.5461 18.8164 16.1669 18.826C15.8777 18.8334 15.4031 18.8334 15.1485 18.8309C14.8939 18.8283 14.8605 18.8227 14.8005 18.821C14.5386 18.8135 14.3812 18.8017 14.1664 18.779C14.0252 18.764 13.8819 18.725 13.7634 18.7023C13.6472 18.6801 13.5076 18.6784 13.3963 18.6454C13.1623 18.576 13.0436 18.5512 12.9342 18.5046C12.8242 18.4577 12.6982 18.4643 12.4913 18.3068C12.3842 18.2253 12.2826 18.1466 12.0889 18.0063C11.9568 17.9107 11.713 17.7382 11.5823 17.6314C11.4199 17.4989 11.3038 17.434 11.1971 17.2987C11.1209 17.2021 11.0078 17.0678 10.92 16.8493C10.8654 16.7135 10.7649 16.469 10.6715 16.1425C10.5781 15.8161 10.4943 15.4199 10.4525 15.0201C10.4106 14.6204 10.4106 14.2291 10.4278 13.9275C10.4451 13.626 10.4786 13.4206 10.527 13.2321C10.5754 13.0437 10.6368 12.8774 10.7193 12.6859C10.8018 12.4944 10.8916 12.2787 11.0187 12.0931L11.029 12.0781C11.2673 11.7305 11.3961 11.5426 11.4375 11.51C11.5446 11.4258 11.7203 11.2649 11.9792 11.0874C12.149 10.971 12.3118 10.8535 12.4756 10.7862C12.6506 10.7143 12.8144 10.6249 13.1212 10.521C13.299 10.4608 13.6061 10.363 13.9092 10.2964C14.2124 10.2298 14.5027 10.1956 14.7716 10.1785C15.0405 10.1614 15.2806 10.1614 15.5531 10.179C15.8256 10.1966 16.1216 10.2309 16.2839 10.2505Z" fill="#E2C69D"/>
<path d="M19.9039 25.1245C19.745 25.1245 19.5837 25.1028 19.4248 25.0595C18.8831 24.9102 18.4787 24.5298 18.368 24.0652C18.3367 23.928 18.4209 23.7908 18.5557 23.7595C18.6954 23.7282 18.8302 23.8124 18.8615 23.9473C18.9265 24.2289 19.2009 24.4721 19.5596 24.5708C19.8557 24.6526 20.1615 24.6286 20.3974 24.5058C20.6454 24.3782 20.8163 24.1326 20.8332 23.8847C20.8428 23.745 20.968 23.6391 21.1028 23.6487C21.2424 23.6584 21.3483 23.7787 21.3387 23.9184C21.3098 24.3397 21.033 24.7465 20.6333 24.9535C20.4191 25.0667 20.1663 25.1245 19.9063 25.1245H19.9039Z" fill="black"/>
<path d="M22.4267 25.126C22.2678 25.126 22.1065 25.1043 21.9477 25.061C21.406 24.9117 21.0015 24.5313 20.8908 24.0667C20.8595 23.9319 20.9438 23.7947 21.0786 23.761C21.2134 23.7297 21.3506 23.8139 21.3843 23.9488C21.4493 24.228 21.7238 24.4736 22.0801 24.5723C22.3762 24.6541 22.6819 24.6301 22.9178 24.5073C23.1658 24.3797 23.3367 24.1341 23.3536 23.8862C23.3632 23.7465 23.4643 23.631 23.6232 23.6502C23.7628 23.6599 23.8688 23.7802 23.8591 23.9199C23.8302 24.3412 23.5534 24.748 23.1538 24.955C22.9395 25.0682 22.6867 25.126 22.4267 25.126Z" fill="black"/>
<path d="M21.566 22.2249C21.6147 22.2298 21.623 22.231 21.6314 22.2322C21.6417 22.2335 21.7291 22.2513 21.7342 22.252C21.7393 22.2526 21.8193 22.2878 21.8244 22.2891C21.8499 22.299 21.8842 22.308 21.9904 22.3516C22.0309 22.3682 22.0866 22.3972 22.1392 22.4244C22.1594 22.4349 22.2068 22.4643 22.2671 22.5011C22.2982 22.5201 22.3182 22.538 22.3439 22.5548C22.3761 22.5758 22.426 22.6207 22.4547 22.6511C22.464 22.6609 22.5153 22.7139 22.5734 22.8073C22.5996 22.8494 22.6119 22.8839 22.624 22.9083C22.6434 22.9476 22.6561 22.971 22.6611 22.9884C22.6721 23.0268 22.6845 23.0636 22.6882 23.1494C22.6907 23.2091 22.6969 23.3155 22.694 23.3743C22.6906 23.4442 22.6879 23.467 22.6684 23.5183C22.6529 23.5591 22.6244 23.6276 22.6032 23.6713C22.5821 23.715 22.5687 23.7334 22.5525 23.7608C22.5363 23.7882 22.5179 23.8237 22.4854 23.8679C22.4529 23.9121 22.4093 23.9643 22.3798 23.9929C22.342 24.0297 22.3277 24.0592 22.2471 24.1082C22.2015 24.136 22.1355 24.1773 22.0676 24.212C21.9747 24.2596 21.9275 24.2755 21.8859 24.291C21.8479 24.3051 21.8243 24.3211 21.7394 24.3429C21.6938 24.3546 21.6446 24.3664 21.5309 24.3688C21.4441 24.3706 21.3017 24.3706 21.2253 24.37C21.149 24.3693 21.1389 24.3679 21.1209 24.3675C21.0424 24.3656 20.9951 24.3627 20.9307 24.357C20.8884 24.3533 20.8454 24.3435 20.8098 24.3378C20.7749 24.3323 20.7331 24.3319 20.6997 24.3236C20.6295 24.3063 20.5939 24.3 20.561 24.2884C20.528 24.2767 20.4903 24.2783 20.4282 24.2389C20.3961 24.2186 20.3656 24.1989 20.3074 24.1638C20.2678 24.1399 20.1947 24.0968 20.1555 24.0701C20.1068 24.037 20.0719 24.0208 20.0399 23.9869C20.0171 23.9628 19.9831 23.9292 19.9568 23.8746C19.9404 23.8406 19.9103 23.7795 19.8822 23.6979C19.8542 23.6163 19.8291 23.5172 19.8165 23.4173C19.804 23.3174 19.804 23.2195 19.8091 23.1441C19.8143 23.0688 19.8244 23.0174 19.8389 22.9703C19.8534 22.9232 19.8718 22.8816 19.8966 22.8337C19.9213 22.7858 19.9482 22.7319 19.9864 22.6855L19.9895 22.6818C20.061 22.5949 20.0996 22.5479 20.112 22.5398C20.1442 22.5187 20.1969 22.4785 20.2746 22.4341C20.3255 22.405 20.3743 22.3756 20.4235 22.3588C20.476 22.3408 20.5251 22.3185 20.6172 22.2925C20.6705 22.2775 20.7626 22.253 20.8536 22.2364C20.9445 22.2197 21.0316 22.2112 21.1123 22.2069C21.1929 22.2026 21.265 22.2026 21.3467 22.207C21.4285 22.2114 21.5172 22.22 21.566 22.2249Z" fill="#060606"/>
<path d="M28.0803 10.0131C28.2427 10.0333 28.2706 10.0383 28.2985 10.0433C28.3327 10.0485 28.624 10.1218 28.641 10.1244C28.658 10.1269 28.9248 10.2719 28.9418 10.277C29.0268 10.3179 29.1412 10.3549 29.4951 10.5338C29.6302 10.6022 29.8159 10.7217 29.9911 10.8334C30.0586 10.8764 30.2166 10.9972 30.4173 11.1486C30.5211 11.2268 30.5878 11.3002 30.6735 11.3692C30.7808 11.4557 30.9473 11.6403 31.0427 11.7653C31.0737 11.8058 31.245 12.0234 31.4384 12.4073C31.5257 12.5804 31.5669 12.7222 31.607 12.8226C31.6717 12.9844 31.714 13.0804 31.7307 13.1519C31.7676 13.3099 31.8087 13.4612 31.821 13.8137C31.8296 14.0592 31.8501 14.4967 31.8406 14.7386C31.8292 15.0259 31.8201 15.1196 31.755 15.3307C31.7033 15.4983 31.6084 15.7799 31.5379 15.9595C31.4675 16.1391 31.4228 16.2146 31.3688 16.3274C31.3148 16.4402 31.2534 16.586 31.145 16.7677C31.0366 16.9494 30.8913 17.1641 30.7932 17.2817C30.6671 17.433 30.6195 17.554 30.3508 17.7557C30.1987 17.8699 29.9787 18.0398 29.7525 18.1825C29.4427 18.3779 29.2854 18.4433 29.1468 18.507C29.02 18.5653 28.9413 18.6309 28.6583 18.7205C28.5065 18.7685 28.3425 18.8169 27.9633 18.8268C27.6741 18.8343 27.1995 18.8343 26.9449 18.8317C26.6904 18.8292 26.6569 18.8234 26.597 18.8216C26.335 18.8139 26.1776 18.8018 25.9628 18.7784C25.8216 18.763 25.6783 18.723 25.5598 18.6997C25.4436 18.6768 25.304 18.6751 25.1927 18.6412C24.9587 18.5698 24.84 18.5443 24.7306 18.4964C24.6206 18.4483 24.4946 18.455 24.2877 18.2931C24.1807 18.2094 24.079 18.1285 23.8853 17.9843C23.7532 17.8861 23.5095 17.7087 23.3787 17.599C23.2163 17.4628 23.1002 17.3961 22.9935 17.2571C22.9173 17.1578 22.8042 17.0198 22.7164 16.7952C22.6618 16.6556 22.5613 16.4042 22.4679 16.0687C22.3745 15.7333 22.2908 15.326 22.2489 14.9152C22.207 14.5043 22.207 14.1021 22.2243 13.7922C22.2415 13.4823 22.275 13.2712 22.3234 13.0775C22.3718 12.8839 22.4332 12.7129 22.5157 12.5161C22.5982 12.3192 22.688 12.0976 22.8151 11.9069L22.8254 11.8914C23.0637 11.5342 23.1925 11.341 23.2339 11.3076C23.341 11.221 23.5167 11.0556 23.7757 10.8732C23.9455 10.7536 24.1082 10.6328 24.272 10.5636C24.447 10.4897 24.6108 10.3978 24.9176 10.2911C25.0954 10.2292 25.4025 10.1286 25.7056 10.0602C26.0088 9.99183 26.2991 9.95663 26.568 9.93904C26.8369 9.92144 27.077 9.92144 27.3495 9.93957C27.622 9.9577 27.918 9.99289 28.0803 10.0131Z" fill="#E2C69D"/>
<path d="M28.0803 10.0131C28.2427 10.0333 28.2706 10.0383 28.2985 10.0433C28.3327 10.0485 28.624 10.1218 28.641 10.1244C28.658 10.1269 28.9248 10.2719 28.9418 10.277C29.0268 10.3179 29.1412 10.3549 29.4951 10.5338C29.6302 10.6022 29.8159 10.7217 29.9911 10.8334C30.0586 10.8764 30.2166 10.9972 30.4173 11.1486C30.5211 11.2268 30.5878 11.3002 30.6735 11.3692C30.7808 11.4557 30.9473 11.6403 31.0427 11.7653C31.0737 11.8058 31.245 12.0234 31.4384 12.4073C31.5257 12.5804 31.5669 12.7222 31.607 12.8226C31.6717 12.9844 31.714 13.0804 31.7307 13.1519C31.7676 13.3099 31.8087 13.4612 31.821 13.8137C31.8296 14.0592 31.8501 14.4967 31.8406 14.7386C31.8292 15.0259 31.8201 15.1196 31.755 15.3307C31.7033 15.4983 31.6084 15.7799 31.5379 15.9595C31.4675 16.1391 31.4228 16.2146 31.3688 16.3274C31.3148 16.4402 31.2534 16.586 31.145 16.7677C31.0366 16.9494 30.8913 17.1641 30.7932 17.2817C30.6671 17.433 30.6195 17.554 30.3508 17.7557C30.1987 17.8699 29.9787 18.0398 29.7525 18.1825C29.4427 18.3779 29.2854 18.4433 29.1468 18.507C29.02 18.5653 28.9413 18.6309 28.6583 18.7205C28.5065 18.7685 28.3425 18.8169 27.9633 18.8268C27.6741 18.8343 27.1995 18.8343 26.9449 18.8317C26.6904 18.8292 26.6569 18.8234 26.597 18.8216C26.335 18.8139 26.1776 18.8018 25.9628 18.7784C25.8216 18.763 25.6783 18.723 25.5598 18.6997C25.4436 18.6768 25.304 18.6751 25.1927 18.6412C24.9587 18.5698 24.84 18.5443 24.7306 18.4964C24.6206 18.4483 24.4946 18.455 24.2877 18.2931C24.1807 18.2094 24.079 18.1285 23.8853 17.9843C23.7532 17.8861 23.5095 17.7087 23.3787 17.599C23.2163 17.4628 23.1002 17.3961 22.9935 17.2571C22.9173 17.1578 22.8042 17.0198 22.7164 16.7952C22.6618 16.6556 22.5613 16.4042 22.4679 16.0687C22.3745 15.7333 22.2908 15.326 22.2489 14.9152C22.207 14.5043 22.207 14.1021 22.2243 13.7922C22.2415 13.4823 22.275 13.2712 22.3234 13.0775C22.3718 12.8839 22.4332 12.7129 22.5157 12.5161C22.5982 12.3192 22.688 12.0976 22.8151 11.9069L22.8254 11.8914C23.0637 11.5342 23.1925 11.341 23.2339 11.3076C23.341 11.221 23.5167 11.0556 23.7757 10.8732C23.9455 10.7536 24.1082 10.6328 24.272 10.5636C24.447 10.4897 24.6108 10.3978 24.9176 10.2911C25.0954 10.2292 25.4025 10.1286 25.7056 10.0602C26.0088 9.99183 26.2991 9.95663 26.568 9.93904C26.8369 9.92144 27.077 9.92144 27.3495 9.93957C27.622 9.9577 27.918 9.99289 28.0803 10.0131Z" fill="#E2C69D"/>
<path d="M23.5748 19.3289C23.5992 19.3322 23.6033 19.333 23.6075 19.3338C23.6127 19.3347 23.6564 19.3466 23.6589 19.347C23.6615 19.3474 23.7015 19.3709 23.704 19.3717C23.7168 19.3784 23.7339 19.3844 23.787 19.4134C23.8073 19.4245 23.8351 19.4438 23.8614 19.4619C23.8716 19.4689 23.8952 19.4885 23.9254 19.5131C23.9409 19.5258 23.9509 19.5376 23.9638 19.5488C23.9799 19.5629 24.0048 19.5928 24.0192 19.6131C24.0238 19.6196 24.0495 19.6549 24.0785 19.7172C24.0916 19.7452 24.0978 19.7682 24.1038 19.7845C24.1135 19.8108 24.1199 19.8263 24.1224 19.8379C24.1279 19.8635 24.1341 19.8881 24.1359 19.9452C24.1372 19.985 24.1403 20.056 24.1388 20.0952C24.1371 20.1418 24.1358 20.157 24.126 20.1912C24.1183 20.2184 24.104 20.2641 24.0934 20.2932C24.0829 20.3223 24.0762 20.3346 24.0681 20.3529C24.06 20.3712 24.0508 20.3948 24.0345 20.4243C24.0183 20.4537 23.9965 20.4885 23.9817 20.5076C23.9628 20.5322 23.9557 20.5518 23.9154 20.5845C23.8926 20.603 23.8596 20.6306 23.8256 20.6537C23.7792 20.6854 23.7556 20.696 23.7348 20.7063C23.7158 20.7158 23.704 20.7264 23.6615 20.7409C23.6387 20.7487 23.6141 20.7566 23.5573 20.7582C23.5139 20.7594 23.4427 20.7594 23.4045 20.759C23.3663 20.7586 23.3613 20.7576 23.3523 20.7573C23.313 20.7561 23.2894 20.7541 23.2572 20.7503C23.236 20.7478 23.2145 20.7413 23.1967 20.7376C23.1793 20.7339 23.1584 20.7336 23.1417 20.7281C23.1066 20.7165 23.0888 20.7124 23.0723 20.7046C23.0558 20.6968 23.037 20.6979 23.0059 20.6716C22.9899 20.6581 22.9746 20.6449 22.9456 20.6216C22.9257 20.6056 22.8892 20.5769 22.8696 20.5591C22.8452 20.537 22.8278 20.5262 22.8118 20.5036C22.8004 20.4875 22.7834 20.4651 22.7702 20.4287C22.762 20.4061 22.747 20.3653 22.7329 20.3109C22.7189 20.2565 22.7064 20.1905 22.7001 20.1239C22.6938 20.0572 22.6938 19.992 22.6964 19.9418C22.699 19.8915 22.704 19.8573 22.7113 19.8259C22.7185 19.7945 22.7277 19.7667 22.7401 19.7348C22.7525 19.7029 22.766 19.667 22.785 19.636L22.7866 19.6335C22.8223 19.5756 22.8416 19.5443 22.8478 19.5388C22.8639 19.5248 22.8903 19.498 22.9291 19.4684C22.9546 19.449 22.979 19.4294 23.0036 19.4182C23.0298 19.4062 23.0544 19.3913 23.1004 19.374C23.1271 19.364 23.1731 19.3477 23.2186 19.3366C23.2641 19.3255 23.3076 19.3198 23.348 19.3169C23.3883 19.3141 23.4243 19.3141 23.4652 19.317C23.5061 19.3199 23.5505 19.3257 23.5748 19.3289Z" fill="#060606"/>
<path d="M19.2415 19.3289C19.2658 19.3322 19.27 19.333 19.2742 19.3338C19.2793 19.3347 19.323 19.3466 19.3256 19.347C19.3281 19.3474 19.3681 19.3709 19.3707 19.3717C19.3834 19.3784 19.4006 19.3844 19.4537 19.4134C19.474 19.4245 19.5018 19.4438 19.5281 19.4619C19.5382 19.4689 19.5619 19.4885 19.592 19.5131C19.6076 19.5258 19.6176 19.5376 19.6305 19.5488C19.6465 19.5629 19.6715 19.5928 19.6858 19.6131C19.6905 19.6196 19.7162 19.6549 19.7452 19.7172C19.7583 19.7452 19.7645 19.7682 19.7705 19.7845C19.7802 19.8108 19.7865 19.8263 19.789 19.8379C19.7946 19.8635 19.8007 19.8881 19.8026 19.9452C19.8039 19.985 19.8069 20.056 19.8055 20.0952C19.8038 20.1418 19.8024 20.157 19.7927 20.1912C19.7849 20.2184 19.7707 20.2641 19.7601 20.2932C19.7495 20.3223 19.7428 20.3346 19.7347 20.3529C19.7266 20.3712 19.7174 20.3948 19.7012 20.4243C19.6849 20.4537 19.6631 20.4885 19.6484 20.5076C19.6295 20.5322 19.6224 20.5518 19.5821 20.5845C19.5592 20.603 19.5262 20.6306 19.4923 20.6537C19.4458 20.6854 19.4222 20.696 19.4015 20.7063C19.3824 20.7158 19.3706 20.7264 19.3282 20.7409C19.3054 20.7487 19.2808 20.7566 19.2239 20.7582C19.1805 20.7594 19.1094 20.7594 19.0712 20.759C19.033 20.7586 19.028 20.7576 19.019 20.7573C18.9797 20.7561 18.9561 20.7541 18.9239 20.7503C18.9027 20.7478 18.8812 20.7413 18.8634 20.7376C18.846 20.7339 18.825 20.7336 18.8083 20.7281C18.7732 20.7165 18.7554 20.7124 18.739 20.7046C18.7225 20.6968 18.7036 20.6979 18.6726 20.6716C18.6565 20.6581 18.6413 20.6449 18.6122 20.6216C18.5924 20.6056 18.5558 20.5769 18.5362 20.5591C18.5119 20.537 18.4945 20.5262 18.4784 20.5036C18.467 20.4875 18.4501 20.4651 18.4369 20.4287C18.4287 20.4061 18.4136 20.3653 18.3996 20.3109C18.3856 20.2565 18.373 20.1905 18.3668 20.1239C18.3605 20.0572 18.3605 19.992 18.3631 19.9418C18.3657 19.8915 18.3707 19.8573 18.3779 19.8259C18.3852 19.7945 18.3944 19.7667 18.4068 19.7348C18.4192 19.7029 18.4326 19.667 18.4517 19.636L18.4532 19.6335C18.489 19.5756 18.5083 19.5443 18.5145 19.5388C18.5306 19.5248 18.5569 19.498 18.5958 19.4684C18.6212 19.449 18.6457 19.4294 18.6702 19.4182C18.6965 19.4062 18.7211 19.3913 18.7671 19.374C18.7937 19.364 18.8398 19.3477 18.8853 19.3366C18.9307 19.3255 18.9743 19.3198 19.0146 19.3169C19.055 19.3141 19.091 19.3141 19.1319 19.317C19.1727 19.3199 19.2171 19.3257 19.2415 19.3289Z" fill="#060606"/>
<path d="M23.6176 13.2266C23.9829 13.2665 24.0457 13.2764 24.1085 13.2863C24.1854 13.2965 24.8409 13.4412 24.8792 13.4462C24.9174 13.4512 25.5175 13.7372 25.5558 13.7474C25.7471 13.828 26.0046 13.901 26.8007 14.2541C27.1047 14.3889 27.5225 14.6246 27.9168 14.8451C28.0687 14.93 28.4242 15.1682 28.8759 15.467C29.1092 15.6213 29.2595 15.766 29.4523 15.9023C29.6936 16.0728 30.0682 16.4371 30.283 16.6837C30.3527 16.7636 30.738 17.193 31.1733 17.9504C31.3696 18.2918 31.4624 18.5717 31.5527 18.7698C31.6981 19.089 31.7934 19.2784 31.831 19.4195C31.914 19.7311 32.0065 20.0296 32.0341 20.7252C32.0533 21.2094 32.0996 22.0728 32.0781 22.5499C32.0526 23.1167 32.0321 23.3016 31.8856 23.7181C31.7693 24.0489 31.5557 24.6044 31.3972 24.9588C31.2386 25.3132 31.1381 25.462 31.0166 25.6846C30.8952 25.9072 30.757 26.1948 30.5131 26.5533C30.2693 26.9118 29.9423 27.3353 29.7216 27.5674C29.4378 27.8659 29.3308 28.1047 28.7262 28.5027C28.384 28.728 27.889 29.0631 27.38 29.3446C26.6829 29.7302 26.329 29.8593 26.0172 29.9849C25.7319 30.0999 25.5548 30.2293 24.9181 30.406C24.5764 30.5009 24.2075 30.5964 23.3543 30.6159C22.7036 30.6307 21.6357 30.6307 21.0629 30.6256C20.4901 30.6205 20.4148 30.6091 20.28 30.6056C19.6906 30.5905 19.3364 30.5666 18.8532 30.5204C18.5355 30.4901 18.2131 30.411 17.9464 30.365C17.685 30.3199 17.3708 30.3165 17.1204 30.2496C16.5938 30.1089 16.3268 30.0585 16.0806 29.964C15.8332 29.869 15.5498 29.8823 15.0841 29.5629C14.8433 29.3977 14.6146 29.2381 14.1788 28.9537C13.8816 28.7598 13.3331 28.4099 13.0389 28.1935C12.6736 27.9248 12.4122 27.7932 12.1722 27.5188C12.0008 27.323 11.7463 27.0506 11.5487 26.6076C11.426 26.3322 11.1998 25.8362 10.9897 25.1743C10.7795 24.5124 10.591 23.7089 10.4968 22.8983C10.4026 22.0878 10.4026 21.2942 10.4414 20.6828C10.4803 20.0714 10.5556 19.6548 10.6645 19.2727C10.7734 18.8906 10.9116 18.5534 11.0972 18.165C11.2828 17.7766 11.4848 17.3392 11.7709 16.9631L11.7941 16.9326C12.3301 16.2278 12.62 15.8466 12.7132 15.7807C12.9542 15.6099 13.3495 15.2835 13.932 14.9237C14.3141 14.6877 14.6803 14.4493 15.0489 14.3128C15.4426 14.1671 15.8112 13.9857 16.5015 13.7751C16.9015 13.653 17.5925 13.4546 18.2745 13.3197C18.9566 13.1847 19.6099 13.1153 20.2149 13.0805C20.8198 13.0458 21.3601 13.0458 21.9732 13.0816C22.5864 13.1174 23.2522 13.1868 23.6176 13.2266Z" stroke="white" stroke-width="4.34439" stroke-linecap="round"/>
<path d="M16.2839 10.2505C16.4463 10.2702 16.4742 10.2751 16.5021 10.28C16.5363 10.285 16.8276 10.3564 16.8446 10.3588C16.8616 10.3612 17.1283 10.5023 17.1453 10.5074C17.2304 10.5471 17.3448 10.5831 17.6987 10.7572C17.8338 10.8237 18.0195 10.9399 18.1947 11.0486C18.2622 11.0905 18.4202 11.208 18.6209 11.3554C18.7247 11.4315 18.7914 11.5028 18.8771 11.57C18.9844 11.6541 19.1509 11.8338 19.2463 11.9554C19.2773 11.9948 19.4485 12.2065 19.642 12.58C19.7292 12.7484 19.7705 12.8864 19.8106 12.9841C19.8753 13.1416 19.9176 13.235 19.9343 13.3046C19.9712 13.4582 20.0123 13.6054 20.0246 13.9484C20.0331 14.1872 20.0537 14.613 20.0441 14.8483C20.0328 15.1278 20.0237 15.219 19.9586 15.4244C19.9069 15.5875 19.812 15.8615 19.7415 16.0362C19.671 16.211 19.6264 16.2844 19.5724 16.3942C19.5184 16.5039 19.457 16.6458 19.3486 16.8226C19.2402 16.9994 19.0949 17.2082 18.9968 17.3227C18.8707 17.4699 18.8231 17.5877 18.5544 17.7839C18.4023 17.895 18.1823 18.0603 17.9561 18.1991C17.6463 18.3892 17.489 18.4529 17.3504 18.5149C17.2236 18.5716 17.1449 18.6354 16.8619 18.7226C16.7101 18.7693 16.5461 18.8164 16.1669 18.826C15.8777 18.8334 15.4031 18.8334 15.1485 18.8309C14.8939 18.8283 14.8605 18.8227 14.8005 18.821C14.5386 18.8135 14.3812 18.8017 14.1664 18.779C14.0252 18.764 13.8819 18.725 13.7634 18.7023C13.6472 18.6801 13.5076 18.6784 13.3963 18.6454C13.1623 18.576 13.0436 18.5512 12.9342 18.5046C12.8242 18.4577 12.6982 18.4643 12.4913 18.3068C12.3842 18.2253 12.2826 18.1466 12.0889 18.0063C11.9568 17.9107 11.713 17.7382 11.5823 17.6314C11.4199 17.4989 11.3038 17.434 11.1971 17.2987C11.1209 17.2021 11.0078 17.0678 10.92 16.8493C10.8654 16.7135 10.7649 16.469 10.6715 16.1425C10.5781 15.8161 10.4943 15.4199 10.4525 15.0201C10.4106 14.6204 10.4106 14.2291 10.4278 13.9275C10.4451 13.626 10.4786 13.4206 10.527 13.2321C10.5754 13.0437 10.6368 12.8774 10.7193 12.6859C10.8018 12.4944 10.8916 12.2787 11.0187 12.0931L11.029 12.0781C11.2673 11.7305 11.3961 11.5426 11.4375 11.51C11.5446 11.4258 11.7203 11.2649 11.9792 11.0874C12.149 10.971 12.3118 10.8535 12.4756 10.7862C12.6506 10.7143 12.8144 10.6249 13.1212 10.521C13.299 10.4608 13.6061 10.363 13.9092 10.2964C14.2124 10.2298 14.5027 10.1956 14.7716 10.1785C15.0405 10.1614 15.2806 10.1614 15.5531 10.179C15.8256 10.1966 16.1216 10.2309 16.2839 10.2505Z" stroke="white" stroke-width="4.34439" stroke-linecap="round"/>
<path d="M19.9039 25.1245C19.745 25.1245 19.5837 25.1028 19.4248 25.0595C18.8831 24.9102 18.4787 24.5298 18.368 24.0652C18.3367 23.928 18.4209 23.7908 18.5557 23.7595C18.6954 23.7282 18.8302 23.8124 18.8615 23.9473C18.9265 24.2289 19.2009 24.4721 19.5596 24.5708C19.8557 24.6526 20.1615 24.6286 20.3974 24.5058C20.6454 24.3782 20.8163 24.1326 20.8332 23.8847C20.8428 23.745 20.968 23.6391 21.1028 23.6487C21.2424 23.6584 21.3483 23.7787 21.3387 23.9184C21.3098 24.3397 21.033 24.7465 20.6333 24.9535C20.4191 25.0667 20.1663 25.1245 19.9063 25.1245H19.9039Z" stroke="white" stroke-width="4.34439" stroke-linecap="round"/>
<path d="M22.4267 25.126C22.2678 25.126 22.1065 25.1043 21.9477 25.061C21.406 24.9117 21.0015 24.5313 20.8908 24.0667C20.8595 23.9319 20.9438 23.7947 21.0786 23.761C21.2134 23.7297 21.3506 23.8139 21.3843 23.9488C21.4493 24.228 21.7238 24.4736 22.0801 24.5723C22.3762 24.6541 22.6819 24.6301 22.9178 24.5073C23.1658 24.3797 23.3367 24.1341 23.3536 23.8862C23.3632 23.7465 23.4643 23.631 23.6232 23.6502C23.7628 23.6599 23.8688 23.7802 23.8591 23.9199C23.8302 24.3412 23.5534 24.748 23.1538 24.955C22.9395 25.0682 22.6867 25.126 22.4267 25.126Z" stroke="white" stroke-width="4.34439" stroke-linecap="round"/>
<path d="M21.566 22.2249C21.6147 22.2298 21.623 22.231 21.6314 22.2322C21.6417 22.2335 21.7291 22.2513 21.7342 22.252C21.7393 22.2526 21.8193 22.2878 21.8244 22.2891C21.8499 22.299 21.8842 22.308 21.9904 22.3516C22.0309 22.3682 22.0866 22.3972 22.1392 22.4244C22.1594 22.4349 22.2068 22.4643 22.2671 22.5011C22.2982 22.5201 22.3182 22.538 22.3439 22.5548C22.3761 22.5758 22.426 22.6207 22.4547 22.6511C22.464 22.6609 22.5153 22.7139 22.5734 22.8073C22.5996 22.8494 22.6119 22.8839 22.624 22.9083C22.6434 22.9476 22.6561 22.971 22.6611 22.9884C22.6721 23.0268 22.6845 23.0636 22.6882 23.1494C22.6907 23.2091 22.6969 23.3155 22.694 23.3743C22.6906 23.4442 22.6879 23.467 22.6684 23.5183C22.6529 23.5591 22.6244 23.6276 22.6032 23.6713C22.5821 23.715 22.5687 23.7334 22.5525 23.7608C22.5363 23.7882 22.5179 23.8237 22.4854 23.8679C22.4529 23.9121 22.4093 23.9643 22.3798 23.9929C22.342 24.0297 22.3277 24.0592 22.2471 24.1082C22.2015 24.136 22.1355 24.1773 22.0676 24.212C21.9747 24.2596 21.9275 24.2755 21.8859 24.291C21.8479 24.3051 21.8243 24.3211 21.7394 24.3429C21.6938 24.3546 21.6446 24.3664 21.5309 24.3688C21.4441 24.3706 21.3017 24.3706 21.2253 24.37C21.149 24.3693 21.1389 24.3679 21.1209 24.3675C21.0424 24.3656 20.9951 24.3627 20.9307 24.357C20.8884 24.3533 20.8454 24.3435 20.8098 24.3378C20.7749 24.3323 20.7331 24.3319 20.6997 24.3236C20.6295 24.3063 20.5939 24.3 20.561 24.2884C20.528 24.2767 20.4903 24.2783 20.4282 24.2389C20.3961 24.2186 20.3656 24.1989 20.3074 24.1638C20.2678 24.1399 20.1947 24.0968 20.1555 24.0701C20.1068 24.037 20.0719 24.0208 20.0399 23.9869C20.0171 23.9628 19.9831 23.9292 19.9568 23.8746C19.9404 23.8406 19.9103 23.7795 19.8822 23.6979C19.8542 23.6163 19.8291 23.5172 19.8165 23.4173C19.804 23.3174 19.804 23.2195 19.8091 23.1441C19.8143 23.0688 19.8244 23.0174 19.8389 22.9703C19.8534 22.9232 19.8718 22.8816 19.8966 22.8337C19.9213 22.7858 19.9482 22.7319 19.9864 22.6855L19.9895 22.6818C20.061 22.5949 20.0996 22.5479 20.112 22.5398C20.1442 22.5187 20.1969 22.4785 20.2746 22.4341C20.3255 22.405 20.3743 22.3756 20.4235 22.3588C20.476 22.3408 20.5251 22.3185 20.6172 22.2925C20.6705 22.2775 20.7626 22.253 20.8536 22.2364C20.9445 22.2197 21.0316 22.2112 21.1123 22.2069C21.1929 22.2026 21.265 22.2026 21.3467 22.207C21.4285 22.2114 21.5172 22.22 21.566 22.2249Z" stroke="white" stroke-width="4.34439" stroke-linecap="round"/>
<path d="M28.0803 10.0131C28.2427 10.0333 28.2706 10.0383 28.2985 10.0433C28.3327 10.0485 28.624 10.1218 28.641 10.1244C28.658 10.1269 28.9248 10.2719 28.9418 10.277C29.0268 10.3179 29.1412 10.3549 29.4951 10.5338C29.6302 10.6022 29.8159 10.7217 29.9911 10.8334C30.0586 10.8764 30.2166 10.9972 30.4173 11.1486C30.5211 11.2268 30.5878 11.3002 30.6735 11.3692C30.7808 11.4557 30.9473 11.6403 31.0427 11.7653C31.0737 11.8058 31.245 12.0234 31.4384 12.4073C31.5257 12.5804 31.5669 12.7222 31.607 12.8226C31.6717 12.9844 31.714 13.0804 31.7307 13.1519C31.7676 13.3099 31.8087 13.4612 31.821 13.8137C31.8296 14.0592 31.8501 14.4967 31.8406 14.7386C31.8292 15.0259 31.8201 15.1196 31.755 15.3307C31.7033 15.4983 31.6084 15.7799 31.5379 15.9595C31.4675 16.1391 31.4228 16.2146 31.3688 16.3274C31.3148 16.4402 31.2534 16.586 31.145 16.7677C31.0366 16.9494 30.8913 17.1641 30.7932 17.2817C30.6671 17.433 30.6195 17.554 30.3508 17.7557C30.1987 17.8699 29.9787 18.0398 29.7525 18.1825C29.4427 18.3779 29.2854 18.4433 29.1468 18.507C29.02 18.5653 28.9413 18.6309 28.6583 18.7205C28.5065 18.7685 28.3425 18.8169 27.9633 18.8268C27.6741 18.8343 27.1995 18.8343 26.9449 18.8317C26.6904 18.8292 26.6569 18.8234 26.597 18.8216C26.335 18.8139 26.1776 18.8018 25.9628 18.7784C25.8216 18.763 25.6783 18.723 25.5598 18.6997C25.4436 18.6768 25.304 18.6751 25.1927 18.6412C24.9587 18.5698 24.84 18.5443 24.7306 18.4964C24.6206 18.4483 24.4946 18.455 24.2877 18.2931C24.1807 18.2094 24.079 18.1285 23.8853 17.9843C23.7532 17.8861 23.5095 17.7087 23.3787 17.599C23.2163 17.4628 23.1002 17.3961 22.9935 17.2571C22.9173 17.1578 22.8042 17.0198 22.7164 16.7952C22.6618 16.6556 22.5613 16.4042 22.4679 16.0687C22.3745 15.7333 22.2908 15.326 22.2489 14.9152C22.207 14.5043 22.207 14.1021 22.2243 13.7922C22.2415 13.4823 22.275 13.2712 22.3234 13.0775C22.3718 12.8839 22.4332 12.7129 22.5157 12.5161C22.5982 12.3192 22.688 12.0976 22.8151 11.9069L22.8254 11.8914C23.0637 11.5342 23.1925 11.341 23.2339 11.3076C23.341 11.221 23.5167 11.0556 23.7757 10.8732C23.9455 10.7536 24.1082 10.6328 24.272 10.5636C24.447 10.4897 24.6108 10.3978 24.9176 10.2911C25.0954 10.2292 25.4025 10.1286 25.7056 10.0602C26.0088 9.99183 26.2991 9.95663 26.568 9.93904C26.8369 9.92144 27.077 9.92144 27.3495 9.93957C27.622 9.9577 27.918 9.99289 28.0803 10.0131Z" stroke="white" stroke-width="4.34439" stroke-linecap="round"/>
<path d="M28.0803 10.0131C28.2427 10.0333 28.2706 10.0383 28.2985 10.0433C28.3327 10.0485 28.624 10.1218 28.641 10.1244C28.658 10.1269 28.9248 10.2719 28.9418 10.277C29.0268 10.3179 29.1412 10.3549 29.4951 10.5338C29.6302 10.6022 29.8159 10.7217 29.9911 10.8334C30.0586 10.8764 30.2166 10.9972 30.4173 11.1486C30.5211 11.2268 30.5878 11.3002 30.6735 11.3692C30.7808 11.4557 30.9473 11.6403 31.0427 11.7653C31.0737 11.8058 31.245 12.0234 31.4384 12.4073C31.5257 12.5804 31.5669 12.7222 31.607 12.8226C31.6717 12.9844 31.714 13.0804 31.7307 13.1519C31.7676 13.3099 31.8087 13.4612 31.821 13.8137C31.8296 14.0592 31.8501 14.4967 31.8406 14.7386C31.8292 15.0259 31.8201 15.1196 31.755 15.3307C31.7033 15.4983 31.6084 15.7799 31.5379 15.9595C31.4675 16.1391 31.4228 16.2146 31.3688 16.3274C31.3148 16.4402 31.2534 16.586 31.145 16.7677C31.0366 16.9494 30.8913 17.1641 30.7932 17.2817C30.6671 17.433 30.6195 17.554 30.3508 17.7557C30.1987 17.8699 29.9787 18.0398 29.7525 18.1825C29.4427 18.3779 29.2854 18.4433 29.1468 18.507C29.02 18.5653 28.9413 18.6309 28.6583 18.7205C28.5065 18.7685 28.3425 18.8169 27.9633 18.8268C27.6741 18.8343 27.1995 18.8343 26.9449 18.8317C26.6904 18.8292 26.6569 18.8234 26.597 18.8216C26.335 18.8139 26.1776 18.8018 25.9628 18.7784C25.8216 18.763 25.6783 18.723 25.5598 18.6997C25.4436 18.6768 25.304 18.6751 25.1927 18.6412C24.9587 18.5698 24.84 18.5443 24.7306 18.4964C24.6206 18.4483 24.4946 18.455 24.2877 18.2931C24.1807 18.2094 24.079 18.1285 23.8853 17.9843C23.7532 17.8861 23.5095 17.7087 23.3787 17.599C23.2163 17.4628 23.1002 17.3961 22.9935 17.2571C22.9173 17.1578 22.8042 17.0198 22.7164 16.7952C22.6618 16.6556 22.5613 16.4042 22.4679 16.0687C22.3745 15.7333 22.2908 15.326 22.2489 14.9152C22.207 14.5043 22.207 14.1021 22.2243 13.7922C22.2415 13.4823 22.275 13.2712 22.3234 13.0775C22.3718 12.8839 22.4332 12.7129 22.5157 12.5161C22.5982 12.3192 22.688 12.0976 22.8151 11.9069L22.8254 11.8914C23.0637 11.5342 23.1925 11.341 23.2339 11.3076C23.341 11.221 23.5167 11.0556 23.7757 10.8732C23.9455 10.7536 24.1082 10.6328 24.272 10.5636C24.447 10.4897 24.6108 10.3978 24.9176 10.2911C25.0954 10.2292 25.4025 10.1286 25.7056 10.0602C26.0088 9.99183 26.2991 9.95663 26.568 9.93904C26.8369 9.92144 27.077 9.92144 27.3495 9.93957C27.622 9.9577 27.918 9.99289 28.0803 10.0131Z" stroke="white" stroke-width="4.34439" stroke-linecap="round"/>
<path d="M23.5748 19.3289C23.5992 19.3322 23.6033 19.333 23.6075 19.3338C23.6127 19.3347 23.6564 19.3466 23.6589 19.347C23.6615 19.3474 23.7015 19.3709 23.704 19.3717C23.7168 19.3784 23.7339 19.3844 23.787 19.4134C23.8073 19.4245 23.8351 19.4438 23.8614 19.4619C23.8716 19.4689 23.8952 19.4885 23.9254 19.5131C23.9409 19.5258 23.9509 19.5376 23.9638 19.5488C23.9799 19.5629 24.0048 19.5928 24.0192 19.6131C24.0238 19.6196 24.0495 19.6549 24.0785 19.7172C24.0916 19.7452 24.0978 19.7682 24.1038 19.7845C24.1135 19.8108 24.1199 19.8263 24.1224 19.8379C24.1279 19.8635 24.1341 19.8881 24.1359 19.9452C24.1372 19.985 24.1403 20.056 24.1388 20.0952C24.1371 20.1418 24.1358 20.157 24.126 20.1912C24.1183 20.2184 24.104 20.2641 24.0934 20.2932C24.0829 20.3223 24.0762 20.3346 24.0681 20.3529C24.06 20.3712 24.0508 20.3948 24.0345 20.4243C24.0183 20.4537 23.9965 20.4885 23.9817 20.5076C23.9628 20.5322 23.9557 20.5518 23.9154 20.5845C23.8926 20.603 23.8596 20.6306 23.8256 20.6537C23.7792 20.6854 23.7556 20.696 23.7348 20.7063C23.7158 20.7158 23.704 20.7264 23.6615 20.7409C23.6387 20.7487 23.6141 20.7566 23.5573 20.7582C23.5139 20.7594 23.4427 20.7594 23.4045 20.759C23.3663 20.7586 23.3613 20.7576 23.3523 20.7573C23.313 20.7561 23.2894 20.7541 23.2572 20.7503C23.236 20.7478 23.2145 20.7413 23.1967 20.7376C23.1793 20.7339 23.1584 20.7336 23.1417 20.7281C23.1066 20.7165 23.0888 20.7124 23.0723 20.7046C23.0558 20.6968 23.037 20.6979 23.0059 20.6716C22.9899 20.6581 22.9746 20.6449 22.9456 20.6216C22.9257 20.6056 22.8892 20.5769 22.8696 20.5591C22.8452 20.537 22.8278 20.5262 22.8118 20.5036C22.8004 20.4875 22.7834 20.4651 22.7702 20.4287C22.762 20.4061 22.747 20.3653 22.7329 20.3109C22.7189 20.2565 22.7064 20.1905 22.7001 20.1239C22.6938 20.0572 22.6938 19.992 22.6964 19.9418C22.699 19.8915 22.704 19.8573 22.7113 19.8259C22.7185 19.7945 22.7277 19.7667 22.7401 19.7348C22.7525 19.7029 22.766 19.667 22.785 19.636L22.7866 19.6335C22.8223 19.5756 22.8416 19.5443 22.8478 19.5388C22.8639 19.5248 22.8903 19.498 22.9291 19.4684C22.9546 19.449 22.979 19.4294 23.0036 19.4182C23.0298 19.4062 23.0544 19.3913 23.1004 19.374C23.1271 19.364 23.1731 19.3477 23.2186 19.3366C23.2641 19.3255 23.3076 19.3198 23.348 19.3169C23.3883 19.3141 23.4243 19.3141 23.4652 19.317C23.5061 19.3199 23.5505 19.3257 23.5748 19.3289Z" stroke="white" stroke-width="4.34439" stroke-linecap="round"/>
<path d="M19.2415 19.3289C19.2658 19.3322 19.27 19.333 19.2742 19.3338C19.2793 19.3347 19.323 19.3466 19.3256 19.347C19.3281 19.3474 19.3681 19.3709 19.3707 19.3717C19.3834 19.3784 19.4006 19.3844 19.4537 19.4134C19.474 19.4245 19.5018 19.4438 19.5281 19.4619C19.5382 19.4689 19.5619 19.4885 19.592 19.5131C19.6076 19.5258 19.6176 19.5376 19.6305 19.5488C19.6465 19.5629 19.6715 19.5928 19.6858 19.6131C19.6905 19.6196 19.7162 19.6549 19.7452 19.7172C19.7583 19.7452 19.7645 19.7682 19.7705 19.7845C19.7802 19.8108 19.7865 19.8263 19.789 19.8379C19.7946 19.8635 19.8007 19.8881 19.8026 19.9452C19.8039 19.985 19.8069 20.056 19.8055 20.0952C19.8038 20.1418 19.8024 20.157 19.7927 20.1912C19.7849 20.2184 19.7707 20.2641 19.7601 20.2932C19.7495 20.3223 19.7428 20.3346 19.7347 20.3529C19.7266 20.3712 19.7174 20.3948 19.7012 20.4243C19.6849 20.4537 19.6631 20.4885 19.6484 20.5076C19.6295 20.5322 19.6224 20.5518 19.5821 20.5845C19.5592 20.603 19.5262 20.6306 19.4923 20.6537C19.4458 20.6854 19.4222 20.696 19.4015 20.7063C19.3824 20.7158 19.3706 20.7264 19.3282 20.7409C19.3054 20.7487 19.2808 20.7566 19.2239 20.7582C19.1805 20.7594 19.1094 20.7594 19.0712 20.759C19.033 20.7586 19.028 20.7576 19.019 20.7573C18.9797 20.7561 18.9561 20.7541 18.9239 20.7503C18.9027 20.7478 18.8812 20.7413 18.8634 20.7376C18.846 20.7339 18.825 20.7336 18.8083 20.7281C18.7732 20.7165 18.7554 20.7124 18.739 20.7046C18.7225 20.6968 18.7036 20.6979 18.6726 20.6716C18.6565 20.6581 18.6413 20.6449 18.6122 20.6216C18.5924 20.6056 18.5558 20.5769 18.5362 20.5591C18.5119 20.537 18.4945 20.5262 18.4784 20.5036C18.467 20.4875 18.4501 20.4651 18.4369 20.4287C18.4287 20.4061 18.4136 20.3653 18.3996 20.3109C18.3856 20.2565 18.373 20.1905 18.3668 20.1239C18.3605 20.0572 18.3605 19.992 18.3631 19.9418C18.3657 19.8915 18.3707 19.8573 18.3779 19.8259C18.3852 19.7945 18.3944 19.7667 18.4068 19.7348C18.4192 19.7029 18.4326 19.667 18.4517 19.636L18.4532 19.6335C18.489 19.5756 18.5083 19.5443 18.5145 19.5388C18.5306 19.5248 18.5569 19.498 18.5958 19.4684C18.6212 19.449 18.6457 19.4294 18.6702 19.4182C18.6965 19.4062 18.7211 19.3913 18.7671 19.374C18.7937 19.364 18.8398 19.3477 18.8853 19.3366C18.9307 19.3255 18.9743 19.3198 19.0146 19.3169C19.055 19.3141 19.091 19.3141 19.1319 19.317C19.1727 19.3199 19.2171 19.3257 19.2415 19.3289Z" stroke="white" stroke-width="4.34439" stroke-linecap="round"/>
<path d="M23.6175 13.2273C23.9829 13.2671 24.0457 13.277 24.1085 13.287C24.1854 13.2972 24.8409 13.4419 24.8792 13.4469C24.9174 13.4518 25.5175 13.7379 25.5558 13.7481C25.7471 13.8286 26.0046 13.9017 26.8007 14.2547C27.1047 14.3896 27.5225 14.6253 27.9168 14.8457C28.0687 14.9306 28.4242 15.1689 28.8759 15.4676C29.1092 15.622 29.2595 15.7667 29.4523 15.9029C29.6936 16.0735 30.0682 16.4378 30.283 16.6843C30.3527 16.7643 30.738 17.1936 31.1733 17.951C31.3696 18.2925 31.4624 18.5723 31.5527 18.7705C31.6981 19.0897 31.7934 19.2791 31.831 19.4202C31.914 19.7318 32.0065 20.0303 32.0341 20.7258C32.0533 21.2101 32.0996 22.0734 32.0781 22.5506C32.0526 23.1174 32.0321 23.3022 31.8856 23.7187C31.7693 24.0495 31.5557 24.605 31.3972 24.9594C31.2386 25.3138 31.1381 25.4626 31.0166 25.6852C30.8952 25.9078 30.757 26.1955 30.5131 26.554C30.2693 26.9124 29.9423 27.336 29.7216 27.568C29.4378 27.8665 29.3308 28.1054 28.7262 28.5033C28.384 28.7286 27.889 29.0638 27.38 29.3453C26.6829 29.7308 26.329 29.86 26.0172 29.9856C25.7319 30.1005 25.5548 30.23 24.9181 30.4067C24.5764 30.5015 24.2075 30.597 23.3543 30.6165C22.7036 30.6314 21.6357 30.6314 21.0629 30.6263C20.4901 30.6212 20.4148 30.6098 20.28 30.6063C19.6906 30.5911 19.3364 30.5673 18.8532 30.5211C18.5355 30.4907 18.2131 30.4117 17.9464 30.3657C17.685 30.3206 17.3708 30.3172 17.1204 30.2502C16.5938 30.1096 16.3268 30.0592 16.0806 29.9647C15.8332 29.8697 15.5498 29.883 15.0841 29.5635C14.8433 29.3984 14.6146 29.2388 14.1788 28.9544C13.8816 28.7605 13.3331 28.4106 13.0389 28.1942C12.6736 27.9254 12.4122 27.7939 12.1722 27.5195C12.0008 27.3236 11.7463 27.0513 11.5487 26.6082C11.426 26.3329 11.1998 25.8369 10.9897 25.175C10.7795 24.5131 10.591 23.7096 10.4968 22.899C10.4026 22.0884 10.4026 21.2949 10.4414 20.6835C10.4803 20.072 10.5556 19.6554 10.6645 19.2734C10.7734 18.8913 10.9116 18.554 11.0972 18.1657C11.2828 17.7773 11.4848 17.3399 11.7709 16.9637L11.7941 16.9333C12.3301 16.2285 12.62 15.8473 12.7132 15.7813C12.9542 15.6106 13.3495 15.2841 13.932 14.9243C14.3141 14.6883 14.6803 14.45 15.0489 14.3135C15.4426 14.1677 15.8112 13.9864 16.5015 13.7757C16.9015 13.6537 17.5925 13.4553 18.2745 13.3203C18.9566 13.1854 19.6099 13.1159 20.2149 13.0812C20.8198 13.0465 21.3601 13.0465 21.9732 13.0823C22.5864 13.118 23.2522 13.1875 23.6175 13.2273Z" fill="#E1B47D"/>
<path d="M16.2839 10.2512C16.4463 10.2708 16.4742 10.2757 16.5021 10.2806C16.5363 10.2857 16.8276 10.357 16.8446 10.3595C16.8616 10.3619 17.1283 10.503 17.1453 10.508C17.2304 10.5478 17.3448 10.5838 17.6987 10.7579C17.8338 10.8244 18.0195 10.9406 18.1947 11.0493C18.2622 11.0912 18.4202 11.2087 18.6209 11.356C18.7247 11.4322 18.7914 11.5035 18.8771 11.5707C18.9844 11.6548 19.1509 11.8345 19.2463 11.956C19.2773 11.9955 19.4485 12.2072 19.642 12.5807C19.7292 12.7491 19.7705 12.8871 19.8106 12.9848C19.8753 13.1422 19.9176 13.2356 19.9343 13.3052C19.9712 13.4589 20.0123 13.6061 20.0246 13.9491C20.0331 14.1879 20.0537 14.6137 20.0441 14.849C20.0328 15.1285 20.0237 15.2197 19.9586 15.4251C19.9069 15.5882 19.812 15.8621 19.7415 16.0369C19.671 16.2117 19.6264 16.2851 19.5724 16.3948C19.5184 16.5046 19.457 16.6465 19.3486 16.8233C19.2402 17 19.0949 17.2089 18.9968 17.3233C18.8707 17.4705 18.8231 17.5883 18.5544 17.7846C18.4023 17.8957 18.1823 18.061 17.9561 18.1998C17.6463 18.3899 17.489 18.4536 17.3504 18.5156C17.2236 18.5723 17.1449 18.6361 16.8619 18.7232C16.7101 18.77 16.5461 18.8171 16.1669 18.8267C15.8777 18.834 15.4031 18.834 15.1485 18.8315C14.8939 18.829 14.8605 18.8234 14.8005 18.8217C14.5386 18.8142 14.3812 18.8024 14.1664 18.7796C14.0252 18.7647 13.8819 18.7257 13.7634 18.703C13.6472 18.6808 13.5076 18.6791 13.3963 18.6461C13.1623 18.5767 13.0436 18.5518 12.9342 18.5053C12.8242 18.4584 12.6982 18.465 12.4913 18.3074C12.3842 18.226 12.2826 18.1473 12.0889 18.007C11.9568 17.9114 11.713 17.7389 11.5823 17.6321C11.4199 17.4996 11.3038 17.4347 11.1971 17.2994C11.1209 17.2028 11.0078 17.0685 10.92 16.85C10.8654 16.7142 10.7649 16.4696 10.6715 16.1432C10.5781 15.8168 10.4943 15.4205 10.4525 15.0208C10.4106 14.6211 10.4106 14.2297 10.4278 13.9282C10.4451 13.6267 10.4786 13.4212 10.527 13.2328C10.5754 13.0444 10.6368 12.8781 10.7193 12.6866C10.8018 12.495 10.8916 12.2793 11.0187 12.0938L11.029 12.0788C11.2673 11.7312 11.3961 11.5433 11.4375 11.5107C11.5446 11.4265 11.7203 11.2655 11.9792 11.0881C12.149 10.9717 12.3118 10.8542 12.4756 10.7869C12.6506 10.715 12.8144 10.6255 13.1212 10.5217C13.299 10.4615 13.6061 10.3636 13.9092 10.2971C14.2124 10.2305 14.5027 10.1963 14.7716 10.1792C15.0405 10.162 15.2806 10.162 15.5531 10.1797C15.8256 10.1973 16.1216 10.2316 16.2839 10.2512Z" fill="#E1B47D"/>
<path d="M19.9038 25.125C19.7449 25.125 19.5836 25.1034 19.4247 25.06C18.883 24.9108 18.4786 24.5304 18.3679 24.0658C18.3366 23.9286 18.4208 23.7913 18.5556 23.76C18.6953 23.7287 18.8301 23.813 18.8614 23.9478C18.9264 24.2295 19.2008 24.4726 19.5595 24.5713C19.8556 24.6532 20.1614 24.6291 20.3973 24.5063C20.6453 24.3787 20.8162 24.1332 20.833 23.8852C20.8427 23.7456 20.9679 23.6397 21.1027 23.6493C21.2423 23.6589 21.3482 23.7793 21.3386 23.9189C21.3097 24.3402 21.0329 24.7471 20.6332 24.9541C20.419 25.0673 20.1662 25.125 19.9062 25.125H19.9038Z" fill="black"/>
<path d="M22.4272 25.1265C22.2683 25.1265 22.107 25.1049 21.9481 25.0615C21.4065 24.9123 21.002 24.5319 20.8913 24.0673C20.86 23.9325 20.9443 23.7952 21.0791 23.7615C21.2139 23.7302 21.3511 23.8145 21.3848 23.9493C21.4498 24.2286 21.7243 24.4741 22.0806 24.5728C22.3767 24.6547 22.6824 24.6306 22.9183 24.5078C23.1663 24.3802 23.3372 24.1347 23.3541 23.8867C23.3637 23.7471 23.4648 23.6315 23.6237 23.6508C23.7633 23.6604 23.8693 23.7808 23.8596 23.9204C23.8307 24.3417 23.5539 24.7486 23.1543 24.9556C22.94 25.0688 22.6872 25.1265 22.4272 25.1265Z" fill="black"/>
<path d="M21.5657 22.2254C21.6144 22.2303 21.6228 22.2316 21.6312 22.2328C21.6415 22.234 21.7289 22.2519 21.734 22.2525C21.7391 22.2531 21.8191 22.2884 21.8242 22.2896C21.8497 22.2996 21.884 22.3086 21.9902 22.3521C22.0307 22.3687 22.0864 22.3978 22.139 22.425C22.1592 22.4354 22.2066 22.4648 22.2668 22.5016C22.298 22.5207 22.318 22.5385 22.3437 22.5553C22.3759 22.5763 22.4258 22.6212 22.4545 22.6516C22.4638 22.6615 22.5151 22.7144 22.5732 22.8078C22.5993 22.8499 22.6117 22.8844 22.6238 22.9088C22.6431 22.9482 22.6559 22.9715 22.6609 22.9889C22.6719 23.0273 22.6843 23.0642 22.6879 23.1499C22.6905 23.2096 22.6967 23.316 22.6938 23.3749C22.6904 23.4448 22.6877 23.4675 22.6681 23.5189C22.6526 23.5597 22.6242 23.6282 22.603 23.6719C22.5819 23.7156 22.5685 23.7339 22.5523 23.7613C22.5361 23.7888 22.5177 23.8242 22.4852 23.8684C22.4526 23.9126 22.409 23.9649 22.3796 23.9935C22.3418 24.0303 22.3275 24.0597 22.2469 24.1088C22.2013 24.1366 22.1353 24.1779 22.0674 24.2126C21.9745 24.2601 21.9273 24.276 21.8857 24.2915C21.8476 24.3057 21.824 24.3217 21.7391 24.3434C21.6936 24.3551 21.6444 24.3669 21.5306 24.3693C21.4439 24.3711 21.3015 24.3711 21.2251 24.3705C21.1487 24.3699 21.1387 24.3685 21.1207 24.368C21.0421 24.3662 20.9949 24.3632 20.9305 24.3575C20.8881 24.3538 20.8451 24.3441 20.8096 24.3384C20.7747 24.3328 20.7328 24.3324 20.6994 24.3241C20.6292 24.3068 20.5936 24.3006 20.5608 24.2889C20.5278 24.2772 20.49 24.2789 20.4279 24.2395C20.3958 24.2191 20.3653 24.1994 20.3072 24.1644C20.2676 24.1405 20.1945 24.0973 20.1552 24.0707C20.1065 24.0375 20.0717 24.0213 20.0397 23.9875C20.0168 23.9633 19.9829 23.9298 19.9566 23.8751C19.9402 23.8412 19.91 23.78 19.882 23.6984C19.854 23.6168 19.8289 23.5178 19.8163 23.4178C19.8037 23.3179 19.8037 23.2201 19.8089 23.1447C19.8141 23.0693 19.8242 23.0179 19.8387 22.9708C19.8532 22.9237 19.8716 22.8821 19.8964 22.8343C19.9211 22.7864 19.948 22.7325 19.9862 22.6861L19.9893 22.6823C20.0607 22.5954 20.0994 22.5484 20.1118 22.5403C20.144 22.5193 20.1967 22.479 20.2743 22.4347C20.3253 22.4056 20.3741 22.3762 20.4233 22.3593C20.4757 22.3414 20.5249 22.319 20.6169 22.293C20.6703 22.278 20.7624 22.2535 20.8533 22.2369C20.9443 22.2203 21.0314 22.2117 21.112 22.2074C21.1927 22.2031 21.2647 22.2031 21.3465 22.2075C21.4282 22.212 21.517 22.2205 21.5657 22.2254Z" fill="#060606"/>
<path d="M28.0798 10.0138C28.2422 10.034 28.2701 10.039 28.298 10.0441C28.3322 10.0492 28.6235 10.1226 28.6405 10.1251C28.6575 10.1276 28.9242 10.2726 28.9412 10.2778C29.0263 10.3186 29.1407 10.3556 29.4946 10.5346C29.6297 10.6029 29.8153 10.7224 29.9906 10.8341C30.0581 10.8771 30.2161 10.9979 30.4168 11.1493C30.5206 11.2276 30.5873 11.3009 30.673 11.3699C30.7803 11.4564 30.9468 11.6411 31.0422 11.766C31.0732 11.8065 31.2444 12.0241 31.4379 12.408C31.5251 12.5811 31.5664 12.7229 31.6065 12.8234C31.6712 12.9852 31.7135 13.0812 31.7302 13.1527C31.7671 13.3106 31.8082 13.4619 31.8205 13.8144C31.829 14.0599 31.8496 14.4975 31.84 14.7393C31.8287 15.0266 31.8196 15.1203 31.7545 15.3314C31.7028 15.4991 31.6079 15.7806 31.5374 15.9602C31.4669 16.1399 31.4223 16.2153 31.3683 16.3281C31.3143 16.4409 31.2529 16.5867 31.1445 16.7684C31.0361 16.9501 30.8908 17.1648 30.7927 17.2824C30.6666 17.4337 30.619 17.5548 30.3503 17.7565C30.1982 17.8707 29.9782 18.0405 29.752 18.1832C29.4422 18.3786 29.2849 18.4441 29.1463 18.5077C29.0195 18.566 28.9408 18.6316 28.6578 18.7212C28.506 18.7693 28.342 18.8176 27.9628 18.8275C27.6736 18.8351 27.199 18.8351 26.9444 18.8325C26.6898 18.8299 26.6564 18.8241 26.5964 18.8224C26.3345 18.8147 26.1771 18.8026 25.9623 18.7792C25.8211 18.7638 25.6778 18.7237 25.5593 18.7004C25.4431 18.6775 25.3035 18.6758 25.1922 18.6419C24.9582 18.5706 24.8395 18.545 24.7301 18.4971C24.6201 18.449 24.4941 18.4557 24.2872 18.2938C24.1801 18.2101 24.0785 18.1292 23.8848 17.9851C23.7527 17.8868 23.5089 17.7095 23.3782 17.5998C23.2158 17.4636 23.0997 17.3969 22.993 17.2578C22.9168 17.1585 22.8037 17.0205 22.7159 16.7959C22.6613 16.6564 22.5608 16.405 22.4674 16.0695C22.374 15.734 22.2902 15.3267 22.2484 14.9159C22.2065 14.5051 22.2065 14.1029 22.2237 13.793C22.241 13.4831 22.2745 13.2719 22.3229 13.0783C22.3713 12.8846 22.4327 12.7137 22.5152 12.5168C22.5977 12.32 22.6875 12.0983 22.8146 11.9076L22.8249 11.8922C23.0632 11.5349 23.192 11.3418 23.2334 11.3083C23.3405 11.2218 23.5162 11.0563 23.7751 10.8739C23.9449 10.7543 24.1077 10.6335 24.2715 10.5644C24.4465 10.4905 24.6103 10.3986 24.9171 10.2918C25.0949 10.2299 25.402 10.1294 25.7051 10.061C26.0083 9.99256 26.2986 9.95737 26.5675 9.93977C26.8364 9.92217 27.0765 9.92217 27.349 9.9403C27.6215 9.95843 27.9174 9.99363 28.0798 10.0138Z" fill="#E1B47D"/>
<path d="M28.0798 10.0138C28.2422 10.034 28.2701 10.039 28.298 10.0441C28.3322 10.0492 28.6235 10.1226 28.6405 10.1251C28.6575 10.1276 28.9242 10.2726 28.9412 10.2778C29.0263 10.3186 29.1407 10.3556 29.4946 10.5346C29.6297 10.6029 29.8153 10.7224 29.9906 10.8341C30.0581 10.8771 30.2161 10.9979 30.4168 11.1493C30.5206 11.2276 30.5873 11.3009 30.673 11.3699C30.7803 11.4564 30.9468 11.6411 31.0422 11.766C31.0732 11.8065 31.2444 12.0241 31.4379 12.408C31.5251 12.5811 31.5664 12.7229 31.6065 12.8234C31.6712 12.9852 31.7135 13.0812 31.7302 13.1527C31.7671 13.3106 31.8082 13.4619 31.8205 13.8144C31.829 14.0599 31.8496 14.4975 31.84 14.7393C31.8287 15.0266 31.8196 15.1203 31.7545 15.3314C31.7028 15.4991 31.6079 15.7806 31.5374 15.9602C31.4669 16.1399 31.4223 16.2153 31.3683 16.3281C31.3143 16.4409 31.2529 16.5867 31.1445 16.7684C31.0361 16.9501 30.8908 17.1648 30.7927 17.2824C30.6666 17.4337 30.619 17.5548 30.3503 17.7565C30.1982 17.8707 29.9782 18.0405 29.752 18.1832C29.4422 18.3786 29.2849 18.4441 29.1463 18.5077C29.0195 18.566 28.9408 18.6316 28.6578 18.7212C28.506 18.7693 28.342 18.8176 27.9628 18.8275C27.6736 18.8351 27.199 18.8351 26.9444 18.8325C26.6898 18.8299 26.6564 18.8241 26.5964 18.8224C26.3345 18.8147 26.1771 18.8026 25.9623 18.7792C25.8211 18.7638 25.6778 18.7237 25.5593 18.7004C25.4431 18.6775 25.3035 18.6758 25.1922 18.6419C24.9582 18.5706 24.8395 18.545 24.7301 18.4971C24.6201 18.449 24.4941 18.4557 24.2872 18.2938C24.1801 18.2101 24.0785 18.1292 23.8848 17.9851C23.7527 17.8868 23.5089 17.7095 23.3782 17.5998C23.2158 17.4636 23.0997 17.3969 22.993 17.2578C22.9168 17.1585 22.8037 17.0205 22.7159 16.7959C22.6613 16.6564 22.5608 16.405 22.4674 16.0695C22.374 15.734 22.2902 15.3267 22.2484 14.9159C22.2065 14.5051 22.2065 14.1029 22.2237 13.793C22.241 13.4831 22.2745 13.2719 22.3229 13.0783C22.3713 12.8846 22.4327 12.7137 22.5152 12.5168C22.5977 12.32 22.6875 12.0983 22.8146 11.9076L22.8249 11.8922C23.0632 11.5349 23.192 11.3418 23.2334 11.3083C23.3405 11.2218 23.5162 11.0563 23.7751 10.8739C23.9449 10.7543 24.1077 10.6335 24.2715 10.5644C24.4465 10.4905 24.6103 10.3986 24.9171 10.2918C25.0949 10.2299 25.402 10.1294 25.7051 10.061C26.0083 9.99256 26.2986 9.95737 26.5675 9.93977C26.8364 9.92217 27.0765 9.92217 27.349 9.9403C27.6215 9.95843 27.9174 9.99363 28.0798 10.0138Z" fill="#E1B47D"/>
<path d="M23.5744 19.3297C23.5987 19.333 23.6029 19.3338 23.6071 19.3346C23.6122 19.3354 23.6559 19.3473 23.6585 19.3477C23.661 19.3481 23.701 19.3717 23.7036 19.3725C23.7163 19.3791 23.7335 19.3851 23.7866 19.4141C23.8069 19.4252 23.8347 19.4446 23.861 19.4627C23.8711 19.4697 23.8948 19.4893 23.9249 19.5138C23.9405 19.5265 23.9505 19.5384 23.9634 19.5496C23.9794 19.5636 24.0044 19.5936 24.0187 19.6138C24.0234 19.6204 24.0491 19.6557 24.0781 19.7179C24.0912 19.746 24.0974 19.769 24.1034 19.7853C24.1131 19.8115 24.1194 19.8271 24.1219 19.8387C24.1275 19.8643 24.1336 19.8888 24.1355 19.946C24.1368 19.9858 24.1398 20.0568 24.1384 20.096C24.1367 20.1426 24.1353 20.1578 24.1256 20.192C24.1178 20.2192 24.1036 20.2648 24.093 20.294C24.0824 20.3231 24.0757 20.3353 24.0676 20.3536C24.0595 20.3719 24.0503 20.3956 24.0341 20.425C24.0178 20.4545 23.996 20.4893 23.9813 20.5084C23.9624 20.5329 23.9553 20.5525 23.915 20.5853C23.8921 20.6038 23.8591 20.6313 23.8252 20.6545C23.7787 20.6861 23.7551 20.6968 23.7344 20.7071C23.7153 20.7165 23.7035 20.7272 23.6611 20.7417C23.6383 20.7495 23.6137 20.7573 23.5568 20.7589C23.5134 20.7602 23.4423 20.7602 23.4041 20.7597C23.3659 20.7593 23.3609 20.7584 23.3519 20.7581C23.3126 20.7569 23.289 20.7549 23.2568 20.7511C23.2356 20.7486 23.2141 20.7421 23.1963 20.7383C23.1789 20.7346 23.1579 20.7343 23.1412 20.7288C23.1061 20.7173 23.0883 20.7131 23.0719 20.7054C23.0554 20.6976 23.0365 20.6986 23.0055 20.6724C22.9894 20.6588 22.9742 20.6457 22.9451 20.6223C22.9253 20.6064 22.8887 20.5776 22.8691 20.5598C22.8448 20.5378 22.8274 20.5269 22.8113 20.5044C22.7999 20.4883 22.783 20.4659 22.7698 20.4295C22.7616 20.4069 22.7465 20.3661 22.7325 20.3117C22.7185 20.2573 22.7059 20.1912 22.6997 20.1246C22.6934 20.058 22.6934 19.9928 22.696 19.9425C22.6986 19.8923 22.7036 19.858 22.7108 19.8266C22.7181 19.7952 22.7273 19.7675 22.7397 19.7356C22.7521 19.7037 22.7655 19.6677 22.7846 19.6368L22.7861 19.6343C22.8219 19.5764 22.8412 19.545 22.8474 19.5396C22.8635 19.5256 22.8898 19.4987 22.9287 19.4692C22.9541 19.4498 22.9786 19.4302 23.0031 19.419C23.0294 19.407 23.054 19.3921 23.1 19.3748C23.1266 19.3647 23.1727 19.3484 23.2182 19.3373C23.2636 19.3262 23.3072 19.3205 23.3475 19.3177C23.3879 19.3148 23.4239 19.3148 23.4648 19.3178C23.5056 19.3207 23.55 19.3264 23.5744 19.3297Z" fill="#060606"/>
<path d="M19.2414 19.3297C19.2657 19.333 19.2699 19.3338 19.2741 19.3346C19.2792 19.3354 19.3229 19.3473 19.3255 19.3477C19.328 19.3481 19.368 19.3717 19.3706 19.3725C19.3833 19.3791 19.4005 19.3851 19.4536 19.4141C19.4738 19.4252 19.5017 19.4446 19.528 19.4627C19.5381 19.4697 19.5618 19.4893 19.5919 19.5138C19.6075 19.5265 19.6175 19.5384 19.6303 19.5496C19.6464 19.5636 19.6714 19.5936 19.6857 19.6138C19.6904 19.6204 19.7161 19.6557 19.7451 19.7179C19.7582 19.746 19.7644 19.769 19.7704 19.7853C19.7801 19.8115 19.7864 19.8271 19.7889 19.8387C19.7945 19.8643 19.8006 19.8888 19.8025 19.946C19.8038 19.9858 19.8068 20.0568 19.8054 20.096C19.8037 20.1426 19.8023 20.1578 19.7926 20.192C19.7848 20.2192 19.7706 20.2648 19.76 20.294C19.7494 20.3231 19.7427 20.3353 19.7346 20.3536C19.7265 20.3719 19.7173 20.3956 19.7011 20.425C19.6848 20.4545 19.663 20.4893 19.6483 20.5084C19.6294 20.5329 19.6222 20.5525 19.5819 20.5853C19.5591 20.6038 19.5261 20.6313 19.4922 20.6545C19.4457 20.6861 19.4221 20.6968 19.4013 20.7071C19.3823 20.7165 19.3705 20.7272 19.3281 20.7417C19.3053 20.7495 19.2807 20.7573 19.2238 20.7589C19.1804 20.7602 19.1092 20.7602 19.0711 20.7597C19.0329 20.7593 19.0279 20.7584 19.0189 20.7581C18.9796 20.7569 18.956 20.7549 18.9237 20.7511C18.9026 20.7486 18.8811 20.7421 18.8633 20.7383C18.8459 20.7346 18.8249 20.7343 18.8082 20.7288C18.7731 20.7173 18.7553 20.7131 18.7389 20.7054C18.7224 20.6976 18.7035 20.6986 18.6725 20.6724C18.6564 20.6588 18.6412 20.6457 18.6121 20.6223C18.5923 20.6064 18.5557 20.5776 18.5361 20.5598C18.5118 20.5378 18.4943 20.5269 18.4783 20.5044C18.4669 20.4883 18.4499 20.4659 18.4368 20.4295C18.4286 20.4069 18.4135 20.3661 18.3995 20.3117C18.3855 20.2573 18.3729 20.1912 18.3666 20.1246C18.3604 20.058 18.3604 19.9928 18.363 19.9425C18.3655 19.8923 18.3706 19.858 18.3778 19.8266C18.3851 19.7952 18.3943 19.7675 18.4067 19.7356C18.419 19.7037 18.4325 19.6677 18.4516 19.6368L18.4531 19.6343C18.4889 19.5764 18.5082 19.545 18.5144 19.5396C18.5305 19.5256 18.5568 19.4987 18.5957 19.4692C18.6211 19.4498 18.6455 19.4302 18.6701 19.419C18.6964 19.407 18.7209 19.3921 18.767 19.3748C18.7936 19.3647 18.8397 19.3484 18.8852 19.3373C18.9306 19.3262 18.9742 19.3205 19.0145 19.3177C19.0549 19.3148 19.0909 19.3148 19.1317 19.3178C19.1726 19.3207 19.217 19.3264 19.2414 19.3297Z" fill="#060606"/>
</g>
<defs>
<filter id="filter0_ddd_752_17185" x="-1.75" y="-1" width="46" height="46" filterUnits="userSpaceOnUse" color-interpolation-filters="sRGB">
<feFlood flood-opacity="0" result="BackgroundImageFix"/>
<feColorMatrix in="SourceAlpha" type="matrix" values="0 0 0 0 0 0 0 0 0 0 0 0 0 0 0 0 0 0 127 0" result="hardAlpha"/>
<feOffset/>
<feGaussianBlur stdDeviation="0.5"/>
<feComposite in2="hardAlpha" operator="out"/>
<feColorMatrix type="matrix" values="0 0 0 0 0 0 0 0 0 0 0 0 0 0 0 0 0 0 0.08 0"/>
<feBlend mode="normal" in2="BackgroundImageFix" result="effect1_dropShadow_752_17185"/>
<feColorMatrix in="SourceAlpha" type="matrix" values="0 0 0 0 0 0 0 0 0 0 0 0 0 0 0 0 0 0 127 0" result="hardAlpha"/>
<feOffset dy="1"/>
<feGaussianBlur stdDeviation="2"/>
<feComposite in2="hardAlpha" operator="out"/>
<feColorMatrix type="matrix" values="0 0 0 0 0 0 0 0 0 0 0 0 0 0 0 0 0 0 0.08 0"/>
<feBlend mode="normal" in2="effect1_dropShadow_752_17185" result="effect2_dropShadow_752_17185"/>
<feColorMatrix in="SourceAlpha" type="matrix" values="0 0 0 0 0 0 0 0 0 0 0 0 0 0 0 0 0 0 127 0" result="hardAlpha"/>
<feOffset dy="2"/>
<feGaussianBlur stdDeviation="4"/>
<feComposite in2="hardAlpha" operator="out"/>
<feColorMatrix type="matrix" values="0 0 0 0 0 0 0 0 0 0 0 0 0 0 0 0 0 0 0.12 0"/>
<feBlend mode="normal" in2="effect2_dropShadow_752_17185" result="effect3_dropShadow_752_17185"/>
<feBlend mode="normal" in="SourceGraphic" in2="effect3_dropShadow_752_17185" result="shape"/>
</filter>
</defs>
</svg>
