<svg width="45" height="42" viewBox="0 0 45 42" fill="none" xmlns="http://www.w3.org/2000/svg">
<g filter="url(#filter0_ddd_752_17140)">
<path d="M34.6936 16.8959C34.6936 17.0139 34.6936 17.1369 34.6936 17.2549C34.6838 19.463 34.6641 21.6761 34.6493 23.8842C34.6493 24.0121 34.6493 24.1449 34.6395 24.2776C34.6395 24.5432 34.6247 24.8186 34.6002 25.0891C34.5166 26.1268 34.2707 27.1399 33.5281 27.8333C32.6674 28.6398 31.3839 28.7677 30.2036 28.8414C30.0609 28.8513 29.9233 28.8611 29.7806 28.866C29.4954 28.8857 29.2102 28.9005 28.92 28.9201C24.7693 29.1562 20.6088 29.2644 16.4482 29.2398C16.1778 29.2398 15.9073 29.2398 15.6319 29.23C15.1204 29.23 14.604 29.2201 14.0926 29.2103C12.8877 29.1857 11.4418 29.0087 10.9206 27.9267C10.7091 27.489 10.6993 26.9923 10.6943 26.5104C10.6943 26.0678 10.6943 25.6251 10.6943 25.1825C10.6943 24.917 10.6943 24.6465 10.7042 24.3858C10.7337 22.399 10.8222 20.4171 10.9648 18.4401C10.9845 18.1942 10.9992 17.9582 11.0189 17.7123C11.0287 17.6287 11.0287 17.55 11.0386 17.4664C11.2697 14.673 11.3582 13.1436 14.545 13.0944C15.0909 13.0846 15.6417 13.0796 16.1925 13.0698C16.4581 13.0698 16.7237 13.06 16.9892 13.06C21.2284 12.996 25.4676 12.9321 29.7069 12.8682C29.9724 12.8682 30.238 12.8583 30.5036 12.8583C30.7642 12.8583 31.0199 12.8485 31.2806 12.8485C32.0084 12.8387 32.7756 12.8387 33.4051 13.2124C34.4575 13.837 34.669 15.1992 34.6887 16.4631C34.6887 16.6156 34.6887 16.7631 34.6887 16.9057L34.6936 16.8959Z" fill="#5AC0F3"/>
<path d="M27.9658 15.1424L26.3724 15.1227C26.3085 13.8933 26.2397 12.5015 25.5561 11.4933C24.7299 10.2688 22.8709 9.78192 21.489 10.436C20.107 11.0901 19.2563 12.7572 19.5169 14.3211L17.9432 14.5818C17.5694 12.3392 18.8038 9.93929 20.8054 8.99014C22.807 8.04115 25.6151 8.72457 26.879 10.5983C27.6658 11.7589 27.8478 13.1458 27.9314 14.3703H28.0248L27.9658 15.1424Z" fill="#5AC0F3"/>
<path d="M16.9893 13.0533C16.9893 14.7057 16.5467 16.1565 15.691 17.1942C14.9386 18.104 13.6747 18.763 12.4108 18.763C11.919 18.763 11.4223 18.6597 10.9649 18.4335C10.9846 18.1876 10.9993 17.9515 11.019 17.7056L11.0928 17.5925C12.4108 18.4187 14.1861 17.7646 15.0763 16.6827C15.809 15.7876 16.1926 14.5238 16.1926 13.0631C16.4582 13.0631 16.7238 13.0533 16.9893 13.0533Z" fill="#FFF5CF"/>
<path d="M34.6937 16.8949C34.6937 17.0129 34.6937 17.1359 34.6937 17.2539C34.4281 17.2686 34.1724 17.2834 33.9166 17.2834C32.6724 17.2834 31.5266 17.0277 30.7003 16.167C29.8545 15.2769 29.6676 14.0769 29.7118 12.8671C29.9774 12.8671 30.243 12.8573 30.5085 12.8573C30.4692 13.9097 30.6118 14.9228 31.2807 15.6212C32.0724 16.4474 33.3412 16.5654 34.6937 16.4572C34.6937 16.6097 34.6937 16.7572 34.6937 16.8998V16.8949Z" fill="#FFF5CF"/>
<path d="M34.6392 24.2717C34.6392 24.5373 34.6244 24.8127 34.5998 25.0832C33.4638 25.2061 32.3622 25.6635 31.4917 26.3913C30.7196 27.0405 30.1295 27.911 29.7852 28.8601C29.5 28.8798 29.2148 28.8945 28.9246 28.9142C29.2984 27.7044 30.0164 26.593 30.9852 25.7815C32.0032 24.9209 33.3114 24.3947 34.6441 24.2717H34.6392Z" fill="#FFF5CF"/>
<path d="M16.4482 29.2329C16.1778 29.2329 15.9073 29.2329 15.6319 29.223C15.4401 28.2985 14.9926 27.4231 14.3336 26.7297C13.3893 25.7412 12.0517 25.1854 10.6943 25.1707C10.6943 24.9051 10.6943 24.6346 10.7042 24.374C12.273 24.3838 13.827 25.0379 14.9188 26.1739C15.7253 27.01 16.2515 28.0919 16.4532 29.2279L16.4482 29.2329Z" fill="#FFF5CF"/>
<path d="M34.6936 16.8959C34.6936 17.0139 34.6936 17.1369 34.6936 17.2549C34.6838 19.463 34.6641 21.6761 34.6493 23.8842C34.6493 24.0121 34.6493 24.1449 34.6395 24.2776C34.6395 24.5432 34.6247 24.8186 34.6002 25.0891C34.5166 26.1268 34.2707 27.1399 33.5281 27.8333C32.6674 28.6398 31.3839 28.7677 30.2036 28.8414C30.0609 28.8513 29.9233 28.8611 29.7806 28.866C29.4954 28.8857 29.2102 28.9005 28.92 28.9201C24.7693 29.1562 20.6088 29.2644 16.4482 29.2398C16.1778 29.2398 15.9073 29.2398 15.6319 29.23C15.1204 29.23 14.604 29.2201 14.0926 29.2103C12.8877 29.1857 11.4418 29.0087 10.9206 27.9267C10.7091 27.489 10.6993 26.9923 10.6943 26.5104C10.6943 26.0678 10.6943 25.6251 10.6943 25.1825C10.6943 24.917 10.6943 24.6465 10.7042 24.3858C10.7337 22.399 10.8222 20.4171 10.9648 18.4401C10.9845 18.1942 10.9992 17.9582 11.0189 17.7123C11.0287 17.6287 11.0287 17.55 11.0386 17.4664C11.2697 14.673 11.3582 13.1436 14.545 13.0944C15.0909 13.0846 15.6417 13.0796 16.1925 13.0698C16.4581 13.0698 16.7237 13.06 16.9892 13.06C21.2284 12.996 25.4676 12.9321 29.7069 12.8682C29.9724 12.8682 30.238 12.8583 30.5036 12.8583C30.7642 12.8583 31.0199 12.8485 31.2806 12.8485C32.0084 12.8387 32.7756 12.8387 33.4051 13.2124C34.4575 13.837 34.669 15.1992 34.6887 16.4631C34.6887 16.6156 34.6887 16.7631 34.6887 16.9057L34.6936 16.8959Z" stroke="white" stroke-width="4.34439"/>
<path d="M27.9658 15.1424L26.3724 15.1227C26.3085 13.8933 26.2397 12.5015 25.5561 11.4933C24.7299 10.2688 22.8709 9.78192 21.489 10.436C20.107 11.0901 19.2563 12.7572 19.5169 14.3211L17.9432 14.5818C17.5694 12.3392 18.8038 9.93929 20.8054 8.99014C22.807 8.04115 25.6151 8.72457 26.879 10.5983C27.6658 11.7589 27.8478 13.1458 27.9314 14.3703H28.0248L27.9658 15.1424Z" stroke="white" stroke-width="4.34439"/>
<path d="M16.9893 13.0533C16.9893 14.7057 16.5467 16.1565 15.691 17.1942C14.9386 18.104 13.6747 18.763 12.4108 18.763C11.919 18.763 11.4223 18.6597 10.9649 18.4335C10.9846 18.1876 10.9993 17.9515 11.019 17.7056L11.0928 17.5925C12.4108 18.4187 14.1861 17.7646 15.0763 16.6827C15.809 15.7876 16.1926 14.5238 16.1926 13.0631C16.4582 13.0631 16.7238 13.0533 16.9893 13.0533Z" stroke="white" stroke-width="4.34439"/>
<path d="M34.6937 16.8949C34.6937 17.0129 34.6937 17.1359 34.6937 17.2539C34.4281 17.2686 34.1724 17.2834 33.9166 17.2834C32.6724 17.2834 31.5266 17.0277 30.7003 16.167C29.8545 15.2769 29.6676 14.0769 29.7118 12.8671C29.9774 12.8671 30.243 12.8573 30.5085 12.8573C30.4692 13.9097 30.6118 14.9228 31.2807 15.6212C32.0724 16.4474 33.3412 16.5654 34.6937 16.4572C34.6937 16.6097 34.6937 16.7572 34.6937 16.8998V16.8949Z" stroke="white" stroke-width="4.34439"/>
<path d="M34.6392 24.2717C34.6392 24.5373 34.6244 24.8127 34.5998 25.0832C33.4638 25.2061 32.3622 25.6635 31.4917 26.3913C30.7196 27.0405 30.1295 27.911 29.7852 28.8601C29.5 28.8798 29.2148 28.8945 28.9246 28.9142C29.2984 27.7044 30.0164 26.593 30.9852 25.7815C32.0032 24.9209 33.3114 24.3947 34.6441 24.2717H34.6392Z" stroke="white" stroke-width="4.34439"/>
<path d="M16.4482 29.2329C16.1778 29.2329 15.9073 29.2329 15.6319 29.223C15.4401 28.2985 14.9926 27.4231 14.3336 26.7297C13.3893 25.7412 12.0517 25.1854 10.6943 25.1707C10.6943 24.9051 10.6943 24.6346 10.7042 24.374C12.273 24.3838 13.827 25.0379 14.9188 26.1739C15.7253 27.01 16.2515 28.0919 16.4532 29.2279L16.4482 29.2329Z" stroke="white" stroke-width="4.34439"/>
<path d="M34.6936 16.9003C34.6936 17.0183 34.6936 17.1413 34.6936 17.2593C34.6838 19.4674 34.6641 21.6805 34.6493 23.8886C34.6493 24.0165 34.6493 24.1493 34.6395 24.2821C34.6395 24.5476 34.6247 24.823 34.6002 25.0935C34.5166 26.1312 34.2707 27.1443 33.5281 27.8377C32.6674 28.6442 31.3839 28.7721 30.2036 28.8458C30.061 28.8557 29.9233 28.8655 29.7806 28.8704C29.4954 28.8901 29.2102 28.9049 28.92 28.9245C24.7693 29.1606 20.6088 29.2688 16.4483 29.2442C16.1778 29.2442 15.9073 29.2442 15.6319 29.2344C15.1204 29.2344 14.604 29.2245 14.0926 29.2147C12.8877 29.1901 11.4418 29.0131 10.9206 27.9311C10.7091 27.4934 10.6993 26.9967 10.6943 26.5148C10.6943 26.0722 10.6943 25.6295 10.6943 25.1869C10.6943 24.9214 10.6943 24.6509 10.7042 24.3902C10.7337 22.4034 10.8222 20.4215 10.9648 18.4445C10.9845 18.1986 10.9992 17.9626 11.0189 17.7167C11.0287 17.6331 11.0287 17.5544 11.0386 17.4708C11.2697 14.6774 11.3582 13.148 14.545 13.0988C15.0909 13.089 15.6417 13.084 16.1925 13.0742C16.4581 13.0742 16.7237 13.0644 16.9892 13.0644C21.2284 13.0004 25.4676 12.9365 29.7069 12.8726C29.9724 12.8726 30.238 12.8627 30.5036 12.8627C30.7642 12.8627 31.0199 12.8529 31.2806 12.8529C32.0084 12.8431 32.7756 12.8431 33.4051 13.2168C34.4575 13.8414 34.669 15.2036 34.6887 16.4675C34.6887 16.62 34.6887 16.7675 34.6887 16.9101L34.6936 16.9003Z" fill="#5AC0F3"/>
<path d="M27.9671 15.1413L26.3737 15.1216C26.3098 13.8922 26.2409 12.5004 25.5574 11.4922C24.7311 10.2677 22.8722 9.78082 21.4903 10.4349C20.1083 11.089 19.2575 12.7561 19.5182 14.32L17.9445 14.5807C17.5707 12.3381 18.8051 9.9382 20.8067 8.98904C22.8083 8.04005 25.6164 8.72347 26.8802 10.5972C27.6671 11.7578 27.8491 13.1447 27.9327 14.3692H28.0261L27.9671 15.1413Z" fill="#5AC0F3"/>
<path d="M16.9902 13.054C16.9902 14.7064 16.5476 16.1571 15.6919 17.1948C14.9395 18.1046 13.6756 18.7636 12.4117 18.7636C11.9199 18.7636 11.4232 18.6603 10.9658 18.4341C10.9855 18.1882 11.0002 17.9522 11.0199 17.7063L11.0937 17.5932C12.4117 18.4194 14.187 17.7653 15.0772 16.6833C15.8099 15.7883 16.1935 14.5244 16.1935 13.0638C16.4591 13.0638 16.7247 13.054 16.9902 13.054Z" fill="#FFFBCA"/>
<path d="M34.6949 16.8976C34.6949 17.0156 34.6949 17.1385 34.6949 17.2566C34.4293 17.2713 34.1736 17.2861 33.9179 17.2861C32.6736 17.2861 31.5278 17.0304 30.7016 16.1697C29.8557 15.2796 29.6688 14.0796 29.7131 12.8698C29.9786 12.8698 30.2442 12.86 30.5097 12.86C30.4704 13.9124 30.613 14.9255 31.2819 15.6238C32.0736 16.4501 33.3425 16.5681 34.6949 16.4599C34.6949 16.6123 34.6949 16.7599 34.6949 16.9025V16.8976Z" fill="#FFFBCA"/>
<path d="M20.9713 21.9265L20.76 19.8804L24.6823 19.7884L24.5027 21.9006L20.9708 21.9988L20.9713 21.9265Z" fill="#FFFBCA"/>
<path d="M10.6943 21.2908L34.6936 20.5636" stroke="#FFFBCA" stroke-width="0.954435"/>
</g>
<defs>
<filter id="filter0_ddd_752_17140" x="-1.75" y="-2" width="48" height="48" filterUnits="userSpaceOnUse" color-interpolation-filters="sRGB">
<feFlood flood-opacity="0" result="BackgroundImageFix"/>
<feColorMatrix in="SourceAlpha" type="matrix" values="0 0 0 0 0 0 0 0 0 0 0 0 0 0 0 0 0 0 127 0" result="hardAlpha"/>
<feOffset/>
<feGaussianBlur stdDeviation="0.5"/>
<feComposite in2="hardAlpha" operator="out"/>
<feColorMatrix type="matrix" values="0 0 0 0 0 0 0 0 0 0 0 0 0 0 0 0 0 0 0.08 0"/>
<feBlend mode="normal" in2="BackgroundImageFix" result="effect1_dropShadow_752_17140"/>
<feColorMatrix in="SourceAlpha" type="matrix" values="0 0 0 0 0 0 0 0 0 0 0 0 0 0 0 0 0 0 127 0" result="hardAlpha"/>
<feOffset dy="1"/>
<feGaussianBlur stdDeviation="2"/>
<feComposite in2="hardAlpha" operator="out"/>
<feColorMatrix type="matrix" values="0 0 0 0 0 0 0 0 0 0 0 0 0 0 0 0 0 0 0.08 0"/>
<feBlend mode="normal" in2="effect1_dropShadow_752_17140" result="effect2_dropShadow_752_17140"/>
<feColorMatrix in="SourceAlpha" type="matrix" values="0 0 0 0 0 0 0 0 0 0 0 0 0 0 0 0 0 0 127 0" result="hardAlpha"/>
<feOffset dy="2"/>
<feGaussianBlur stdDeviation="4"/>
<feComposite in2="hardAlpha" operator="out"/>
<feColorMatrix type="matrix" values="0 0 0 0 0 0 0 0 0 0 0 0 0 0 0 0 0 0 0.12 0"/>
<feBlend mode="normal" in2="effect2_dropShadow_752_17140" result="effect3_dropShadow_752_17140"/>
<feBlend mode="normal" in="SourceGraphic" in2="effect3_dropShadow_752_17140" result="shape"/>
</filter>
</defs>
</svg>
