<svg width="48" height="44" viewBox="0 0 48 44" fill="none" xmlns="http://www.w3.org/2000/svg">
<g filter="url(#filter0_ddd_752_18728)">
<path d="M33.7582 16.1365C32.9637 14.8434 32.1341 13.5737 31.2734 12.3235C31.2539 12.2962 31.2344 12.269 31.2149 12.2378C26.4243 15.342 21.9804 18.9836 17.996 23.0731C18.3037 23.5522 18.5997 24.0429 18.8606 24.5571C23.4448 21.1335 33.5678 16.2198 33.7621 16.1404C33.9565 16.061 33.7582 16.1365 33.7582 16.1365Z" fill="#6AEF4E"/>
<path d="M28.9597 9.07768C28.9597 9.07768 22.0931 16.4505 21.5634 17.175C20.4495 18.69 19.4213 20.2635 18.4788 21.8916C18.249 22.2849 18.062 22.6238 17.9101 22.9276C17.9413 22.9743 17.9685 23.0211 17.9958 23.0678C21.9802 18.9822 26.4241 15.3405 31.2147 12.2325C30.4825 11.1653 29.7347 10.1098 28.9558 9.07768C28.9558 9.07768 28.8204 8.88724 28.9597 9.07768Z" fill="#F72B3E"/>
<path d="M33.7584 16.1347C28.4576 18.2885 23.4411 21.1278 18.8569 24.5514C19.0477 24.9214 19.2152 25.2992 19.3671 25.6847C24.3135 22.5261 35.6941 19.4102 35.6941 19.4102C35.6941 19.4102 34.4244 17.2135 33.7584 16.1308C33.0924 15.048 33.7584 16.1347 33.7584 16.1347Z" fill="#5AC0F3"/>
<path d="M10.7789 20.3685C9.92957 22.1379 13.7 24.4581 13.7 24.4581L12.5316 26.795C12.5316 26.795 10.2095 29.4165 11.3631 29.5213C11.9399 29.5738 12.7263 28.9371 12.7263 28.9371L15.4527 27.5739L16.8159 27.1844L17.4001 28.5476C17.4001 28.5476 17.7163 31.1075 18.958 31.6635C20.8778 32.5231 20.1264 26.4055 20.1264 26.4055C20.1264 26.4055 24.466 26.6943 24.6055 24.8476C24.7491 22.9456 20.1264 22.9002 20.1264 22.9002C20.1264 22.9002 21.5403 18.1676 19.5422 17.6422C17.6116 17.1345 16.2316 21.537 16.2316 21.537C16.2316 21.537 11.7214 18.4053 10.7789 20.3685Z" fill="#FFCC00"/>
<path d="M33.7582 16.1365C32.9637 14.8434 32.1341 13.5737 31.2734 12.3235C31.2539 12.2962 31.2344 12.269 31.2149 12.2378C26.4243 15.342 21.9804 18.9836 17.996 23.0731C18.3037 23.5522 18.5997 24.0429 18.8606 24.5571C23.4448 21.1335 33.5678 16.2198 33.7621 16.1404C33.9565 16.061 33.7582 16.1365 33.7582 16.1365Z" stroke="white" stroke-width="4.41864"/>
<path d="M28.9597 9.07768C28.9597 9.07768 22.0931 16.4505 21.5634 17.175C20.4495 18.69 19.4213 20.2635 18.4788 21.8916C18.249 22.2849 18.062 22.6238 17.9101 22.9276C17.9413 22.9743 17.9685 23.0211 17.9958 23.0678C21.9802 18.9822 26.4241 15.3405 31.2147 12.2325C30.4825 11.1653 29.7347 10.1098 28.9558 9.07768C28.9558 9.07768 28.8204 8.88724 28.9597 9.07768Z" stroke="white" stroke-width="4.41864"/>
<path d="M33.7584 16.1347C28.4576 18.2885 23.4411 21.1278 18.8569 24.5514C19.0477 24.9214 19.2152 25.2992 19.3671 25.6847C24.3135 22.5261 35.6941 19.4102 35.6941 19.4102C35.6941 19.4102 34.4244 17.2135 33.7584 16.1308C33.0924 15.048 33.7584 16.1347 33.7584 16.1347Z" stroke="white" stroke-width="4.41864"/>
<path d="M10.7789 20.3685C9.92957 22.1379 13.7 24.4581 13.7 24.4581L12.5316 26.795C12.5316 26.795 10.2095 29.4165 11.3631 29.5213C11.9399 29.5738 12.7263 28.9371 12.7263 28.9371L15.4527 27.5739L16.8159 27.1844L17.4001 28.5476C17.4001 28.5476 17.7163 31.1075 18.958 31.6635C20.8778 32.5231 20.1264 26.4055 20.1264 26.4055C20.1264 26.4055 24.466 26.6943 24.6055 24.8476C24.7491 22.9456 20.1264 22.9002 20.1264 22.9002C20.1264 22.9002 21.5403 18.1676 19.5422 17.6422C17.6116 17.1345 16.2316 21.537 16.2316 21.537C16.2316 21.537 11.7214 18.4053 10.7789 20.3685Z" stroke="white" stroke-width="4.41864"/>
<path d="M33.7584 16.1375C32.9638 14.8444 32.1342 13.5747 31.2735 12.3244C31.254 12.2972 31.2345 12.2699 31.215 12.2388C26.4244 15.3429 21.9805 18.9846 17.9961 23.0741C18.3038 23.5532 18.5998 24.0439 18.8607 24.558C23.4449 21.1345 28.4614 18.2952 33.7623 16.1414L33.7584 16.1375Z" fill="#6AEF4E"/>
<path d="M28.9597 9.07868C28.7728 8.8333 22.0932 16.4515 21.5635 17.176C20.4496 18.691 19.4213 20.2645 18.4788 21.8926C18.249 22.2859 18.0621 22.6248 17.9102 22.9286C17.9413 22.9753 17.9686 23.0221 17.9958 23.0688C21.9802 18.9832 26.4242 15.3415 31.2148 12.2335C30.4826 11.1663 29.7348 10.1108 28.9558 9.07868H28.9597Z" fill="#F72B3E"/>
<path d="M33.7589 16.1357C28.4581 18.2896 23.4416 21.1289 18.8574 24.5524C19.0483 24.9224 19.2157 25.3002 19.3676 25.6858C24.314 22.5271 29.9031 20.3733 35.6946 19.4113C35.0754 18.3051 34.4249 17.2146 33.7589 16.1318V16.1357Z" fill="#5AC0F3"/>
<path d="M10.7793 20.3695L13.7004 24.4591L12.532 26.796L11.3635 29.5223L12.7267 28.9381L14.2846 28.1591L15.4531 27.5749L16.8162 27.1854L17.4005 28.5486L18.9584 31.6645L20.1268 26.4065L24.6058 24.8486L20.1268 22.9012L19.5426 17.6432L16.232 21.538L10.7793 20.3695Z" fill="#FFCC00"/>
</g>
<defs>
<filter id="filter0_ddd_752_18728" x="-0.75" y="-2" width="48" height="48" filterUnits="userSpaceOnUse" color-interpolation-filters="sRGB">
<feFlood flood-opacity="0" result="BackgroundImageFix"/>
<feColorMatrix in="SourceAlpha" type="matrix" values="0 0 0 0 0 0 0 0 0 0 0 0 0 0 0 0 0 0 127 0" result="hardAlpha"/>
<feOffset/>
<feGaussianBlur stdDeviation="0.5"/>
<feComposite in2="hardAlpha" operator="out"/>
<feColorMatrix type="matrix" values="0 0 0 0 0 0 0 0 0 0 0 0 0 0 0 0 0 0 0.08 0"/>
<feBlend mode="normal" in2="BackgroundImageFix" result="effect1_dropShadow_752_18728"/>
<feColorMatrix in="SourceAlpha" type="matrix" values="0 0 0 0 0 0 0 0 0 0 0 0 0 0 0 0 0 0 127 0" result="hardAlpha"/>
<feOffset dy="1"/>
<feGaussianBlur stdDeviation="2"/>
<feComposite in2="hardAlpha" operator="out"/>
<feColorMatrix type="matrix" values="0 0 0 0 0 0 0 0 0 0 0 0 0 0 0 0 0 0 0.08 0"/>
<feBlend mode="normal" in2="effect1_dropShadow_752_18728" result="effect2_dropShadow_752_18728"/>
<feColorMatrix in="SourceAlpha" type="matrix" values="0 0 0 0 0 0 0 0 0 0 0 0 0 0 0 0 0 0 127 0" result="hardAlpha"/>
<feOffset dy="2"/>
<feGaussianBlur stdDeviation="4"/>
<feComposite in2="hardAlpha" operator="out"/>
<feColorMatrix type="matrix" values="0 0 0 0 0 0 0 0 0 0 0 0 0 0 0 0 0 0 0.12 0"/>
<feBlend mode="normal" in2="effect2_dropShadow_752_18728" result="effect3_dropShadow_752_18728"/>
<feBlend mode="normal" in="SourceGraphic" in2="effect3_dropShadow_752_18728" result="shape"/>
</filter>
</defs>
</svg>
