<svg width="45" height="48" viewBox="0 0 45 48" fill="none" xmlns="http://www.w3.org/2000/svg">
<g filter="url(#filter0_ddd_752_16601)">
<path d="M26.332 9.66528C27.4901 8.78646 30.8811 8.20789 30.5244 10.679C30.3485 11.9041 28.9842 13.052 28.0176 13.6516C27.5845 13.922 27.1361 14.165 26.6768 14.386C28.6188 14.3076 30.5554 14.2214 32.5254 14.2747C34.4017 14.3264 34.304 15.2777 34.2109 16.7922H34.2158C34.1848 17.2937 34.1541 17.7905 34.123 18.2971C34.1075 18.54 34.0867 18.8036 33.9473 19.0051C33.7044 19.3514 33.208 19.3925 32.7842 19.3977H32.6748V19.4163C32.6748 20.6931 32.6101 21.8101 32.6152 23.092C32.6152 23.4643 32.7109 24.9174 32.7109 25.2844L32.6748 28.0012C32.6748 28.3683 32.6953 30.0043 32.6953 30.3713V31.3225L32.7109 31.301C32.7161 33.7514 32.1975 35.002 29.5869 34.9866C30.0986 34.9711 30.9577 34.9878 30.5752 34.9827C30.234 34.9827 27.6749 34.9973 27.3389 34.9973C26.4447 34.9973 25.5449 34.9878 24.6455 34.9827C23.8909 34.9827 23.1257 34.9722 22.3711 34.967C22.0144 34.967 21.6626 34.9664 21.3008 34.9612H21.0889C19.1971 34.9508 18.1437 34.9305 16.252 34.9202C16.0814 34.9202 15.0728 34.9309 14.9014 34.9309C14.7566 34.9309 14.6011 34.9305 14.4512 34.9202C13.5879 34.8736 12.6988 34.6561 12.249 33.7825C12.094 33.4724 12.0162 33.1211 11.9697 32.7542C11.949 32.568 11.9335 32.3817 11.918 32.1956C11.9076 32.025 11.8971 31.8592 11.8867 31.6887C11.8454 30.9806 11.8042 30.2669 11.7783 29.5588C11.7369 28.51 11.6079 28.5103 11.582 27.4563C11.5769 27.0842 11.6652 25.6574 11.6602 25.2844C11.8876 23.2527 11.613 21.8667 11.582 20.1555V19.6926H11.5781C11.2318 19.6926 10.854 19.6721 10.6162 19.4241C10.3784 19.1759 10.2804 18.7311 10.2598 18.2141C10.2133 17.2991 10.3938 16.1771 10.3887 15.6292C10.3887 15.3501 10.3887 15.0552 10.5645 14.8381C10.7919 14.5488 11.2111 14.5286 11.5781 14.5286C14.1659 14.5368 16.7438 14.5187 19.3223 14.5032C18.7738 14.341 18.2343 14.1487 17.708 13.9231L17.7031 13.928C16.6589 13.4782 15.1389 12.5476 14.7822 11.3586C14.0641 8.96554 17.5014 9.03778 18.7783 9.7356C19.7244 10.2526 20.5206 10.9974 21.1875 11.8401C21.3451 12.0406 21.5981 12.3524 21.8604 12.7063C22.1154 12.4368 22.4764 12.2689 22.8779 12.2688C23.2879 12.2688 23.6553 12.4445 23.9111 12.7239C24.0499 12.475 24.1769 12.2598 24.2646 12.1057C24.7971 11.17 25.4739 10.3166 26.332 9.66528Z" fill="#FFCC00"/>
<path d="M26.332 9.66528L25.075 8.00886L25.0748 8.00899L26.332 9.66528ZM30.5244 10.679L28.4664 10.3819L28.4661 10.3834L30.5244 10.679ZM28.0176 13.6516L26.9215 11.8846L26.9164 11.8877L28.0176 13.6516ZM26.6768 14.386L25.7753 12.5122L26.7606 16.4637L26.6768 14.386ZM32.5254 14.2747L32.5827 12.1961L32.5816 12.196L32.5254 14.2747ZM34.2109 16.7922L32.1355 16.6647L31.9999 18.8716H34.2109V16.7922ZM34.2158 16.7922L36.2912 16.9206L36.4278 14.7129H34.2158V16.7922ZM34.123 18.2971L36.1982 18.4296L36.1985 18.4242L34.123 18.2971ZM33.9473 19.0051L35.6496 20.1993L35.6573 20.1882L33.9473 19.0051ZM32.7842 19.3977V21.4771H32.7969L32.8097 21.4769L32.7842 19.3977ZM32.6748 19.3977V17.3183H30.5954V19.3977H32.6748ZM32.6152 23.092H34.6946L34.6946 23.0837L32.6152 23.092ZM32.7109 25.2844L34.7901 25.3121L34.7903 25.2983V25.2844H32.7109ZM32.6748 28.0012L30.5956 27.9736L30.5954 27.9874V28.0012H32.6748ZM32.6953 31.3225H30.6159V37.717L34.377 32.5455L32.6953 31.3225ZM32.7109 31.301L34.7903 31.2966L34.7769 24.925L31.0293 30.078L32.7109 31.301ZM29.5869 34.9866L29.5239 32.9081L29.5746 37.0659L29.5869 34.9866ZM30.5752 34.9827L30.6033 32.9035L30.5892 32.9033H30.5752L30.5752 34.9827ZM27.3389 34.9973L27.3389 37.0767H27.3389V34.9973ZM24.6455 34.9827L24.6575 32.9033H24.6455L24.6455 34.9827ZM22.3711 34.967L22.3853 32.8877L22.3782 32.8877H22.3711V34.967ZM21.3008 34.9612L21.3305 32.882L21.3156 32.8818H21.3008V34.9612ZM21.0889 34.9612L21.0775 37.0406H21.0889V34.9612ZM16.252 34.9202L16.2633 32.8408H16.252V34.9202ZM14.9014 34.9309V37.0103H14.9015L14.9014 34.9309ZM14.4512 34.9202L14.5942 32.8457L14.5787 32.8446L14.5631 32.8438L14.4512 34.9202ZM12.249 33.7825L10.389 34.7121L10.3945 34.7232L10.4002 34.7342L12.249 33.7825ZM11.9697 32.7542L9.90306 32.9838L9.90483 32.9997L9.90685 33.0156L11.9697 32.7542ZM11.918 32.1956L9.84239 32.3214L9.84381 32.3448L9.84577 32.3682L11.918 32.1956ZM11.8867 31.6887L9.81086 31.8099L9.81114 31.8145L11.8867 31.6887ZM11.7783 29.5588L13.8563 29.483L13.8561 29.4769L11.7783 29.5588ZM11.582 27.4563L9.50285 27.4852L9.503 27.4962L9.50327 27.5073L11.582 27.4563ZM11.6602 25.2844L9.59368 25.0531L9.57919 25.1825L9.58096 25.3128L11.6602 25.2844ZM11.582 20.1555H9.50265V20.1744L9.50299 20.1932L11.582 20.1555ZM11.582 19.6926H13.6614V17.6132H11.582V19.6926ZM10.6162 19.4241L9.11492 20.8628L9.11517 20.8631L10.6162 19.4241ZM10.2598 18.2141L12.3375 18.131L12.337 18.1198L12.3365 18.1085L10.2598 18.2141ZM10.3887 15.6292H8.30929V15.639L8.30938 15.6488L10.3887 15.6292ZM10.5645 14.8381L12.1806 16.1465L12.19 16.1349L12.1992 16.1233L10.5645 14.8381ZM11.5781 14.5286L11.5847 12.4492H11.5781V14.5286ZM19.3223 14.5032L19.3348 16.5825L19.9117 12.5091L19.3223 14.5032ZM17.708 13.9231L18.5271 12.0118L17.2331 11.4573L16.2377 12.4527L17.708 13.9231ZM17.7031 13.928L16.8806 15.8378L18.1761 16.3957L19.1735 15.3983L17.7031 13.928ZM14.7822 11.3586L16.7739 10.7611L16.7739 10.761L14.7822 11.3586ZM18.7783 9.7356L17.7812 11.5603L17.7812 11.5603L18.7783 9.7356ZM21.1875 11.8401L22.8225 10.5554L22.818 10.5497L21.1875 11.8401ZM21.8604 12.7063L20.1898 13.9445L21.6664 15.9368L23.3708 14.1354L21.8604 12.7063ZM22.8779 12.2688V10.1894L22.8772 10.1894L22.8779 12.2688ZM23.9111 12.7239L22.3776 14.1282L24.3243 16.254L25.7275 13.7361L23.9111 12.7239ZM24.2646 12.1057L26.0719 13.1342L26.0719 13.1342L24.2646 12.1057ZM26.332 9.66528L27.5891 11.3217C27.5873 11.323 27.5989 11.3142 27.6271 11.2976C27.6548 11.2814 27.6929 11.2609 27.7419 11.2379C27.8414 11.1913 27.9672 11.1429 28.1104 11.1009C28.4127 11.0124 28.6921 10.9813 28.8771 10.9919C29.0963 11.0045 28.9463 11.0538 28.7289 10.8412C28.6063 10.7214 28.5266 10.5759 28.4907 10.4467C28.4587 10.3315 28.479 10.294 28.4664 10.3819L30.5244 10.679L32.5825 10.976C32.7405 9.88153 32.5136 8.7255 31.6365 7.86781C30.8474 7.09615 29.8442 6.88175 29.1154 6.83994C28.3525 6.79617 27.5892 6.92005 26.9412 7.10991C26.3068 7.29578 25.6256 7.59106 25.075 8.00886L26.332 9.66528ZM30.5244 10.679L28.4661 10.3834C28.4668 10.3785 28.4154 10.5893 28.052 10.9761C27.7215 11.328 27.2915 11.6551 26.9215 11.8846L28.0176 13.6516L29.1137 15.4186C29.7104 15.0485 30.4458 14.5019 31.083 13.8236C31.6874 13.1803 32.4061 12.2045 32.5827 10.9745L30.5244 10.679ZM28.0176 13.6516L26.9164 11.8877C26.5553 12.1132 26.1745 12.3201 25.7753 12.5122L26.6768 14.386L27.5782 16.2598C28.0976 16.0099 28.6137 15.7308 29.1188 15.4155L28.0176 13.6516ZM26.6768 14.386L26.7606 16.4637C28.7222 16.3845 30.5833 16.3023 32.4692 16.3533L32.5254 14.2747L32.5816 12.196C30.5274 12.1405 28.5153 12.2307 26.5929 12.3083L26.6768 14.386ZM32.5254 14.2747L32.4681 16.3533C32.6181 16.3574 32.7064 16.3696 32.7484 16.3777C32.79 16.3857 32.7656 16.3857 32.7022 16.3556C32.6335 16.323 32.5335 16.2618 32.4319 16.1594C32.3295 16.0563 32.2595 15.9455 32.2159 15.8503C32.1752 15.7614 32.1651 15.7026 32.1646 15.7C32.1644 15.699 32.1699 15.7318 32.1719 15.8157C32.1738 15.8992 32.1719 16.0073 32.165 16.1553C32.158 16.306 32.1478 16.4643 32.1355 16.6647L34.2109 16.7922L36.2864 16.9197C36.3072 16.5821 36.3391 16.1316 36.3295 15.7187C36.3199 15.3067 36.2695 14.7139 35.9974 14.1195C35.6908 13.4496 35.1716 12.924 34.4846 12.5981C33.8663 12.3048 33.1976 12.213 32.5827 12.1961L32.5254 14.2747ZM34.2109 16.7922V18.8716H34.2158V16.7922V14.7129H34.2109V16.7922ZM34.2158 16.7922L32.1404 16.6639C32.1094 17.1652 32.0786 17.6627 32.0475 18.17L34.123 18.2971L36.1985 18.4242C36.2295 17.9183 36.2602 17.4222 36.2912 16.9206L34.2158 16.7922ZM34.123 18.2971L32.0479 18.1646C32.0441 18.2235 32.042 18.2515 32.04 18.2713C32.0381 18.2893 32.0383 18.2801 32.0436 18.2542C32.0528 18.2084 32.0933 18.0301 32.2372 17.8221L33.9473 19.0051L35.6573 20.1882C36.1781 19.4354 36.1893 18.5695 36.1982 18.4296L34.123 18.2971ZM33.9473 19.0051L32.245 17.811C32.5067 17.4378 32.8403 17.3351 32.9078 17.3175C32.9462 17.3075 32.956 17.309 32.9222 17.312C32.8893 17.315 32.8395 17.3175 32.7587 17.3185L32.7842 19.3977L32.8097 21.4769C33.0483 21.474 33.4923 21.4632 33.9594 21.3411C34.4417 21.2151 35.1449 20.9187 35.6496 20.1993L33.9473 19.0051ZM32.7842 19.3977V17.3183H32.6748V19.3977V21.4771H32.7842V19.3977ZM32.6748 19.3977H30.5954V19.4163H32.6748H34.7542V19.3977H32.6748ZM32.6748 19.4163H30.5954C30.5954 20.0229 30.5801 20.5938 30.5644 21.1983C30.5489 21.796 30.5331 22.4244 30.5359 23.1004L32.6152 23.092L34.6946 23.0837C34.6922 22.4777 34.7062 21.9067 34.7218 21.3061C34.7372 20.7125 34.7542 20.0864 34.7542 19.4163H32.6748ZM32.6152 23.092H30.5358C30.5358 23.3488 30.5647 23.8833 30.5866 24.2992C30.6126 24.7954 30.6316 25.1716 30.6316 25.2844H32.7109H34.7903C34.7903 25.0302 34.7614 24.4963 34.7396 24.0811C34.7136 23.5857 34.6946 23.2075 34.6946 23.092H32.6152ZM32.7109 25.2844L30.6317 25.2568L30.5956 27.9736L32.6748 28.0012L34.754 28.0289L34.7901 25.3121L32.7109 25.2844ZM32.6748 28.0012H30.5954C30.5954 28.1986 30.6007 28.7151 30.6058 29.2076C30.611 29.7167 30.6159 30.2017 30.6159 30.3713H32.6953H34.7747C34.7747 30.174 34.7694 29.6574 34.7643 29.165C34.7591 28.6559 34.7542 28.1709 34.7542 28.0012H32.6748ZM32.6953 30.3713H30.6159V31.3225H32.6953H34.7747V30.3713H32.6953ZM32.6953 31.3225L34.377 32.5455L34.3926 32.5241L32.7109 31.301L31.0293 30.078L31.0136 30.0995L32.6953 31.3225ZM32.7109 31.301L30.6316 31.3054C30.6327 31.8602 30.6026 32.2472 30.5501 32.5205C30.4985 32.7887 30.4428 32.8526 30.4567 32.8338C30.4902 32.7885 30.5251 32.786 30.4573 32.811C30.3546 32.8489 30.1024 32.9102 29.5992 32.9072L29.5869 34.9866L29.5746 37.0659C31.1618 37.0753 32.7707 36.7021 33.803 35.3032C34.7004 34.0871 34.7929 32.5267 34.7903 31.2966L32.7109 31.301ZM29.5869 34.9866L29.6499 37.065C29.8643 37.0585 30.1739 37.0585 30.4019 37.0601C30.5129 37.0609 30.5928 37.0619 30.618 37.0623C30.6394 37.0627 30.6128 37.0624 30.582 37.0611C30.5796 37.061 30.5482 37.0598 30.5089 37.0567C30.497 37.0558 30.468 37.0532 30.451 37.0514C30.4247 37.0485 30.3523 37.0386 30.3064 37.0309C30.2064 37.0106 29.7586 36.8524 29.439 36.6591C28.5983 35.1567 29.5996 33.2012 30.0928 32.9861C30.2129 32.9552 30.387 32.9237 30.4397 32.9171C30.4687 32.9141 30.5162 32.91 30.5347 32.9087C30.5686 32.9065 30.5951 32.9056 30.6041 32.9053C30.6258 32.9047 30.6426 32.9045 30.647 32.9044C30.6591 32.9043 30.6682 32.9043 30.6696 32.9043C30.6727 32.9043 30.6746 32.9043 30.675 32.9043C30.6752 32.9043 30.67 32.9043 30.6563 32.9041C30.6436 32.904 30.6261 32.9038 30.6033 32.9035L30.5752 34.9827L30.5471 37.0619C30.5944 37.0625 30.6306 37.0629 30.6521 37.063C30.6535 37.063 30.6718 37.0632 30.6922 37.063C30.6971 37.0629 30.7144 37.0627 30.7364 37.062C30.7455 37.0617 30.7721 37.0608 30.8061 37.0586C30.8246 37.0573 30.8722 37.0532 30.9012 37.0502C30.9539 37.0436 31.128 37.0121 31.2481 36.9812C31.7413 36.7661 32.7426 34.8106 31.902 33.3082C31.5824 33.1149 31.1345 32.9567 31.0345 32.9364C30.9886 32.9288 30.9162 32.9188 30.8898 32.9159C30.8728 32.9141 30.8438 32.9115 30.8319 32.9105C30.7923 32.9075 30.7606 32.9062 30.7578 32.9061C30.7404 32.9054 30.7264 32.905 30.7235 32.9049C30.7179 32.9048 30.713 32.9047 30.7097 32.9046C30.7029 32.9044 30.6961 32.9043 30.6902 32.9042C30.646 32.9034 30.5508 32.9022 30.4309 32.9014C30.197 32.8998 29.8213 32.8991 29.5239 32.9081L29.5869 34.9866ZM30.5752 34.9827L30.5752 32.9033C30.3976 32.9033 29.664 32.907 28.9446 32.9106C28.2151 32.9143 27.4999 32.9179 27.3389 32.9179V34.9973V37.0767C27.5138 37.0767 28.2462 37.073 28.9656 37.0693C29.695 37.0657 30.4115 37.0621 30.5752 37.0621L30.5752 34.9827ZM27.3389 34.9973L27.3389 32.9179C26.4522 32.9179 25.5706 32.9086 24.6575 32.9033L24.6455 34.9827L24.6336 37.062C25.5192 37.0671 26.4371 37.0767 27.3389 37.0767L27.3389 34.9973ZM24.6455 34.9827L24.6455 32.9033C23.8991 32.9033 23.1603 32.893 22.3853 32.8877L22.3711 34.967L22.3569 37.0464C23.0912 37.0514 23.8826 37.062 24.6455 37.0621L24.6455 34.9827ZM22.3711 34.967V32.8877C22.0161 32.8877 21.6766 32.887 21.3305 32.882L21.3008 34.9612L21.2711 37.0404C21.6486 37.0457 22.0128 37.0464 22.3711 37.0464V34.967ZM21.3008 34.9612V32.8818H21.0889V34.9612V37.0406H21.3008V34.9612ZM21.0889 34.9612L21.1002 32.8818C20.16 32.8767 19.4282 32.8691 18.6921 32.8614C17.9556 32.8537 17.2148 32.846 16.2633 32.8408L16.252 34.9202L16.2406 36.9995C17.1808 37.0047 17.9126 37.0123 18.6487 37.0199C19.3852 37.0276 20.126 37.0353 21.0775 37.0405L21.0889 34.9612ZM16.252 34.9202V32.8408C16.1543 32.8408 15.8446 32.8436 15.5581 32.8462C15.2549 32.849 14.9746 32.8515 14.9012 32.8515L14.9014 34.9309L14.9015 37.0103C14.9995 37.0103 15.3093 37.0074 15.5959 37.0048C15.8992 37.0021 16.1791 36.9996 16.252 36.9996V34.9202ZM14.9014 34.9309V32.8515C14.7495 32.8515 14.6625 32.8504 14.5942 32.8457L14.4512 34.9202L14.3081 36.9946C14.5397 37.0106 14.7637 37.0103 14.9014 37.0103V34.9309ZM14.4512 34.9202L14.5631 32.8438C14.4121 32.8357 14.2923 32.8216 14.1975 32.8034C14.1029 32.7853 14.0513 32.7664 14.0299 32.7571C14.0117 32.7491 14.0257 32.7526 14.0519 32.7761C14.0643 32.7873 14.0756 32.7996 14.0848 32.8115C14.094 32.8235 14.0979 32.8309 14.0978 32.8307L12.249 33.7825L10.4002 34.7342C11.3901 36.657 13.3238 36.9418 14.3392 36.9965L14.4512 34.9202ZM12.249 33.7825L14.1091 32.8529C14.1094 32.8536 14.0977 32.8302 14.0817 32.7686C14.0655 32.7057 14.0484 32.6176 14.0326 32.4927L11.9697 32.7542L9.90685 33.0156C9.96638 33.4853 10.0834 34.1007 10.389 34.7121L12.249 33.7825ZM11.9697 32.7542L14.0364 32.5245C14.0194 32.3714 14.006 32.2133 13.9902 32.0229L11.918 32.1956L9.84577 32.3682C9.86092 32.5501 9.87871 32.7647 9.90306 32.9838L11.9697 32.7542ZM11.918 32.1956L13.9935 32.0698C13.9883 31.9826 13.9829 31.8969 13.9777 31.8131C13.9725 31.7287 13.9673 31.6463 13.9623 31.5629L11.8867 31.6887L9.81114 31.8145C9.81642 31.9017 9.82175 31.9874 9.82697 32.0712C9.83221 32.1555 9.83734 32.238 9.84239 32.3214L11.918 32.1956ZM11.8867 31.6887L13.9626 31.5675C13.9211 30.8569 13.8812 30.165 13.8563 29.483L11.7783 29.5588L9.70032 29.6347C9.72711 30.3688 9.76967 31.1044 9.81087 31.8099L11.8867 31.6887ZM11.7783 29.5588L13.8561 29.4769C13.8309 28.8376 13.7749 28.4865 13.7293 28.1915C13.6976 27.987 13.6709 27.8168 13.6608 27.4053L11.582 27.4563L9.50327 27.5073C9.51904 28.1498 9.56976 28.5065 9.61944 28.8275C9.65511 29.058 9.68439 29.2312 9.70055 29.6408L11.7783 29.5588ZM11.582 27.4563L13.6612 27.4274C13.6612 27.4276 13.6611 27.419 13.6614 27.399C13.6616 27.3799 13.662 27.3551 13.6628 27.3242C13.6644 27.2619 13.667 27.1845 13.6706 27.0934C13.6777 26.9106 13.6877 26.6939 13.6982 26.4668C13.7169 26.0622 13.743 25.5231 13.7393 25.2561L11.6602 25.2844L9.58096 25.3128C9.58096 25.3122 9.58099 25.3143 9.58098 25.3197C9.58097 25.3249 9.58093 25.3322 9.58082 25.3416C9.58059 25.3608 9.58012 25.3857 9.57934 25.4167C9.57775 25.4791 9.57512 25.5566 9.57156 25.6478C9.56443 25.8307 9.55441 26.0475 9.5439 26.2746C9.52519 26.679 9.49914 27.2182 9.50285 27.4852L11.582 27.4563ZM11.6602 25.2844L13.7266 25.5158C13.8575 24.3466 13.8421 23.3687 13.7944 22.4874C13.7435 21.5471 13.6759 20.9343 13.6611 20.1178L11.582 20.1555L9.50299 20.1932C9.5192 21.0879 9.60441 22.0237 9.64168 22.7122C9.68214 23.4596 9.69024 24.1906 9.59368 25.0531L11.6602 25.2844ZM11.582 20.1555H13.6614V19.6926H11.582H9.50265V20.1555H11.582ZM11.582 19.6926V17.6132H11.5781V19.6926V21.772H11.582V19.6926ZM11.5781 19.6926V17.6132C11.5082 17.6132 11.4725 17.612 11.4521 17.6107C11.4321 17.6094 11.4512 17.6093 11.495 17.6188C11.5817 17.6375 11.858 17.7147 12.1173 17.9851L10.6162 19.4241L9.11517 20.8631C9.61221 21.3815 10.1963 21.593 10.6179 21.684C11.0186 21.7704 11.3913 21.772 11.5781 21.772V19.6926ZM10.6162 19.4241L12.1175 17.9853C12.2233 18.0957 12.2848 18.1978 12.3176 18.2624C12.35 18.3263 12.361 18.3666 12.3617 18.3693C12.3627 18.3729 12.3577 18.3553 12.3518 18.3109C12.346 18.2674 12.3406 18.2079 12.3375 18.131L10.2598 18.2141L8.18204 18.2972C8.20436 18.8551 8.3004 20.0129 9.11492 20.8628L10.6162 19.4241ZM10.2598 18.2141L12.3365 18.1085C12.3209 17.8025 12.3427 17.4146 12.3809 16.957C12.411 16.5964 12.4718 16.0115 12.468 15.6095L10.3887 15.6292L8.30938 15.6488C8.31076 15.7948 8.28381 16.0448 8.23654 16.611C8.19737 17.0801 8.15211 17.7107 8.18306 18.3197L10.2598 18.2141ZM10.3887 15.6292H12.4681C12.4681 15.5527 12.4683 15.5225 12.4692 15.4997C12.47 15.4802 12.4702 15.5001 12.4633 15.5428C12.4492 15.6297 12.3938 15.8832 12.1806 16.1465L10.5645 14.8381L8.94826 13.5298C8.22625 14.4217 8.30929 15.5333 8.30929 15.6292H10.3887ZM10.5645 14.8381L12.1992 16.1233C11.9193 16.4792 11.5814 16.5791 11.4853 16.6012C11.4357 16.6127 11.4142 16.6125 11.4378 16.6108C11.4615 16.6092 11.501 16.608 11.5781 16.608V14.5286V12.4492C11.3892 12.4492 10.9832 12.4493 10.5526 12.5484C10.0983 12.653 9.43706 12.9077 8.92974 13.553L10.5645 14.8381ZM11.5781 14.5286L11.5715 16.6079C14.171 16.6162 16.76 16.598 19.3348 16.5825L19.3223 14.5032L19.3098 12.4238C16.7275 12.4394 14.1607 12.4574 11.5847 12.4492L11.5781 14.5286ZM19.3223 14.5032L19.9117 12.5091C19.4365 12.3686 18.9741 12.2034 18.5271 12.0118L17.708 13.9231L16.8889 15.8344C17.4945 16.0939 18.111 16.3135 18.7329 16.4973L19.3223 14.5032ZM17.708 13.9231L16.2377 12.4527L16.2328 12.4576L17.7031 13.928L19.1735 15.3983L19.1784 15.3934L17.708 13.9231ZM17.7031 13.928L18.5257 12.0182C18.1246 11.8455 17.6509 11.586 17.272 11.2874C16.8559 10.9595 16.7731 10.7584 16.7739 10.7611L14.7822 11.3586L12.7905 11.9561C13.1481 13.1479 14.0036 14.0066 14.6977 14.5537C15.429 15.13 16.2374 15.5607 16.8806 15.8378L17.7031 13.928ZM14.7822 11.3586L16.7739 10.761C16.7482 10.6755 16.7738 10.7089 16.7592 10.827C16.7429 10.9597 16.6859 11.1151 16.5824 11.2518C16.3987 11.4947 16.2425 11.4683 16.4568 11.4236C16.6378 11.3858 16.9185 11.3753 17.2308 11.4183C17.3787 11.4386 17.5104 11.4679 17.616 11.4994C17.6681 11.5149 17.709 11.5296 17.739 11.5417C17.7696 11.554 17.7827 11.5611 17.7812 11.5603L18.7783 9.7356L19.7755 7.9109C19.1696 7.5798 18.4528 7.38845 17.7977 7.29831C17.1288 7.20626 16.3556 7.19638 15.6075 7.35247C14.8926 7.50161 13.9319 7.86224 13.2658 8.7428C12.5258 9.72098 12.4729 10.8976 12.7906 11.9563L14.7822 11.3586ZM18.7783 9.7356L17.7812 11.5603C18.4221 11.9105 19.0148 12.4454 19.557 13.1305L21.1875 11.8401L22.818 10.5497C22.0265 9.54944 21.0266 8.59459 19.7754 7.91088L18.7783 9.7356ZM21.1875 11.8401L19.5525 13.1248C19.7346 13.3566 19.9508 13.622 20.1898 13.9445L21.8604 12.7063L23.5309 11.4681C23.2454 11.0829 22.9555 10.7246 22.8225 10.5554L21.1875 11.8401ZM21.8604 12.7063L23.3708 14.1354C23.248 14.2652 23.0694 14.3481 22.8786 14.3482L22.8779 12.2688L22.8772 10.1894C21.8834 10.1897 20.9828 10.6083 20.3499 11.2772L21.8604 12.7063ZM22.8779 12.2688V14.3482C22.6793 14.3482 22.4981 14.2598 22.3776 14.1282L23.9111 12.7239L25.4447 11.3196C24.8124 10.6291 23.8966 10.1894 22.8779 10.1894V12.2688ZM23.9111 12.7239L25.7275 13.7361C25.8652 13.4891 25.9571 13.3358 26.0719 13.1342L24.2646 12.1057L22.4574 11.0772C22.3967 11.1839 22.2346 11.4608 22.0948 11.7116L23.9111 12.7239ZM24.2646 12.1057L26.0719 13.1342C26.5022 12.378 27.0076 11.7631 27.5892 11.3216L26.332 9.66528L25.0748 8.00899C23.9402 8.87022 23.092 9.96206 22.4574 11.0773L24.2646 12.1057Z" fill="white"/>
<path d="M32.7105 31.3014C32.7156 33.7518 32.1005 35.0184 29.4898 35.0029C29.1072 35.0029 28.735 35.0029 28.3524 34.9977C28.0112 34.9977 27.6752 34.9977 27.3392 34.9977C26.4448 34.9977 25.5453 34.9874 24.6458 34.9822C23.891 34.9822 23.1259 34.9719 22.3711 34.9667C22.0144 34.9667 21.6629 34.9667 21.301 34.9615H21.0891C19.197 34.9512 17.2997 34.9408 15.4076 34.9305C15.237 34.9305 15.0716 34.9305 14.901 34.9305C14.7562 34.9305 14.6011 34.9305 14.4512 34.9202C13.5879 34.8736 12.6987 34.6565 12.2489 33.7829C12.0938 33.4727 12.0163 33.1211 11.9698 32.7541C11.9491 32.568 11.9336 32.3819 11.9181 32.1958C11.9077 32.0252 11.8974 31.8597 11.887 31.6891C11.8457 30.9809 11.8043 30.2675 11.7785 29.5592C11.7371 28.5098 11.7061 27.4603 11.6803 26.4057C11.6751 26.0335 11.6647 25.6561 11.6596 25.2839C11.6286 23.5779 11.613 21.8668 11.582 20.1556C11.582 20.0109 11.582 19.8661 11.582 19.7162C11.582 18.765 11.6803 17.7569 12.2334 17.1313C12.7452 16.5523 13.4948 16.4748 14.1824 16.4231C16.0021 16.2939 17.8166 16.1595 19.6364 16.0354C20.2671 15.9889 20.9081 15.9682 21.5492 15.963C22.5004 15.963 23.4464 15.994 24.4028 16.0457C24.6406 16.0612 24.8784 16.0767 25.1162 16.0974C25.4161 16.1129 25.7107 16.1336 26.0106 16.1594C27.3599 16.2628 28.7143 16.3869 30.0636 16.4696C30.4513 16.4955 30.8546 16.5317 31.2268 16.6299C31.4956 16.7023 31.7386 16.8108 31.9505 16.9763C32.0177 17.0228 32.0746 17.0745 32.1315 17.1365C32.6433 17.6793 32.6743 18.5013 32.6743 19.2406V19.4163C32.6743 20.6933 32.6795 21.9702 32.6846 23.2522C32.6846 23.6244 32.6846 23.9915 32.6846 24.3585L32.695 29.2801C32.695 29.6471 32.695 30.0038 32.695 30.3709C32.695 30.6862 32.695 31.0067 32.695 31.3221L32.7105 31.3014Z" fill="#F3ACB2"/>
<path d="M17.7031 13.9283C16.6589 13.4786 15.139 12.548 14.7823 11.359C14.0637 8.96546 17.5015 9.03785 18.7784 9.73575C19.7245 10.2527 20.5206 10.9972 21.1875 11.8398C21.6424 12.4188 22.8987 13.9232 22.8521 14.7038C22.7953 15.6447 21.6579 15.0243 20.867 14.8744C19.7814 14.6728 18.7216 14.3574 17.7083 13.9232L17.7031 13.9283Z" fill="#FFCC00"/>
<path d="M28.0166 13.6513C28.9833 13.0516 30.3481 11.904 30.5238 10.6788C30.8806 8.20766 27.4892 8.78665 26.3312 9.66549C25.4731 10.3169 24.7958 11.1699 24.2634 12.1056C23.9015 12.7414 22.8831 14.4216 23.0433 15.1867C23.2398 16.1069 24.2737 15.3263 25.0336 15.0626C26.0779 14.7008 27.0808 14.2355 28.0166 13.6513Z" fill="#FFCC00"/>
<path d="M24.2785 13.6694C24.2785 14.4449 23.653 15.0704 22.8775 15.0704C22.1021 15.0704 21.4766 14.4449 21.4766 13.6694C21.4766 12.894 22.1021 12.2684 22.8775 12.2684C23.653 12.2684 24.2785 12.894 24.2785 13.6694Z" fill="#FFCC00"/>
<path d="M34.2149 16.7926C34.1839 17.294 34.1528 17.7903 34.1218 18.297C34.1063 18.5399 34.0856 18.8036 33.9461 19.0052C33.7031 19.3516 33.2068 19.3929 32.7829 19.3981H32.6795C29.8465 19.4395 27.0084 19.4808 24.1754 19.517C23.3276 19.5325 22.4746 19.5428 21.6319 19.5532C18.3026 19.5997 14.9734 19.6463 11.6441 19.6928H11.5769C11.2305 19.6928 10.8531 19.6721 10.6153 19.4239C10.3775 19.1758 10.2793 18.7312 10.2586 18.2142C10.2121 17.2992 10.393 16.1774 10.3879 15.6294C10.3879 15.3502 10.3879 15.0556 10.5636 14.8385C10.7911 14.549 11.2098 14.5283 11.5769 14.5283C14.8234 14.5386 18.0545 14.5076 21.2907 14.4921C21.7767 14.4921 22.2678 14.4921 22.7537 14.4921C23.3637 14.4921 23.9738 14.4817 24.5786 14.4611C27.2307 14.3887 29.8465 14.2026 32.5244 14.275C34.401 14.3267 34.3028 15.2779 34.2097 16.7926H34.2149Z" fill="#F70102"/>
<path d="M24.6417 34.9754C23.4578 34.9702 22.2688 34.9599 21.085 34.9547C20.9402 31.9563 21.3951 25.427 21.4417 24.636C21.5451 22.9507 21.6329 21.2551 21.6278 19.5594C21.6278 19.2234 21.6278 18.8873 21.6123 18.5513C21.5916 17.7655 21.6123 16.835 21.5399 15.9406C21.4985 15.4444 21.4262 14.9532 21.2917 14.4983C21.7777 14.4983 22.2688 14.4983 22.7548 14.4983C23.3648 14.4983 23.9748 14.488 24.5797 14.4673C24.5021 14.9843 24.4401 15.5064 24.3884 16.0285C24.2695 17.1917 24.1971 18.3549 24.1661 19.5232C24.0937 22.2321 24.2023 24.9514 24.3212 27.6603C24.4297 30.1004 24.5331 32.5404 24.6313 34.9805L24.6417 34.9754Z" fill="#FFCC00"/>
</g>
<defs>
<filter id="filter0_ddd_752_16601" x="-3.74902" y="-2" width="52" height="52" filterUnits="userSpaceOnUse" color-interpolation-filters="sRGB">
<feFlood flood-opacity="0" result="BackgroundImageFix"/>
<feColorMatrix in="SourceAlpha" type="matrix" values="0 0 0 0 0 0 0 0 0 0 0 0 0 0 0 0 0 0 127 0" result="hardAlpha"/>
<feOffset/>
<feGaussianBlur stdDeviation="0.5"/>
<feComposite in2="hardAlpha" operator="out"/>
<feColorMatrix type="matrix" values="0 0 0 0 0 0 0 0 0 0 0 0 0 0 0 0 0 0 0.08 0"/>
<feBlend mode="normal" in2="BackgroundImageFix" result="effect1_dropShadow_752_16601"/>
<feColorMatrix in="SourceAlpha" type="matrix" values="0 0 0 0 0 0 0 0 0 0 0 0 0 0 0 0 0 0 127 0" result="hardAlpha"/>
<feOffset dy="1"/>
<feGaussianBlur stdDeviation="2"/>
<feComposite in2="hardAlpha" operator="out"/>
<feColorMatrix type="matrix" values="0 0 0 0 0 0 0 0 0 0 0 0 0 0 0 0 0 0 0.08 0"/>
<feBlend mode="normal" in2="effect1_dropShadow_752_16601" result="effect2_dropShadow_752_16601"/>
<feColorMatrix in="SourceAlpha" type="matrix" values="0 0 0 0 0 0 0 0 0 0 0 0 0 0 0 0 0 0 127 0" result="hardAlpha"/>
<feOffset dy="2"/>
<feGaussianBlur stdDeviation="4"/>
<feComposite in2="hardAlpha" operator="out"/>
<feColorMatrix type="matrix" values="0 0 0 0 0 0 0 0 0 0 0 0 0 0 0 0 0 0 0.12 0"/>
<feBlend mode="normal" in2="effect2_dropShadow_752_16601" result="effect3_dropShadow_752_16601"/>
<feBlend mode="normal" in="SourceGraphic" in2="effect3_dropShadow_752_16601" result="shape"/>
</filter>
</defs>
</svg>
