<svg width="45" height="45" viewBox="0 0 45 45" fill="none" xmlns="http://www.w3.org/2000/svg">
<g filter="url(#filter0_ddd_752_18641)">
<path d="M34.3439 22.9836C33.6582 20.0673 24.7403 20.0673 24.7403 20.0673C24.7403 20.0673 35.5437 16.1225 31.7703 14.237C27.997 12.3516 23.8832 18.8674 23.8832 18.8674C23.8832 18.8674 29.0278 9.43522 24.7403 8.40678C20.4527 7.37834 22.1691 17.4962 22.1691 17.4962C22.1691 17.4962 18.5672 6.69271 16.1675 9.09241C14.2941 10.9658 19.0042 16.6029 21.16 18.9857C15.5157 14.575 9.76749 15.8207 10.6801 18.8674C11.7085 22.298 19.598 20.0673 19.598 20.0673C19.598 20.0673 11.8823 24.6977 14.6248 26.5832C17.1549 28.3238 19.9771 22.9184 20.3995 22.0686C19.8757 23.1502 15.8971 31.5902 19.4266 32.0706C23.2 32.5848 22.1716 22.6384 22.1716 22.6384C22.1716 22.6384 25.7735 31.0422 27.8304 28.9829C29.8873 26.926 23.5428 22.1242 23.5428 22.1242C23.5428 22.1242 35.0319 25.8975 34.3463 22.9812L34.3439 22.9836Z" fill="white"/>
<path d="M22.7366 22.5756C24.1218 22.2631 24.9915 20.887 24.6791 19.5018C24.3666 18.1166 22.9905 17.2469 21.6053 17.5594C20.2201 17.8718 19.3504 19.248 19.6629 20.6331C19.9753 22.0183 21.3515 22.888 22.7366 22.5756Z" fill="#F72B3E"/>
<path d="M34.3439 22.9836C33.6582 20.0673 24.7403 20.0673 24.7403 20.0673C24.7403 20.0673 35.5437 16.1225 31.7703 14.237C27.997 12.3516 23.8832 18.8674 23.8832 18.8674C23.8832 18.8674 29.0278 9.43522 24.7403 8.40678C20.4527 7.37834 22.1691 17.4962 22.1691 17.4962C22.1691 17.4962 18.5672 6.69271 16.1675 9.09241C14.2941 10.9658 19.0042 16.6029 21.16 18.9857C15.5157 14.575 9.76749 15.8207 10.6801 18.8674C11.7085 22.298 19.598 20.0673 19.598 20.0673C19.598 20.0673 11.8823 24.6977 14.6248 26.5832C17.1549 28.3238 19.9771 22.9184 20.3995 22.0686C19.8757 23.1502 15.8971 31.5902 19.4266 32.0706C23.2 32.5848 22.1716 22.6384 22.1716 22.6384C22.1716 22.6384 25.7735 31.0422 27.8304 28.9829C29.8873 26.926 23.5428 22.1242 23.5428 22.1242C23.5428 22.1242 35.0319 25.8975 34.3463 22.9812L34.3439 22.9836Z" stroke="white" stroke-width="4.12165" stroke-linecap="round" stroke-linejoin="round"/>
<path d="M22.7366 22.5756C24.1218 22.2631 24.9915 20.887 24.6791 19.5018C24.3666 18.1166 22.9905 17.2469 21.6053 17.5594C20.2201 17.8718 19.3504 19.248 19.6629 20.6331C19.9753 22.0183 21.3515 22.888 22.7366 22.5756Z" stroke="white" stroke-width="4.12165" stroke-linecap="round" stroke-linejoin="round"/>
<path d="M34.3439 22.9836C33.6582 20.0673 24.7403 20.0673 24.7403 20.0673C24.7403 20.0673 35.5437 16.1225 31.7703 14.237C27.997 12.3516 23.8832 18.8674 23.8832 18.8674C23.8832 18.8674 29.0278 9.43522 24.7403 8.40678C20.4527 7.37834 22.1691 17.4962 22.1691 17.4962C22.1691 17.4962 18.5672 6.69271 16.1675 9.09241C14.2941 10.9658 19.0042 16.6029 21.16 18.9857C15.5157 14.575 9.76749 15.8207 10.6801 18.8674C11.7085 22.298 19.598 20.0673 19.598 20.0673C19.598 20.0673 11.8823 24.6977 14.6248 26.5832C17.1549 28.3238 19.9771 22.9184 20.3995 22.0686C19.8757 23.1502 15.8971 31.5902 19.4266 32.0706C23.2 32.5848 22.1716 22.6384 22.1716 22.6384C22.1716 22.6384 25.7735 31.0422 27.8304 28.9829C29.8873 26.926 23.5428 22.1242 23.5428 22.1242C23.5428 22.1242 35.0319 25.8975 34.3463 22.9812L34.3439 22.9836Z" fill="#FFCC00"/>
<path d="M22.7361 22.5755C24.1213 22.2631 24.991 20.8869 24.6786 19.5017C24.3662 18.1165 22.99 17.2469 21.6048 17.5593C20.2196 17.8717 19.3499 19.2479 19.6624 20.6331C19.9748 22.0183 21.351 22.8879 22.7361 22.5755Z" fill="#F72B3E"/>
</g>
<defs>
<filter id="filter0_ddd_752_18641" x="-0.75" y="-1" width="46" height="46" filterUnits="userSpaceOnUse" color-interpolation-filters="sRGB">
<feFlood flood-opacity="0" result="BackgroundImageFix"/>
<feColorMatrix in="SourceAlpha" type="matrix" values="0 0 0 0 0 0 0 0 0 0 0 0 0 0 0 0 0 0 127 0" result="hardAlpha"/>
<feOffset/>
<feGaussianBlur stdDeviation="0.5"/>
<feComposite in2="hardAlpha" operator="out"/>
<feColorMatrix type="matrix" values="0 0 0 0 0 0 0 0 0 0 0 0 0 0 0 0 0 0 0.08 0"/>
<feBlend mode="normal" in2="BackgroundImageFix" result="effect1_dropShadow_752_18641"/>
<feColorMatrix in="SourceAlpha" type="matrix" values="0 0 0 0 0 0 0 0 0 0 0 0 0 0 0 0 0 0 127 0" result="hardAlpha"/>
<feOffset dy="1"/>
<feGaussianBlur stdDeviation="2"/>
<feComposite in2="hardAlpha" operator="out"/>
<feColorMatrix type="matrix" values="0 0 0 0 0 0 0 0 0 0 0 0 0 0 0 0 0 0 0.08 0"/>
<feBlend mode="normal" in2="effect1_dropShadow_752_18641" result="effect2_dropShadow_752_18641"/>
<feColorMatrix in="SourceAlpha" type="matrix" values="0 0 0 0 0 0 0 0 0 0 0 0 0 0 0 0 0 0 127 0" result="hardAlpha"/>
<feOffset dy="2"/>
<feGaussianBlur stdDeviation="4"/>
<feComposite in2="hardAlpha" operator="out"/>
<feColorMatrix type="matrix" values="0 0 0 0 0 0 0 0 0 0 0 0 0 0 0 0 0 0 0.12 0"/>
<feBlend mode="normal" in2="effect2_dropShadow_752_18641" result="effect3_dropShadow_752_18641"/>
<feBlend mode="normal" in="SourceGraphic" in2="effect3_dropShadow_752_18641" result="shape"/>
</filter>
</defs>
</svg>
