<svg width="43" height="44" viewBox="0 0 43 44" fill="none" xmlns="http://www.w3.org/2000/svg">
<g filter="url(#filter0_ddd_752_18617)">
<path d="M18.2227 9.36292V11.5908H18.289L18.3553 11.5868L18.2227 9.36292ZM19.5674 9.37366L19.8305 7.16136L19.8304 7.16136L19.5674 9.37366ZM20.2764 9.47131L20.6436 7.27391L20.6432 7.27383L20.2764 9.47131ZM21.5693 9.94983L22.5081 7.92941L22.5081 7.92939L21.5693 9.94983ZM23.2236 10.9615L21.9528 12.7914L22.8705 13.4287L23.9301 13.0745L23.2236 10.9615ZM24.4502 10.609L24.4846 12.8366L24.4846 12.8366L24.4502 10.609ZM25.7314 10.61L25.6051 12.8343L25.6051 12.8343L25.7314 10.61ZM26.7148 10.7018L27.1968 8.52665L27.1966 8.52661L26.7148 10.7018ZM27.3379 10.8043L27.8259 8.63055L27.8254 8.63044L27.3379 10.8043ZM28.1562 11.027L28.9592 8.94883L28.9587 8.94862L28.1562 11.027ZM28.9336 11.3698L30.1191 9.48346L30.119 9.48338L28.9336 11.3698ZM30.2217 12.2516L31.6157 10.5137L31.6156 10.5136L30.2217 12.2516ZM30.9258 12.9186L32.5791 11.4252L32.5788 11.4249L30.9258 12.9186ZM31.8311 14.0856L33.9105 13.286L33.9102 13.2852L31.8311 14.0856ZM32.167 15.3707L34.3809 15.1215L34.3808 15.121L32.167 15.3707ZM32.1719 15.8834L29.9485 15.7423L29.9484 15.7434L32.1719 15.8834ZM32.042 16.566L29.8687 16.0759L29.8668 16.0843L29.865 16.0928L32.042 16.566ZM32.0371 16.5885L34.2107 17.0772L34.2125 17.0695L34.2141 17.0618L32.0371 16.5885ZM31.8682 17.0426L33.561 18.491L33.5634 18.4882L31.8682 17.0426ZM31.4775 17.3405L32.343 19.3934L32.344 19.3929L31.4775 17.3405ZM30.4199 17.5573L30.7102 15.3484L30.71 15.3483L30.4199 17.5573ZM29.7803 17.4869L29.3687 19.6765L29.3687 19.6765L29.7803 17.4869ZM28.9521 17.2809L29.4766 15.1156L29.4766 15.1156L28.9521 17.2809ZM28.4268 17.0533L29.3513 15.0263L29.3511 15.0262L28.4268 17.0533ZM27.71 16.6569L26.4279 18.4789L26.428 18.479L27.71 16.6569ZM26.8867 16.0338L28.1423 14.1935L28.1422 14.1934L26.8867 16.0338ZM26.1387 15.4586L27.7439 13.9137L27.7439 13.9137L26.1387 15.4586ZM25.6211 14.942L27.1847 13.355L23.5667 15.8039L25.6211 14.942ZM26.3877 17.2067L28.5395 16.6294L28.5395 16.6293L26.3877 17.2067ZM26.8027 19.4313L29.018 19.1942L29.018 19.1941L26.8027 19.4313ZM26.957 21.7379L29.1834 21.6566L29.1834 21.6566L26.957 21.7379ZM26.9443 22.7838L24.7301 22.5374L24.5199 24.4259L26.3516 24.9314L26.9443 22.7838ZM27.1914 22.8531L26.6869 25.0232L26.687 25.0232L27.1914 22.8531ZM27.7764 23.0641L28.8268 21.0994L28.826 21.0989L27.7764 23.0641ZM28.3564 23.3131L29.198 21.2503L29.1979 21.2503L28.3564 23.3131ZM28.8936 23.5905L30.1726 21.7663L30.1726 21.7663L28.8936 23.5905ZM29.5654 24.1217L31.0031 22.4197L31.0031 22.4197L29.5654 24.1217ZM30.0039 24.609L31.9409 23.5082L31.9407 23.5079L30.0039 24.609ZM30.2754 25.1676L28.1311 25.7723L28.1312 25.7725L30.2754 25.1676ZM30.4648 26.108L32.6927 26.1089V26.1089L30.4648 26.108ZM30.4043 27.3512L32.5481 27.9574L32.5482 27.957L30.4043 27.3512ZM30.2363 27.9371L28.2167 26.9966L28.2164 26.9973L30.2363 27.9371ZM29.9492 28.5494L28.0872 27.3262L28.0872 27.3262L29.9492 28.5494ZM29.5918 29.1725L31.4363 30.4221L31.4363 30.422L29.5918 29.1725ZM29.0439 29.899L27.4711 28.3212L27.4708 28.3215L29.0439 29.899ZM28.4795 30.3649L27.6968 28.279L27.6961 28.2793L28.4795 30.3649ZM27.7158 30.7057L28.2707 32.8634L28.2708 32.8633L27.7158 30.7057ZM26.7471 30.9117L26.7947 33.1391L26.7948 33.1391L26.7471 30.9117ZM25.3906 30.901L25.4523 28.674L25.4519 28.674L25.3906 30.901ZM24.9521 30.8629L24.3198 32.9992L24.32 32.9992L24.9521 30.8629ZM24.4961 30.7213L23.7553 32.8224L23.7553 32.8224L24.4961 30.7213ZM23.9336 30.5426L24.2933 28.344L24.2926 28.3438L23.9336 30.5426ZM23.4834 30.3698L24.477 28.3757L24.477 28.3757L23.4834 30.3698ZM23.0068 30.0436L21.1839 31.3244L21.1841 31.3246L23.0068 30.0436ZM22.7031 29.5563L20.6961 30.5235L20.6962 30.5236L22.7031 29.5563ZM22.3838 28.8405L20.3186 29.6762L20.3186 29.6763L22.3838 28.8405ZM22.1777 28.2985L20.0502 28.9595L20.0503 28.9599L22.1777 28.2985ZM22.0908 27.6266L24.3119 27.8002L24.3119 27.8001L22.0908 27.6266ZM22.3096 26.0719L20.2131 25.3181L20.213 25.3184L22.3096 26.0719ZM22.8662 24.6139L20.9002 23.5659L20.8965 23.5728L22.8662 24.6139ZM22.9746 24.3912L21.1596 23.0992L21.159 23.1001L22.9746 24.3912ZM23.2998 23.9303L21.6402 22.444L21.64 22.4442L23.2998 23.9303ZM23.7119 23.5348L22.2735 21.8335L22.2732 21.8338L23.7119 23.5348ZM24.9316 22.9391L24.2077 20.8321L24.2075 20.8322L24.9316 22.9391ZM25.8213 22.7252L26.1153 24.9336L27.8044 24.7088L28.0296 23.0197L25.8213 22.7252ZM25.8232 22.7106L23.6219 22.3677L23.6181 22.3919L23.6149 22.4161L25.8232 22.7106ZM25.8359 21.7789L28.0623 21.6976V21.6976L25.8359 21.7789ZM25.6865 19.5504L27.9018 19.3133L27.9017 19.3132L25.6865 19.5504ZM25.3047 17.4977L27.4565 16.9204L27.4565 16.9203L25.3047 17.4977ZM24.5303 15.235L26.5735 14.3469L26.5734 14.3467L24.5303 15.235ZM23.4971 13.3707L25.3263 12.099L25.3263 12.0989L23.4971 13.3707ZM23.1367 12.8824L24.8978 11.5179L21.8694 7.60933L20.9479 12.4672L23.1367 12.8824ZM22.6113 14.7174L24.6959 15.5034L24.696 15.5033L22.6113 14.7174ZM21.21 17.5582L23.1054 18.729L23.1054 18.729L21.21 17.5582ZM19.3057 20.1139L20.994 21.5675L20.994 21.5675L19.3057 20.1139ZM17.8516 21.6569L19.3883 23.2699L19.3883 23.2699L17.8516 21.6569ZM17.8428 21.6637L16.3073 20.0494L14.5803 21.6921L16.3357 23.3045L17.8428 21.6637ZM18.1533 22.0338L16.3179 23.2966L16.318 23.2967L18.1533 22.0338ZM18.4922 22.6451L20.5212 21.7251L20.521 21.7245L18.4922 22.6451ZM18.6357 23.0397L16.5393 23.7935L16.5394 23.7937L18.6357 23.0397ZM18.7422 23.3531L16.562 23.8117L16.562 23.8118L18.7422 23.3531ZM18.8193 23.9821L21.0461 23.9123L21.0461 23.9122L18.8193 23.9821ZM18.8359 24.8619L21.0624 24.9411L21.0624 24.9411L18.8359 24.8619ZM18.7627 25.4254L20.9094 26.0215L20.9094 26.0213L18.7627 25.4254ZM18.5771 26.0231L20.6778 26.7652L20.6778 26.7651L18.5771 26.0231ZM18.4316 26.3727L16.3856 25.4912L16.3855 25.4912L18.4316 26.3727ZM18.2402 26.7916L20.2029 27.8458L20.2029 27.8458L18.2402 26.7916ZM17.9395 27.2809L16.1578 25.9433L16.1577 25.9435L17.9395 27.2809ZM17.5605 27.7311L18.9872 29.4423L18.9875 29.442L17.5605 27.7311ZM17.0479 28.1373L18.326 29.9621L18.326 29.9621L17.0479 28.1373ZM16.5293 28.4459L17.542 30.4303L17.542 30.4303L16.5293 28.4459ZM16.1113 28.649L16.8502 30.7509L16.8504 30.7508L16.1113 28.649ZM15.5156 28.7496L15.5801 30.9766H15.5801L15.5156 28.7496ZM14.6436 28.7545L14.6184 30.9823H14.6184L14.6436 28.7545ZM14.3457 28.7448L14.4184 26.5181H14.4183L14.3457 28.7448ZM13.8027 28.7037L13.535 30.9155L13.5351 30.9155L13.8027 28.7037ZM13.457 28.6295L13.9326 26.453L13.9313 26.4527L13.457 28.6295ZM13.1436 28.5739L12.4294 30.6842L12.432 30.6851L13.1436 28.5739ZM12.7471 28.4362L13.7212 26.4325L13.7201 26.432L12.7471 28.4362ZM12.3682 28.2428L10.907 29.9246L10.9074 29.925L12.3682 28.2428ZM12.0234 27.9489L13.4426 26.2315L13.4426 26.2315L12.0234 27.9489ZM11.5898 27.5826L10.0711 29.2126L10.0714 29.2129L11.5898 27.5826ZM11.2598 27.2574L9.42665 28.5236L9.42697 28.5241L11.2598 27.2574ZM11.0225 26.818L8.92102 27.5579L8.92106 27.558L11.0225 26.818ZM10.8096 26.1266L8.64852 26.6682L8.64855 26.6683L10.8096 26.1266ZM10.6221 25.0299L8.40351 25.2335L8.40351 25.2336L10.6221 25.0299ZM10.6016 23.9615L8.37648 23.8499L8.37648 23.85L10.6016 23.9615ZM10.6855 23.2819L8.51203 22.7927L8.51201 22.7928L10.6855 23.2819ZM10.8506 22.7477L12.935 23.5342L12.935 23.5342L10.8506 22.7477ZM11.1074 22.1686L13.0174 23.3156L13.0178 23.3148L11.1074 22.1686ZM11.1162 22.1539L9.20626 21.007L9.20582 21.0077L11.1162 22.1539ZM11.4658 21.5992L9.97789 19.941L9.9698 19.9484L11.4658 21.5992ZM11.9297 21.1852L13.3024 22.9399L13.3024 22.9399L11.9297 21.1852ZM12.3545 20.8912L11.4084 18.8742L11.4078 18.8745L12.3545 20.8912ZM12.9072 20.6324L12.1041 18.5544L12.1038 18.5545L12.9072 20.6324ZM13.582 20.4127L13.0404 18.2517L13.0402 18.2517L13.582 20.4127ZM14.3213 20.2975L14.1599 18.0755L14.1598 18.0755L14.3213 20.2975ZM14.9902 20.2975L15.1544 18.0757L15.1544 18.0757L14.9902 20.2975ZM15.6162 20.3678L15.921 18.1609L15.921 18.1609L15.6162 20.3678ZM15.8027 20.3961L15.3658 22.5807L15.3993 22.5874L15.4329 22.5931L15.8027 20.3961ZM16.0957 20.4733L15.6752 22.6611L15.7049 22.6668L15.7348 22.6717L16.0957 20.4733ZM16.3535 20.6188L17.4019 18.653L17.2555 18.5749L17.0991 18.5194L16.3535 20.6188ZM16.8271 20.8629L17.9182 18.9205L17.9181 18.9204L16.8271 20.8629ZM16.9639 20.9498L15.7351 22.8082L17.2013 23.7777L18.4853 22.5773L16.9639 20.9498ZM17.0781 20.8453L18.6148 22.4584L18.6149 22.4584L17.0781 20.8453ZM18.4561 19.3824L20.1444 20.836L20.1444 20.836L18.4561 19.3824ZM20.2549 16.9684L22.1503 18.1392L22.1504 18.1391L20.2549 16.9684ZM21.5625 14.3219L23.6471 15.1079L23.6472 15.1078L21.5625 14.3219ZM22.0146 12.7721L24.1988 13.2115L25.2591 7.94059L20.7814 10.9167L22.0146 12.7721ZM21.7168 12.9674L22.8904 14.8611L22.8906 14.861L21.7168 12.9674ZM21.1689 13.2819L22.2791 15.2134L22.2794 15.2133L21.1689 13.2819ZM20.4531 13.5856L21.3374 15.6304L21.3375 15.6304L20.4531 13.5856ZM18.9551 14.0133L19.41 16.1942L19.4101 16.1942L18.9551 14.0133ZM18.0684 14.1647L17.6825 11.9705L17.6821 11.9705L18.0684 14.1647ZM17.1367 14.2838L16.8481 12.0747L16.8477 12.0748L17.1367 14.2838ZM15.7256 14.2946L15.4514 16.5055L15.4515 16.5055L15.7256 14.2946ZM15.1152 14.2028L14.4109 16.3164L14.4112 16.3165L15.1152 14.2028ZM14.541 13.9254L13.4176 15.8493L13.4177 15.8494L14.541 13.9254ZM13.6904 13.1344L15.696 12.1643L15.6954 12.1631L13.6904 13.1344ZM13.4414 12.2496L15.6598 12.4547L15.6599 12.4538L13.4414 12.2496ZM13.5459 11.5504L11.6322 10.4097L11.632 10.41L13.5459 11.5504ZM14.5918 10.3756L13.4916 8.43832L13.4874 8.44076L14.5918 10.3756ZM16.0029 9.8385L15.3 7.72441L15.2999 7.72445L16.0029 9.8385ZM16.5889 9.68127L17.1159 11.8459L17.116 11.8459L16.5889 9.68127ZM17.8379 9.401L17.4007 7.21643L17.4003 7.21651L17.8379 9.401ZM18.2148 9.36292V7.13503H18.1485L18.0823 7.13898L18.2148 9.36292ZM18.2227 9.36292L18.3553 11.5868C18.7688 11.5622 19.1315 11.5654 19.3043 11.586L19.5674 9.37366L19.8304 7.16136C19.2587 7.09338 18.5814 7.10968 18.09 7.13898L18.2227 9.36292ZM19.5674 9.37366L19.3043 11.586C19.5998 11.6211 19.8023 11.6509 19.9096 11.6688L20.2764 9.47131L20.6432 7.27383C20.4489 7.24141 20.1744 7.20226 19.8305 7.16136L19.5674 9.37366ZM20.2764 9.47131L19.9091 11.6687C19.8686 11.662 19.8391 11.6557 19.8267 11.653C19.8119 11.6498 19.8022 11.6474 19.7987 11.6466C19.7918 11.6449 19.7954 11.6456 19.8104 11.6499C19.84 11.6584 19.8952 11.6752 19.9733 11.7021C20.129 11.7557 20.3565 11.8429 20.6306 11.9703L21.5693 9.94983L22.5081 7.92939C21.7276 7.56675 21.021 7.33699 20.6436 7.27391L20.2764 9.47131ZM21.5693 9.94983L20.6305 11.9703C20.9032 12.0969 21.1974 12.2668 21.9528 12.7914L23.2236 10.9615L24.4944 9.13166C23.6923 8.57456 23.1416 8.22374 22.5081 7.92941L21.5693 9.94983ZM23.2236 10.9615L23.9301 13.0745C23.9947 13.0529 24.0479 13.0321 24.0761 13.0209C24.1079 13.0082 24.1369 12.9962 24.1575 12.9874C24.1846 12.976 24.2532 12.9467 24.2692 12.9399C24.3359 12.9116 24.3939 12.888 24.4504 12.8676C24.5082 12.8467 24.5469 12.8357 24.5674 12.831C24.5919 12.8253 24.5603 12.8355 24.4846 12.8366L24.4502 10.609L24.4158 8.38139C23.7902 8.39106 23.2403 8.5673 22.9386 8.67611C22.7686 8.73742 22.6238 8.79773 22.5281 8.83838C22.4629 8.86606 22.4603 8.86745 22.4283 8.88091C22.3911 8.89659 22.4419 8.87382 22.5172 8.84863L23.2236 10.9615ZM24.4502 10.609L24.4846 12.8366C24.8856 12.8304 25.3865 12.8219 25.6051 12.8343L25.7314 10.61L25.8578 8.38569C25.4327 8.36154 24.7094 8.37685 24.4158 8.38139L24.4502 10.609ZM25.7314 10.61L25.6051 12.8343C25.8683 12.8492 26.0077 12.8562 26.1268 12.8659C26.2297 12.8743 26.2464 12.8799 26.2331 12.877L26.7148 10.7018L27.1966 8.52661C26.7263 8.42244 26.2297 8.40681 25.8578 8.38569L25.7314 10.61ZM26.7148 10.7018L26.2329 12.8769C26.4375 12.9222 26.6377 12.948 26.7204 12.9593C26.8385 12.9754 26.8534 12.9789 26.8503 12.9782L27.3379 10.8043L27.8254 8.63044C27.6154 8.58333 27.4166 8.55723 27.3239 8.54455C27.1958 8.52704 27.188 8.5247 27.1968 8.52665L26.7148 10.7018ZM27.3379 10.8043L26.8498 12.9781C26.9616 13.0032 27.0927 13.0348 27.2083 13.0654C27.2659 13.0807 27.3119 13.0938 27.3452 13.1039C27.3844 13.1157 27.3823 13.1163 27.3538 13.1053L28.1562 11.027L28.9587 8.94862C28.6026 8.81113 28.0747 8.6864 27.8259 8.63055L27.3379 10.8043ZM28.1562 11.027L27.3533 13.1051C27.4105 13.1272 27.4619 13.1451 27.4929 13.1557C27.5209 13.1654 27.5604 13.1786 27.5751 13.1836C27.6182 13.1982 27.6422 13.2067 27.6631 13.2148C27.6995 13.2289 27.7244 13.2411 27.7482 13.2561L28.9336 11.3698L30.119 9.48338C29.5318 9.11443 28.8394 8.90254 28.9592 8.94883L28.1562 11.027ZM28.9336 11.3698L27.7481 13.256C28.2602 13.5779 28.6377 13.8371 28.8278 13.9895L30.2217 12.2516L31.6156 10.5136C31.2148 10.1922 30.6557 9.82071 30.1191 9.48346L28.9336 11.3698ZM30.2217 12.2516L28.8277 13.9895C28.8791 14.0307 28.9666 14.1081 29.069 14.2064C29.1708 14.3041 29.2461 14.3827 29.2728 14.4122L30.9258 12.9186L32.5788 11.4249C32.3734 11.1977 31.9733 10.8005 31.6157 10.5137L30.2217 12.2516ZM30.9258 12.9186L29.2725 14.4119C29.3143 14.4582 29.3586 14.5055 29.3931 14.5422C29.4328 14.5844 29.4644 14.6178 29.5025 14.6585C29.5754 14.7365 29.6414 14.8088 29.7003 14.8779C29.7611 14.9491 29.7976 14.9972 29.8154 15.0231C29.8407 15.06 29.7994 15.0093 29.7519 14.886L31.8311 14.0856L33.9102 13.2852C33.6828 12.6945 33.2818 12.2104 33.0888 11.9844C32.9665 11.8412 32.8486 11.7131 32.7576 11.6158C32.6452 11.4956 32.6136 11.4635 32.5791 11.4252L30.9258 12.9186ZM31.8311 14.0856L29.7516 14.8851C29.7913 14.9884 29.8363 15.1142 29.8753 15.251C29.9152 15.391 29.9415 15.5172 29.9531 15.6205L32.167 15.3707L34.3808 15.121C34.2904 14.3198 34.0398 13.6222 33.9105 13.286L31.8311 14.0856ZM32.167 15.3707L29.9531 15.6199C29.956 15.6455 29.9565 15.6576 29.9566 15.6586C29.9566 15.6588 29.9563 15.6523 29.9566 15.6413C29.9569 15.6303 29.9575 15.6237 29.9569 15.631C29.9563 15.6388 29.956 15.6421 29.9543 15.6629C29.9531 15.6783 29.9506 15.7083 29.9485 15.7423L32.1719 15.8834L34.3953 16.0245C34.3947 16.0339 34.3943 16.0383 34.3952 16.0267C34.3957 16.0204 34.3978 15.9952 34.3996 15.9725C34.4037 15.919 34.4087 15.8438 34.411 15.7525C34.4157 15.5646 34.4076 15.3591 34.3809 15.1215L32.167 15.3707ZM32.1719 15.8834L29.9484 15.7434C29.95 15.7186 29.9525 15.72 29.9409 15.7732C29.9348 15.8007 29.9273 15.8321 29.9147 15.8836C29.9042 15.9261 29.8854 16.002 29.8687 16.0759L32.042 16.566L34.2153 17.0562C34.2203 17.0338 34.2265 17.0087 34.242 16.9458C34.2552 16.8919 34.2744 16.8135 34.2933 16.7271C34.3316 16.5522 34.3774 16.3087 34.3954 16.0234L32.1719 15.8834ZM32.042 16.566L29.865 16.0928L29.8601 16.1152L32.0371 16.5885L34.2141 17.0618L34.219 17.0393L32.042 16.566ZM32.0371 16.5885L29.8635 16.0998C29.8511 16.1547 29.8461 16.1764 29.8426 16.1903C29.8395 16.2027 29.8447 16.1801 29.8584 16.1396C29.8867 16.0557 29.9715 15.8333 30.1729 15.597L31.8682 17.0426L33.5634 18.4882C34.0844 17.8772 34.2032 17.1107 34.2107 17.0772L32.0371 16.5885ZM31.8682 17.0426L30.1754 15.5942C30.2196 15.5425 30.2641 15.4997 30.3145 15.4598C30.3614 15.4228 30.4586 15.3523 30.6111 15.288L31.4775 17.3405L32.344 19.3929C32.9141 19.1523 33.3243 18.7677 33.561 18.491L31.8682 17.0426ZM31.4775 17.3405L30.6121 15.2875C30.5821 15.3002 30.5549 15.312 30.5323 15.322C30.5101 15.3318 30.4887 15.3413 30.4729 15.3484C30.4369 15.3645 30.4202 15.3719 30.405 15.3784C30.3788 15.3896 30.3917 15.3828 30.4243 15.3734C30.4601 15.3629 30.5102 15.3518 30.5689 15.3467C30.6278 15.3415 30.6766 15.3439 30.7102 15.3484L30.4199 17.5573L30.1297 19.7661C31.356 19.9273 32.2689 19.4246 32.343 19.3934L31.4775 17.3405ZM30.4199 17.5573L30.71 15.3483C30.6034 15.3343 30.5121 15.3264 30.4416 15.3211C30.4082 15.3186 30.3765 15.3165 30.3546 15.3151C30.33 15.3134 30.3147 15.3124 30.3001 15.3113C30.2625 15.3085 30.2397 15.3064 30.1918 15.2974L29.7803 17.4869L29.3687 19.6765C29.621 19.7239 29.8154 19.7434 29.9713 19.7549C30.005 19.7574 30.0366 19.7595 30.0584 19.761C30.0828 19.7626 30.0969 19.7636 30.1096 19.7645C30.1314 19.7661 30.1339 19.7667 30.1298 19.7662L30.4199 17.5573ZM29.7803 17.4869L30.1919 15.2974C30.0976 15.2797 30.0086 15.2579 29.9019 15.2292C29.8392 15.2123 29.7968 15.2002 29.7187 15.1788C29.6519 15.1605 29.5672 15.1375 29.4766 15.1156L28.9521 17.2809L28.4277 19.4462C28.5067 19.4653 28.5414 19.4772 28.7418 19.5313C28.9058 19.5755 29.117 19.6292 29.3687 19.6765L29.7803 17.4869ZM28.9521 17.2809L29.4766 15.1156C29.5299 15.1285 29.5716 15.1413 29.599 15.1504C29.6269 15.1597 29.6468 15.1673 29.6571 15.1713C29.6749 15.1783 29.6766 15.1797 29.6505 15.1677C29.6234 15.1551 29.5941 15.141 29.5388 15.1145C29.4899 15.0911 29.4233 15.0592 29.3513 15.0263L28.4268 17.0533L27.5023 19.0804C27.5317 19.0938 27.5645 19.1094 27.612 19.1322C27.6531 19.1518 27.717 19.1827 27.779 19.2113C27.8419 19.2405 27.9285 19.2794 28.0258 19.3177C28.1196 19.3546 28.2598 19.4055 28.4277 19.4462L28.9521 17.2809ZM28.4268 17.0533L29.3511 15.0262C29.2821 14.9948 29.1984 14.9531 29.1195 14.9098C29.081 14.8887 29.0487 14.87 29.0238 14.8548C28.9976 14.8389 28.988 14.832 28.9919 14.8348L27.71 16.6569L26.428 18.479C26.7674 18.7177 27.1932 18.9394 27.5024 19.0804L28.4268 17.0533ZM27.71 16.6569L28.992 14.8348C28.8723 14.7506 28.7599 14.6632 28.6259 14.5577C28.5183 14.4729 28.3262 14.3189 28.1423 14.1935L26.8867 16.0338L25.6311 17.8742C25.6309 17.874 25.6361 17.8776 25.6481 17.8864C25.6601 17.8952 25.676 17.9072 25.6973 17.9236C25.7436 17.9592 25.7933 17.9985 25.868 18.0574C26.0067 18.1667 26.2011 18.3193 26.4279 18.4789L27.71 16.6569ZM26.8867 16.0338L28.1422 14.1934C28.0752 14.1477 27.9868 14.089 27.9452 14.061C27.8906 14.0244 27.8528 13.9983 27.8213 13.9755C27.761 13.9317 27.7445 13.9143 27.7439 13.9137L26.1387 15.4586L24.5335 17.0035C24.9794 17.4668 25.514 17.7943 25.6312 17.8742L26.8867 16.0338ZM26.1387 15.4586L27.7439 13.9137C27.5175 13.6785 27.3085 13.477 27.1847 13.355L25.6211 14.942L24.0575 16.5291C24.2219 16.691 24.3612 16.8246 24.5335 17.0036L26.1387 15.4586ZM25.6211 14.942L23.5667 15.8039C23.8335 16.44 24.0657 17.1498 24.2359 17.784L26.3877 17.2067L28.5395 16.6293C28.3275 15.8394 28.0339 14.9344 27.6755 14.0801L25.6211 14.942ZM26.3877 17.2067L24.2359 17.784C24.4131 18.4443 24.5133 18.9758 24.5875 19.6685L26.8027 19.4313L29.018 19.1941C28.9189 18.2687 28.7757 17.5099 28.5395 16.6294L26.3877 17.2067ZM26.8027 19.4313L24.5875 19.6684C24.6649 20.3915 24.7107 21.273 24.7306 21.8193L26.957 21.7379L29.1834 21.6566C29.162 21.0691 29.1116 20.0686 29.018 19.1942L26.8027 19.4313ZM26.957 21.7379L24.7306 21.8192C24.7503 22.3582 24.7313 22.5268 24.7301 22.5374L26.9443 22.7838L29.1585 23.0303C29.1928 22.7221 29.2075 22.3158 29.1834 21.6566L26.957 21.7379ZM26.9443 22.7838L26.3516 24.9314C26.3753 24.938 26.3869 24.9416 26.4488 24.9597C26.4939 24.9729 26.5843 24.9993 26.6869 25.0232L27.1914 22.8531L27.6959 20.6831C27.705 20.6852 27.7119 20.687 27.7162 20.6881C27.7205 20.6892 27.7229 20.6898 27.7229 20.6898C27.723 20.6899 27.7226 20.6897 27.7216 20.6895C27.7207 20.6892 27.7193 20.6888 27.7173 20.6883C27.7134 20.6871 27.7081 20.6856 27.7005 20.6834C27.6927 20.6811 27.6845 20.6787 27.6734 20.6754C27.663 20.6723 27.6501 20.6686 27.6367 20.6646C27.6096 20.6567 27.5753 20.6468 27.5371 20.6362L26.9443 22.7838ZM27.1914 22.8531L26.687 25.0232C26.678 25.0211 26.6744 25.0201 26.6766 25.0207C26.6783 25.0211 26.6829 25.0224 26.6901 25.0245C26.7049 25.0289 26.7235 25.0347 26.7423 25.0412C26.7513 25.0444 26.7592 25.0472 26.7657 25.0497C26.7723 25.0522 26.7762 25.0538 26.7776 25.0543C26.7791 25.055 26.7761 25.0537 26.7689 25.0504C26.762 25.0472 26.7474 25.0403 26.7268 25.0292L27.7764 23.0641L28.826 21.0989C28.4186 20.8814 27.9439 20.7408 27.6958 20.6831L27.1914 22.8531ZM27.7764 23.0641L26.7259 25.0288C27.0132 25.1824 27.436 25.3438 27.515 25.376L28.3564 23.3131L29.1979 21.2503C29.1424 21.2276 29.0828 21.2038 29.0362 21.1851C28.9857 21.1648 28.9436 21.1478 28.9052 21.1319C28.8668 21.116 28.8402 21.1045 28.8225 21.0965C28.8029 21.0876 28.8071 21.0889 28.8268 21.0994L27.7764 23.0641ZM28.3564 23.3131L27.5149 25.3759C27.5716 25.3991 27.604 25.4134 27.6274 25.4249C27.638 25.4301 27.6421 25.4326 27.6411 25.432C27.6403 25.4315 27.6307 25.426 27.6145 25.4146L28.8936 23.5905L30.1726 21.7663C29.7695 21.4837 29.361 21.3168 29.198 21.2503L28.3564 23.3131ZM28.8936 23.5905L27.6145 25.4146C27.744 25.5054 27.871 25.6068 28.1278 25.8237L29.5654 24.1217L31.0031 22.4197C30.7312 22.1901 30.4761 21.9792 30.1726 21.7663L28.8936 23.5905ZM29.5654 24.1217L28.1278 25.8237C28.1732 25.8621 28.1946 25.8808 28.2061 25.8912C28.2156 25.8999 28.2061 25.8918 28.1873 25.8716C28.1668 25.8496 28.1421 25.8205 28.1171 25.7863C28.0925 25.7527 28.0759 25.7255 28.0671 25.7101L30.0039 24.609L31.9407 23.5079C31.6239 22.9506 31.2579 22.635 31.0031 22.4197L29.5654 24.1217ZM30.0039 24.609L28.067 25.7098C28.0834 25.7388 28.0994 25.7664 28.112 25.7881C28.1258 25.812 28.1354 25.8286 28.1455 25.8461C28.1651 25.8801 28.1743 25.897 28.1793 25.9065C28.1839 25.9154 28.1796 25.9079 28.1712 25.8881C28.1627 25.8683 28.147 25.8286 28.1311 25.7723L30.2754 25.1676L32.4196 24.5629C32.2678 24.0245 31.9486 23.5218 31.9409 23.5082L30.0039 24.609ZM30.2754 25.1676L28.1312 25.7725C28.1481 25.8323 28.1648 25.8859 28.1768 25.9239C28.1854 25.9509 28.2039 26.0086 28.2078 26.0208C28.2245 26.0729 28.2312 26.0962 28.2353 26.1121C28.2407 26.133 28.237 26.1238 28.237 26.1072L30.4648 26.108L32.6927 26.1089C32.693 25.2726 32.4028 24.5033 32.4196 24.5627L30.2754 25.1676ZM30.4648 26.108L28.237 26.1072C28.2368 26.5475 28.2345 26.756 28.229 26.8748C28.2266 26.926 28.225 26.923 28.2294 26.8914C28.2353 26.8487 28.2459 26.7965 28.2604 26.7454L30.4043 27.3512L32.5482 27.957C32.7068 27.3957 32.6925 26.8034 32.6927 26.1089L30.4648 26.108ZM30.4043 27.3512L28.2605 26.745C28.2356 26.8329 28.2151 26.9173 28.2024 26.9697C28.1864 27.0356 28.1795 27.0654 28.1702 27.1022C28.1619 27.1348 28.1596 27.1412 28.1622 27.1329C28.1637 27.1283 28.1801 27.0751 28.2167 26.9966L30.2363 27.9371L32.256 28.8776C32.3297 28.7193 32.3796 28.5747 32.4119 28.4723C32.4453 28.3663 32.4711 28.2688 32.4894 28.1966C32.5067 28.1286 32.5247 28.0527 32.5332 28.0173C32.545 27.9686 32.5484 27.9563 32.5481 27.9574L30.4043 27.3512ZM30.2363 27.9371L28.2164 26.9973C28.1734 27.0896 28.1369 27.1786 28.1164 27.2285C28.09 27.2928 28.0786 27.3213 28.0636 27.3563C28.0509 27.3862 28.0459 27.396 28.0467 27.3944C28.0473 27.3933 28.0603 27.3671 28.0872 27.3262L29.9492 28.5494L31.8112 29.7727C31.986 29.5067 32.1003 29.2493 32.1617 29.1055C32.1929 29.0324 32.2243 28.9549 32.2387 28.9197C32.259 28.8702 32.2612 28.8664 32.2563 28.877L30.2363 27.9371ZM29.9492 28.5494L28.0872 27.3262C28.0175 27.4323 27.9587 27.5331 27.9151 27.6105C27.8714 27.6881 27.8302 27.7648 27.8017 27.8177C27.7689 27.8788 27.7506 27.9126 27.7352 27.9399C27.7187 27.9691 27.7248 27.9562 27.7473 27.9229L29.5918 29.1725L31.4363 30.422C31.5124 30.3096 31.5744 30.203 31.6154 30.1303C31.6576 30.0556 31.6986 29.9792 31.7261 29.928C31.7984 29.7936 31.8131 29.7699 31.8113 29.7727L29.9492 28.5494ZM29.5918 29.1725L27.7473 27.9229C27.6847 28.0154 27.6088 28.1268 27.5335 28.2301C27.4962 28.2813 27.4669 28.3196 27.4464 28.3451C27.4203 28.3776 27.4306 28.3615 27.4711 28.3212L29.0439 29.899L30.6168 31.4769C30.9738 31.121 31.366 30.5258 31.4363 30.4221L29.5918 29.1725ZM29.0439 29.899L27.4708 28.3215C27.4266 28.3655 27.3884 28.4059 27.3607 28.4354C27.3365 28.4612 27.3053 28.4951 27.294 28.5073C27.258 28.546 27.2572 28.5457 27.2678 28.5357C27.291 28.5137 27.438 28.3761 27.6968 28.279L28.4795 30.3649L29.2622 32.4507C29.775 32.2583 30.1281 31.9637 30.332 31.7706C30.4328 31.6751 30.516 31.5856 30.5605 31.5377C30.6212 31.4723 30.6186 31.4751 30.6171 31.4766L29.0439 29.899ZM28.4795 30.3649L27.6961 28.2793C27.5129 28.3481 27.365 28.4214 27.2572 28.4787C27.2062 28.5058 27.1609 28.5312 27.1325 28.5471C27.0986 28.5661 27.0866 28.5729 27.073 28.5803C27.0545 28.5904 27.0682 28.5822 27.0955 28.5708C27.1245 28.5586 27.1485 28.5512 27.1608 28.548L27.7158 30.7057L28.2708 32.8633C28.6921 32.755 28.9944 32.6079 29.208 32.4913C29.2503 32.4682 29.2924 32.4444 29.3121 32.4333C29.3376 32.4191 29.3456 32.4147 29.3492 32.4128C29.3506 32.4121 29.3163 32.4304 29.2629 32.4505L28.4795 30.3649ZM27.7158 30.7057L27.161 28.548C26.9887 28.5923 26.842 28.6461 26.7893 28.665C26.7178 28.6907 26.7184 28.6901 26.7204 28.6895C26.7326 28.6859 26.7471 28.6827 26.7563 28.6813C26.763 28.6802 26.7467 28.6834 26.6993 28.6844L26.7471 30.9117L26.7948 33.1391C27.67 33.1203 28.5827 32.7831 28.2707 32.8634L27.7158 30.7057ZM26.7471 30.9117L26.6994 28.6844C26.0152 28.699 25.5872 28.6777 25.4523 28.674L25.3906 30.901L25.329 33.128C25.3285 33.128 25.3312 33.1281 25.3396 33.1284C25.3476 33.1287 25.3572 33.129 25.3705 33.1295C25.396 33.1304 25.4303 33.1316 25.4707 33.1329C25.5522 33.1356 25.6585 33.1387 25.7868 33.141C26.0433 33.1458 26.3847 33.1479 26.7947 33.1391L26.7471 30.9117ZM25.3906 30.901L25.4519 28.674C25.4109 28.6728 25.3777 28.6717 25.3506 28.6705C25.3229 28.6692 25.3077 28.6682 25.302 28.6678C25.2943 28.6672 25.3113 28.6682 25.3445 28.673C25.362 28.6755 25.3905 28.68 25.427 28.6873C25.4623 28.6945 25.517 28.7067 25.5843 28.7266L24.9521 30.8629L24.32 32.9992C24.6023 33.0828 24.8656 33.103 24.9548 33.11C25.0876 33.1203 25.2224 33.1251 25.3293 33.128L25.3906 30.901ZM24.9521 30.8629L25.5845 28.7267C25.3996 28.6719 25.325 28.6513 25.2369 28.6202L24.4961 30.7213L23.7553 32.8224C23.9822 32.9024 24.2114 32.9671 24.3198 32.9992L24.9521 30.8629ZM24.4961 30.7213L25.2369 28.6202C25.1221 28.5797 24.6876 28.4085 24.2933 28.344L23.9336 30.5426L23.5739 32.7413C23.469 32.7241 23.4094 32.701 23.4571 32.7169C23.4789 32.7242 23.5096 32.735 23.5633 32.7541C23.6114 32.7712 23.6816 32.7964 23.7553 32.8224L24.4961 30.7213ZM23.9336 30.5426L24.2926 28.3438C24.4415 28.3681 24.5382 28.4082 24.5582 28.4166C24.5704 28.4217 24.5728 28.4233 24.5584 28.4163C24.5514 28.4129 24.5424 28.4084 24.5285 28.4015C24.5211 28.3978 24.4921 28.3832 24.477 28.3757L23.4834 30.3698L22.4898 32.3638C22.5192 32.3784 23.0027 32.648 23.5746 32.7414L23.9336 30.5426ZM23.4834 30.3698L24.477 28.3757C24.42 28.3473 24.3703 28.3247 24.3401 28.3112C24.3246 28.3042 24.3099 28.2977 24.3005 28.2936C24.2895 28.2887 24.2839 28.2862 24.2785 28.2838C24.2559 28.2737 24.2907 28.2883 24.342 28.3172C24.3984 28.3491 24.4816 28.4018 24.5732 28.4804C24.6667 28.5607 24.7543 28.6554 24.8296 28.7626L23.0068 30.0436L21.1841 31.3246C21.4904 31.7605 21.8538 32.0292 22.15 32.1966C22.2848 32.2727 22.403 32.3261 22.4605 32.3518C22.5501 32.3919 22.5102 32.374 22.4898 32.3638L23.4834 30.3698ZM23.0068 30.0436L24.8298 28.7628C24.7678 28.6746 24.7335 28.6231 24.713 28.5906C24.6941 28.5605 24.6979 28.5638 24.7101 28.589L22.7031 29.5563L20.6962 30.5236C20.8489 30.8405 21.0362 31.1142 21.1839 31.3244L23.0068 30.0436ZM22.7031 29.5563L24.7101 28.5891C24.6397 28.4429 24.5591 28.2769 24.4489 28.0046L22.3838 28.8405L20.3186 29.6763C20.4841 30.0851 20.6151 30.3552 20.6961 30.5235L22.7031 29.5563ZM22.3838 28.8405L24.449 28.0047C24.3479 27.755 24.3232 27.6951 24.3052 27.637L22.1777 28.2985L20.0503 28.9599C20.1382 29.2426 20.2574 29.525 20.3186 29.6762L22.3838 28.8405ZM22.1777 28.2985L24.3053 27.6374C24.3089 27.6489 24.3101 27.6545 24.3103 27.6553C24.3105 27.6564 24.3109 27.658 24.3114 27.6617C24.3119 27.6651 24.3134 27.6762 24.3143 27.6954C24.3151 27.7137 24.3159 27.7495 24.3119 27.8002L22.0908 27.6266L19.8697 27.453C19.824 28.0372 19.9351 28.5891 20.0502 28.9595L22.1777 28.2985ZM22.0908 27.6266L24.3119 27.8001C24.321 27.6836 24.3289 27.5277 24.3339 27.4404C24.3403 27.3301 24.3469 27.2313 24.3563 27.1366C24.3656 27.0418 24.3764 26.9653 24.3878 26.9051C24.3996 26.8431 24.4082 26.8197 24.4062 26.8254L22.3096 26.0719L20.213 25.3184C19.8899 26.2173 19.8747 27.3889 19.8697 27.453L22.0908 27.6266ZM22.3096 26.0719L24.4061 26.8257C24.5498 26.426 24.6731 26.0962 24.7634 25.8621C24.8088 25.7444 24.8437 25.6561 24.8674 25.5979C24.8795 25.5683 24.886 25.5529 24.8879 25.5486C24.8987 25.5237 24.876 25.5791 24.8359 25.655L22.8662 24.6139L20.8965 23.5728C20.7988 23.7577 20.6771 24.0744 20.6058 24.2596C20.5019 24.529 20.3667 24.8907 20.2131 25.3181L22.3096 26.0719ZM22.8662 24.6139L24.8322 25.6619C24.8772 25.5775 24.9106 25.5046 24.9317 25.4571C24.9423 25.4333 24.9512 25.4125 24.9568 25.3995C24.9593 25.3937 24.9624 25.3863 24.9637 25.3834C24.9654 25.3793 24.9663 25.3773 24.9668 25.3762C24.9678 25.3737 24.9652 25.3799 24.9604 25.3904C24.9555 25.4012 24.9465 25.4205 24.934 25.4452C24.9214 25.4701 24.9037 25.5036 24.8806 25.5429C24.8575 25.5823 24.8276 25.6298 24.7902 25.6824L22.9746 24.3912L21.159 23.1001C21.0647 23.2326 20.9994 23.3521 20.958 23.4339C20.9175 23.514 20.8876 23.5831 20.8749 23.6125C20.8694 23.6253 20.8607 23.6458 20.86 23.6473C20.8572 23.654 20.8575 23.6531 20.8592 23.6493C20.8625 23.6419 20.8769 23.6097 20.9002 23.5659L22.8662 24.6139ZM22.9746 24.3912L24.7896 25.6832C24.8401 25.6123 24.884 25.5463 24.9152 25.499C24.9306 25.4756 24.9468 25.4508 24.9581 25.4335C24.9708 25.4142 24.9804 25.3996 24.989 25.3867C25.0069 25.3598 25.0125 25.3522 25.0111 25.3542C25.0097 25.356 24.992 25.3802 24.9596 25.4164L23.2998 23.9303L21.64 22.4442C21.4697 22.6344 21.3426 22.8233 21.2798 22.9178C21.2517 22.9599 21.2062 23.0296 21.1945 23.0474C21.1727 23.0805 21.1634 23.094 21.1596 23.0992L22.9746 24.3912ZM23.2998 23.9303L24.9594 25.4166C25.0072 25.3633 25.0687 25.3051 25.1506 25.2358L23.7119 23.5348L22.2732 21.8338C22.1024 21.9782 21.874 22.1829 21.6402 22.444L23.2998 23.9303ZM23.7119 23.5348L25.1504 25.2361C25.0704 25.3037 25.0119 25.3414 25.0094 25.343C24.9975 25.3509 24.998 25.35 25.015 25.3401C25.0489 25.3204 25.1086 25.2878 25.1891 25.2476C25.3579 25.1634 25.5344 25.0877 25.6557 25.046L24.9316 22.9391L24.2075 20.8322C23.8483 20.9556 23.4856 21.118 23.2 21.2605C22.9958 21.3623 22.5771 21.5768 22.2735 21.8335L23.7119 23.5348ZM24.9316 22.9391L25.6556 25.0461C25.823 24.9885 25.9775 24.952 26.1153 24.9336L25.8213 22.7252L25.5273 20.5168C25.0602 20.579 24.617 20.6915 24.2077 20.8321L24.9316 22.9391ZM25.8213 22.7252L28.0296 23.0197L28.0316 23.005L25.8232 22.7106L23.6149 22.4161L23.6129 22.4308L25.8213 22.7252ZM25.8232 22.7106L28.0246 23.0534C28.0236 23.0599 28.0287 23.0279 28.0334 22.9941C28.0384 22.9581 28.0432 22.9186 28.0477 22.8747C28.0566 22.788 28.0633 22.6925 28.0677 22.584C28.0762 22.3706 28.0766 22.0877 28.0623 21.6976L25.8359 21.7789L23.6095 21.8602C23.6211 22.1758 23.6182 22.3389 23.6155 22.4049C23.6142 22.4362 23.6133 22.4387 23.6152 22.4202C23.618 22.3927 23.6226 22.3634 23.6219 22.3677L25.8232 22.7106ZM25.8359 21.7789L28.0623 21.6976C28.0412 21.1194 27.9912 20.1492 27.9018 19.3133L25.6865 19.5504L23.4713 19.7875C23.5448 20.4739 23.59 21.3266 23.6095 21.8603L25.8359 21.7789ZM25.6865 19.5504L27.9017 19.3132C27.8091 18.4482 27.6782 17.747 27.4565 16.9204L25.3047 17.4977L23.1529 18.075C23.3144 18.6769 23.4031 19.1506 23.4713 19.7876L25.6865 19.5504ZM25.3047 17.4977L27.4565 16.9203C27.2423 16.1222 26.9427 15.1963 26.5735 14.3469L24.5303 15.235L22.4871 16.1231C22.7461 16.7191 22.9789 17.4264 23.1529 18.075L25.3047 17.4977ZM24.5303 15.235L26.5734 14.3467C26.201 13.49 25.7767 12.7468 25.3263 12.099L23.4971 13.3707L21.6678 14.6424C21.9533 15.0531 22.2335 15.5399 22.4871 16.1233L24.5303 15.235ZM23.4971 13.3707L25.3263 12.0989C25.1765 11.8835 25.029 11.6873 24.8978 11.5179L23.1367 12.8824L21.3756 14.247C21.4768 14.3776 21.5753 14.5094 21.6679 14.6425L23.4971 13.3707ZM23.1367 12.8824L20.9479 12.4672C20.8802 12.8239 20.766 13.2966 20.5267 13.9315L22.6113 14.7174L24.696 15.5033C25.0349 14.6042 25.2149 13.881 25.3256 13.2977L23.1367 12.8824ZM22.6113 14.7174L20.5267 13.9314C20.2565 14.6479 19.8346 15.5453 19.3145 16.3875L21.21 17.5582L23.1054 18.729C23.7869 17.6256 24.3322 16.468 24.6959 15.5034L22.6113 14.7174ZM21.21 17.5582L19.3145 16.3874C18.797 17.2252 18.1785 18.0084 17.6173 18.6603L19.3057 20.1139L20.994 21.5675C21.6379 20.8196 22.4191 19.8401 23.1054 18.729L21.21 17.5582ZM19.3057 20.1139L17.6173 18.6603C17.0629 19.3043 16.6155 19.7573 16.3148 20.0438L17.8516 21.6569L19.3883 23.2699C19.791 22.8863 20.34 22.3271 20.994 21.5675L19.3057 20.1139ZM17.8516 21.6569L16.3149 20.0438C16.356 20.0046 16.3933 19.972 16.4242 19.9463C16.4551 19.9206 16.4819 19.8997 16.5022 19.8843C16.5223 19.869 16.5387 19.8571 16.5483 19.8502C16.5532 19.8467 16.5572 19.8438 16.5595 19.8422C16.5617 19.8407 16.5635 19.8394 16.563 19.8397C16.563 19.8398 16.5628 19.8399 16.5626 19.84C16.5624 19.8401 16.5622 19.8403 16.5618 19.8406C16.5611 19.8411 16.56 19.8419 16.5587 19.8428C16.556 19.8447 16.5517 19.8477 16.5465 19.8515C16.5363 19.8588 16.5193 19.8711 16.4986 19.8868C16.4777 19.9027 16.4503 19.9241 16.4187 19.9503C16.3872 19.9765 16.3491 20.0097 16.3073 20.0494L17.8428 21.6637L19.3782 23.2779C19.3371 23.3171 19.2997 23.3496 19.2688 23.3753C19.238 23.401 19.2113 23.4218 19.1912 23.437C19.1712 23.4522 19.1549 23.464 19.1455 23.4707C19.1406 23.4742 19.1368 23.477 19.1345 23.4786C19.1325 23.48 19.1308 23.4812 19.1313 23.4808C19.1314 23.4808 19.132 23.4804 19.1327 23.4799C19.1334 23.4794 19.1346 23.4785 19.136 23.4776C19.1387 23.4756 19.143 23.4725 19.1484 23.4687C19.1587 23.4613 19.1759 23.4488 19.1968 23.433C19.2177 23.417 19.2453 23.3955 19.2769 23.3692C19.3085 23.3429 19.3465 23.3097 19.3883 23.2699L17.8516 21.6569ZM17.8428 21.6637L16.3357 23.3045C16.3246 23.2943 16.3155 23.2856 16.3086 23.2789C16.3016 23.2721 16.296 23.2665 16.2919 23.2623C16.2839 23.2542 16.2793 23.2492 16.2783 23.2481C16.2771 23.2469 16.2778 23.2476 16.2804 23.2505C16.2828 23.2533 16.2862 23.2573 16.2904 23.2623C16.2945 23.2672 16.2988 23.2726 16.3032 23.2781C16.3076 23.2836 16.3116 23.2886 16.3149 23.293C16.3183 23.2974 16.3205 23.3004 16.3214 23.3017C16.3225 23.3031 16.3212 23.3014 16.3179 23.2966L18.1533 22.0338L19.9888 20.7711C19.8529 20.5736 19.6071 20.2592 19.3499 20.0229L17.8428 21.6637ZM18.1533 22.0338L16.318 23.2967C16.33 23.3142 16.3278 23.311 16.3313 23.3162C16.3346 23.3213 16.3426 23.3336 16.3542 23.3532C16.3775 23.3926 16.4172 23.4639 16.4634 23.5658L18.4922 22.6451L20.521 21.7245C20.4016 21.4615 20.2851 21.2465 20.1871 21.0811C20.138 20.9983 20.094 20.9286 20.0572 20.8725C20.0388 20.8445 20.0227 20.8207 20.0096 20.8014C19.9996 20.7867 19.9839 20.7639 19.9887 20.7709L18.1533 22.0338ZM18.4922 22.6451L16.4631 23.5652C16.4591 23.5562 16.4596 23.5555 16.4677 23.5794C16.4732 23.5957 16.4775 23.6091 16.4893 23.6457C16.4981 23.6731 16.5169 23.7313 16.5393 23.7935L18.6357 23.0397L20.7322 22.2858C20.7374 22.3004 20.739 22.306 20.7293 22.276C20.7227 22.2555 20.7072 22.2069 20.6904 22.1571C20.6538 22.0487 20.5998 21.8984 20.5212 21.7251L18.4922 22.6451ZM18.6357 23.0397L16.5394 23.7937C16.5557 23.8393 16.5707 23.88 16.5817 23.91C16.5874 23.9258 16.5919 23.938 16.5958 23.9488C16.5997 23.9595 16.6022 23.9666 16.6039 23.9714C16.6056 23.9761 16.6058 23.9766 16.6049 23.9741C16.6041 23.9716 16.6015 23.964 16.598 23.9524C16.5944 23.9408 16.5891 23.9231 16.5831 23.9004C16.577 23.8776 16.5696 23.8477 16.562 23.8117L18.7422 23.3531L20.9224 22.8946C20.8825 22.7052 20.8261 22.5462 20.8048 22.4859C20.791 22.4469 20.7765 22.4073 20.7658 22.378C20.7538 22.3454 20.7434 22.317 20.7321 22.2856L18.6357 23.0397ZM18.7422 23.3531L16.562 23.8118C16.5841 23.9167 16.5824 23.9082 16.5839 23.9184C16.5841 23.9196 16.5895 23.9546 16.5925 24.0519L18.8193 23.9821L21.0461 23.9122C21.0295 23.3829 20.9634 23.0899 20.9224 22.8945L18.7422 23.3531ZM18.8193 23.9821L16.5925 24.0519C16.6021 24.3556 16.6141 24.6509 16.6095 24.7828L18.8359 24.8619L21.0624 24.9411C21.0741 24.6129 21.0512 24.0754 21.0461 23.9123L18.8193 23.9821ZM18.8359 24.8619L16.6095 24.7828C16.6083 24.8143 16.6074 24.8393 16.6065 24.8603C16.6056 24.8812 16.6048 24.8953 16.6043 24.9049C16.6031 24.924 16.6031 24.917 16.6057 24.8964C16.607 24.8858 16.6087 24.8736 16.611 24.8603C16.6132 24.8471 16.6154 24.8356 16.6174 24.8265C16.6211 24.8093 16.6224 24.8063 16.616 24.8295L18.7627 25.4254L20.9094 26.0213C21.0327 25.5773 21.05 25.2892 21.0624 24.9411L18.8359 24.8619ZM18.7627 25.4254L16.616 24.8293C16.5799 24.9596 16.514 25.1747 16.4765 25.281L18.5771 26.0231L20.6778 26.7651C20.7608 26.5301 20.857 26.2102 20.9094 26.0215L18.7627 25.4254ZM18.5771 26.0231L16.4765 25.281C16.466 25.3107 16.4616 25.3206 16.4584 25.3279C16.454 25.3379 16.4498 25.3472 16.4364 25.3766C16.4248 25.4022 16.4061 25.4434 16.3856 25.4912L18.4316 26.3727L20.4777 27.2542C20.4802 27.2483 20.4838 27.2403 20.4943 27.217C20.5032 27.1975 20.5212 27.1581 20.5398 27.1155C20.5827 27.0175 20.628 26.9062 20.6778 26.7652L18.5771 26.0231ZM18.4316 26.3727L16.3855 25.4912C16.3676 25.533 16.3488 25.5781 16.3394 25.6008C16.3275 25.6293 16.3195 25.6482 16.312 25.6654C16.2984 25.6965 16.2882 25.7177 16.2775 25.7374L18.2402 26.7916L20.2029 27.8458C20.3559 27.5611 20.4702 27.2717 20.4777 27.2541L18.4316 26.3727ZM18.2402 26.7916L16.2775 25.7374C16.2515 25.7858 16.2183 25.8438 16.1864 25.8959C16.1709 25.9212 16.1588 25.9402 16.1508 25.9523C16.1413 25.9665 16.144 25.9616 16.1578 25.9433L17.9395 27.2809L19.7211 28.6185C19.9023 28.3771 20.0873 28.061 20.2029 27.8458L18.2402 26.7916ZM17.9395 27.2809L16.1577 25.9435C16.1218 25.9912 16.0915 26.0341 16.0672 26.0694C16.044 26.103 16.0236 26.1337 16.0128 26.1499C15.9993 26.1702 15.9966 26.1742 15.9947 26.177C15.9942 26.1777 15.9992 26.1703 16.0079 26.1587C16.0169 26.1466 16.0285 26.1315 16.0425 26.1148C16.0564 26.0981 16.0705 26.0823 16.0844 26.0677C16.1126 26.038 16.1315 26.0219 16.1336 26.0201L17.5605 27.7311L18.9875 29.442C19.235 29.2356 19.4244 29.0313 19.5835 28.8174C19.6499 28.7281 19.7039 28.646 19.7213 28.62C19.7455 28.5836 19.7365 28.5979 19.7212 28.6183L17.9395 27.2809ZM17.5605 27.7311L16.1339 26.0199C16.0506 26.0894 15.9971 26.135 15.9256 26.1929C15.8591 26.2468 15.8078 26.2859 15.7697 26.3126L17.0479 28.1373L18.326 29.9621C18.6161 29.7589 18.8938 29.5201 18.9872 29.4423L17.5605 27.7311ZM17.0479 28.1373L15.7698 26.3125C15.6885 26.3694 15.6479 26.3931 15.6336 26.4012C15.6084 26.4155 15.613 26.4123 15.5166 26.4615L16.5293 28.4459L17.542 30.4303C17.6742 30.3629 17.9259 30.2423 18.326 29.9621L17.0479 28.1373ZM16.5293 28.4459L15.5166 26.4615C15.4235 26.509 15.3484 26.5536 15.3187 26.5711C15.2795 26.5943 15.2909 26.5874 15.3004 26.5822C15.318 26.5726 15.3385 26.5623 15.358 26.5536C15.3758 26.5457 15.3822 26.5438 15.3722 26.5473L16.1113 28.649L16.8504 30.7508C17.2624 30.6059 17.7811 30.3083 17.542 30.4303L16.5293 28.4459ZM16.1113 28.649L15.3725 26.5472C15.348 26.5559 15.3574 26.5522 15.3761 26.5467C15.3987 26.54 15.4255 26.5331 15.4532 26.5276C15.5083 26.5167 15.5188 26.5207 15.4511 26.5227L15.5156 28.7496L15.5801 30.9766C16.1701 30.9595 16.5392 30.8602 16.8502 30.7509L16.1113 28.649ZM15.5156 28.7496L15.4512 26.5227C15.2461 26.5286 14.873 26.5291 14.6687 26.5268L14.6436 28.7545L14.6184 30.9823C14.85 30.9849 15.2899 30.985 15.5801 30.9766L15.5156 28.7496ZM14.6436 28.7545L14.6687 26.5268C14.5773 26.5257 14.5436 26.5242 14.5371 26.5239C14.5333 26.5237 14.532 26.5237 14.5172 26.5228C14.5038 26.522 14.465 26.5196 14.4184 26.5181L14.3457 28.7448L14.273 30.9714C14.252 30.9708 14.2361 30.9697 14.2493 30.9705C14.2611 30.9712 14.2902 30.973 14.3273 30.9747C14.4024 30.9783 14.4919 30.9808 14.6184 30.9823L14.6436 28.7545ZM14.3457 28.7448L14.4183 26.5181C14.2614 26.5129 14.1917 26.5067 14.0704 26.492L13.8027 28.7037L13.5351 30.9155C13.7816 30.9453 13.9814 30.9619 14.2731 30.9714L14.3457 28.7448ZM13.8027 28.7037L14.0704 26.492C14.1065 26.4964 14.1313 26.501 14.1407 26.5028C14.15 26.5047 14.1512 26.5052 14.1385 26.5021C14.1217 26.4981 14.11 26.4952 14.0716 26.4857C14.0419 26.4783 13.9899 26.4655 13.9326 26.453L13.457 28.6295L12.9815 30.806C12.9749 30.8046 12.9764 30.8048 13.0021 30.8112C13.0192 30.8154 13.0649 30.8268 13.1067 30.8368C13.1922 30.8571 13.3493 30.893 13.535 30.9155L13.8027 28.7037ZM13.457 28.6295L13.9313 26.4527C13.8777 26.441 13.8297 26.4322 13.7901 26.4255C13.7505 26.4188 13.7156 26.4136 13.6886 26.4099C13.6621 26.4062 13.6382 26.4031 13.6235 26.4012C13.6051 26.3988 13.5999 26.3981 13.593 26.3972C13.5881 26.3966 13.5909 26.3969 13.5979 26.398C13.6052 26.3991 13.6202 26.4015 13.6406 26.4055C13.661 26.4094 13.6898 26.4154 13.7248 26.4243C13.7598 26.4331 13.8041 26.4455 13.8551 26.4627L13.1436 28.5739L12.432 30.6851C12.5787 30.7345 12.7069 30.7633 12.7969 30.7806C12.8864 30.7979 12.9633 30.8085 13.0045 30.814C13.0247 30.8167 13.0466 30.8194 13.0552 30.8205C13.0609 30.8213 13.0646 30.8218 13.0674 30.8221C13.07 30.8225 13.0709 30.8226 13.0705 30.8225C13.0701 30.8225 13.0615 30.8213 13.0478 30.819C13.0341 30.8167 13.0116 30.8126 12.9827 30.8063L13.457 28.6295ZM13.1436 28.5739L13.8577 26.4635C13.7911 26.441 13.7339 26.4225 13.6878 26.4078C13.6662 26.4009 13.644 26.3939 13.6293 26.3892C13.6126 26.3839 13.6019 26.3805 13.5935 26.3777C13.5752 26.3718 13.5842 26.3744 13.6048 26.3821C13.6287 26.3911 13.67 26.4076 13.7212 26.4325L12.7471 28.4362L11.773 30.4398C11.9645 30.5329 12.1345 30.5888 12.2171 30.6156C12.3308 30.6525 12.3407 30.6542 12.4294 30.6842L13.1436 28.5739ZM12.7471 28.4362L13.7201 26.432C13.6247 26.3857 13.5407 26.3523 13.4776 26.3292C13.4172 26.3071 13.3663 26.2909 13.3451 26.2842C13.3391 26.2823 13.3337 26.2806 13.33 26.2794C13.3256 26.2781 13.324 26.2775 13.3218 26.2768C13.318 26.2757 13.3198 26.2762 13.324 26.2776C13.333 26.2805 13.357 26.2885 13.3889 26.3008C13.4591 26.3278 13.5429 26.366 13.6306 26.4184C13.7157 26.4692 13.7818 26.5197 13.8289 26.5606L12.3682 28.2428L10.9074 29.925C11.1985 30.1777 11.4951 30.3463 11.7885 30.4592C11.8508 30.4832 11.904 30.5012 11.941 30.5133C11.9592 30.5192 11.9748 30.5242 11.9845 30.5272C11.9995 30.5319 11.9955 30.5307 12.001 30.5324C12.0185 30.5379 11.9083 30.5055 11.7741 30.4403L12.7471 28.4362ZM12.3682 28.2428L13.8293 26.561C13.7438 26.4867 13.6341 26.3897 13.4426 26.2315L12.0234 27.9489L10.6042 29.6662C10.7446 29.7822 10.8092 29.8397 10.907 29.9246L12.3682 28.2428ZM12.0234 27.9489L13.4426 26.2315C13.3637 26.1662 13.3129 26.1253 13.2318 26.0578C13.1971 26.0289 13.1672 26.0036 13.1428 25.9826C13.1164 25.9599 13.1066 25.9508 13.1083 25.9524L11.5898 27.5826L10.0714 29.2129C10.2473 29.3768 10.5426 29.6153 10.6042 29.6662L12.0234 27.9489ZM11.5898 27.5826L13.1086 25.9526C13.0435 25.892 12.9866 25.8425 12.9501 25.8109C12.9413 25.8033 12.9322 25.7955 12.926 25.7901C12.919 25.784 12.9139 25.7797 12.9096 25.7759C12.9007 25.7682 12.8992 25.7668 12.9013 25.7687C12.9062 25.7731 12.9346 25.7989 12.9721 25.8398C12.9911 25.8605 13.0115 25.884 13.0324 25.9102C13.0534 25.9363 13.0736 25.9633 13.0926 25.9908L11.2598 27.2574L9.42697 28.5241C9.60426 28.7806 9.78536 28.9584 9.91257 29.0734C9.96327 29.1193 10.0202 29.168 10.0349 29.1807C10.059 29.2015 10.0667 29.2086 10.0711 29.2126L11.5898 27.5826ZM11.2598 27.2574L13.0929 25.9913C13.0868 25.9824 13.0809 25.974 13.0766 25.9678C13.0718 25.9609 13.0687 25.9564 13.0654 25.9517C13.0593 25.9429 13.0567 25.939 13.0555 25.9372C13.0536 25.9345 13.0591 25.9425 13.0676 25.957C13.0763 25.9718 13.0866 25.9908 13.097 26.0129C13.1075 26.0351 13.1165 26.057 13.1239 26.078L11.0225 26.818L8.92106 27.558C9.10715 28.0864 9.36934 28.4406 9.42665 28.5236L11.2598 27.2574ZM11.0225 26.818L13.1239 26.0781C13.0778 25.9473 13.023 25.7938 12.9706 25.5849L10.8096 26.1266L8.64855 26.6683C8.75614 27.0975 8.87361 27.4232 8.92102 27.5579L11.0225 26.818ZM10.8096 26.1266L12.9706 25.585C12.9152 25.364 12.8649 25.0902 12.8406 24.8263L10.6221 25.0299L8.40351 25.2336C8.45099 25.7507 8.54403 26.2513 8.64852 26.6682L10.8096 26.1266ZM10.6221 25.0299L12.8406 24.8263C12.8162 24.56 12.816 24.2845 12.8266 24.0731L10.6016 23.9615L8.37648 23.85C8.35752 24.228 8.35623 24.7183 8.40351 25.2335L10.6221 25.0299ZM10.6016 23.9615L12.8266 24.0732C12.8318 23.97 12.8383 23.9037 12.8437 23.8607C12.8488 23.8207 12.8539 23.794 12.8591 23.7709L10.6855 23.2819L8.51201 22.7928C8.43677 23.1271 8.39614 23.4582 8.37648 23.8499L10.6016 23.9615ZM10.6855 23.2819L12.8591 23.771C12.8706 23.7199 12.8872 23.6609 12.935 23.5342L10.8506 22.7477L8.76615 21.9612C8.6727 22.2088 8.5834 22.4756 8.51203 22.7927L10.6855 23.2819ZM10.8506 22.7477L12.935 23.5342C12.9552 23.4807 12.9687 23.4447 12.9835 23.4063C12.9974 23.3704 13.0078 23.3444 13.0164 23.3241C13.0352 23.2796 13.0359 23.2847 13.0174 23.3156L11.1074 22.1686L9.19748 21.0216C8.96396 21.4104 8.81596 21.8291 8.76614 21.9612L10.8506 22.7477ZM11.1074 22.1686L13.0178 23.3148L13.0266 23.3002L11.1162 22.1539L9.20582 21.0077L9.19703 21.0223L11.1074 22.1686ZM11.1162 22.1539L13.0262 23.3009C13.0774 23.2156 13.1206 23.1436 13.1581 23.0817C13.1958 23.0193 13.2238 22.9735 13.2447 22.94C13.255 22.9235 13.2617 22.9129 13.2656 22.9068C13.27 22.9 13.2683 22.9029 13.262 22.9121C13.2586 22.917 13.2526 22.9257 13.2443 22.9372C13.2362 22.9484 13.2234 22.9658 13.2067 22.9872C13.1907 23.0078 13.1649 23.0401 13.1307 23.0789C13.1132 23.0988 13.091 23.1232 13.0645 23.1507C13.0383 23.1778 13.0039 23.212 12.9618 23.2501L11.4658 21.5992L9.9698 19.9484C9.82062 20.0836 9.7211 20.2111 9.6911 20.2497C9.64651 20.3069 9.61065 20.358 9.58757 20.3917C9.54115 20.4593 9.49729 20.5286 9.46324 20.5832C9.39369 20.6948 9.30404 20.8441 9.20626 21.007L11.1162 22.1539ZM11.4658 21.5992L12.9537 23.2574C13.0075 23.2092 13.0599 23.1589 13.0854 23.1346C13.119 23.1024 13.142 23.0803 13.1678 23.0564C13.2155 23.0119 13.2581 22.9746 13.3024 22.9399L11.9297 21.1852L10.557 19.4304C10.3796 19.5692 10.2361 19.6978 10.1302 19.7964C10.0792 19.844 10.0335 19.8878 10.0063 19.9139C9.97081 19.9478 9.97002 19.9481 9.97791 19.9411L11.4658 21.5992ZM11.9297 21.1852L13.3024 22.9399C13.3231 22.9237 13.3442 22.9071 13.3605 22.8943C13.378 22.8805 13.3921 22.8695 13.4051 22.8594C13.4179 22.8495 13.4277 22.842 13.4355 22.836C13.4434 22.8301 13.4481 22.8266 13.4505 22.8249C13.4528 22.8232 13.4518 22.824 13.4479 22.8266C13.4439 22.8293 13.4361 22.8345 13.4247 22.8416C13.4134 22.8486 13.3975 22.8582 13.3773 22.8693C13.3572 22.8804 13.3317 22.8937 13.3011 22.908L12.3545 20.8912L11.4078 18.8745C10.9806 19.075 10.5979 19.3984 10.557 19.4305L11.9297 21.1852ZM12.3545 20.8912L13.3006 22.9083C13.3745 22.8736 13.4397 22.8404 13.4824 22.8185C13.5333 22.7925 13.5537 22.7818 13.5832 22.7671C13.6247 22.7464 13.6602 22.7299 13.7106 22.7104L12.9072 20.6324L12.1038 18.5545C11.8919 18.6364 11.7259 18.7142 11.594 18.78C11.5369 18.8085 11.4776 18.8391 11.4518 18.8523C11.4357 18.8606 11.4254 18.8658 11.4177 18.8696C11.4104 18.8733 11.4078 18.8745 11.4084 18.8742L12.3545 20.8912ZM12.9072 20.6324L13.7104 22.7105C13.7644 22.6897 13.8363 22.6629 13.9148 22.6365C13.9955 22.6093 14.0676 22.5878 14.1239 22.5737L13.582 20.4127L13.0402 18.2517C12.649 18.3498 12.2867 18.4838 12.1041 18.5544L12.9072 20.6324ZM13.582 20.4127L14.1236 22.5738C14.2318 22.5467 14.35 22.5292 14.4828 22.5195L14.3213 20.2975L14.1598 18.0755C13.8321 18.0993 13.4515 18.1487 13.0404 18.2517L13.582 20.4127ZM14.3213 20.2975L14.4827 22.5195C14.6081 22.5104 14.7048 22.5104 14.8261 22.5193L14.9902 20.2975L15.1544 18.0757C14.8092 18.0501 14.4947 18.0511 14.1599 18.0755L14.3213 20.2975ZM14.9902 20.2975L14.826 22.5193C14.9828 22.5309 15.1755 22.556 15.3114 22.5747L15.6162 20.3678L15.921 18.1609C15.7789 18.1412 15.4643 18.0986 15.1544 18.0757L14.9902 20.2975ZM15.6162 20.3678L15.3114 22.5747C15.3435 22.5792 15.3667 22.5824 15.3835 22.5848C15.4005 22.5873 15.4083 22.5885 15.4104 22.5888C15.4119 22.589 15.405 22.588 15.3929 22.5858C15.3867 22.5847 15.3807 22.5836 15.3749 22.5825C15.3722 22.582 15.37 22.5816 15.3684 22.5812C15.3675 22.5811 15.3669 22.581 15.3665 22.5809C15.3663 22.5808 15.3661 22.5808 15.366 22.5808C15.3659 22.5808 15.3658 22.5807 15.3658 22.5807L15.8027 20.3961L16.2397 18.2115C16.1421 18.192 16.0567 18.1796 15.921 18.1609L15.6162 20.3678ZM15.8027 20.3961L15.4329 22.5931C15.3958 22.5868 15.3669 22.581 15.3529 22.5781C15.3369 22.5747 15.3242 22.5719 15.3165 22.5701C15.3015 22.5667 15.2911 22.5642 15.2885 22.5635C15.2828 22.5621 15.2831 22.5621 15.2926 22.5647C15.3106 22.5694 15.337 22.5765 15.3705 22.5855C15.3995 22.5934 15.4388 22.6041 15.467 22.6117C15.4814 22.6155 15.4994 22.6204 15.5166 22.6249C15.5248 22.627 15.5382 22.6305 15.5537 22.6343C15.5614 22.6362 15.5739 22.6393 15.589 22.6428C15.5996 22.6453 15.6328 22.653 15.6752 22.6611L16.0957 20.4733L16.5162 18.2854C16.5574 18.2934 16.5891 18.3007 16.5976 18.3027C16.6107 18.3057 16.6207 18.3082 16.6256 18.3094C16.6311 18.3108 16.6352 18.3118 16.6373 18.3123C16.6395 18.3129 16.6409 18.3133 16.6413 18.3134C16.6414 18.3134 16.6369 18.3122 16.6252 18.3091C16.6012 18.3026 16.5739 18.2952 16.5357 18.2848C16.5019 18.2757 16.4604 18.2644 16.4236 18.2548C16.4058 18.2501 16.382 18.2439 16.3573 18.2379C16.3452 18.2349 16.3265 18.2303 16.3047 18.2254C16.2936 18.2228 16.2779 18.2193 16.2592 18.2154C16.2426 18.212 16.2115 18.2057 16.1725 18.1991L15.8027 20.3961ZM16.0957 20.4733L15.7348 22.6717C15.6605 22.6595 15.5985 22.6455 15.5531 22.634C15.5066 22.6224 15.467 22.6108 15.4361 22.6012C15.3758 22.5825 15.3275 22.5647 15.2965 22.5527C15.2639 22.5402 15.2369 22.5288 15.2173 22.5204C15.1973 22.5118 15.1803 22.5041 15.1671 22.498C15.1415 22.4862 15.1211 22.4762 15.1086 22.4699C15.0954 22.4633 15.0847 22.4578 15.0776 22.454C15.0637 22.4468 15.0541 22.4415 15.0509 22.4397C15.047 22.4376 15.0452 22.4366 15.0462 22.4371C15.0537 22.4414 15.0709 22.4513 15.1021 22.4695C15.1261 22.4835 15.1657 22.5067 15.1951 22.5236C15.2096 22.532 15.2329 22.5454 15.2576 22.5591C15.2689 22.5654 15.2923 22.5783 15.3209 22.5931C15.3349 22.6004 15.3607 22.6137 15.3933 22.6292C15.4099 22.6371 15.4346 22.6486 15.4648 22.6618C15.4803 22.6685 15.4996 22.6767 15.522 22.6857C15.544 22.6945 15.5732 22.7059 15.6079 22.7182L16.3535 20.6188L17.0991 18.5194C17.2107 18.559 17.2943 18.5992 17.3096 18.6066C17.3404 18.6212 17.3641 18.6334 17.3756 18.6394C17.3992 18.6516 17.416 18.661 17.4196 18.663C17.4288 18.6681 17.4317 18.6698 17.4224 18.6645C17.4043 18.654 17.3831 18.6416 17.3464 18.6202C17.3169 18.603 17.2734 18.5777 17.2337 18.5553C17.2159 18.5453 17.1818 18.5262 17.1431 18.5059C17.1259 18.4969 17.0856 18.476 17.0345 18.4525C17.0099 18.4411 16.9613 18.4191 16.8988 18.395C16.867 18.3828 16.8179 18.3647 16.757 18.3457C16.7036 18.3292 16.596 18.2977 16.4566 18.2748L16.0957 20.4733ZM16.3535 20.6188L15.3051 22.5846C15.3767 22.6227 15.4416 22.6532 15.4634 22.6635C15.4945 22.6782 15.5065 22.6838 15.5258 22.6932C15.5565 22.7082 15.6191 22.7396 15.7362 22.8054L16.8271 20.8629L17.9181 18.9204C17.7324 18.8161 17.5946 18.7449 17.4823 18.69C17.4302 18.6645 17.3851 18.6434 17.3679 18.6352C17.3414 18.6227 17.3668 18.6342 17.4019 18.653L16.3535 20.6188ZM16.8271 20.8629L15.7361 22.8054C15.7161 22.7941 15.7015 22.7853 15.6939 22.7807C15.6863 22.776 15.6824 22.7735 15.6841 22.7745C15.6859 22.7757 15.6901 22.7784 15.6993 22.7845C15.7038 22.7875 15.7086 22.7907 15.7148 22.7948C15.7206 22.7986 15.7278 22.8034 15.7351 22.8082L16.9639 20.9498L18.1926 19.0915C18.1821 19.0845 18.0488 18.9938 17.9182 18.9205L16.8271 20.8629ZM16.9639 20.9498L18.4853 22.5773C18.4823 22.5802 18.4818 22.5805 18.4865 22.5763C18.4925 22.5709 18.4968 22.567 18.5099 22.5552C18.5305 22.5367 18.5704 22.5007 18.6148 22.4584L17.0781 20.8453L15.5415 19.2322C15.5463 19.2276 15.5468 19.2273 15.529 19.2434C15.5229 19.2489 15.5083 19.262 15.4957 19.2734C15.4818 19.286 15.4632 19.3029 15.4424 19.3223L16.9639 20.9498ZM17.0781 20.8453L18.6149 22.4584C18.9914 22.0996 19.5151 21.567 20.1444 20.836L18.4561 19.3824L16.7677 17.9288C16.238 18.5441 15.816 18.9707 15.5414 19.2323L17.0781 20.8453ZM18.4561 19.3824L20.1444 20.836C20.7688 20.1107 21.5072 19.1803 22.1503 18.1392L20.2549 16.9684L18.3595 15.7976C17.8835 16.5681 17.3063 17.3033 16.7677 17.9289L18.4561 19.3824ZM20.2549 16.9684L22.1504 18.1391C22.7904 17.1028 23.3063 16.0117 23.6471 15.1079L21.5625 14.3219L19.4779 13.5359C19.2323 14.1871 18.8404 15.0188 18.3594 15.7976L20.2549 16.9684ZM21.5625 14.3219L23.6472 15.1078C23.9364 14.3404 24.0969 13.7181 24.1988 13.2115L22.0146 12.7721L19.8305 12.3327C19.7713 12.6273 19.674 13.0157 19.4778 13.536L21.5625 14.3219ZM22.0146 12.7721L20.7814 10.9167C20.653 11.002 20.6097 11.0325 20.543 11.0738L21.7168 12.9674L22.8906 14.861C23.0372 14.7701 23.1887 14.6668 23.2479 14.6275L22.0146 12.7721ZM21.7168 12.9674L20.5432 11.0737C20.3463 11.1957 20.339 11.1892 20.0585 11.3505L21.1689 13.2819L22.2794 15.2133C22.3275 15.1856 22.6326 15.0209 22.8904 14.8611L21.7168 12.9674ZM21.1689 13.2819L20.0587 11.3503C20.0842 11.3357 20.0815 11.341 19.9965 11.3738C19.9445 11.3938 19.9175 11.4033 19.8341 11.4347C19.7687 11.4592 19.6721 11.496 19.5688 11.5407L20.4531 13.5856L21.3375 15.6304C21.3357 15.6312 21.3393 15.6296 21.3509 15.625C21.3625 15.6204 21.3783 15.6144 21.4016 15.6056C21.4336 15.5936 21.5267 15.5592 21.5973 15.532C21.7573 15.4704 22.009 15.3687 22.2791 15.2134L21.1689 13.2819ZM20.4531 13.5856L19.5688 11.5407C19.5814 11.5353 19.4849 11.5748 19.2692 11.6393C19.0701 11.6988 18.8068 11.7684 18.5 11.8324L18.9551 14.0133L19.4101 16.1942C20.248 16.0194 20.9575 15.7947 21.3374 15.6304L20.4531 13.5856ZM18.9551 14.0133L18.5001 11.8324C18.2979 11.8745 18.1547 11.8987 18.0484 11.915C17.9914 11.9237 17.9446 11.9303 17.8873 11.9385C17.8386 11.9455 17.7611 11.9566 17.6825 11.9705L18.0684 14.1647L18.4542 16.3589C18.4538 16.359 18.4648 16.3571 18.5204 16.3491C18.5673 16.3424 18.6405 16.332 18.7243 16.3192C18.8997 16.2923 19.1216 16.2544 19.41 16.1942L18.9551 14.0133ZM18.0684 14.1647L17.6821 11.9705C17.5097 12.0009 17.3845 12.0167 17.2769 12.0283C17.2151 12.035 17.1664 12.0397 17.0924 12.0471C17.026 12.0538 16.9404 12.0626 16.8481 12.0747L17.1367 14.2838L17.4254 16.4929C17.4309 16.4922 17.9616 16.4456 18.4546 16.3588L18.0684 14.1647ZM17.1367 14.2838L16.8477 12.0748C16.7653 12.0855 16.6903 12.0978 16.552 12.1046C16.4115 12.1116 16.2208 12.111 15.9997 12.0836L15.7256 14.2946L15.4515 16.5055C15.9717 16.57 16.4242 16.5722 16.7728 16.5549C16.9478 16.5462 17.0969 16.5326 17.2149 16.5194C17.3228 16.5074 17.4313 16.4921 17.4258 16.4929L17.1367 14.2838ZM15.7256 14.2946L15.9998 12.0836C15.9013 12.0714 15.8231 12.0616 15.7587 12.0534C15.6934 12.045 15.6512 12.0392 15.6232 12.0351C15.5928 12.0307 15.597 12.0307 15.6195 12.0352C15.6323 12.0377 15.6563 12.0427 15.6882 12.0507C15.7202 12.0587 15.7652 12.071 15.8192 12.089L15.1152 14.2028L14.4112 16.3165C14.6556 16.3979 14.8884 16.4308 14.9772 16.4438C15.1013 16.462 15.2634 16.4822 15.4514 16.5055L15.7256 14.2946ZM15.1152 14.2028L15.8196 12.0891C15.8436 12.0972 15.8453 12.1 15.8168 12.0858C15.7867 12.0709 15.7412 12.0463 15.6644 12.0015L14.541 13.9254L13.4177 15.8494C13.636 15.9768 13.9869 16.1751 14.4109 16.3164L15.1152 14.2028ZM14.541 13.9254L15.6644 12.0015C15.6179 11.9744 15.5914 11.9585 15.5649 11.9413C15.5387 11.9244 15.5242 11.9134 15.5187 11.909C15.5121 11.9036 15.5283 11.9157 15.5569 11.9483C15.5851 11.9806 15.6414 12.0514 15.696 12.1643L13.6904 13.1344L11.6849 14.1045C11.9828 14.7204 12.4209 15.1338 12.7138 15.3711C13.0206 15.6197 13.313 15.7882 13.4176 15.8493L14.541 13.9254ZM13.6904 13.1344L15.6954 12.1631C15.6412 12.0512 15.5883 11.9621 15.5607 11.9164C15.5459 11.892 15.5323 11.8701 15.5243 11.8573C15.5143 11.8413 15.5113 11.8365 15.5073 11.83C15.496 11.8116 15.5293 11.8631 15.5643 11.9444C15.6023 12.0329 15.6332 12.1337 15.6497 12.2394C15.6658 12.3421 15.6633 12.4175 15.6598 12.4547L13.4414 12.2496L11.223 12.0446C11.1652 12.6696 11.2635 13.2221 11.4705 13.7036C11.5635 13.9201 11.663 14.0848 11.7135 14.1668C11.7989 14.3055 11.7297 14.197 11.6854 14.1057L13.6904 13.1344ZM13.4414 12.2496L15.6599 12.4538C15.6738 12.3025 15.6773 12.1735 15.679 12.097C15.6802 12.0476 15.6802 12.04 15.6808 12.0156C15.6813 11.9994 15.6814 12.002 15.6806 12.0139C15.6791 12.0373 15.6721 12.132 15.6393 12.26C15.6039 12.3978 15.5459 12.5462 15.4598 12.6908L13.5459 11.5504L11.632 10.41C11.3201 10.9334 11.2538 11.4269 11.2344 11.7225C11.2267 11.8406 11.225 11.9705 11.2244 11.9958C11.2233 12.0455 11.2224 12.051 11.2229 12.0455L13.4414 12.2496ZM13.5459 11.5504L15.4596 12.6911C15.5421 12.5528 15.6458 12.4161 15.7398 12.3126C15.7855 12.2622 15.8165 12.2333 15.8274 12.2238C15.8323 12.2196 15.8264 12.2251 15.8096 12.2375C15.7944 12.2488 15.7561 12.2763 15.6962 12.3105L14.5918 10.3756L13.4874 8.44076C13.052 8.68928 12.6867 9.04643 12.4398 9.31854C12.1601 9.62685 11.8762 10.0004 11.6322 10.4097L13.5459 11.5504ZM14.5918 10.3756L15.692 12.3129C15.6561 12.3333 15.6294 12.3468 15.6189 12.3522C15.6064 12.3584 15.5991 12.3618 15.5987 12.362C15.5983 12.3622 15.609 12.3572 15.6337 12.3466C15.6828 12.3256 15.7601 12.2939 15.8652 12.2531C16.0741 12.172 16.3637 12.0664 16.7059 11.9526L16.0029 9.8385L15.2999 7.72445C14.8921 7.86006 14.5337 7.99029 14.2533 8.09909C14.0404 8.18172 13.7166 8.31054 13.4916 8.43833L14.5918 10.3756ZM16.0029 9.8385L16.7058 11.9526C16.7985 11.9218 16.8318 11.9133 16.852 11.9083C16.8707 11.9036 16.8917 11.8986 16.9386 11.8878C16.9823 11.8777 17.0429 11.8637 17.1159 11.8459L16.5889 9.68127L16.0618 7.51664C16.017 7.52755 15.9797 7.53616 15.9344 7.54664C15.8922 7.5564 15.8329 7.57009 15.7689 7.58613C15.6236 7.62254 15.4817 7.664 15.3 7.72441L16.0029 9.8385ZM16.5889 9.68127L17.116 11.8459C17.7031 11.7029 18.1494 11.6107 18.2755 11.5855L17.8379 9.401L17.4003 7.21651C17.2274 7.25115 16.72 7.35634 16.0617 7.51666L16.5889 9.68127ZM17.8379 9.401L18.275 11.5856C18.2251 11.5956 18.1979 11.5973 18.2143 11.5958C18.2217 11.5951 18.2352 11.594 18.2585 11.5924C18.2822 11.5908 18.3098 11.5891 18.3474 11.5868L18.2148 9.36292L18.0823 7.13898C17.9631 7.14609 17.6852 7.1595 17.4007 7.21643L17.8379 9.401ZM18.2148 9.36292V11.5908H18.2227V9.36292V7.13503H18.2148V9.36292Z" fill="white"/>
<path d="M18.2227 9.3634C18.6751 9.33641 19.195 9.32987 19.5674 9.37415C19.8871 9.41217 20.1256 9.44663 20.2764 9.4718C20.3738 9.48806 20.8748 9.62759 21.5693 9.95032C22.0224 10.1608 22.4447 10.4211 23.2236 10.962C23.3539 10.9186 23.9393 10.6174 24.4502 10.6095C24.7975 10.6041 25.4096 10.5922 25.7314 10.6105C26.2065 10.6375 26.4676 10.6475 26.7148 10.7023C26.9106 10.7457 27.1309 10.7584 27.3379 10.8048C27.6057 10.8649 27.9768 10.9582 28.1562 11.0275C28.2972 11.0819 28.5881 11.1538 28.9326 11.3702C29.4573 11.7 29.9262 12.015 30.2217 12.2521C30.4673 12.4491 30.7816 12.7595 30.9258 12.9191C31.1277 13.1426 31.6724 13.6733 31.8311 14.0861C31.9393 14.3677 32.1088 14.8545 32.167 15.3712C32.1991 15.6564 32.1781 15.7853 32.1719 15.8839C32.1555 16.1445 32.0854 16.3737 32.042 16.5665L32.0371 16.589C31.9911 16.7937 31.958 16.938 31.8682 17.0431C31.7757 17.1512 31.6318 17.2759 31.4775 17.3409C31.2319 17.4445 30.926 17.6242 30.4199 17.5577C30.2147 17.5308 30.0804 17.5438 29.7803 17.4874C29.4343 17.4224 29.1799 17.3365 28.9521 17.2814C28.8167 17.2486 28.6297 17.1464 28.4268 17.0538C28.1868 16.9444 27.8957 16.788 27.71 16.6573C27.3634 16.4135 27.0963 16.1773 26.8867 16.0343C26.6473 15.871 26.3802 15.71 26.1387 15.4591C25.9393 15.2519 25.7652 15.0845 25.6211 14.9425C25.9338 15.6878 26.1966 16.495 26.3877 17.2072C26.5944 17.9777 26.7151 18.6225 26.8018 19.4318C26.8873 20.2308 26.9363 21.1716 26.957 21.7384C26.983 22.45 26.9561 22.7215 26.9355 22.8615C26.9215 23.0152 26.8981 23.2451 26.835 23.4777C26.8202 23.7795 26.5688 24.0169 26.2646 24.0109C25.955 24.0047 25.7087 23.7482 25.7148 23.4386L25.7168 23.3995C25.719 23.3548 25.7248 23.2928 25.7451 23.214L25.7471 23.2062L25.749 23.1993C25.7877 23.0647 25.8042 22.913 25.8193 22.7462L25.8232 22.7111C25.8293 22.6722 25.8618 22.4877 25.8359 21.7794C25.8156 21.2235 25.768 20.3123 25.6865 19.5509C25.6061 18.7997 25.4963 18.2126 25.3047 17.4982C25.1106 16.7747 24.8445 15.9583 24.5303 15.2355C24.2172 14.5153 23.865 13.9005 23.4971 13.3712C23.3759 13.1969 23.253 13.033 23.1367 12.8829C23.0475 13.353 22.9006 13.9507 22.6113 14.7179C22.2943 15.5586 21.8109 16.5858 21.21 17.5587C20.608 18.5333 19.9083 19.4144 19.3057 20.1144C18.7013 20.8164 18.2033 21.3223 17.8516 21.6573C17.3659 22.12 17.0221 22.3817 16.9336 22.4611C16.6289 22.7346 16.3402 22.9256 16.1143 23.0646C15.9458 23.1765 15.7917 23.2746 15.6631 23.3507C15.5552 23.4145 15.4207 23.4907 15.3047 23.5314C15.3001 23.533 15.2954 23.534 15.2842 23.5392C15.2684 23.5466 15.2476 23.5575 15.2041 23.5792C14.9271 23.7177 14.5907 23.6052 14.4521 23.3282C14.3138 23.0514 14.4255 22.7149 14.7021 22.5763C14.7767 22.539 14.8401 22.5063 14.9219 22.4767L14.9307 22.4738C14.934 22.4723 14.9442 22.4673 14.9619 22.4581C14.9934 22.4419 15.0368 22.4184 15.0918 22.3859C15.2017 22.3209 15.3445 22.2304 15.5098 22.1202L15.5176 22.1144L15.5264 22.1095C15.7227 21.9888 15.9488 21.8378 16.1836 21.6271C16.4122 21.4218 16.563 21.3366 17.0781 20.8458C17.4037 20.5356 17.8763 20.0563 18.4561 19.3829C19.0376 18.7074 19.6952 17.8749 20.2549 16.9689C20.8155 16.0612 21.2693 15.1 21.5625 14.3224C21.8053 13.6785 21.9331 13.1733 22.0137 12.7726C21.92 12.8348 21.8233 12.9019 21.7168 12.9679C21.4893 13.1089 21.3334 13.1878 21.1689 13.2823C20.9242 13.423 20.6601 13.4965 20.4531 13.5861C20.2527 13.6727 19.6976 13.8589 18.9551 14.0138C18.4642 14.1162 18.2247 14.1377 18.0684 14.1652C17.6084 14.2461 17.3686 14.254 17.1367 14.2843C17.012 14.3006 16.467 14.387 15.7256 14.295C15.3323 14.2463 15.188 14.2275 15.1152 14.2032C14.9201 14.1382 14.7332 14.0381 14.541 13.9259C14.3451 13.8115 13.8879 13.5431 13.6904 13.1349C13.6091 12.9668 13.3933 12.7705 13.4414 12.2501C13.4683 11.9583 13.4227 11.7577 13.5459 11.5509C13.8724 11.0031 14.3212 10.5306 14.5918 10.3761C14.7063 10.311 15.2523 10.0886 16.0029 9.83899C16.2774 9.74771 16.3532 9.73915 16.5889 9.68176C17.2117 9.53008 17.6884 9.43143 17.8379 9.40149C17.9439 9.38025 18.0621 9.37251 18.2148 9.3634H18.2227Z" fill="#00B428"/>
<path d="M23.7125 23.5352C23.8538 23.4157 24.4516 23.1044 24.9323 22.9392C25.4168 22.7727 25.9302 22.6752 26.4422 22.6939C26.5081 22.6963 26.5537 22.6987 26.5634 22.7011C26.6068 22.712 26.639 22.7228 26.6827 22.7281C26.889 22.7556 27.0545 22.8209 27.1919 22.8528C27.3332 22.8857 27.6036 22.9715 27.7773 23.0644C27.9296 23.1458 28.1662 23.2357 28.3572 23.3136C28.5039 23.3734 28.711 23.462 28.8941 23.5903C29.1107 23.7422 29.3018 23.8983 29.5662 24.1217C29.7714 24.295 29.8882 24.4045 30.0046 24.6093C30.0972 24.7724 30.2177 24.9628 30.2754 25.1676C30.3353 25.3798 30.4652 25.6776 30.465 26.108C30.4647 26.9615 30.4585 27.1633 30.4052 27.3517C30.3561 27.5253 30.3114 27.7771 30.2371 27.9368C30.161 28.1002 30.0788 28.3528 29.9496 28.5495C29.8247 28.7395 29.6993 29.0142 29.5921 29.1725C29.4664 29.358 29.2125 29.7313 29.0445 29.8988C28.8921 30.0506 28.7345 30.2694 28.4803 30.3648C28.2203 30.4623 28.0904 30.6098 27.7161 30.706C27.4828 30.766 27.2947 30.9002 26.7473 30.9119C25.9945 30.928 25.501 30.9039 25.3908 30.9008C25.1958 30.8955 25.033 30.8866 24.9526 30.8628C24.8059 30.8194 24.6544 30.7772 24.4969 30.7217C24.2206 30.6243 24.0728 30.5658 23.9337 30.5431C23.7654 30.5157 23.6122 30.4334 23.4839 30.3695C23.3426 30.2991 23.1505 30.2483 23.0069 30.0438C22.8659 29.8432 22.7712 29.6964 22.7037 29.5562C22.6279 29.399 22.5217 29.1811 22.3839 28.8405C22.3027 28.64 22.231 28.4693 22.178 28.2989C22.1187 28.108 22.0744 27.8486 22.0917 27.6268C22.1187 27.2814 22.1206 26.5997 22.3104 26.0718C22.6084 25.2429 22.828 24.6864 22.8669 24.6135C22.9102 24.5324 22.9332 24.4506 22.9754 24.3914C23.0838 24.2391 23.1847 24.0602 23.3007 23.9306C23.4415 23.7734 23.5862 23.6421 23.7125 23.5352Z" fill="#F72B3E"/>
<path d="M15.616 20.3677C15.755 20.3869 15.7789 20.3917 15.8028 20.3965C15.8321 20.4014 16.0816 20.4711 16.0961 20.4735C16.1107 20.4759 16.3391 20.6138 16.3537 20.6187C16.4265 20.6576 16.5245 20.6928 16.8275 20.863C16.9432 20.928 17.1022 21.0416 17.2523 21.1479C17.3101 21.1888 17.4454 21.3037 17.6173 21.4477C17.7061 21.5221 17.7633 21.5918 17.8367 21.6575C17.9285 21.7397 18.0711 21.9153 18.1528 22.0342C18.1794 22.0727 18.326 22.2797 18.4917 22.6448C18.5664 22.8094 18.6017 22.9443 18.6361 23.0398C18.6914 23.1937 18.7277 23.285 18.742 23.353C18.7736 23.5032 18.8088 23.6471 18.8193 23.9824C18.8266 24.2158 18.8442 24.632 18.8361 24.862C18.8263 25.1352 18.8185 25.2243 18.7628 25.4251C18.7185 25.5846 18.6373 25.8523 18.5769 26.0232C18.5165 26.194 18.4783 26.2657 18.4321 26.373C18.3858 26.4803 18.3332 26.619 18.2404 26.7918C18.1476 26.9646 18.0232 27.1688 17.9392 27.2806C17.8312 27.4245 17.7904 27.5397 17.5603 27.7315C17.4301 27.8401 17.2417 28.0017 17.048 28.1374C16.7826 28.3232 16.6479 28.3855 16.5293 28.446C16.4207 28.5014 16.3533 28.5638 16.1109 28.649C15.9809 28.6947 15.8405 28.7408 15.5158 28.7502C15.2681 28.7573 14.8617 28.7573 14.6437 28.7549C14.4257 28.7524 14.397 28.7469 14.3457 28.7452C14.1214 28.7379 13.9866 28.7264 13.8026 28.7042C13.6817 28.6895 13.559 28.6514 13.4575 28.6293C13.358 28.6075 13.2384 28.6059 13.1431 28.5736C12.9427 28.5058 12.8411 28.4815 12.7474 28.436C12.6532 28.3902 12.5454 28.3966 12.3681 28.2426C12.2765 28.163 12.1894 28.086 12.0235 27.9489C11.9104 27.8555 11.7017 27.6868 11.5897 27.5825C11.4507 27.4529 11.3512 27.3895 11.2598 27.2572C11.1946 27.1628 11.0977 27.0316 11.0225 26.818C10.9758 26.6852 10.8897 26.4462 10.8098 26.1271C10.7298 25.808 10.658 25.4207 10.6222 25.0299C10.5863 24.6392 10.5863 24.2567 10.6011 23.9619C10.6159 23.6672 10.6446 23.4664 10.686 23.2822C10.7274 23.098 10.78 22.9354 10.8507 22.7482C10.9213 22.561 10.9982 22.3502 11.1071 22.1688L11.1159 22.1542C11.3199 21.8144 11.4303 21.6307 11.4657 21.5989C11.5575 21.5166 11.7079 21.3592 11.9296 21.1858C12.075 21.072 12.2144 20.9571 12.3547 20.8913C12.5045 20.821 12.6449 20.7336 12.9076 20.6321C13.0598 20.5732 13.3228 20.4776 13.5824 20.4125C13.842 20.3475 14.0906 20.314 14.3209 20.2973C14.5511 20.2805 14.7568 20.2805 14.9901 20.2978C15.2235 20.315 15.4769 20.3485 15.616 20.3677Z" fill="#F72B3E"/>
</g>
<defs>
<filter id="filter0_ddd_752_18617" x="-2.75" y="-2" width="48" height="48" filterUnits="userSpaceOnUse" color-interpolation-filters="sRGB">
<feFlood flood-opacity="0" result="BackgroundImageFix"/>
<feColorMatrix in="SourceAlpha" type="matrix" values="0 0 0 0 0 0 0 0 0 0 0 0 0 0 0 0 0 0 127 0" result="hardAlpha"/>
<feOffset/>
<feGaussianBlur stdDeviation="0.5"/>
<feComposite in2="hardAlpha" operator="out"/>
<feColorMatrix type="matrix" values="0 0 0 0 0 0 0 0 0 0 0 0 0 0 0 0 0 0 0.08 0"/>
<feBlend mode="normal" in2="BackgroundImageFix" result="effect1_dropShadow_752_18617"/>
<feColorMatrix in="SourceAlpha" type="matrix" values="0 0 0 0 0 0 0 0 0 0 0 0 0 0 0 0 0 0 127 0" result="hardAlpha"/>
<feOffset dy="1"/>
<feGaussianBlur stdDeviation="2"/>
<feComposite in2="hardAlpha" operator="out"/>
<feColorMatrix type="matrix" values="0 0 0 0 0 0 0 0 0 0 0 0 0 0 0 0 0 0 0.08 0"/>
<feBlend mode="normal" in2="effect1_dropShadow_752_18617" result="effect2_dropShadow_752_18617"/>
<feColorMatrix in="SourceAlpha" type="matrix" values="0 0 0 0 0 0 0 0 0 0 0 0 0 0 0 0 0 0 127 0" result="hardAlpha"/>
<feOffset dy="2"/>
<feGaussianBlur stdDeviation="4"/>
<feComposite in2="hardAlpha" operator="out"/>
<feColorMatrix type="matrix" values="0 0 0 0 0 0 0 0 0 0 0 0 0 0 0 0 0 0 0.12 0"/>
<feBlend mode="normal" in2="effect2_dropShadow_752_18617" result="effect3_dropShadow_752_18617"/>
<feBlend mode="normal" in="SourceGraphic" in2="effect3_dropShadow_752_18617" result="shape"/>
</filter>
</defs>
</svg>
