<svg width="45" height="44" viewBox="0 0 45 44" fill="none" xmlns="http://www.w3.org/2000/svg">
<g filter="url(#filter0_ddd_752_18778)">
<path d="M24.9768 17.5982C24.7722 17.7028 24.5413 17.7344 24.3165 17.6867C23.0803 17.4246 18.7099 16.5031 14.4493 15.6704C13.4115 15.4675 13.3393 13.9835 14.355 13.6895L22.1391 11.4362C22.3218 11.3833 22.5157 11.3836 22.6982 11.437L29.3997 13.3994C30.2678 13.6536 30.3792 14.8381 29.5737 15.2496L24.9768 17.5982Z" fill="#5AC0F3"/>
<path d="M11.3177 21.7085L11.4524 19.4919L12.6301 19.8697C12.6802 19.8858 12.7315 19.8979 12.7835 19.9059L15.4807 20.3209L22.8469 21.5645C23.3367 21.6472 23.6915 22.0769 23.6801 22.5735L23.4743 31.5138L20.6691 31.1131L14.6268 29.9278C13.844 29.7499 12.4492 29.3941 12.2784 29.3941C12.1835 29.3941 11.9524 29.3062 11.7352 29.2037C11.4605 29.074 11.3177 28.7903 11.3177 28.4865V21.7085Z" fill="#5AC0F3"/>
<path d="M26.9021 30.2483C26.9021 30.2483 25.1834 30.8052 23.4743 31.5138L23.7841 22.272C23.7976 21.8667 24.0547 21.5097 24.4348 21.3683L31.4296 18.7656C32.1359 18.5028 32.8681 19.0861 32.7698 19.8333L32.4528 22.2425L32.2393 23.9504C32.2037 24.3063 32.0258 24.8909 32.0258 25.2532V26.8898C32.0258 26.9591 32.0186 27.0283 32.0043 27.0961L31.9001 27.5905C31.844 27.8564 31.6821 28.0881 31.4516 28.2322L31.0237 28.4996C30.9802 28.5268 30.9347 28.5506 30.8876 28.5708L30.2112 28.8607L28.61 29.6079L26.9021 30.2483Z" fill="#4AA4D1"/>
<path d="M25.6562 21.2238C24.9579 21.4934 24.2222 20.9289 24.3041 20.1849C24.3623 19.6555 24.4275 19.0693 24.4875 18.5442C24.528 18.1897 24.7504 17.8866 25.0789 17.7473C27.1039 16.8881 34.2938 13.8933 34.2938 14.6832C34.2938 15.2802 34.2938 16.4541 34.2938 17.2036C34.2938 17.6169 34.0395 17.9872 33.654 18.136L25.6562 21.2238Z" fill="#4AA4D1"/>
<path d="M24.4318 18.792C24.5004 18.2706 24.1534 17.7851 23.6379 17.6813L11.4475 15.225C10.8283 15.1002 10.25 15.5737 10.25 16.2053V18.5291C10.25 19.0108 10.5935 19.4241 11.0671 19.5122L22.9832 21.7292C23.5467 21.834 24.0828 21.4447 24.1575 20.8765L24.4318 18.792Z" fill="#5AC0F3"/>
<path d="M14.0973 21.2017C14.1078 21.3615 14.2039 21.5032 14.3485 21.572L14.3726 21.5835C14.4067 21.5997 14.4424 21.6119 14.4793 21.6198L14.7996 21.689L14.9652 21.7481C15.0967 21.795 15.2366 21.8138 15.3758 21.8034L15.3907 21.8023C15.5053 21.7937 15.6205 21.8049 15.7313 21.8355L15.9353 21.8918L16.1919 21.935C16.2737 21.9488 16.353 21.9748 16.4271 22.0121L16.4524 22.0248C16.5949 22.0965 16.7567 22.1205 16.9139 22.0933C17.023 22.0745 17.1349 22.0802 17.2416 22.1101L17.4532 22.1693L17.4643 22.1729C17.6431 22.2302 17.8335 22.1265 17.8823 21.9452L17.9288 21.7454C17.9546 21.6346 17.9613 21.5202 17.9485 21.4072L17.925 21.198L17.8964 21.0478C17.8679 20.8988 17.8896 20.7445 17.9581 20.6091C18.0079 20.5107 18.0333 20.4017 18.032 20.2914L18.0306 20.167C18.03 20.1115 18.0247 20.0561 18.0149 20.0014L17.9827 19.8225C17.9685 19.7435 17.9639 19.663 17.9689 19.5829L17.9742 19.4984C17.9812 19.3875 18.0125 19.2794 18.0659 19.1819C18.1409 19.0448 18.1718 18.8879 18.1543 18.7327L18.1385 18.5934L18.1183 18.318C18.1133 18.2499 18.1153 18.1814 18.1242 18.1137L18.1466 17.9442C18.1554 17.8776 18.1709 17.8121 18.1929 17.7486L18.2033 17.7186C18.2534 17.5736 18.3363 17.4422 18.4455 17.3346C18.5222 17.2592 18.6105 17.1966 18.7072 17.1494L18.9284 17.0414L19.1605 16.9063C19.2402 16.8599 19.3132 16.8027 19.3773 16.7363L19.4342 16.6773C19.5259 16.5822 19.6356 16.5062 19.7569 16.4538L19.9532 16.3689L20.0948 16.2877C20.2204 16.2157 20.3774 16.2284 20.4899 16.3197C20.5528 16.3708 20.6316 16.3985 20.7127 16.398L20.8604 16.3972C20.9299 16.3968 20.999 16.3869 21.0658 16.3679L21.2155 16.3251C21.2776 16.3073 21.3378 16.2836 21.3953 16.2543L21.6227 16.1383L21.7847 16.0651C21.9266 16.0009 22.0516 15.9045 22.1497 15.7835L22.2653 15.6409L22.3888 15.4609C22.4678 15.3459 22.5219 15.2156 22.5475 15.0785L22.5876 14.8638L22.5931 14.8148C22.6101 14.6643 22.7868 14.592 22.9045 14.6875C22.9194 14.6996 22.9362 14.7094 22.9541 14.7166L23.0547 14.7569C23.2146 14.8208 23.3504 14.9334 23.4429 15.0787C23.4971 15.1638 23.5664 15.2383 23.6475 15.2983L23.7337 15.362C23.802 15.4125 23.8764 15.4541 23.9552 15.4858L24.1385 15.5595C24.1848 15.5782 24.2296 15.6002 24.2725 15.6255L24.4558 15.7334C24.5153 15.7684 24.571 15.8095 24.6221 15.856L24.8335 16.0486L25.1345 16.2963L25.4505 16.5247L25.6557 16.6553C25.7376 16.7074 25.8115 16.7712 25.8751 16.8447L26.0397 17.0349L26.3343 17.2933L26.4094 17.3509C26.54 17.4511 26.6378 17.5879 26.6905 17.7438C26.7134 17.8118 26.7274 17.8824 26.7322 17.954L26.7377 18.0369C26.7463 18.1648 26.7301 18.2931 26.6902 18.4148L26.651 18.5345C26.6349 18.5837 26.6226 18.634 26.6143 18.6851L26.5905 18.8312C26.5735 18.9353 26.5732 19.0415 26.5894 19.1457L26.5963 19.1903C26.615 19.3104 26.6069 19.4331 26.5727 19.5497C26.5339 19.6815 26.5287 19.8209 26.5575 19.9552L26.5788 20.0546C26.5909 20.1108 26.598 20.1679 26.6003 20.2253L26.6119 20.5233L26.614 20.9076L26.5692 21.2898L26.5594 21.332C26.5202 21.5014 26.6701 21.6542 26.8402 21.6183C26.8726 21.6114 26.9033 21.5978 26.9302 21.5784L27.025 21.51C27.1563 21.4153 27.3135 21.3631 27.4754 21.3606L27.4875 21.3604C27.5889 21.3589 27.6891 21.3387 27.7833 21.3009L27.8974 21.2552C27.9709 21.2257 28.0477 21.205 28.1261 21.1936L28.2025 21.1825C28.336 21.1632 28.4638 21.1151 28.577 21.0417C28.6916 20.9675 28.8211 20.9192 28.9564 20.9003L29.0039 20.8936C29.0995 20.8802 29.1927 20.8531 29.2805 20.8131L29.3377 20.787C29.4536 20.7341 29.5786 20.7039 29.7058 20.6979L29.8424 20.6915C29.8958 20.689 29.9485 20.678 29.9985 20.6589C30.1977 20.5828 30.3273 20.3894 30.322 20.1762L30.3218 20.1706C30.3207 20.1256 30.3136 20.0809 30.3008 20.0377L30.2706 19.936C30.226 19.786 30.2172 19.6276 30.245 19.4735L30.2732 19.3171L30.3098 19.1745C30.3516 19.0118 30.3517 18.8411 30.3101 18.6783L30.3063 18.6634C30.2843 18.5773 30.2739 18.4886 30.2754 18.3997L30.2775 18.2718C30.2789 18.1848 30.2916 18.0984 30.3154 18.0148L30.3586 17.8629C30.3798 17.788 30.3923 17.7108 30.3957 17.633L30.4024 17.4782C30.4059 17.3979 30.3997 17.3175 30.3839 17.2387L30.3287 16.9624L30.2664 16.6421C30.2568 16.5931 30.2595 16.5424 30.2743 16.4947L30.2766 16.4872C30.3299 16.3145 30.2176 16.1347 30.039 16.107C29.9909 16.0995 29.9454 16.0803 29.9065 16.0511L29.7313 15.9194C29.6701 15.8733 29.6037 15.8345 29.5336 15.8036L29.3657 15.7296C29.309 15.7047 29.2501 15.685 29.1898 15.6709L28.9878 15.6238C28.9269 15.6096 28.8647 15.6011 28.8022 15.5985L28.7883 15.5979C28.5914 15.5897 28.4012 15.5235 28.2418 15.4075L28.2304 15.3993C28.1819 15.364 28.1304 15.3332 28.0763 15.3071L27.944 15.2433C27.8506 15.1984 27.7509 15.1682 27.6483 15.1538L27.5966 15.1466C27.4707 15.129 27.3493 15.0876 27.2389 15.0245L27.2294 15.019C27.119 14.956 26.9976 14.9145 26.8717 14.8969L26.8386 14.8923C26.7239 14.8762 26.6128 14.8404 26.5104 14.7864L26.3852 14.7203C26.34 14.6964 26.293 14.6761 26.2446 14.6594L25.9458 14.5563L25.5829 14.409L25.3724 14.3194C25.2728 14.277 25.167 14.251 25.0592 14.2425L24.9286 14.2322C24.8541 14.2263 24.7804 14.2121 24.709 14.1897L24.4624 14.1127C24.4481 14.1082 24.4346 14.1011 24.4228 14.0918C24.3284 14.0175 24.3847 13.8657 24.5047 13.8711L24.6556 13.8845C24.8236 13.8994 24.9926 13.868 25.144 13.7936C25.2408 13.746 25.3453 13.7157 25.4526 13.7043L25.6896 13.6789L25.9568 13.6264C26.0388 13.6102 26.1185 13.5839 26.1939 13.5479L26.323 13.4864C26.4028 13.4484 26.4873 13.4211 26.5742 13.4053L26.6719 13.3876C26.7847 13.367 26.8932 13.3273 26.9926 13.27L27.1904 13.1559L27.5619 13L27.9099 12.8058L28.2472 12.5901L28.561 12.3425L28.7996 12.1127C28.834 12.0795 28.8661 12.0438 28.8955 12.006L29.0507 11.8062C29.0813 11.7669 29.1051 11.7228 29.1212 11.6757C29.1757 11.5162 29.1366 11.3396 29.0197 11.2181L28.9922 11.1895C28.9583 11.1542 28.9194 11.1239 28.8769 11.0996L28.6016 10.942L28.2322 10.7947L28.0297 10.6903C27.9334 10.6407 27.8458 10.5757 27.7703 10.4979L27.6702 10.3949C27.6252 10.3484 27.5757 10.3064 27.5224 10.2696L27.2822 10.103L27.1438 9.98425C27.0366 9.89224 26.9106 9.82384 26.7751 9.78386C26.6535 9.74797 26.5393 9.68912 26.4396 9.61074L26.281 9.48601L25.9543 9.27039L25.6448 9.02061L25.604 8.99377C25.4211 8.87337 25.1833 8.87681 25.004 9.00243C24.9645 9.03008 24.9215 9.05226 24.8761 9.06836L24.7999 9.0954C24.6535 9.1473 24.5213 9.23257 24.4136 9.34445L24.4012 9.35728C24.3368 9.42427 24.2633 9.48194 24.1829 9.52863L23.9732 9.6504L23.7293 9.81137C23.6785 9.84489 23.6309 9.88297 23.587 9.92514L23.4335 10.0727C23.3948 10.1099 23.3532 10.1439 23.309 10.1745L23.2457 10.2182C23.1217 10.304 23.0187 10.4166 22.9443 10.5478L22.8758 10.6687L22.7585 10.857C22.7147 10.9272 22.6577 10.9883 22.5907 11.0368C22.4484 11.1398 22.3547 11.2969 22.3317 11.4711L22.3261 11.5128C22.3211 11.5507 22.3191 11.5888 22.32 11.627L22.3264 11.898C22.3269 11.9182 22.3253 11.9383 22.3216 11.9581C22.2902 12.1265 22.1208 12.2312 21.9562 12.1841L21.9502 12.1824C21.9157 12.1725 21.8797 12.1689 21.844 12.1719L21.6276 12.19C21.5524 12.1962 21.4768 12.1877 21.4049 12.1649C21.2208 12.1065 21.0198 12.1439 20.8691 12.2646L20.8438 12.2849C20.8067 12.3146 20.7656 12.3388 20.7216 12.3568L20.6931 12.3685C20.554 12.4254 20.4536 12.5495 20.4269 12.6974L20.4243 12.7118C20.4122 12.7789 20.3824 12.8416 20.3382 12.8935C20.2562 12.9897 20.1322 13.0395 20.0065 13.0269L19.8443 13.0107L19.4643 13.0086L19.0821 13.0363L18.7021 13.0833L18.4484 13.1292C18.366 13.1441 18.282 13.1485 18.1985 13.1425L17.94 13.1238L17.56 13.1495L17.2705 13.2015C17.2103 13.2123 17.1492 13.2176 17.088 13.2173L16.8705 13.2161C16.8221 13.2158 16.7738 13.219 16.7258 13.2258L16.4178 13.269L16.0357 13.2904L15.6557 13.3309L15.2799 13.3928L14.9042 13.4377L14.7381 13.4385C14.5807 13.4394 14.4303 13.5033 14.3206 13.616C14.2745 13.6633 14.2367 13.7181 14.2088 13.778L14.1405 13.9247C14.119 13.971 14.1068 14.0212 14.1048 14.0722C14.1 14.193 14.152 14.309 14.2453 14.3857L14.3037 14.4337C14.3659 14.4849 14.4389 14.5215 14.5171 14.5407L14.7804 14.6055L15.048 14.68C15.1198 14.7 15.1892 14.7279 15.2549 14.7634L15.397 14.8401C15.4681 14.8785 15.5436 14.9082 15.6219 14.9284L15.8841 14.9961L16.2684 15.0794L16.6484 15.1776L16.9981 15.2636C17.0195 15.2688 17.0398 15.278 17.058 15.2906C17.1709 15.3687 17.1573 15.5403 17.0348 15.6024L16.8245 15.6759C16.729 15.7093 16.6391 15.757 16.5579 15.8173L16.4941 15.8647C16.4138 15.9244 16.325 15.9716 16.2308 16.0049L16.0165 16.0807L15.6792 16.2429L15.3461 16.418L14.996 16.5589C14.7796 16.6503 14.6348 16.862 14.6309 17.0969L14.5861 17.4641L14.5786 17.6828C14.5751 17.7839 14.5545 17.8837 14.5179 17.9779C14.4632 18.1184 14.4447 18.2704 14.4641 18.4199L14.4712 18.4741C14.4794 18.5378 14.4816 18.6022 14.4775 18.6664L14.471 18.768C14.4639 18.8803 14.4282 18.989 14.3674 19.0837C14.2839 19.2139 14.2485 19.3692 14.2675 19.5227L14.2762 19.593C14.2821 19.641 14.284 19.6894 14.2817 19.7377L14.268 20.0366L14.2774 20.2421C14.2825 20.3534 14.2689 20.4647 14.2373 20.5715L14.1783 20.771L14.1079 21.072C14.098 21.1145 14.0944 21.1582 14.0973 21.2017Z" fill="#F72B3E"/>
<path d="M23.4743 31.5138L20.6691 31.1131L14.6268 29.9278C13.844 29.7499 12.4492 29.3941 12.2784 29.3941C12.1835 29.3941 11.9524 29.3062 11.7352 29.2037C11.4605 29.074 11.3177 28.7903 11.3177 28.4865V21.7085L11.4524 19.4919M23.4743 31.5138L23.6801 22.5735C23.6915 22.0769 23.3367 21.6472 22.8469 21.5645L15.4807 20.3209L12.7835 19.9059C12.7315 19.8979 12.6802 19.8858 12.6301 19.8697L11.4524 19.4919M23.4743 31.5138C25.1834 30.8052 26.9021 30.2483 26.9021 30.2483L28.61 29.6079L30.2112 28.8607L30.8876 28.5708C30.9347 28.5506 30.9802 28.5268 31.0237 28.4996L31.4516 28.2322C31.6821 28.0881 31.844 27.8564 31.9001 27.5905L32.0043 27.0961C32.0186 27.0283 32.0258 26.9591 32.0258 26.8898V25.2532C32.0258 24.8909 32.2037 24.3063 32.2393 23.9504L32.4528 22.2425L32.7698 19.8333C32.8681 19.0861 32.1359 18.5028 31.4296 18.7656L24.4348 21.3683C24.0547 21.5097 23.7976 21.8667 23.7841 22.272L23.4743 31.5138ZM11.3177 19.4669L11.4524 19.4919M34.2938 14.6832C34.2938 15.2802 34.2938 16.4541 34.2938 17.2036C34.2938 17.6169 34.0395 17.9872 33.654 18.136L25.6562 21.2238C24.9579 21.4934 24.2222 20.9289 24.3041 20.1849C24.3623 19.6555 24.4275 19.0693 24.4875 18.5442C24.528 18.1897 24.7504 17.8866 25.0789 17.7473C27.1039 16.8881 34.2938 13.8933 34.2938 14.6832ZM14.7996 21.689L14.4793 21.6198C14.4424 21.6119 14.4067 21.5997 14.3726 21.5835L14.3485 21.572C14.2039 21.5032 14.1078 21.3615 14.0973 21.2017C14.0944 21.1582 14.098 21.1145 14.1079 21.072L14.1783 20.771L14.2373 20.5715C14.2689 20.4647 14.2825 20.3534 14.2774 20.2421L14.268 20.0366L14.2817 19.7377C14.284 19.6894 14.2821 19.641 14.2762 19.593L14.2675 19.5227C14.2485 19.3692 14.2839 19.2139 14.3674 19.0837C14.4282 18.989 14.4639 18.8803 14.471 18.768L14.4775 18.6664C14.4816 18.6022 14.4794 18.5378 14.4712 18.4741L14.4641 18.4199C14.4447 18.2704 14.4632 18.1184 14.5179 17.9779C14.5545 17.8837 14.5751 17.7839 14.5786 17.6828L14.5861 17.4641L14.6309 17.0969C14.6348 16.862 14.7796 16.6503 14.996 16.5589L15.3461 16.418L15.6791 16.2429L16.0165 16.0807L16.2307 16.0049C16.325 15.9716 16.4138 15.9244 16.4941 15.8647L16.5579 15.8173C16.6391 15.757 16.729 15.7093 16.8245 15.6759L17.0348 15.6024C17.1573 15.5403 17.1709 15.3687 17.058 15.2906C17.0398 15.278 17.0195 15.2688 16.9981 15.2636L16.6484 15.1776L16.2684 15.0794L15.8841 14.9961L15.6219 14.9284C15.5436 14.9082 15.4681 14.8785 15.397 14.8401L15.2549 14.7634C15.1892 14.7279 15.1198 14.7 15.048 14.68L14.7804 14.6055L14.5171 14.5407C14.4389 14.5215 14.3659 14.4849 14.3037 14.4337L14.2453 14.3857C14.152 14.309 14.1 14.193 14.1048 14.0722C14.1068 14.0212 14.119 13.971 14.1405 13.9247L14.2088 13.778C14.2367 13.7181 14.2745 13.6633 14.3206 13.616C14.4303 13.5033 14.5807 13.4394 14.7381 13.4385L14.9042 13.4377L15.2799 13.3928L15.6557 13.3309L16.0357 13.2904L16.4178 13.269L16.7258 13.2258C16.7738 13.219 16.8221 13.2158 16.8705 13.2161L17.088 13.2173C17.1492 13.2176 17.2103 13.2123 17.2705 13.2015L17.56 13.1495L17.94 13.1238L18.1985 13.1425C18.282 13.1485 18.366 13.1441 18.4484 13.1292L18.7021 13.0833L19.0821 13.0363L19.4643 13.0086L19.8443 13.0107L20.0065 13.0269C20.1322 13.0395 20.2562 12.9897 20.3382 12.8935C20.3824 12.8416 20.4122 12.7789 20.4243 12.7118L20.4269 12.6974C20.4536 12.5495 20.554 12.4254 20.6931 12.3685L20.7216 12.3568C20.7656 12.3388 20.8067 12.3146 20.8438 12.2849L20.8691 12.2646C21.0198 12.1439 21.2208 12.1065 21.4049 12.1649C21.4768 12.1877 21.5524 12.1962 21.6276 12.19L21.844 12.1719C21.8797 12.1689 21.9157 12.1725 21.9502 12.1824L21.9562 12.1841C22.1208 12.2312 22.2902 12.1265 22.3216 11.9581C22.3253 11.9383 22.3269 11.9182 22.3264 11.898L22.32 11.627C22.3191 11.5888 22.3211 11.5507 22.3261 11.5128L22.3317 11.4711C22.3547 11.2969 22.4484 11.1398 22.5907 11.0368C22.6577 10.9883 22.7147 10.9272 22.7585 10.857L22.8758 10.6687L22.9443 10.5478C23.0187 10.4166 23.1217 10.304 23.2457 10.2182L23.309 10.1745C23.3532 10.1439 23.3948 10.1099 23.4335 10.0727L23.587 9.92514C23.6309 9.88297 23.6785 9.84489 23.7293 9.81137L23.9732 9.6504L24.1829 9.52863C24.2633 9.48194 24.3368 9.42427 24.4012 9.35728L24.4136 9.34445C24.5213 9.23257 24.6535 9.1473 24.7999 9.0954L24.8761 9.06836C24.9215 9.05226 24.9645 9.03008 25.004 9.00243C25.1833 8.87681 25.4211 8.87337 25.604 8.99377L25.6448 9.02061L25.9543 9.27039L26.281 9.48601L26.4396 9.61074C26.5393 9.68912 26.6535 9.74797 26.7751 9.78386C26.9106 9.82384 27.0366 9.89224 27.1438 9.98425L27.2822 10.103L27.5224 10.2696C27.5757 10.3064 27.6252 10.3484 27.6702 10.3949L27.7703 10.4979C27.8458 10.5757 27.9334 10.6407 28.0297 10.6903L28.2322 10.7947L28.6016 10.942L28.8769 11.0996C28.9194 11.1239 28.9583 11.1542 28.9922 11.1895L29.0197 11.2181C29.1366 11.3396 29.1757 11.5162 29.1212 11.6757C29.1051 11.7228 29.0813 11.7669 29.0507 11.8062L28.8955 12.006C28.8661 12.0438 28.834 12.0795 28.7996 12.1127L28.561 12.3425L28.2472 12.5901L27.9099 12.8058L27.5619 13L27.1904 13.1559L26.9926 13.27C26.8932 13.3273 26.7847 13.367 26.6719 13.3876L26.5742 13.4053C26.4873 13.4211 26.4028 13.4484 26.323 13.4864L26.1939 13.5479C26.1185 13.5839 26.0388 13.6102 25.9568 13.6264L25.6896 13.6789L25.4526 13.7043C25.3453 13.7157 25.2408 13.746 25.144 13.7936C24.9926 13.868 24.8236 13.8994 24.6556 13.8845L24.5047 13.8711C24.3847 13.8657 24.3284 14.0175 24.4228 14.0918C24.4346 14.1011 24.4481 14.1082 24.4624 14.1127L24.709 14.1897C24.7804 14.2121 24.8541 14.2263 24.9286 14.2322L25.0592 14.2425C25.167 14.251 25.2728 14.277 25.3724 14.3194L25.5829 14.409L25.9458 14.5563L26.2446 14.6594C26.293 14.6761 26.34 14.6964 26.3852 14.7203L26.5104 14.7864C26.6128 14.8404 26.7239 14.8762 26.8386 14.8923L26.8717 14.8969C26.9976 14.9145 27.119 14.956 27.2294 15.019L27.2389 15.0245C27.3493 15.0876 27.4707 15.129 27.5966 15.1466L27.6483 15.1538C27.7509 15.1682 27.8506 15.1984 27.944 15.2433L28.0763 15.3071C28.1304 15.3332 28.1819 15.364 28.2304 15.3993L28.2418 15.4075C28.4012 15.5235 28.5914 15.5897 28.7883 15.5979L28.8022 15.5985C28.8647 15.6011 28.9269 15.6096 28.9878 15.6238L29.1898 15.6709C29.2501 15.685 29.309 15.7047 29.3657 15.7296L29.5336 15.8036C29.6037 15.8345 29.6701 15.8733 29.7313 15.9194L29.9065 16.0511C29.9454 16.0803 29.9909 16.0995 30.039 16.107C30.2176 16.1347 30.3299 16.3145 30.2766 16.4872L30.2743 16.4947C30.2595 16.5424 30.2568 16.5931 30.2664 16.6421L30.3287 16.9624L30.3839 17.2387C30.3997 17.3175 30.4059 17.3979 30.4024 17.4782L30.3957 17.633C30.3923 17.7108 30.3798 17.788 30.3586 17.8629L30.3154 18.0148C30.2916 18.0984 30.2789 18.1848 30.2775 18.2718L30.2754 18.3997C30.2739 18.4886 30.2843 18.5773 30.3063 18.6634L30.3101 18.6783C30.3517 18.8411 30.3516 19.0118 30.3098 19.1745L30.2732 19.3171L30.245 19.4735C30.2172 19.6276 30.226 19.786 30.2706 19.936L30.3008 20.0377C30.3136 20.0809 30.3207 20.1256 30.3218 20.1706L30.322 20.1762C30.3273 20.3894 30.1977 20.5828 29.9985 20.6589C29.9485 20.678 29.8958 20.689 29.8424 20.6915L29.7058 20.6979C29.5786 20.7039 29.4536 20.7341 29.3377 20.787L29.2805 20.8131C29.1927 20.8531 29.0995 20.8802 29.0039 20.8936L28.9564 20.9003C28.8211 20.9192 28.6916 20.9675 28.577 21.0417C28.4638 21.1151 28.336 21.1632 28.2025 21.1825L28.1261 21.1936C28.0477 21.205 27.9709 21.2257 27.8974 21.2552L27.7833 21.3009C27.6891 21.3387 27.5889 21.3589 27.4875 21.3604L27.4754 21.3606C27.3135 21.3631 27.1563 21.4153 27.025 21.51L26.9302 21.5784C26.9033 21.5978 26.8726 21.6114 26.8402 21.6183C26.6701 21.6542 26.5202 21.5014 26.5594 21.332L26.5692 21.2898L26.614 20.9076L26.6119 20.5233L26.6003 20.2253C26.598 20.1679 26.5909 20.1108 26.5788 20.0546L26.5575 19.9552C26.5287 19.8209 26.5339 19.6815 26.5727 19.5497C26.6069 19.4331 26.615 19.3104 26.5963 19.1903L26.5894 19.1457C26.5732 19.0415 26.5735 18.9353 26.5905 18.8312L26.6143 18.6851C26.6226 18.634 26.6349 18.5837 26.651 18.5345L26.6902 18.4148C26.7301 18.2931 26.7463 18.1648 26.7377 18.0369L26.7322 17.954C26.7274 17.8824 26.7134 17.8118 26.6905 17.7438C26.6378 17.5879 26.54 17.4511 26.4094 17.3509L26.3343 17.2933L26.0397 17.0349L25.8751 16.8447C25.8115 16.7712 25.7376 16.7074 25.6557 16.6553L25.4505 16.5247L25.1345 16.2963L24.8335 16.0486L24.6221 15.856C24.571 15.8095 24.5153 15.7684 24.4558 15.7334L24.2725 15.6255C24.2296 15.6002 24.1848 15.5782 24.1385 15.5595L23.9552 15.4858C23.8764 15.4541 23.802 15.4125 23.7337 15.362L23.6475 15.2983C23.5664 15.2383 23.4971 15.1638 23.4429 15.0787C23.3504 14.9334 23.2146 14.8208 23.0547 14.7569L22.9541 14.7166C22.9362 14.7094 22.9194 14.6996 22.9045 14.6875C22.7868 14.592 22.6101 14.6643 22.5931 14.8148L22.5876 14.8638L22.5475 15.0785C22.5219 15.2156 22.4678 15.3459 22.3888 15.4609L22.2653 15.6409L22.1497 15.7835C22.0516 15.9045 21.9266 16.0009 21.7847 16.0651L21.6227 16.1383L21.3953 16.2543C21.3378 16.2836 21.2776 16.3073 21.2155 16.3251L21.0658 16.3679C20.999 16.3869 20.9299 16.3968 20.8604 16.3972L20.7127 16.398C20.6316 16.3985 20.5528 16.3708 20.4899 16.3197C20.3774 16.2284 20.2204 16.2157 20.0948 16.2877L19.9532 16.3689L19.7569 16.4538C19.6356 16.5062 19.5259 16.5822 19.4342 16.6773L19.3773 16.7363C19.3132 16.8027 19.2402 16.8599 19.1605 16.9063L18.9284 17.0414L18.7072 17.1494C18.6105 17.1966 18.5222 17.2592 18.4455 17.3346C18.3363 17.4422 18.2534 17.5736 18.2033 17.7186L18.1929 17.7486C18.1709 17.8121 18.1554 17.8776 18.1466 17.9442L18.1242 18.1137C18.1153 18.1814 18.1133 18.2499 18.1183 18.318L18.1385 18.5934L18.1543 18.7327C18.1718 18.8879 18.1409 19.0448 18.0659 19.1819C18.0125 19.2794 17.9812 19.3875 17.9742 19.4984L17.9689 19.5829C17.9639 19.663 17.9685 19.7435 17.9827 19.8225L18.0149 20.0014C18.0247 20.0561 18.03 20.1115 18.0306 20.167L18.032 20.2914C18.0333 20.4017 18.0079 20.5107 17.9581 20.6091C17.8896 20.7445 17.8679 20.8988 17.8964 21.0478L17.925 21.198L17.9485 21.4072C17.9613 21.5202 17.9546 21.6346 17.9288 21.7454L17.8823 21.9452C17.8335 22.1265 17.6431 22.2302 17.4643 22.1729L17.4532 22.1693L17.2416 22.1101C17.1349 22.0802 17.023 22.0745 16.9139 22.0933C16.7567 22.1205 16.5949 22.0965 16.4524 22.0248L16.4271 22.0121C16.353 21.9748 16.2737 21.9488 16.1919 21.935L15.9353 21.8918L15.7313 21.8355C15.6205 21.8049 15.5053 21.7937 15.3907 21.8023L15.3758 21.8034C15.2366 21.8138 15.0967 21.795 14.9652 21.7481L14.7996 21.689ZM24.1575 20.8765L24.4318 18.792C24.5004 18.2706 24.1534 17.7851 23.6379 17.6813L11.4475 15.225C10.8283 15.1002 10.25 15.5737 10.25 16.2053V18.5291C10.25 19.0108 10.5935 19.4241 11.0671 19.5122L22.9832 21.7292C23.5467 21.834 24.0828 21.4447 24.1575 20.8765ZM22.6982 11.437L29.3997 13.3994C30.2678 13.6536 30.3792 14.8381 29.5737 15.2496L24.9768 17.5982C24.7722 17.7028 24.5413 17.7344 24.3165 17.6867C23.0803 17.4246 18.7099 16.5031 14.4493 15.6704C13.4115 15.4675 13.3393 13.9835 14.355 13.6895L22.1391 11.4362C22.3218 11.3833 22.5157 11.3836 22.6982 11.437Z" stroke="white" stroke-width="4"/>
<path d="M24.6604 17.7608C24.6604 17.7608 16.0444 15.9209 10.25 14.8788L22.4188 11.3562L34.4809 14.2383L24.6604 17.7608Z" fill="#5AC0F3"/>
<path d="M11.3174 22.5635V21.7095L11.452 19.4929L12.7051 19.8949L15.4804 20.3218L23.6997 21.7095L23.4739 31.5148L20.6688 31.1141L14.6264 29.9288C13.8437 29.7509 12.4489 29.3951 12.2781 29.3951C12.1073 29.3951 11.4953 29.1104 11.3174 28.9681V26.513V24.4849V22.5635Z" fill="#5AC0F3"/>
<path d="M11.3174 19.4679L11.452 19.4929M11.452 19.4929L11.3174 21.7095V22.5635V24.4849V26.513V28.9681C11.4953 29.1104 12.1073 29.3951 12.2781 29.3951C12.4489 29.3951 13.8437 29.7509 14.6264 29.9288L20.6688 31.1141L23.4739 31.5148L23.6997 21.7095L15.4804 20.3218L12.7051 19.8949L11.452 19.4929Z" stroke="white" stroke-width="0.240174"/>
<path d="M26.9016 30.2494C26.9016 30.2494 25.1828 30.8061 23.4736 31.5148L23.806 21.6032L32.986 18.1874L32.4523 22.2436L32.2388 23.9516C32.2032 24.3074 32.0253 24.892 32.0253 25.2543V26.9952L31.8118 28.0078L30.9579 28.5415L30.2107 28.8618L28.6095 29.609L26.9016 30.2494Z" fill="#4AA4D1" stroke="white" stroke-width="0.240174"/>
<path d="M24.127 21.8153C24.127 21.8153 24.3872 19.3898 24.5539 17.9725L34.6946 14.2365L34.3744 17.9725L24.127 21.8153Z" fill="#4AA4D1" stroke="white" stroke-width="0.240174"/>
<path d="M24.5537 17.8668L10.25 14.9847V19.3612L24.02 21.9231L24.5537 17.8668Z" fill="#5AC0F3" stroke="white" stroke-width="0.240174"/>
<path d="M14.1141 21.4601L14.4237 21.6074L14.7994 21.6885L15.1645 21.8187L15.5637 21.7888L15.9352 21.8913L16.3152 21.9553L16.6717 22.1347L17.0795 22.0642L17.4531 22.1688L17.7925 22.2777L17.8822 21.9447L17.9676 21.5775L17.9249 21.1975L17.8523 20.8175L18.0338 20.4588L18.0295 20.0831L17.9612 19.7031L17.9847 19.3295L18.1811 18.9708L18.1384 18.5929L18.1106 18.215L18.1597 17.8436L18.2793 17.4977L18.5611 17.2202L18.9283 17.0409L19.2805 16.8359L19.573 16.5328L19.953 16.3684L20.3031 16.1677L20.5871 16.3983L20.9649 16.3961L21.3087 16.2979L21.6225 16.1378L22.0004 15.967L22.2651 15.6404L22.5085 15.286L22.5875 14.8633L22.6323 14.4662L22.9269 14.7053L23.3005 14.8547L23.5247 15.207L23.8364 15.4376L24.2078 15.587L24.5451 15.7856L24.8333 16.0481L25.1344 16.2958L25.4503 16.5242L25.7791 16.7334L26.0396 17.0345L26.3342 17.2928L26.6096 17.5041L26.7248 17.8457L26.7505 18.23L26.6266 18.6079L26.5647 18.9879L26.6245 19.3722L26.5135 19.75L26.5968 20.1386L26.6117 20.5228L26.6138 20.9071L26.569 21.2893L26.4751 21.6949L26.8892 21.6074L27.2265 21.364L27.6407 21.3576L28.0079 21.2103L28.405 21.1526L28.7509 20.9285L29.1479 20.873L29.513 20.7065L29.9229 20.6872L30.3307 20.5314L30.32 20.1023L30.2026 19.7073L30.273 19.3166L30.3734 18.926L30.273 18.5331L30.2794 18.1403L30.3904 17.7496L30.4075 17.3568L30.3285 16.9619L30.2517 16.5669L30.3776 16.1592L29.9656 16.0951L29.639 15.8496L29.2803 15.6916L28.896 15.602L28.4861 15.5849L28.1574 15.3458L27.803 15.175L27.4059 15.1195L27.0622 14.9231L26.6651 14.8676L26.3171 14.684L25.9456 14.5559L25.5827 14.4086L25.2219 14.2548L24.8163 14.2228L24.4405 14.1054L24.1203 13.8535L24.5046 13.8706L24.9123 13.9069L25.2902 13.7211L25.6894 13.6784L26.0801 13.6016L26.443 13.4286L26.8423 13.3561L27.1903 13.1554L27.5617 12.9995L27.9097 12.8053L28.247 12.5896L28.5608 12.342L28.8512 12.0623L29.0967 11.7464L29.2098 11.4155L28.9409 11.1358L28.6014 10.9415L28.2321 10.7942L27.8841 10.6149L27.6023 10.3245L27.2821 10.1025L26.981 9.84418L26.5904 9.7289L26.2808 9.48553L25.9542 9.2699L25.6446 9.02012L25.3009 8.79382L24.9444 9.0436L24.5772 9.17383L24.3039 9.45777L23.973 9.64991L23.6528 9.86126L23.3752 10.1281L23.0571 10.348L22.8757 10.6682L22.6921 10.9629L22.3676 11.1977L22.3185 11.5692L22.327 11.9278L22.263 12.2715L21.8979 12.1669L21.5136 12.199L21.1101 12.0709L20.7877 12.3292L20.4697 12.4594L20.4056 12.8138L20.2071 13.0465L19.8441 13.0102L19.4641 13.0081L19.082 13.0358L18.702 13.0828L18.3241 13.1511L17.9398 13.1234L17.5598 13.149L17.1798 13.2173L16.7977 13.2152L16.4177 13.2685L16.0355 13.2899L15.6555 13.3304L15.2798 13.3924L14.904 13.4372L14.492 13.4393L14.2508 13.687L14.1077 13.9944L14.097 14.2634L14.3981 14.511L14.7802 14.605L15.1559 14.7096L15.5039 14.8974L15.8839 14.9956L16.2682 15.0789L16.6482 15.1771L17.0304 15.271L17.3079 15.4632L17.0346 15.602L16.6802 15.7258L16.3728 15.9542L16.0163 16.0802L15.679 16.2424L15.3459 16.4175L14.9958 16.5584L14.6372 16.71L14.6308 17.0964L14.5859 17.4636L14.5731 17.835L14.4344 18.1916L14.4835 18.5694L14.46 18.9388L14.2379 19.2846L14.2849 19.6646L14.2678 20.0361L14.2849 20.4097L14.1782 20.7705L14.0928 21.1356L14.1141 21.4601Z" fill="#F72B3E"/>
</g>
<defs>
<filter id="filter0_ddd_752_18778" x="-1.75" y="-2" width="48" height="48" filterUnits="userSpaceOnUse" color-interpolation-filters="sRGB">
<feFlood flood-opacity="0" result="BackgroundImageFix"/>
<feColorMatrix in="SourceAlpha" type="matrix" values="0 0 0 0 0 0 0 0 0 0 0 0 0 0 0 0 0 0 127 0" result="hardAlpha"/>
<feOffset/>
<feGaussianBlur stdDeviation="0.5"/>
<feComposite in2="hardAlpha" operator="out"/>
<feColorMatrix type="matrix" values="0 0 0 0 0 0 0 0 0 0 0 0 0 0 0 0 0 0 0.08 0"/>
<feBlend mode="normal" in2="BackgroundImageFix" result="effect1_dropShadow_752_18778"/>
<feColorMatrix in="SourceAlpha" type="matrix" values="0 0 0 0 0 0 0 0 0 0 0 0 0 0 0 0 0 0 127 0" result="hardAlpha"/>
<feOffset dy="1"/>
<feGaussianBlur stdDeviation="2"/>
<feComposite in2="hardAlpha" operator="out"/>
<feColorMatrix type="matrix" values="0 0 0 0 0 0 0 0 0 0 0 0 0 0 0 0 0 0 0.08 0"/>
<feBlend mode="normal" in2="effect1_dropShadow_752_18778" result="effect2_dropShadow_752_18778"/>
<feColorMatrix in="SourceAlpha" type="matrix" values="0 0 0 0 0 0 0 0 0 0 0 0 0 0 0 0 0 0 127 0" result="hardAlpha"/>
<feOffset dy="2"/>
<feGaussianBlur stdDeviation="4"/>
<feComposite in2="hardAlpha" operator="out"/>
<feColorMatrix type="matrix" values="0 0 0 0 0 0 0 0 0 0 0 0 0 0 0 0 0 0 0.12 0"/>
<feBlend mode="normal" in2="effect2_dropShadow_752_18778" result="effect3_dropShadow_752_18778"/>
<feBlend mode="normal" in="SourceGraphic" in2="effect3_dropShadow_752_18778" result="shape"/>
</filter>
</defs>
</svg>
