<svg width="52" height="43" viewBox="0 0 52 43" fill="none" xmlns="http://www.w3.org/2000/svg">
<g filter="url(#filter0_ddd_752_17102)">
<path d="M24.499 10.9009V8.72868H23.7812L23.2047 9.15639L24.499 10.9009ZM25.8496 10.9331L26.0812 8.77329L26.0644 8.77149L26.0476 8.76995L25.8496 10.9331ZM29.043 11.3657L28.7532 13.5185L28.797 13.5244L28.841 13.5285L29.043 11.3657ZM33.0781 11.688L32.879 13.851L32.8834 13.8514L33.0781 11.688ZM33.1758 11.6968L33.3749 9.53372L33.3705 9.53333L33.1758 11.6968ZM38.999 12.3433L39.367 10.2025V10.2025L38.999 12.3433ZM41.2568 12.9351L42.8024 11.4087L42.802 11.4083L41.2568 12.9351ZM41.335 13.1909L42.8342 14.7628L42.8342 14.7627L41.335 13.1909ZM37.8379 16.0405L39.1303 17.7864L39.1303 17.7864L37.8379 16.0405ZM35.9229 17.4458L34.6387 15.6938L33.5906 16.4621L33.7719 17.7489L35.9229 17.4458ZM36.1768 19.6597L38.3413 19.4773L38.3413 19.4773L36.1768 19.6597ZM36.3369 23.5981L38.5091 23.5822V23.5822L36.3369 23.5981ZM36.3252 24.4897L38.2681 25.4612L38.3968 25.2038L38.454 24.9217L36.3252 24.4897ZM36.3242 24.4917L34.3813 23.5203L34.2524 23.7782L34.1952 24.0609L36.3242 24.4917ZM36.0068 25.7925L33.9357 25.1377L33.9356 25.138L36.0068 25.7925ZM35.6514 26.8774L37.6535 27.72L37.6535 27.72L35.6514 26.8774ZM34.7578 28.4458L33.3236 26.8144L33.3236 26.8144L34.7578 28.4458ZM33.4951 29.353L34.1628 31.4201L34.1632 31.4199L33.4951 29.353ZM32.3232 29.77L33.0356 31.8221L33.0357 31.8221L32.3232 29.77ZM30.7686 29.9927L30.8495 32.1634L30.8496 32.1634L30.7686 29.9927ZM26.7002 29.9282L26.5674 32.0964H26.5674L26.7002 29.9282ZM23.2549 29.5493L22.896 31.6917L22.896 31.6917L23.2549 29.5493ZM21.9316 29.271L22.4263 27.1559L22.4262 27.1559L21.9316 29.271ZM21.3828 29.1519L20.7367 31.2257L20.7369 31.2258L21.3828 29.1519ZM20.1367 28.7114L19.4147 30.7601L19.4151 30.7603L20.1367 28.7114ZM19.5889 28.4565L20.5208 26.4944L20.5208 26.4944L19.5889 28.4565ZM18.6514 27.7153L16.525 28.1594L16.5251 28.1594L18.6514 27.7153ZM18.54 26.9517L16.3758 27.1369L16.3758 27.137L18.54 26.9517ZM18.459 25.8784L20.6311 25.8594V25.8594L18.459 25.8784ZM18.3906 24.3589L16.2226 24.4935V24.4935L18.3906 24.3589ZM18.3164 22.9556L16.1446 22.9941V22.9941L18.3164 22.9556ZM18.3076 21.8452L20.4798 21.8391L20.4755 20.293L19.0132 19.7908L18.3076 21.8452ZM17.4795 21.5454L16.705 23.5748L16.705 23.5748L17.4795 21.5454ZM13.9248 20.5728L13.4917 22.7013L13.4918 22.7013L13.9248 20.5728ZM11.793 19.8931L11.0672 17.8457L11.0665 17.846L11.793 19.8931ZM11.4053 19.2749L9.97512 17.6399L9.97496 17.6401L11.4053 19.2749ZM14.9277 16.5894L16.1295 18.3988H16.1295L14.9277 16.5894ZM17.8896 15.0054L18.8381 16.9595L18.8382 16.9595L17.8896 15.0054ZM21.3779 13.0825L22.5312 14.9233L22.5312 14.9233L21.3779 13.0825ZM24.499 10.9009V13.0731C24.5802 13.0731 24.8149 13.073 25.0703 13.0767C25.3521 13.0808 25.5685 13.0887 25.6516 13.0963L25.8496 10.9331L26.0476 8.76995C25.566 8.72587 24.6082 8.72868 24.499 8.72868V10.9009ZM25.8496 10.9331L25.618 13.0929C26.48 13.1854 27.3666 13.3319 28.7532 13.5185L29.043 11.3657L29.3327 9.21294C28.1151 9.04907 27.0102 8.87291 26.0812 8.77329L25.8496 10.9331ZM29.043 11.3657L28.841 13.5285C29.2987 13.5713 29.8565 13.6095 30.4964 13.6563C31.149 13.7041 31.928 13.7635 32.879 13.851L33.0781 11.688L33.2772 9.52494C32.2879 9.43386 31.4787 9.37222 30.8134 9.32354C30.1354 9.27393 29.6457 9.24037 29.245 9.20294L29.043 11.3657ZM33.0781 11.688L32.8834 13.8514L32.9811 13.8602L33.1758 11.6968L33.3705 9.53333L33.2728 9.52454L33.0781 11.688ZM33.1758 11.6968L32.9767 13.8598C34.9486 14.0413 37.3541 14.2646 38.631 14.4841L38.999 12.3433L39.367 10.2025C37.8786 9.94661 35.2593 9.70716 33.3749 9.53372L33.1758 11.6968ZM38.999 12.3433L38.631 14.4841C39.4682 14.628 39.8976 14.7166 40.1231 14.7773C40.2323 14.8066 40.2205 14.8106 40.1521 14.7789C40.0651 14.7387 39.8912 14.6434 39.7117 14.4618L41.2568 12.9351L42.802 11.4083C42.2796 10.8796 41.6382 10.6859 41.2507 10.5817C40.8084 10.4629 40.1973 10.3452 39.367 10.2025L38.999 12.3433ZM41.2568 12.9351L39.7113 14.4614C39.617 14.3659 39.4395 14.1642 39.3157 13.8342C39.2086 13.5491 38.9327 12.4804 39.8357 11.6191L41.335 13.1909L42.8342 14.7627C43.7999 13.8416 43.5248 12.6853 43.3829 12.3074C43.2242 11.8846 42.9763 11.5848 42.8024 11.4087L41.2568 12.9351ZM41.335 13.1909L39.8357 11.6191C39.5503 11.8913 38.5764 12.7912 36.5455 14.2947L37.8379 16.0405L39.1303 17.7864C41.2981 16.1817 42.4111 15.1663 42.8342 14.7628L41.335 13.1909ZM37.8379 16.0405L36.5455 14.2947C36.0378 14.6704 35.3686 15.1588 34.6387 15.6938L35.9229 17.4458L37.207 19.1978C37.9246 18.6718 38.6117 18.1703 39.1303 17.7864L37.8379 16.0405ZM35.9229 17.4458L33.7719 17.7489C33.8611 18.3819 33.95 19.1041 34.0122 19.8421L36.1768 19.6597L38.3413 19.4773C38.2703 18.6352 38.1705 17.8287 38.0738 17.1427L35.9229 17.4458ZM36.1768 19.6597L34.0122 19.8421C34.1346 21.2948 34.1589 22.8155 34.1648 23.6141L36.3369 23.5981L38.5091 23.5822C38.503 22.7551 38.4781 21.1003 38.3413 19.4773L36.1768 19.6597ZM36.3369 23.5981L34.1648 23.6141C34.1677 24.0144 34.1666 24.1982 34.1648 24.2805C34.1639 24.3238 34.1633 24.3055 34.1672 24.2605C34.1696 24.2324 34.1737 24.1926 34.181 24.1448C34.1846 24.1213 34.1882 24.1004 34.1915 24.0831C34.1944 24.0677 34.1968 24.0556 34.1964 24.0578L36.3252 24.4897L38.454 24.9217C38.5203 24.5952 38.5139 24.2392 38.5091 23.5822L36.3369 23.5981ZM36.3252 24.4897L34.3823 23.5183L34.3813 23.5203L36.3242 24.4917L38.2671 25.4631L38.2681 25.4612L36.3252 24.4897ZM36.3242 24.4917L34.1952 24.0609C34.1763 24.1541 34.1581 24.264 34.1513 24.3029C34.1416 24.3589 34.1321 24.4103 34.1189 24.4721C34.093 24.5935 34.0435 24.7966 33.9357 25.1377L36.0068 25.7925L38.078 26.4472C38.2214 25.9935 38.3085 25.6554 38.3674 25.3797C38.3967 25.243 38.4167 25.1319 38.4314 25.0477C38.441 24.9924 38.4415 24.9887 38.4477 24.9531C38.4496 24.9421 38.451 24.9347 38.452 24.9293C38.4529 24.9241 38.4534 24.9221 38.4533 24.9225L36.3242 24.4917ZM36.0068 25.7925L33.9356 25.138C33.7802 25.6299 33.8327 25.5989 33.6492 26.0349L35.6514 26.8774L37.6535 27.72C37.9299 27.0632 38.0852 26.4245 38.0781 26.4469L36.0068 25.7925ZM35.6514 26.8774L33.6492 26.0349C33.5058 26.3757 33.3803 26.6319 33.2834 26.8027C33.2353 26.8876 33.2052 26.932 33.1951 26.9459C33.178 26.9695 33.2192 26.9062 33.3236 26.8144L34.7578 28.4458L36.1921 30.0772C36.5993 29.7191 36.8859 29.2571 37.0625 28.9457C37.2689 28.5817 37.4678 28.1614 37.6535 27.72L35.6514 26.8774ZM34.7578 28.4458L33.3236 26.8144C33.2686 26.8628 33.2149 26.9115 33.1695 26.9527C33.12 26.9979 33.082 27.0326 33.0388 27.0717C32.9554 27.147 32.8901 27.2038 32.832 27.2504C32.7737 27.2971 32.7405 27.319 32.7287 27.3262C32.7156 27.3341 32.7499 27.311 32.8271 27.2861L33.4951 29.353L34.1632 31.4199C34.7815 31.2201 35.2614 30.8708 35.5492 30.6402C35.8061 30.4342 36.1487 30.1153 36.1921 30.0772L34.7578 28.4458ZM33.4951 29.353L32.8274 27.286C32.6749 27.3352 32.479 27.4069 32.3036 27.4707C32.1097 27.5412 31.8821 27.6238 31.6108 27.718L32.3232 29.77L33.0357 31.8221C33.7453 31.5757 33.9555 31.487 34.1628 31.4201L33.4951 29.353ZM32.3232 29.77L31.6108 27.718C31.5255 27.7476 31.51 27.7523 31.4473 27.7628C31.3473 27.7796 31.1338 27.8053 30.6875 27.822L30.7686 29.9927L30.8496 32.1634C31.9891 32.1208 32.4952 32.0097 33.0356 31.8221L32.3232 29.77ZM30.7686 29.9927L30.6876 27.822C29.7785 27.8559 28.2126 27.8446 26.833 27.7601L26.7002 29.9282L26.5674 32.0964C28.0802 32.189 29.789 32.2029 30.8495 32.1634L30.7686 29.9927ZM26.7002 29.9282L26.833 27.7601C25.4665 27.6764 24.3233 27.5258 23.6137 27.407L23.2549 29.5493L22.896 31.6917C23.7473 31.8343 25.0415 32.0029 26.5674 32.0964L26.7002 29.9282ZM23.2549 29.5493L23.6137 27.407C22.9229 27.2913 22.6944 27.2186 22.4263 27.1559L21.9316 29.271L21.437 31.3861C21.5899 31.4219 22.0262 31.546 22.896 31.6917L23.2549 29.5493ZM21.9316 29.271L22.4262 27.1559C22.2411 27.1126 22.0572 27.0843 22.0455 27.0823C22.0314 27.0798 22.034 27.0801 22.0409 27.0817C22.0476 27.0833 22.0451 27.083 22.0287 27.0779L21.3828 29.1519L20.7369 31.2258C20.9687 31.298 21.1468 31.3355 21.2984 31.362C21.4461 31.3878 21.4117 31.3802 21.437 31.3861L21.9316 29.271ZM21.3828 29.1519L22.0289 27.078C21.403 26.883 21.1361 26.7604 20.8583 26.6626L20.1367 28.7114L19.4151 30.7603C19.388 30.7507 20.0457 31.0105 20.7367 31.2257L21.3828 29.1519ZM20.1367 28.7114L20.8587 26.6627C20.9104 26.6809 20.9383 26.694 20.9251 26.6882C20.9161 26.6842 20.8961 26.675 20.8567 26.6561C20.8172 26.6373 20.7741 26.6163 20.7149 26.5876C20.6584 26.5603 20.5927 26.5286 20.5208 26.4944L19.5889 28.4565L18.657 30.4187C18.7137 30.4456 18.7676 30.4717 18.8216 30.4978C18.8728 30.5226 18.9307 30.5507 18.9829 30.5757C19.0351 30.6006 19.0972 30.6299 19.1606 30.6581C19.2198 30.6844 19.3104 30.7233 19.4147 30.7601L20.1367 28.7114ZM19.5889 28.4565L20.5208 26.4944C20.424 26.4484 20.3356 26.4114 20.272 26.3855C20.2336 26.3698 20.1274 26.3274 20.121 26.3249C20.0384 26.2915 20.0629 26.2976 20.1158 26.3283C20.1783 26.3645 20.3248 26.459 20.4715 26.6381C20.6299 26.8313 20.7324 27.0546 20.7777 27.2712L18.6514 27.7153L16.5251 28.1594C16.7393 29.1854 17.404 29.7778 17.9364 30.0865C18.1667 30.22 18.3842 30.3088 18.4944 30.3533C18.5845 30.3896 18.5747 30.3851 18.6306 30.4079C18.6614 30.4204 18.6654 30.4227 18.657 30.4187L19.5889 28.4565ZM18.6514 27.7153L20.7777 27.2713C20.7466 27.1224 20.7188 26.9355 20.7043 26.7663L18.54 26.9517L16.3758 27.137C16.4049 27.4775 16.4578 27.8372 16.525 28.1594L18.6514 27.7153ZM18.54 26.9517L20.7043 26.7665C20.662 26.2718 20.6349 26.2899 20.6311 25.8594L18.459 25.8784L16.2869 25.8975C16.2925 26.5339 16.3681 27.0474 16.3758 27.1369L18.54 26.9517ZM18.459 25.8784L20.6311 25.8594C20.6243 25.083 20.5717 24.4346 20.5586 24.2243L18.3906 24.3589L16.2226 24.4935C16.2406 24.7826 16.2814 25.2701 16.2869 25.8975L18.459 25.8784ZM18.3906 24.3589L20.5586 24.2243C20.5391 23.9093 20.5032 23.7615 20.4883 22.9171L18.3164 22.9556L16.1446 22.9941C16.1616 23.9576 16.2175 24.412 16.2226 24.4935L18.3906 24.3589ZM18.3164 22.9556L20.4883 22.9171C20.4831 22.6263 20.4809 22.243 20.4798 21.8391L18.3076 21.8452L16.1354 21.8513C16.1366 22.2561 16.1388 22.6679 16.1446 22.9941L18.3164 22.9556ZM18.3076 21.8452L19.0132 19.7908C18.7755 19.7092 18.5233 19.6187 18.254 19.516L17.4795 21.5454L16.705 23.5748C17.026 23.6973 17.3246 23.8043 17.602 23.8996L18.3076 21.8452ZM17.4795 21.5454L18.254 19.516C16.9847 19.0316 15.4843 18.6733 14.3578 18.4442L13.9248 20.5728L13.4918 22.7013C14.5398 22.9146 15.7675 23.2171 16.705 23.5748L17.4795 21.5454ZM13.9248 20.5728L14.358 18.4442C13.8899 18.3489 13.671 18.2341 13.4818 18.1351C13.4296 18.1077 13.0963 17.9204 12.7515 17.8137C12.256 17.6605 11.6749 17.6303 11.0672 17.8457L11.793 19.8931L12.5187 21.9404C12.3637 21.9954 12.1724 22.0356 11.9573 22.0359C11.7467 22.0362 11.5775 21.9981 11.468 21.9642C11.3697 21.9338 11.3124 21.9042 11.328 21.9118C11.3497 21.9224 11.3719 21.9342 11.4673 21.9842C11.6363 22.0726 11.8993 22.2079 12.2478 22.3428C12.5963 22.4776 13.0034 22.602 13.4917 22.7013L13.9248 20.5728ZM11.793 19.8931L11.0665 17.846C11.3655 17.7398 11.5855 17.7474 11.6767 17.7539C11.7608 17.7599 12.0572 17.7862 12.405 18.0064C12.5986 18.1289 12.8801 18.3592 13.0836 18.748C13.3029 19.1668 13.3522 19.6196 13.2808 20.0176C13.2161 20.3783 13.0674 20.6211 12.9872 20.7339C12.9036 20.8513 12.8369 20.9086 12.8356 20.9097L11.4053 19.2749L9.97496 17.6401C9.70921 17.8726 9.15614 18.406 9.00466 19.2506C8.91656 19.7418 8.97942 20.2752 9.23474 20.7629C9.47438 21.2207 9.81443 21.5082 10.0815 21.6772C10.5762 21.9903 11.0788 22.0666 11.3667 22.0872C11.6618 22.1083 12.0831 22.095 12.5195 21.9402L11.793 19.8931ZM11.4053 19.2749L12.8354 20.9099C13.447 20.3749 15.0195 19.136 16.1295 18.3988L14.9277 16.5894L13.726 14.7799C12.4372 15.6358 10.7128 16.9947 9.97512 17.6399L11.4053 19.2749ZM14.9277 16.5894L16.1295 18.3988C17.1718 17.7066 17.7122 17.506 18.8381 16.9595L17.8896 15.0054L16.9412 13.0512C15.9996 13.5082 15.0825 13.8789 13.726 14.7799L14.9277 16.5894ZM17.8896 15.0054L18.8382 16.9595C19.9283 16.4304 21.2976 15.6961 22.5312 14.9233L21.3779 13.0825L20.2247 11.2417C19.147 11.9169 17.9183 12.5769 16.9411 13.0512L17.8896 15.0054ZM21.3779 13.0825L22.5312 14.9233C23.769 14.1478 24.8161 13.3704 25.7933 12.6454L24.499 10.9009L23.2047 9.15639C22.2172 9.8891 21.2983 10.5691 20.2247 11.2417L21.3779 13.0825Z" fill="white"/>
<path d="M18.3108 20.4548C18.3172 19.7937 18.3295 19.6214 18.3418 19.4491C18.4179 19.4491 19.7971 18.6286 19.8658 18.6222C20.1462 18.5532 20.6934 18.3794 21.198 18.1924C21.3681 18.1295 21.6266 18.0434 23.9877 17.5121C26.3488 16.9808 30.6813 16.033 32.9363 15.5592C35.1913 15.0853 35.3636 15.0853 35.4561 15.1043C35.5486 15.1234 35.5609 15.1603 35.6876 15.9206C35.8142 16.6809 36.048 18.121 36.1776 19.6589C36.3073 21.1969 36.3319 22.7846 36.3378 23.5975C36.3437 24.4006 36.3344 24.4468 36.3257 24.4896L36.3253 24.4912C36.2811 24.7096 36.2591 24.9967 36.0078 25.7917C35.9335 26.0265 35.8818 26.3302 35.6517 26.8769C35.3226 27.659 35.003 28.2296 34.7581 28.4449C34.4386 28.7257 33.986 29.1937 33.4954 29.3522C33.2847 29.4202 32.8985 29.5701 32.3241 29.7695C32.0367 29.8693 31.7536 29.9554 30.7688 29.9922C29.7839 30.0289 28.1469 30.0166 26.7007 29.928C25.2545 29.8395 24.036 29.6794 23.2555 29.5487C22.4751 29.418 22.1428 29.3195 21.9322 29.2703C21.7217 29.2211 21.6331 29.2292 21.3832 29.1513C20.7247 28.9462 20.2628 28.7552 20.1375 28.711C20.0321 28.6739 19.8471 28.578 19.5896 28.4557C19.2362 28.2879 18.7548 28.2067 18.6521 27.715C18.6029 27.4793 18.5624 27.2058 18.5406 26.9508C18.5156 26.6587 18.4645 26.4116 18.4598 25.8781C18.4537 25.1761 18.4069 24.6081 18.3914 24.3584C18.3791 24.1602 18.3328 23.859 18.3168 22.9549C18.3045 22.2606 18.3045 21.1159 18.3108 20.4548Z" fill="black"/>
<path d="M30.4951 24.3557V23.2777C30.6144 23.2777 31.2471 23.0723 31.3614 23.1131C31.5854 23.2331 31.757 23.3741 32.0006 23.7017C32.1203 23.9412 32.1935 24.1249 32.2122 24.2895C32.2246 24.3985 32.2368 24.5569 32.224 25.1069C32.2113 25.6569 32.1747 26.5707 32.1439 27.0716C32.1131 27.5724 32.0887 27.6577 32.0138 27.8165C31.9388 27.9752 31.8309 28.2114 31.7121 28.351C31.5219 28.5745 31.3359 28.7804 31.1187 28.7892C30.9681 28.7953 30.7959 28.8081 30.7007 28.7334C30.6303 28.6781 30.5715 28.5874 30.5379 28.4464C30.5195 28.3688 30.5073 28.2775 30.5012 27.466C30.4951 26.6545 30.4951 25.168 30.4951 24.3557Z" fill="#FFCC00"/>
<path d="M30.957 20.2338L30.957 24.2284" stroke="#FFCC00" stroke-width="0.477817"/>
<path d="M21.3777 13.082C22.5334 12.3579 23.5158 11.629 24.4982 10.9001C24.6615 10.9001 25.4921 10.9001 25.8489 10.9328C26.7444 11.0288 27.7402 11.1902 29.0424 11.3654C29.9009 11.4456 31.1368 11.509 33.0771 11.6876L33.1754 11.6966C35.1036 11.8741 37.6156 12.1053 38.9983 12.343C40.6659 12.6297 41.0795 12.755 41.2564 12.9341C41.3361 13.0147 41.3975 13.1301 41.3347 13.19C40.9808 13.5275 39.9375 14.4855 37.8373 16.0402C36.5174 17.0173 34.1089 18.7602 32.6272 19.8929C31.1454 21.0256 30.5838 21.5128 30.1414 22.0473C29.2959 23.0691 28.3485 23.8507 28.0539 23.9296C27.8781 23.9767 27.3429 24.0288 25.5588 23.6026C22.0172 22.7566 22.2591 22.9508 21.7056 22.7796C20.776 22.492 19.6842 22.3869 17.4784 21.5451C16.375 21.124 15.0117 20.7936 13.9245 20.5724C12.4447 20.2714 12.2468 19.7316 11.7922 19.8929C11.5176 19.9904 10.7304 19.8646 11.405 19.2745C12.0796 18.6844 13.7275 17.3851 14.9269 16.5885C16.1263 15.7919 16.8552 15.5067 17.8889 15.005C18.9227 14.5032 20.222 13.806 21.3777 13.082Z" fill="#4D1B4D"/>
</g>
<defs>
<filter id="filter0_ddd_752_17102" x="0.966797" y="-2" width="50.5635" height="48" filterUnits="userSpaceOnUse" color-interpolation-filters="sRGB">
<feFlood flood-opacity="0" result="BackgroundImageFix"/>
<feColorMatrix in="SourceAlpha" type="matrix" values="0 0 0 0 0 0 0 0 0 0 0 0 0 0 0 0 0 0 127 0" result="hardAlpha"/>
<feOffset/>
<feGaussianBlur stdDeviation="0.5"/>
<feComposite in2="hardAlpha" operator="out"/>
<feColorMatrix type="matrix" values="0 0 0 0 0 0 0 0 0 0 0 0 0 0 0 0 0 0 0.08 0"/>
<feBlend mode="normal" in2="BackgroundImageFix" result="effect1_dropShadow_752_17102"/>
<feColorMatrix in="SourceAlpha" type="matrix" values="0 0 0 0 0 0 0 0 0 0 0 0 0 0 0 0 0 0 127 0" result="hardAlpha"/>
<feOffset dy="1"/>
<feGaussianBlur stdDeviation="2"/>
<feComposite in2="hardAlpha" operator="out"/>
<feColorMatrix type="matrix" values="0 0 0 0 0 0 0 0 0 0 0 0 0 0 0 0 0 0 0.08 0"/>
<feBlend mode="normal" in2="effect1_dropShadow_752_17102" result="effect2_dropShadow_752_17102"/>
<feColorMatrix in="SourceAlpha" type="matrix" values="0 0 0 0 0 0 0 0 0 0 0 0 0 0 0 0 0 0 127 0" result="hardAlpha"/>
<feOffset dy="2"/>
<feGaussianBlur stdDeviation="4"/>
<feComposite in2="hardAlpha" operator="out"/>
<feColorMatrix type="matrix" values="0 0 0 0 0 0 0 0 0 0 0 0 0 0 0 0 0 0 0.12 0"/>
<feBlend mode="normal" in2="effect2_dropShadow_752_17102" result="effect3_dropShadow_752_17102"/>
<feBlend mode="normal" in="SourceGraphic" in2="effect3_dropShadow_752_17102" result="shape"/>
</filter>
</defs>
</svg>
