<svg width="51" height="44" viewBox="0 0 51 44" fill="none" xmlns="http://www.w3.org/2000/svg">
<g filter="url(#filter0_ddd_752_18753)">
<path d="M20.6287 23.5305C19.7609 22.2336 18.5719 20.1052 18.0713 18.6271C17.5706 17.1489 17.48 15.4657 18.1667 14.0687C18.3622 13.6729 18.6244 13.2962 18.9868 13.0435C19.5018 12.6859 20.1693 12.6096 20.7892 12.6954C22.0861 12.8718 23.2257 13.692 24.0554 14.7028C24.885 15.7137 25.4525 16.9105 26.0056 18.0978C26.3727 16.715 27.0069 15.399 27.8652 14.2546C28.5852 13.2914 29.6151 12.3855 30.8119 12.4475C31.9754 12.5095 32.9195 13.5251 33.2246 14.6504C33.5298 15.7757 33.3057 16.9725 32.9576 18.0835C32.2138 20.4581 31.0205 23.0537 30.1651 24.4842C29.8886 24.9467 27.6125 28.0729 26.0485 30.4951C23.9696 28.0204 22.0592 26.153 20.3123 22.7134L20.6287 23.5305Z" fill="#F72B3E"/>
<path d="M15.9732 19.0849C15.7062 18.5127 14.6381 18.651 14.1374 18.6272C13.0265 18.5747 11.9298 18.4508 10.8235 18.3554C9.92234 18.2791 9.8985 19.7716 10.8235 19.7763C11.9345 19.7763 13.0408 19.8383 14.1517 19.8192C14.619 19.8097 16.4071 20.01 15.9732 19.0849Z" fill="#F72B3E"/>
<path d="M15.8302 16.0517C15.5155 15.4509 14.7192 15.3889 14.1328 15.1314C13.3889 14.8072 12.6928 14.3399 12.0204 13.8917C11.2575 13.3815 10.4851 14.7023 11.3052 15.1171C12.0872 15.5129 12.893 15.8228 13.6988 16.1661C14.3473 16.4427 15.0053 16.9004 15.692 16.5857C15.8922 16.4951 15.9208 16.2234 15.8302 16.0517Z" fill="#F72B3E"/>
<path d="M15.7253 21.8512C15.2485 21.9752 14.8003 22.247 14.3854 22.4902C13.8323 22.8144 13.3317 23.1577 12.8262 23.5582C12.1253 24.1113 13.1696 25.2271 13.8276 24.5596C14.2043 24.1781 14.6191 23.768 15.0578 23.4629C15.4344 23.1959 15.835 22.9431 16.1878 22.6427C16.5597 22.3233 16.1592 21.732 15.7253 21.8512Z" fill="#F72B3E"/>
<path d="M15.9732 19.0849C15.7062 18.5127 14.6381 18.651 14.1374 18.6272C13.0265 18.5747 11.9298 18.4508 10.8235 18.3554C9.92234 18.2791 9.8985 19.7716 10.8235 19.7763C11.9345 19.7763 13.0408 19.8383 14.1517 19.8192C14.619 19.8097 16.4071 20.01 15.9732 19.0849Z" fill="#F72B3E"/>
<path d="M15.8302 16.0517C15.5155 15.4509 14.7192 15.3889 14.1328 15.1314C13.3889 14.8072 12.6928 14.3399 12.0204 13.8917C11.2575 13.3815 10.4851 14.7023 11.3052 15.1171C12.0872 15.5129 12.893 15.8228 13.6988 16.1661C14.3473 16.4427 15.0053 16.9004 15.692 16.5857C15.8922 16.4951 15.9208 16.2234 15.8302 16.0517Z" fill="#F72B3E"/>
<path d="M15.7253 21.8512C15.2485 21.9752 14.8003 22.247 14.3854 22.4902C13.8323 22.8144 13.3317 23.1577 12.8262 23.5582C12.1253 24.1113 13.1696 25.2271 13.8276 24.5596C14.2043 24.1781 14.6191 23.768 15.0578 23.4629C15.4344 23.1959 15.835 22.9431 16.1878 22.6427C16.5597 22.3233 16.1592 21.732 15.7253 21.8512Z" fill="#F72B3E"/>
<path d="M34.5264 19.0849C34.7934 18.5127 35.8615 18.651 36.3621 18.6272C37.4731 18.5747 38.5698 18.4508 39.676 18.3554C40.5772 18.2791 40.6011 19.7716 39.676 19.7763C38.565 19.7763 37.4588 19.8383 36.3478 19.8192C35.8805 19.8097 34.0925 20.01 34.5264 19.0849Z" fill="#F72B3E"/>
<path d="M34.6695 16.0517C34.9842 15.4509 35.7805 15.3889 36.367 15.1314C37.1108 14.8072 37.807 14.3399 38.4793 13.8917C39.2422 13.3815 40.0146 14.7023 39.1945 15.1171C38.4125 15.5129 37.6067 15.8228 36.8009 16.1661C36.1524 16.4427 35.4944 16.9004 34.8078 16.5857C34.6075 16.4951 34.5789 16.2234 34.6695 16.0517Z" fill="#F72B3E"/>
<path d="M34.7792 21.8512C35.256 21.9752 35.7042 22.247 36.119 22.4902C36.6721 22.8144 37.1728 23.1577 37.6782 23.5582C38.3791 24.1113 37.3349 25.2271 36.6769 24.5596C36.3002 24.1781 35.8854 23.768 35.4467 23.4629C35.07 23.1959 34.6695 22.9431 34.3166 22.6427C33.9447 22.3233 34.3452 21.732 34.7792 21.8512Z" fill="#F72B3E"/>
<path d="M34.5264 19.0849C34.7934 18.5127 35.8615 18.651 36.3621 18.6272C37.4731 18.5747 38.5698 18.4508 39.676 18.3554C40.5772 18.2791 40.6011 19.7716 39.676 19.7763C38.565 19.7763 37.4588 19.8383 36.3478 19.8192C35.8805 19.8097 34.0925 20.01 34.5264 19.0849Z" fill="#F72B3E"/>
<path d="M34.6695 16.0517C34.9842 15.4509 35.7805 15.3889 36.367 15.1314C37.1108 14.8072 37.807 14.3399 38.4793 13.8917C39.2422 13.3815 40.0146 14.7023 39.1945 15.1171C38.4125 15.5129 37.6067 15.8228 36.8009 16.1661C36.1524 16.4427 35.4944 16.9004 34.8078 16.5857C34.6075 16.4951 34.5789 16.2234 34.6695 16.0517Z" fill="#F72B3E"/>
<path d="M34.7792 21.8512C35.256 21.9752 35.7042 22.247 36.119 22.4902C36.6721 22.8144 37.1728 23.1577 37.6782 23.5582C38.3791 24.1113 37.3349 25.2271 36.6769 24.5596C36.3002 24.1781 35.8854 23.768 35.4467 23.4629C35.07 23.1959 34.6695 22.9431 34.3166 22.6427C33.9447 22.3233 34.3452 21.732 34.7792 21.8512Z" fill="#F72B3E"/>
<path d="M20.6287 23.5305C19.7609 22.2336 18.5719 20.1052 18.0713 18.6271C17.5706 17.1489 17.48 15.4657 18.1667 14.0687C18.3622 13.6729 18.6244 13.2962 18.9868 13.0435C19.5018 12.6859 20.1693 12.6096 20.7892 12.6954C22.0861 12.8718 23.2257 13.692 24.0554 14.7028C24.885 15.7137 25.4525 16.9105 26.0056 18.0978C26.3727 16.715 27.0069 15.399 27.8652 14.2546C28.5852 13.2914 29.6151 12.3855 30.8119 12.4475C31.9754 12.5095 32.9195 13.5251 33.2246 14.6504C33.5298 15.7757 33.3057 16.9725 32.9576 18.0835C32.2138 20.4581 31.0205 23.0537 30.1651 24.4842C29.8886 24.9467 27.6125 28.0729 26.0485 30.4951C23.9696 28.0204 22.0592 26.153 20.3123 22.7134L20.6287 23.5305Z" stroke="white" stroke-width="4"/>
<path d="M15.9732 19.0849C15.7062 18.5127 14.6381 18.651 14.1374 18.6272C13.0265 18.5747 11.9298 18.4508 10.8235 18.3554C9.92234 18.2791 9.8985 19.7716 10.8235 19.7763C11.9345 19.7763 13.0408 19.8383 14.1517 19.8192C14.619 19.8097 16.4071 20.01 15.9732 19.0849Z" stroke="white" stroke-width="4"/>
<path d="M15.8302 16.0517C15.5155 15.4509 14.7192 15.3889 14.1328 15.1314C13.3889 14.8072 12.6928 14.3399 12.0204 13.8917C11.2575 13.3815 10.4851 14.7023 11.3052 15.1171C12.0872 15.5129 12.893 15.8228 13.6988 16.1661C14.3473 16.4427 15.0053 16.9004 15.692 16.5857C15.8922 16.4951 15.9208 16.2234 15.8302 16.0517Z" stroke="white" stroke-width="4"/>
<path d="M15.7253 21.8512C15.2485 21.9752 14.8003 22.247 14.3854 22.4902C13.8323 22.8144 13.3317 23.1577 12.8262 23.5582C12.1253 24.1113 13.1696 25.2271 13.8276 24.5596C14.2043 24.1781 14.6191 23.768 15.0578 23.4629C15.4344 23.1959 15.835 22.9431 16.1878 22.6427C16.5597 22.3233 16.1592 21.732 15.7253 21.8512Z" stroke="white" stroke-width="4"/>
<path d="M15.9732 19.0849C15.7062 18.5127 14.6381 18.651 14.1374 18.6272C13.0265 18.5747 11.9298 18.4508 10.8235 18.3554C9.92234 18.2791 9.8985 19.7716 10.8235 19.7763C11.9345 19.7763 13.0408 19.8383 14.1517 19.8192C14.619 19.8097 16.4071 20.01 15.9732 19.0849Z" stroke="white" stroke-width="4"/>
<path d="M15.8302 16.0517C15.5155 15.4509 14.7192 15.3889 14.1328 15.1314C13.3889 14.8072 12.6928 14.3399 12.0204 13.8917C11.2575 13.3815 10.4851 14.7023 11.3052 15.1171C12.0872 15.5129 12.893 15.8228 13.6988 16.1661C14.3473 16.4427 15.0053 16.9004 15.692 16.5857C15.8922 16.4951 15.9208 16.2234 15.8302 16.0517Z" stroke="white" stroke-width="4"/>
<path d="M15.7253 21.8512C15.2485 21.9752 14.8003 22.247 14.3854 22.4902C13.8323 22.8144 13.3317 23.1577 12.8262 23.5582C12.1253 24.1113 13.1696 25.2271 13.8276 24.5596C14.2043 24.1781 14.6191 23.768 15.0578 23.4629C15.4344 23.1959 15.835 22.9431 16.1878 22.6427C16.5597 22.3233 16.1592 21.732 15.7253 21.8512Z" stroke="white" stroke-width="4"/>
<path d="M34.5264 19.0849C34.7934 18.5127 35.8615 18.651 36.3621 18.6272C37.4731 18.5747 38.5698 18.4508 39.676 18.3554C40.5772 18.2791 40.6011 19.7716 39.676 19.7763C38.565 19.7763 37.4588 19.8383 36.3478 19.8192C35.8805 19.8097 34.0925 20.01 34.5264 19.0849Z" stroke="white" stroke-width="4"/>
<path d="M34.6695 16.0517C34.9842 15.4509 35.7805 15.3889 36.367 15.1314C37.1108 14.8072 37.807 14.3399 38.4793 13.8917C39.2422 13.3815 40.0146 14.7023 39.1945 15.1171C38.4125 15.5129 37.6067 15.8228 36.8009 16.1661C36.1524 16.4427 35.4944 16.9004 34.8078 16.5857C34.6075 16.4951 34.5789 16.2234 34.6695 16.0517Z" stroke="white" stroke-width="4"/>
<path d="M34.7792 21.8512C35.256 21.9752 35.7042 22.247 36.119 22.4902C36.6721 22.8144 37.1728 23.1577 37.6782 23.5582C38.3791 24.1113 37.3349 25.2271 36.6769 24.5596C36.3002 24.1781 35.8854 23.768 35.4467 23.4629C35.07 23.1959 34.6695 22.9431 34.3166 22.6427C33.9447 22.3233 34.3452 21.732 34.7792 21.8512Z" stroke="white" stroke-width="4"/>
<path d="M34.5264 19.0849C34.7934 18.5127 35.8615 18.651 36.3621 18.6272C37.4731 18.5747 38.5698 18.4508 39.676 18.3554C40.5772 18.2791 40.6011 19.7716 39.676 19.7763C38.565 19.7763 37.4588 19.8383 36.3478 19.8192C35.8805 19.8097 34.0925 20.01 34.5264 19.0849Z" stroke="white" stroke-width="4"/>
<path d="M34.6695 16.0517C34.9842 15.4509 35.7805 15.3889 36.367 15.1314C37.1108 14.8072 37.807 14.3399 38.4793 13.8917C39.2422 13.3815 40.0146 14.7023 39.1945 15.1171C38.4125 15.5129 37.6067 15.8228 36.8009 16.1661C36.1524 16.4427 35.4944 16.9004 34.8078 16.5857C34.6075 16.4951 34.5789 16.2234 34.6695 16.0517Z" stroke="white" stroke-width="4"/>
<path d="M34.7792 21.8512C35.256 21.9752 35.7042 22.247 36.119 22.4902C36.6721 22.8144 37.1728 23.1577 37.6782 23.5582C38.3791 24.1113 37.3349 25.2271 36.6769 24.5596C36.3002 24.1781 35.8854 23.768 35.4467 23.4629C35.07 23.1959 34.6695 22.9431 34.3166 22.6427C33.9447 22.3233 34.3452 21.732 34.7792 21.8512Z" stroke="white" stroke-width="4"/>
<path d="M20.6287 23.5305C19.7609 22.2336 18.5719 20.1052 18.0713 18.6271C17.5706 17.1489 17.48 15.4657 18.1667 14.0687C18.3622 13.6729 18.6244 13.2962 18.9868 13.0435C19.5018 12.6859 20.1693 12.6096 20.7892 12.6954C22.0861 12.8718 23.2257 13.692 24.0554 14.7028C24.885 15.7137 25.4525 16.9105 26.0056 18.0978C26.3727 16.715 27.0069 15.399 27.8652 14.2546C28.5852 13.2914 29.6151 12.3855 30.8119 12.4475C31.9754 12.5095 32.9195 13.5251 33.2246 14.6504C33.5298 15.7757 33.3057 16.9725 32.9576 18.0835C32.2138 20.4581 31.0205 23.0537 30.1651 24.4842C29.8886 24.9467 27.6125 28.0729 26.0485 30.4951C23.9696 28.0204 22.0592 26.153 20.3123 22.7134L20.6287 23.5305Z" fill="#F72B3E"/>
<path d="M15.9732 19.0849C15.7062 18.5127 14.6381 18.651 14.1374 18.6272C13.0265 18.5747 11.9298 18.4508 10.8235 18.3554C9.92234 18.2791 9.8985 19.7716 10.8235 19.7763C11.9345 19.7763 13.0408 19.8383 14.1517 19.8192C14.619 19.8097 16.4071 20.01 15.9732 19.0849Z" fill="#F72B3E"/>
<path d="M15.8302 16.0517C15.5155 15.4509 14.7192 15.3889 14.1328 15.1314C13.3889 14.8072 12.6928 14.3399 12.0204 13.8917C11.2575 13.3815 10.4851 14.7023 11.3052 15.1171C12.0872 15.5129 12.893 15.8228 13.6988 16.1661C14.3473 16.4427 15.0053 16.9004 15.692 16.5857C15.8922 16.4951 15.9208 16.2234 15.8302 16.0517Z" fill="#F72B3E"/>
<path d="M15.7253 21.8512C15.2485 21.9752 14.8003 22.247 14.3854 22.4902C13.8323 22.8144 13.3317 23.1577 12.8262 23.5582C12.1253 24.1113 13.1696 25.2271 13.8276 24.5596C14.2043 24.1781 14.6191 23.768 15.0578 23.4629C15.4344 23.1959 15.835 22.9431 16.1878 22.6427C16.5597 22.3233 16.1592 21.732 15.7253 21.8512Z" fill="#F72B3E"/>
<path d="M15.9732 19.0849C15.7062 18.5127 14.6381 18.651 14.1374 18.6272C13.0265 18.5747 11.9298 18.4508 10.8235 18.3554C9.92234 18.2791 9.8985 19.7716 10.8235 19.7763C11.9345 19.7763 13.0408 19.8383 14.1517 19.8192C14.619 19.8097 16.4071 20.01 15.9732 19.0849Z" fill="#F72B3E"/>
<path d="M15.8302 16.0517C15.5155 15.4509 14.7192 15.3889 14.1328 15.1314C13.3889 14.8072 12.6928 14.3399 12.0204 13.8917C11.2575 13.3815 10.4851 14.7023 11.3052 15.1171C12.0872 15.5129 12.893 15.8228 13.6988 16.1661C14.3473 16.4427 15.0053 16.9004 15.692 16.5857C15.8922 16.4951 15.9208 16.2234 15.8302 16.0517Z" fill="#F72B3E"/>
<path d="M15.7253 21.8512C15.2485 21.9752 14.8003 22.247 14.3854 22.4902C13.8323 22.8144 13.3317 23.1577 12.8262 23.5582C12.1253 24.1113 13.1696 25.2271 13.8276 24.5596C14.2043 24.1781 14.6191 23.768 15.0578 23.4629C15.4344 23.1959 15.835 22.9431 16.1878 22.6427C16.5597 22.3233 16.1592 21.732 15.7253 21.8512Z" fill="#F72B3E"/>
<path d="M34.5264 19.0849C34.7934 18.5127 35.8615 18.651 36.3621 18.6272C37.4731 18.5747 38.5698 18.4508 39.676 18.3554C40.5772 18.2791 40.6011 19.7716 39.676 19.7763C38.565 19.7763 37.4588 19.8383 36.3478 19.8192C35.8805 19.8097 34.0925 20.01 34.5264 19.0849Z" fill="#F72B3E"/>
<path d="M34.6695 16.0517C34.9842 15.4509 35.7805 15.3889 36.367 15.1314C37.1108 14.8072 37.807 14.3399 38.4793 13.8917C39.2422 13.3815 40.0146 14.7023 39.1945 15.1171C38.4125 15.5129 37.6067 15.8228 36.8009 16.1661C36.1524 16.4427 35.4944 16.9004 34.8078 16.5857C34.6075 16.4951 34.5789 16.2234 34.6695 16.0517Z" fill="#F72B3E"/>
<path d="M34.7792 21.8512C35.256 21.9752 35.7042 22.247 36.119 22.4902C36.6721 22.8144 37.1728 23.1577 37.6782 23.5582C38.3791 24.1113 37.3349 25.2271 36.6769 24.5596C36.3002 24.1781 35.8854 23.768 35.4467 23.4629C35.07 23.1959 34.6695 22.9431 34.3166 22.6427C33.9447 22.3233 34.3452 21.732 34.7792 21.8512Z" fill="#F72B3E"/>
<path d="M34.5264 19.0849C34.7934 18.5127 35.8615 18.651 36.3621 18.6272C37.4731 18.5747 38.5698 18.4508 39.676 18.3554C40.5772 18.2791 40.6011 19.7716 39.676 19.7763C38.565 19.7763 37.4588 19.8383 36.3478 19.8192C35.8805 19.8097 34.0925 20.01 34.5264 19.0849Z" fill="#F72B3E"/>
<path d="M34.6695 16.0517C34.9842 15.4509 35.7805 15.3889 36.367 15.1314C37.1108 14.8072 37.807 14.3399 38.4793 13.8917C39.2422 13.3815 40.0146 14.7023 39.1945 15.1171C38.4125 15.5129 37.6067 15.8228 36.8009 16.1661C36.1524 16.4427 35.4944 16.9004 34.8078 16.5857C34.6075 16.4951 34.5789 16.2234 34.6695 16.0517Z" fill="#F72B3E"/>
<path d="M34.7792 21.8512C35.256 21.9752 35.7042 22.247 36.119 22.4902C36.6721 22.8144 37.1728 23.1577 37.6782 23.5582C38.3791 24.1113 37.3349 25.2271 36.6769 24.5596C36.3002 24.1781 35.8854 23.768 35.4467 23.4629C35.07 23.1959 34.6695 22.9431 34.3166 22.6427C33.9447 22.3233 34.3452 21.732 34.7792 21.8512Z" fill="#F72B3E"/>
</g>
<defs>
<filter id="filter0_ddd_752_18753" x="0.138672" y="-3" width="50.2227" height="50" filterUnits="userSpaceOnUse" color-interpolation-filters="sRGB">
<feFlood flood-opacity="0" result="BackgroundImageFix"/>
<feColorMatrix in="SourceAlpha" type="matrix" values="0 0 0 0 0 0 0 0 0 0 0 0 0 0 0 0 0 0 127 0" result="hardAlpha"/>
<feOffset/>
<feGaussianBlur stdDeviation="0.5"/>
<feComposite in2="hardAlpha" operator="out"/>
<feColorMatrix type="matrix" values="0 0 0 0 0 0 0 0 0 0 0 0 0 0 0 0 0 0 0.08 0"/>
<feBlend mode="normal" in2="BackgroundImageFix" result="effect1_dropShadow_752_18753"/>
<feColorMatrix in="SourceAlpha" type="matrix" values="0 0 0 0 0 0 0 0 0 0 0 0 0 0 0 0 0 0 127 0" result="hardAlpha"/>
<feOffset dy="1"/>
<feGaussianBlur stdDeviation="2"/>
<feComposite in2="hardAlpha" operator="out"/>
<feColorMatrix type="matrix" values="0 0 0 0 0 0 0 0 0 0 0 0 0 0 0 0 0 0 0.08 0"/>
<feBlend mode="normal" in2="effect1_dropShadow_752_18753" result="effect2_dropShadow_752_18753"/>
<feColorMatrix in="SourceAlpha" type="matrix" values="0 0 0 0 0 0 0 0 0 0 0 0 0 0 0 0 0 0 127 0" result="hardAlpha"/>
<feOffset dy="2"/>
<feGaussianBlur stdDeviation="4"/>
<feComposite in2="hardAlpha" operator="out"/>
<feColorMatrix type="matrix" values="0 0 0 0 0 0 0 0 0 0 0 0 0 0 0 0 0 0 0.12 0"/>
<feBlend mode="normal" in2="effect2_dropShadow_752_18753" result="effect3_dropShadow_752_18753"/>
<feBlend mode="normal" in="SourceGraphic" in2="effect3_dropShadow_752_18753" result="shape"/>
</filter>
</defs>
</svg>
