<svg width="45" height="40" viewBox="0 0 45 40" fill="none" xmlns="http://www.w3.org/2000/svg">
<g filter="url(#filter0_ddd_752_18712)">
<path d="M34.7227 16.2438C26.9676 16.0781 19.2097 16.0544 11.4542 16.174C11.1604 18.6314 10.9563 21.0997 10.8387 23.572C18.8256 23.3216 26.8215 24.143 34.8156 24.0786C34.9974 21.4774 34.9141 18.8559 34.7229 16.2429L34.7227 16.2438Z" fill="#FFFBCA"/>
<path d="M34.8157 24.0794C26.8218 24.1429 18.8265 23.3225 10.8388 23.5728C10.8013 24.3705 10.7707 25.1696 10.7509 25.9682C10.747 26.1386 10.7505 26.3292 10.8683 26.4528C10.9676 26.5575 11.1219 26.5841 11.2651 26.604C12.9028 26.8318 14.5574 26.8963 16.2094 26.9559C20.7989 27.1214 28.3759 27.0247 33.3867 27.0815C34.0166 27.0887 34.5536 26.6225 34.6322 25.9972C34.8159 25.1063 34.8159 24.3507 34.8319 23.8336L34.8157 24.0794Z" fill="#5AC0F3"/>
<path d="M34.6277 15.0406C34.6277 15.0406 34.5338 13.5397 34.5205 12.573C34.5164 12.2342 34.4997 11.8653 34.2727 11.6064C33.8736 11.1525 33.0134 11.1818 32.4655 11.126C31.7393 11.0521 31.0123 10.987 30.284 10.9367C28.8098 10.8354 27.3296 10.7953 25.8542 10.8774C25.4447 10.9003 24.9096 10.9228 24.5894 11.2115C24.2919 11.4798 23.6666 12.4294 23.4187 12.7041C20.1793 12.6979 16.9401 12.9085 13.7287 13.3351C13.3192 13.3891 12.9251 13.4463 12.5463 13.552C12.0729 13.6841 11.7242 14.0875 11.6584 14.5745C11.5859 15.1074 11.5194 15.6416 11.4557 16.1754C19.2112 16.0558 26.9692 16.0786 34.7242 16.2452C34.6943 15.8441 34.6627 15.4427 34.6292 15.0418L34.6277 15.0406Z" fill="#5AC0F3"/>
<path d="M16.8838 17.9934C16.5946 18.6282 16.4075 19.3057 16.354 20.0012C16.1869 22.1746 17.2488 24.1744 19.0315 25.2376C21.6415 26.7936 26.3222 26.989 28.4701 24.3135C29.3997 23.1549 29.6351 21.5552 29.5783 20.06C29.5376 18.9861 29.3607 17.9063 28.9176 16.9441C27.4313 13.721 22.597 13.2076 19.8036 14.8009C18.5656 15.5068 17.496 16.6524 16.8838 17.9934Z" fill="#FBE7D2"/>
<path d="M17.9969 18.4038C17.7626 18.9033 17.613 19.4386 17.5738 19.988C17.4511 21.7058 18.3415 23.2948 19.8202 24.1488C21.9845 25.3984 25.8481 25.5864 27.6005 23.4849C28.3595 22.5756 28.5424 21.3122 28.4845 20.1288C28.4431 19.2795 28.2898 18.4238 27.9166 17.6594C26.6678 15.0994 22.6749 14.659 20.3816 15.899C19.3649 16.4488 18.4905 17.3465 17.9962 18.4028L17.9969 18.4038Z" fill="#383839"/>
<path d="M21.897 25.0904C21.106 24.9312 20.3567 24.6618 19.7334 24.3028C18.1683 23.3993 17.2737 21.7426 17.3995 19.9782C17.4391 19.4226 17.5872 18.8683 17.8387 18.3321C18.3386 17.2654 19.2361 16.3242 20.2999 15.7481C21.6998 14.9909 23.6766 14.8456 25.3342 15.378C26.6243 15.7918 27.572 16.555 28.0745 17.5853C28.4192 18.2923 28.6106 19.1227 28.6598 20.1233C28.732 21.6083 28.4208 22.7781 27.7356 23.5997C26.9038 24.5961 25.5318 25.1832 23.873 25.2507C23.2166 25.2774 22.5433 25.2204 21.8979 25.0905L21.897 25.0904ZM18.155 18.4796C17.9219 18.9775 17.785 19.4895 17.7488 20.0021C17.6323 21.631 18.4602 23.1629 19.9087 23.9992C21.8925 25.1438 25.7275 25.4607 27.4677 23.3755C28.0952 22.6234 28.3794 21.5347 28.3114 20.1397C28.2648 19.1878 28.0849 18.4025 27.7611 17.7381C27.1802 16.5475 26.0632 15.9786 25.2281 15.7107C23.6558 15.2061 21.7872 15.3411 20.4664 16.0554C19.4667 16.5962 18.6245 17.4799 18.1558 18.4797L18.155 18.4796Z" fill="#4F4E4E"/>
<path d="M22.1729 24.0556C21.549 23.9301 20.9557 23.7144 20.4499 23.4227C19.2124 22.7082 18.5056 21.3987 18.6053 20.0036C18.6367 19.564 18.7533 19.1264 18.952 18.7018C19.3469 17.8601 20.0547 17.117 20.8932 16.6633C21.997 16.0659 23.5548 15.9513 24.8614 16.3712C25.8808 16.6985 26.6306 17.3023 27.0282 18.118C27.3004 18.6757 27.4513 19.3303 27.4898 20.1183C27.5466 21.2899 27.3009 22.2142 26.758 22.8648C25.7426 24.0819 23.8474 24.3935 22.1727 24.0565L22.1729 24.0556ZM19.2688 18.8512C19.0878 19.2366 18.9822 19.6327 18.9542 20.0292C18.8648 21.2891 19.5048 22.4737 20.625 23.12C21.0636 23.3732 21.6188 23.5741 22.2196 23.695C23.7289 23.9986 25.5256 23.7957 26.4903 22.6397C26.9755 22.0587 27.1942 21.2154 27.1414 20.1347C27.1056 19.3954 26.9661 18.7859 26.7148 18.2708C26.2658 17.3511 25.4019 16.9115 24.7553 16.7038C23.5348 16.312 22.0842 16.417 21.0597 16.9706C20.2843 17.3897 19.632 18.0744 19.2681 18.8502L19.2688 18.8512Z" fill="#4F4E4E"/>
<path d="M34.7227 16.2438C26.9676 16.0781 19.2097 16.0544 11.4542 16.174C11.1604 18.6314 10.9563 21.0997 10.8387 23.572C18.8256 23.3216 26.8215 24.143 34.8156 24.0786C34.9974 21.4774 34.9141 18.8559 34.7229 16.2429L34.7227 16.2438Z" stroke="white" stroke-width="4.12165"/>
<path d="M34.8157 24.0794C26.8218 24.1429 18.8265 23.3225 10.8388 23.5728C10.8013 24.3705 10.7707 25.1696 10.7509 25.9682C10.747 26.1386 10.7505 26.3292 10.8683 26.4528C10.9676 26.5575 11.1219 26.5841 11.2651 26.604C12.9028 26.8318 14.5574 26.8963 16.2094 26.9559C20.7989 27.1214 28.3759 27.0247 33.3867 27.0815C34.0166 27.0887 34.5536 26.6225 34.6322 25.9972C34.8159 25.1063 34.8159 24.3507 34.8319 23.8336L34.8157 24.0794Z" stroke="white" stroke-width="4.12165"/>
<path d="M34.6277 15.0406C34.6277 15.0406 34.5338 13.5397 34.5205 12.573C34.5164 12.2342 34.4997 11.8653 34.2727 11.6064C33.8736 11.1525 33.0134 11.1818 32.4655 11.126C31.7393 11.0521 31.0123 10.987 30.284 10.9367C28.8098 10.8354 27.3296 10.7953 25.8542 10.8774C25.4447 10.9003 24.9096 10.9228 24.5894 11.2115C24.2919 11.4798 23.6666 12.4294 23.4187 12.7041C20.1793 12.6979 16.9401 12.9085 13.7287 13.3351C13.3192 13.3891 12.9251 13.4463 12.5463 13.552C12.0729 13.6841 11.7242 14.0875 11.6584 14.5745C11.5859 15.1074 11.5194 15.6416 11.4557 16.1754C19.2112 16.0558 26.9692 16.0786 34.7242 16.2452C34.6943 15.8441 34.6627 15.4427 34.6292 15.0418L34.6277 15.0406Z" stroke="white" stroke-width="4.12165"/>
<path d="M16.8838 17.9934C16.5946 18.6282 16.4075 19.3057 16.354 20.0012C16.1869 22.1746 17.2488 24.1744 19.0315 25.2376C21.6415 26.7936 26.3222 26.989 28.4701 24.3135C29.3997 23.1549 29.6351 21.5552 29.5783 20.06C29.5376 18.9861 29.3607 17.9063 28.9176 16.9441C27.4313 13.721 22.597 13.2076 19.8036 14.8009C18.5656 15.5068 17.496 16.6524 16.8838 17.9934Z" stroke="white" stroke-width="4.12165"/>
<path d="M17.9969 18.4038C17.7626 18.9033 17.613 19.4386 17.5738 19.988C17.4511 21.7058 18.3415 23.2948 19.8202 24.1488C21.9845 25.3984 25.8481 25.5864 27.6005 23.4849C28.3595 22.5756 28.5424 21.3122 28.4845 20.1288C28.4431 19.2795 28.2898 18.4238 27.9166 17.6594C26.6678 15.0994 22.6749 14.659 20.3816 15.899C19.3649 16.4488 18.4905 17.3465 17.9962 18.4028L17.9969 18.4038Z" stroke="white" stroke-width="4.12165"/>
<path d="M21.897 25.0904C21.106 24.9312 20.3567 24.6618 19.7334 24.3028C18.1683 23.3993 17.2737 21.7426 17.3995 19.9782C17.4391 19.4226 17.5872 18.8683 17.8387 18.3321C18.3386 17.2654 19.2361 16.3242 20.2999 15.7481C21.6998 14.9909 23.6766 14.8456 25.3342 15.378C26.6243 15.7918 27.572 16.555 28.0745 17.5853C28.4192 18.2923 28.6106 19.1227 28.6598 20.1233C28.732 21.6083 28.4208 22.7781 27.7356 23.5997C26.9038 24.5961 25.5318 25.1832 23.873 25.2507C23.2166 25.2774 22.5433 25.2204 21.8979 25.0905L21.897 25.0904ZM18.155 18.4796C17.9219 18.9775 17.785 19.4895 17.7488 20.0021C17.6323 21.631 18.4602 23.1629 19.9087 23.9992C21.8925 25.1438 25.7275 25.4607 27.4677 23.3755C28.0952 22.6234 28.3794 21.5347 28.3114 20.1397C28.2648 19.1878 28.0849 18.4025 27.7611 17.7381C27.1802 16.5475 26.0632 15.9786 25.2281 15.7107C23.6558 15.2061 21.7872 15.3411 20.4664 16.0554C19.4667 16.5962 18.6245 17.4799 18.1558 18.4797L18.155 18.4796Z" stroke="white" stroke-width="4.12165"/>
<path d="M22.1729 24.0556C21.549 23.9301 20.9557 23.7144 20.4499 23.4227C19.2124 22.7082 18.5056 21.3987 18.6053 20.0036C18.6367 19.564 18.7533 19.1264 18.952 18.7018C19.3469 17.8601 20.0547 17.117 20.8932 16.6633C21.997 16.0659 23.5548 15.9513 24.8614 16.3712C25.8808 16.6985 26.6306 17.3023 27.0282 18.118C27.3004 18.6757 27.4513 19.3303 27.4898 20.1183C27.5466 21.2899 27.3009 22.2142 26.758 22.8648C25.7426 24.0819 23.8474 24.3935 22.1727 24.0565L22.1729 24.0556ZM19.2688 18.8512C19.0878 19.2366 18.9822 19.6327 18.9542 20.0292C18.8648 21.2891 19.5048 22.4737 20.625 23.12C21.0636 23.3732 21.6188 23.5741 22.2196 23.695C23.7289 23.9986 25.5256 23.7957 26.4903 22.6397C26.9755 22.0587 27.1942 21.2154 27.1414 20.1347C27.1056 19.3954 26.9661 18.7859 26.7148 18.2708C26.2658 17.3511 25.4019 16.9115 24.7553 16.7038C23.5348 16.312 22.0842 16.417 21.0597 16.9706C20.2843 17.3897 19.632 18.0744 19.2681 18.8502L19.2688 18.8512Z" stroke="white" stroke-width="4.12165"/>
<path d="M34.7227 16.2451C26.9676 16.0794 19.2097 16.0558 11.4542 16.1753C11.1604 18.6327 10.9563 21.101 10.8387 23.5733C18.8256 23.3229 26.8215 24.1444 34.8156 24.0799C34.9974 21.4788 34.9141 18.8572 34.7229 16.2443L34.7227 16.2451Z" fill="#FFFBCA"/>
<path d="M34.8157 24.0807C26.8218 24.1443 18.8265 23.3238 10.8388 23.5741C10.8013 24.3718 10.7707 25.1709 10.7509 25.9695C10.747 26.1399 10.7505 26.3306 10.8683 26.4541C10.9676 26.5588 11.1219 26.5854 11.2651 26.6053C12.9028 26.8332 14.5574 26.8977 16.2094 26.9572C20.7989 27.1227 28.3759 27.0261 33.3867 27.0828C34.0166 27.0901 34.5536 26.6238 34.6322 25.9985C34.7115 25.3608 34.7705 24.7217 34.8155 24.0816L34.8157 24.0807Z" fill="#5AC0F3"/>
<path d="M34.6277 15.042C34.6277 15.042 34.5338 13.541 34.5205 12.5744C34.5164 12.2356 34.4997 11.8666 34.2727 11.6078C33.8736 11.1538 33.0134 11.1832 32.4655 11.1273C31.7393 11.0535 31.0123 10.9883 30.284 10.9381C28.8098 10.8368 27.3296 10.7966 25.8542 10.8788C25.4447 10.9016 24.9096 10.9241 24.5894 11.2128C24.2919 11.4811 23.6666 12.4307 23.4187 12.7055C20.1793 12.6993 16.9401 12.9098 13.7287 13.3364C13.3192 13.3905 12.9251 13.4476 12.5463 13.5533C12.0729 13.6854 11.7242 14.0888 11.6584 14.5758C11.5859 15.1088 11.5194 15.6429 11.4557 16.1767C19.2112 16.0572 26.9692 16.0799 34.7242 16.2465C34.6943 15.8455 34.6627 15.4441 34.6292 15.0432L34.6277 15.042Z" fill="#5AC0F3"/>
<path d="M16.8844 17.9945C16.5953 18.6292 16.4081 19.3067 16.3547 20.0022C16.1876 22.1756 17.2494 24.1755 19.0321 25.2386C21.6422 26.7947 26.3228 26.9901 28.4708 24.3145C29.4004 23.1559 29.6357 21.5563 29.579 20.061C29.5383 18.9871 29.3614 17.9073 28.9183 16.9452C27.432 13.7221 22.5977 13.2086 19.8043 14.8019C18.5663 15.5078 17.4967 16.6534 16.8844 17.9945Z" fill="#242424"/>
<path d="M17.9979 18.404C17.7636 18.9035 17.614 19.4387 17.5748 19.9882C17.4521 21.706 18.3425 23.295 19.8213 24.149C21.9855 25.3986 25.8491 25.5865 27.6015 23.4851C28.3606 22.5757 28.5434 21.3124 28.4855 20.129C28.4441 19.2797 28.2908 18.424 27.9176 17.6596C26.6688 15.0996 22.676 14.6591 20.3826 15.8991C19.3659 16.449 18.4915 17.3467 17.9972 18.4029L17.9979 18.404Z" fill="#383839"/>
<path d="M21.8982 25.0918C21.1072 24.9326 20.3579 24.6633 19.7346 24.3042C18.1695 23.4007 17.2749 21.744 17.4007 19.9796C17.4403 19.424 17.5884 18.8697 17.8398 18.3335C18.3398 17.2668 19.2372 16.3256 20.3011 15.7496C21.701 14.9924 23.6778 14.847 25.3354 15.3794C26.6254 15.7933 27.5732 16.5565 28.0757 17.5868C28.4203 18.2937 28.6117 19.1241 28.661 20.1247C28.7331 21.6097 28.422 22.7795 27.7368 23.6012C26.9049 24.5975 25.533 25.1847 23.8742 25.2522C23.2178 25.2788 22.5444 25.2218 21.8991 25.092L21.8982 25.0918ZM18.1561 18.481C17.9231 18.979 17.7862 19.4909 17.7499 20.0035C17.6335 21.6325 18.4614 23.1643 19.9098 24.0006C21.8937 25.1453 25.7286 25.4621 27.4689 23.3769C28.0964 22.6248 28.3806 21.5361 28.3126 20.1411C28.266 19.1892 28.0861 18.4039 27.7623 17.7395C27.1814 16.549 26.0644 15.98 25.2292 15.7121C23.657 15.2076 21.7883 15.3426 20.4675 16.0568C19.4679 16.5976 18.6257 17.4813 18.157 18.4812L18.1561 18.481Z" fill="#4F4E4E"/>
<path d="M22.1733 24.0575C21.5493 23.9319 20.956 23.7163 20.4502 23.4245C19.2127 22.71 18.506 21.4006 18.6057 20.0054C18.637 19.5659 18.7536 19.1283 18.9523 18.7037C19.3473 17.862 20.055 17.1189 20.8936 16.6652C21.9974 16.0678 23.5551 15.9532 24.8618 16.373C25.8812 16.7003 26.6309 17.3042 27.0286 18.1199C27.3007 18.6776 27.4517 19.3321 27.4902 20.1202C27.5469 21.2918 27.3012 22.2161 26.7583 22.8666C25.743 24.0838 23.8477 24.3953 22.1731 24.0583L22.1733 24.0575ZM19.2691 18.853C19.0882 19.2384 18.9826 19.6345 18.9545 20.031C18.8651 21.2909 19.5051 22.4755 20.6253 23.1218C21.0639 23.375 21.6192 23.5759 22.22 23.6968C23.7292 24.0005 25.5259 23.7975 26.4906 22.6415C26.9758 22.0605 27.1945 21.2173 27.1418 20.1366C27.106 19.3972 26.9664 18.7877 26.7152 18.2726C26.2662 17.3529 25.4022 16.9134 24.7556 16.7057C23.5352 16.3139 22.0846 16.4188 21.0601 16.9724C20.2846 17.3916 19.6323 18.0763 19.2685 18.852L19.2691 18.853Z" fill="white"/>
</g>
<defs>
<filter id="filter0_ddd_752_18712" x="0.25" y="-1" width="46" height="46" filterUnits="userSpaceOnUse" color-interpolation-filters="sRGB">
<feFlood flood-opacity="0" result="BackgroundImageFix"/>
<feColorMatrix in="SourceAlpha" type="matrix" values="0 0 0 0 0 0 0 0 0 0 0 0 0 0 0 0 0 0 127 0" result="hardAlpha"/>
<feOffset/>
<feGaussianBlur stdDeviation="0.5"/>
<feComposite in2="hardAlpha" operator="out"/>
<feColorMatrix type="matrix" values="0 0 0 0 0 0 0 0 0 0 0 0 0 0 0 0 0 0 0.08 0"/>
<feBlend mode="normal" in2="BackgroundImageFix" result="effect1_dropShadow_752_18712"/>
<feColorMatrix in="SourceAlpha" type="matrix" values="0 0 0 0 0 0 0 0 0 0 0 0 0 0 0 0 0 0 127 0" result="hardAlpha"/>
<feOffset dy="1"/>
<feGaussianBlur stdDeviation="2"/>
<feComposite in2="hardAlpha" operator="out"/>
<feColorMatrix type="matrix" values="0 0 0 0 0 0 0 0 0 0 0 0 0 0 0 0 0 0 0.08 0"/>
<feBlend mode="normal" in2="effect1_dropShadow_752_18712" result="effect2_dropShadow_752_18712"/>
<feColorMatrix in="SourceAlpha" type="matrix" values="0 0 0 0 0 0 0 0 0 0 0 0 0 0 0 0 0 0 127 0" result="hardAlpha"/>
<feOffset dy="2"/>
<feGaussianBlur stdDeviation="4"/>
<feComposite in2="hardAlpha" operator="out"/>
<feColorMatrix type="matrix" values="0 0 0 0 0 0 0 0 0 0 0 0 0 0 0 0 0 0 0.12 0"/>
<feBlend mode="normal" in2="effect2_dropShadow_752_18712" result="effect3_dropShadow_752_18712"/>
<feBlend mode="normal" in="SourceGraphic" in2="effect3_dropShadow_752_18712" result="shape"/>
</filter>
</defs>
</svg>
