<svg width="41" height="42" viewBox="0 0 41 42" fill="none" xmlns="http://www.w3.org/2000/svg">
<g filter="url(#filter0_ddd_752_18765)">
<path d="M20.585 7.4613C21.1477 7.4991 21.6099 7.9514 21.6328 8.53845H21.6338L21.752 11.347L21.7529 11.3529H21.751C21.7715 11.9682 21.2957 12.496 20.666 12.517H20.6279C20.0275 12.517 19.527 12.0437 19.5029 11.4379L19.3848 8.62927V8.62244C19.3645 8.00736 19.8411 7.48034 20.4707 7.45935L20.585 7.4613Z" fill="#FFCC00" stroke="white" stroke-width="1.5"/>
<path d="M26.5371 9.20947C26.6622 8.60552 27.2496 8.21196 27.8633 8.33447L27.8682 8.33545C28.4724 8.46046 28.8669 9.0478 28.7441 9.66162L28.7432 9.6665C28.5397 10.6476 28.2477 11.6189 27.8594 12.5493L27.8574 12.5552H27.8564C27.6718 12.986 27.2584 13.2359 26.8301 13.2397C26.7697 13.2403 26.7114 13.232 26.6553 13.2192C26.5733 13.2076 26.4843 13.1863 26.3916 13.1479L26.3906 13.1489C26.3886 13.1481 26.3868 13.1468 26.3848 13.146C26.3829 13.1452 26.3808 13.1449 26.3789 13.144L26.3799 13.1431C25.8348 12.9136 25.5315 12.2688 25.7803 11.6821H25.7793C26.1094 10.8834 26.3663 10.0531 26.5371 9.2124V9.20947Z" fill="#FFCC00" stroke="white" stroke-width="1.5"/>
<path d="M15.2158 9.40686C15.0908 8.8029 14.5033 8.40935 13.8896 8.53186L13.8848 8.53284C13.2805 8.65785 12.8861 9.24519 13.0088 9.85901L13.0098 9.86389C13.2133 10.845 13.5053 11.8163 13.8936 12.7467L13.8955 12.7526H13.8965C14.0811 13.1834 14.4945 13.4332 14.9229 13.4371C14.9832 13.4377 15.0415 13.4294 15.0977 13.4166C15.1796 13.405 15.2687 13.3837 15.3613 13.3453L15.3623 13.3463C15.3643 13.3455 15.3662 13.3442 15.3682 13.3434C15.3701 13.3426 15.3721 13.3422 15.374 13.3414L15.373 13.3405C15.9182 13.111 16.2214 12.4662 15.9727 11.8795H15.9736C15.6436 11.0808 15.3866 10.2505 15.2158 9.40979V9.40686Z" fill="#FFCC00" stroke="white" stroke-width="1.5"/>
<path d="M29.6218 26.1066C29.6009 26.4611 29.5801 26.8086 29.5662 27.17C23.811 27.8582 18.0349 27.9346 12.2588 27.3855C12.2171 27.031 12.1823 26.6835 12.1406 26.329C17.9723 26.885 23.811 26.8225 29.6218 26.1066Z" fill="white"/>
<path d="M30.8367 14.7501C30.2506 18.9821 29.8354 22.4515 29.6203 26.1076C29.5995 26.4621 29.5786 26.8096 29.5647 27.1711C29.523 27.9635 29.4952 28.7628 29.4813 29.5691C29.4813 29.8471 21.8911 29.7568 21.1404 29.7289C18.2419 29.6316 15.3504 29.5065 12.4519 29.3467C12.3894 28.6933 12.3268 28.033 12.2573 27.3796C12.2156 27.0251 12.1809 26.6776 12.1392 26.3231C11.9723 24.8565 11.699 23.9112 11.4836 22.4515C11.3098 21.2351 11.2078 19.4905 11.0062 18.281C10.8324 17.2523 9.84717 14.7036 10.2903 15.2575C10.7333 15.8113 10.6656 15.7023 10.8533 15.9317C12.5562 17.9405 14.3495 19.8797 16.2193 21.7356C17.6511 19.5044 18.2611 18.5735 19.5678 16.2589C19.7029 16.0197 20.7343 14.3134 20.7343 14.7036C20.7343 15.0938 23.2698 18.2662 24.69 21.7356C26.6779 18.9344 30.6775 14.9279 30.8437 14.7431C31.0098 14.5583 30.8367 14.7501 30.8367 14.7501Z" fill="#FFCC00" stroke="white" stroke-width="4"/>
<path d="M30.8384 14.7496C30.2524 18.9816 29.8371 22.451 29.6221 26.1071C29.6012 26.4616 29.5804 26.8092 29.5665 27.1706C29.5248 27.963 29.4969 28.7623 29.483 29.5686C29.483 29.8466 21.8928 29.7563 21.1421 29.7285C18.2437 29.6312 15.3521 29.5061 12.4537 29.3462C12.3911 28.6928 12.3286 28.0325 12.259 27.3791C12.2173 27.0246 12.1826 26.6771 12.1409 26.3226C11.9741 24.856 11.7008 23.9107 11.4853 22.451C11.3115 21.2347 11.2095 19.49 11.0079 18.2806C10.8342 17.2519 10.292 17.036 10.292 15.257C10.4727 15.4864 11.6053 16.4178 11.793 16.6471C13.4959 18.6559 14.3512 19.8793 16.221 21.7351C17.6528 19.5039 18.9943 17.1893 20.3011 14.8747C19.9584 15.4802 20.461 14.6662 20.461 14.5967C21.8164 17.1407 23.2716 18.2657 24.6917 21.7351C26.6797 18.9339 28.3084 17.0572 30.8454 14.7426L30.8384 14.7496Z" fill="#FFCC00"/>
</g>
<defs>
<filter id="filter0_ddd_752_18765" x="-3.75" y="-2" width="48" height="48" filterUnits="userSpaceOnUse" color-interpolation-filters="sRGB">
<feFlood flood-opacity="0" result="BackgroundImageFix"/>
<feColorMatrix in="SourceAlpha" type="matrix" values="0 0 0 0 0 0 0 0 0 0 0 0 0 0 0 0 0 0 127 0" result="hardAlpha"/>
<feOffset/>
<feGaussianBlur stdDeviation="0.5"/>
<feComposite in2="hardAlpha" operator="out"/>
<feColorMatrix type="matrix" values="0 0 0 0 0 0 0 0 0 0 0 0 0 0 0 0 0 0 0.08 0"/>
<feBlend mode="normal" in2="BackgroundImageFix" result="effect1_dropShadow_752_18765"/>
<feColorMatrix in="SourceAlpha" type="matrix" values="0 0 0 0 0 0 0 0 0 0 0 0 0 0 0 0 0 0 127 0" result="hardAlpha"/>
<feOffset dy="1"/>
<feGaussianBlur stdDeviation="2"/>
<feComposite in2="hardAlpha" operator="out"/>
<feColorMatrix type="matrix" values="0 0 0 0 0 0 0 0 0 0 0 0 0 0 0 0 0 0 0.08 0"/>
<feBlend mode="normal" in2="effect1_dropShadow_752_18765" result="effect2_dropShadow_752_18765"/>
<feColorMatrix in="SourceAlpha" type="matrix" values="0 0 0 0 0 0 0 0 0 0 0 0 0 0 0 0 0 0 127 0" result="hardAlpha"/>
<feOffset dy="2"/>
<feGaussianBlur stdDeviation="4"/>
<feComposite in2="hardAlpha" operator="out"/>
<feColorMatrix type="matrix" values="0 0 0 0 0 0 0 0 0 0 0 0 0 0 0 0 0 0 0.12 0"/>
<feBlend mode="normal" in2="effect2_dropShadow_752_18765" result="effect3_dropShadow_752_18765"/>
<feBlend mode="normal" in="SourceGraphic" in2="effect3_dropShadow_752_18765" result="shape"/>
</filter>
</defs>
</svg>
