<svg width="41" height="51" viewBox="0 0 41 51" fill="none" xmlns="http://www.w3.org/2000/svg">
<g filter="url(#filter0_ddd_752_17161)">
<path d="M21.5385 34.0231H19.4311V38.1501H21.5385V34.0231Z" fill="#C0754F"/>
<path d="M20.4052 8.92554C18.5308 10.6865 15.9749 14.7831 14.7632 16.9873C14.5226 17.4253 14.453 17.9827 14.6361 18.4479C14.8191 18.9131 15.4787 19.2006 15.838 18.8526C15.2533 19.7512 14.6686 20.6498 14.0831 21.5484C13.8562 21.8971 13.6248 22.2549 13.5257 22.6596C13.4266 23.0643 13.4811 23.531 13.77 23.8313C14.0589 24.1316 14.6096 24.1769 14.8766 23.8577C14.3955 24.6701 13.9137 25.4833 13.4326 26.2956C13.1876 26.7094 12.9334 27.1799 13.0514 27.6458C13.1694 28.1118 13.885 28.3833 14.1338 27.9726C13.5295 28.9521 12.9251 29.9317 12.3215 30.9112C11.9917 31.446 11.6513 32.0133 11.6316 32.6419C11.6135 33.2236 11.9138 33.8226 12.4289 34.0927C12.944 34.3627 13.6558 34.2387 13.9962 33.7674C13.9583 34.514 14.5075 35.2485 15.2336 35.4247C15.9606 35.6009 16.7843 35.1993 17.0929 34.5185C17.4106 35.2114 18.0868 35.7386 18.8425 35.8362C19.5981 35.9338 20.4052 35.5783 20.8091 34.9315C21.0512 35.4746 21.5822 35.8785 22.1699 35.967C22.7576 36.0555 23.3839 35.8256 23.775 35.3778C23.9036 35.2303 24.1191 34.7651 24.1191 34.7651C24.1191 34.7651 24.5321 35.1055 24.6751 35.1804C25.3218 35.5185 26.1872 35.3695 26.6834 34.8332C26.9935 34.4974 27.349 33.8771 27.349 33.8771C27.349 33.8771 28.1379 34.0254 28.3679 34.0095C28.7196 33.9845 29.001 33.6736 29.0933 33.3332C29.1856 32.9929 29.1266 32.6305 29.0418 32.2879C28.7007 30.9074 27.9481 29.6314 26.9042 28.6662L27.6932 28.9052C28.0335 28.524 27.8891 27.9265 27.6917 27.4552C27.2446 26.3864 26.6206 25.3925 25.8521 24.5257C26.0714 24.9069 26.7242 24.7374 26.9027 24.335C27.0812 23.9326 26.936 23.4659 26.7681 23.0597C26.2401 21.7859 25.4822 20.6075 24.5435 19.5977C24.7288 19.7966 25.3014 19.7179 25.5041 19.5818C26.2235 19.0992 25.582 18.0849 25.3407 17.5032C24.0836 14.4776 22.4316 11.6395 20.5376 8.97016" fill="#00B428"/>
<path d="M19.6979 11.5413C18.7902 12.663 17.9612 13.8468 17.2222 15.0858C17.0142 15.4345 16.8138 15.7877 16.6201 16.144C16.5036 16.3581 16.8304 16.5494 16.9469 16.3346C17.6216 15.0911 18.3841 13.8952 19.2274 12.7591C19.4665 12.4369 19.7131 12.1199 19.9657 11.8075C20.03 11.7281 20.0436 11.6177 19.9657 11.5398C19.8991 11.4732 19.763 11.4596 19.6979 11.5398V11.5413Z" fill="#F3ECE8"/>
<path d="M24.0804 18.8266C24.2559 18.9424 24.4821 18.9416 24.6689 18.8561C24.7619 18.8138 24.8361 18.7412 24.8935 18.658C24.951 18.5748 24.9783 18.4734 24.9896 18.3728C25.0017 18.2608 24.9737 18.1474 24.923 18.0475C24.8784 17.959 24.7468 17.9265 24.6644 17.9795C24.5743 18.0377 24.5486 18.1436 24.5963 18.2382C24.6016 18.248 24.6061 18.2578 24.6099 18.2677L24.591 18.2223C24.6031 18.2525 24.6114 18.2843 24.6167 18.3168L24.6099 18.2677C24.6152 18.3055 24.6152 18.3433 24.6099 18.3811L24.6167 18.3312C24.6114 18.369 24.6016 18.4061 24.5864 18.4416L24.6054 18.3962C24.591 18.4288 24.5736 18.459 24.5517 18.4878L24.5812 18.4492C24.5622 18.4726 24.5411 18.4938 24.5176 18.5127L24.5562 18.4832C24.5297 18.5037 24.501 18.5195 24.4707 18.5332L24.5161 18.5142C24.4798 18.5294 24.4427 18.5392 24.4042 18.5445L24.4541 18.5377C24.4178 18.5415 24.3822 18.5415 24.3459 18.5377L24.3958 18.5445C24.3603 18.5392 24.3255 18.5309 24.2922 18.5173L24.3376 18.5362C24.3149 18.5263 24.293 18.5142 24.2718 18.5006C24.1893 18.4462 24.0592 18.4817 24.0131 18.5687C23.9632 18.6633 23.9927 18.7692 24.0812 18.8274L24.0804 18.8266Z" fill="#F3ECE8"/>
<path d="M14.2149 22.4637C14.1098 22.6475 14.1113 22.8684 14.2021 23.0567C14.2928 23.2451 14.4729 23.348 14.665 23.3737C14.7868 23.3903 14.9002 23.3684 15.0114 23.3185C15.0523 23.3003 15.0871 23.2466 15.0984 23.2058C15.1105 23.1604 15.1052 23.0999 15.0795 23.0598C15.0538 23.0197 15.0145 22.9841 14.9668 22.9728C14.9139 22.9607 14.87 22.9698 14.8208 22.9917L14.8133 22.9955L14.8586 22.9766C14.8238 22.9909 14.7883 23.0008 14.752 23.0061L14.8019 22.9993C14.7648 23.0038 14.7278 23.0038 14.6907 22.9993L14.7406 23.0061C14.7005 23.0008 14.662 22.9902 14.6249 22.975L14.6703 22.994C14.6363 22.9796 14.6037 22.9607 14.5742 22.938L14.6128 22.9675C14.5878 22.9478 14.5659 22.9259 14.5455 22.9009L14.575 22.9395C14.5538 22.9115 14.5364 22.882 14.522 22.8502L14.5409 22.8956C14.5251 22.8578 14.5145 22.8192 14.5084 22.7784L14.5152 22.8283C14.5107 22.7905 14.5107 22.7527 14.5152 22.7148L14.5084 22.7648C14.5137 22.7269 14.5228 22.6906 14.5372 22.6558L14.5183 22.7012C14.5251 22.6853 14.5326 22.6695 14.5417 22.6543C14.5909 22.5689 14.5644 22.4433 14.4736 22.3956C14.3829 22.348 14.2679 22.3722 14.2149 22.4637Z" fill="#F3ECE8"/>
<path d="M16.4817 25.5561C16.3561 25.7823 16.3592 26.0584 16.4779 26.286C16.5967 26.5137 16.841 26.6499 17.0952 26.6665C17.2358 26.6756 17.3796 26.64 17.5021 26.5712C17.5883 26.5228 17.6246 26.3972 17.5702 26.3125C17.5157 26.2278 17.4038 26.193 17.3115 26.2444C17.2986 26.2512 17.2858 26.258 17.2729 26.2641C17.2434 26.2792 17.3168 26.2482 17.2684 26.2656C17.2411 26.2754 17.2132 26.2815 17.1852 26.2875C17.1519 26.2951 17.2351 26.283 17.1821 26.2875C17.1678 26.2891 17.1534 26.2891 17.139 26.2898C17.1141 26.2898 17.0883 26.2853 17.0634 26.2853C17.1216 26.2853 17.0785 26.2868 17.0604 26.283C17.046 26.28 17.0324 26.2762 17.0188 26.2724C17.0051 26.2686 16.9915 26.2633 16.9779 26.2588C16.9469 26.2482 17.0203 26.2792 16.9734 26.2565C16.9507 26.2452 16.9287 26.2331 16.9083 26.2187C16.866 26.19 16.928 26.2376 16.9038 26.2157C16.8932 26.2058 16.8819 26.1968 16.872 26.1869C16.8622 26.1771 16.8524 26.1658 16.8425 26.1552C16.8206 26.131 16.8682 26.193 16.8395 26.1506C16.8251 26.1302 16.8123 26.1083 16.8017 26.0856C16.7782 26.0387 16.81 26.1128 16.7994 26.081C16.7949 26.0674 16.7896 26.0538 16.7858 26.0402C16.7775 26.0122 16.7744 25.9835 16.7669 25.9555C16.782 26.0122 16.7691 25.9699 16.7684 25.9517C16.7684 25.9411 16.7676 25.9298 16.7676 25.9192C16.7676 25.9048 16.7676 25.8904 16.7691 25.8761C16.7729 25.8231 16.7623 25.9063 16.7691 25.873C16.7752 25.845 16.7812 25.8171 16.7903 25.7898C16.807 25.7407 16.7767 25.8148 16.7911 25.7853C16.7979 25.7724 16.8039 25.7596 16.8107 25.7467C16.8584 25.6605 16.835 25.5364 16.7427 25.488C16.6504 25.4396 16.5354 25.4638 16.484 25.5561H16.4817Z" fill="#F3ECE8"/>
<path d="M23.3823 22.0845C23.4073 22.1019 23.3498 22.055 23.3717 22.0754C23.3778 22.0815 23.3838 22.0868 23.3899 22.0928L23.4012 22.1049C23.4004 22.1065 23.3762 22.0686 23.3846 22.083C23.3891 22.0913 23.3952 22.0989 23.4004 22.1072C23.4012 22.1087 23.4118 22.1291 23.4118 22.1291C23.4118 22.1291 23.3959 22.0875 23.4004 22.1027C23.402 22.1065 23.4035 22.1102 23.405 22.114C23.4065 22.1178 23.4186 22.1707 23.4186 22.1707C23.4186 22.1707 23.4141 22.1254 23.4148 22.1412C23.4148 22.1458 23.4156 22.1496 23.4156 22.1541C23.4156 22.1624 23.4163 22.1707 23.4163 22.1798C23.4163 22.1889 23.4163 22.1972 23.4156 22.2055C23.4156 22.2078 23.4141 22.2229 23.4141 22.2229C23.4141 22.2229 23.4224 22.1715 23.4171 22.1987C23.4133 22.2161 23.4103 22.2328 23.4057 22.2502C23.4035 22.2585 23.4004 22.2668 23.3974 22.2751C23.3959 22.2789 23.3944 22.2835 23.3929 22.2872C23.3868 22.3061 23.4156 22.2411 23.3997 22.2706C23.3914 22.2865 23.3838 22.3016 23.374 22.3167C23.3709 22.3213 23.3641 22.3364 23.3588 22.3387C23.3551 22.3402 23.3883 22.3039 23.3747 22.3175C23.3709 22.3213 23.3672 22.3266 23.3634 22.3304C23.3558 22.3387 23.3339 22.3674 23.3225 22.3689C23.318 22.3689 23.3611 22.3432 23.3437 22.3523C23.3399 22.3546 23.3362 22.3576 23.3331 22.3598C23.3218 22.3667 23.3104 22.3735 23.2991 22.3795C23.2847 22.3871 23.2484 22.3969 23.2991 22.3818C23.2885 22.3848 23.2787 22.3894 23.2681 22.3931C23.2454 22.4007 23.2219 22.406 23.1985 22.4105C23.1932 22.4113 23.1871 22.412 23.1818 22.4136C23.1818 22.4136 23.225 22.4098 23.2045 22.4098C23.1917 22.4098 23.1788 22.412 23.1652 22.412C23.141 22.412 23.116 22.412 23.0918 22.4098C23.0487 22.406 23.1228 22.4158 23.0918 22.4098C23.0767 22.4075 23.0616 22.4045 23.0464 22.4015C23.02 22.3954 22.9943 22.3886 22.9685 22.3803C22.9557 22.3757 22.9428 22.3712 22.9307 22.3667C22.9254 22.3644 22.9201 22.3621 22.9148 22.3606C22.9224 22.3629 22.9511 22.3772 22.9285 22.3659C22.9005 22.353 22.874 22.3387 22.8475 22.3235C22.762 22.2736 22.6365 22.3009 22.5888 22.3916C22.5412 22.4824 22.5654 22.5974 22.6569 22.6503C22.902 22.7925 23.203 22.8409 23.4663 22.7191C23.6788 22.6208 23.8172 22.3712 23.793 22.1382C23.7764 21.9801 23.7068 21.85 23.5744 21.7593C23.4927 21.7033 23.3611 21.7411 23.3157 21.8273C23.2651 21.9234 23.2961 22.0263 23.3838 22.086L23.3823 22.0845Z" fill="#F3ECE8"/>
<path d="M22.8725 27.3515C22.9549 27.5625 23.082 27.7841 23.2953 27.8863C23.4164 27.9445 23.5457 27.9672 23.6766 27.9309C23.7915 27.8991 23.8936 27.8303 23.9663 27.7365C24.0502 27.6276 24.0903 27.4763 24.0381 27.3439C24.0192 27.2963 23.9965 27.2577 23.9511 27.2312C23.9103 27.2078 23.8505 27.1972 23.8051 27.2123C23.7159 27.241 23.6342 27.3462 23.6728 27.4453C23.6773 27.4566 23.6803 27.468 23.6834 27.4785C23.6962 27.5186 23.6849 27.4385 23.6819 27.471C23.6796 27.4959 23.6728 27.4944 23.6856 27.4581C23.6826 27.4664 23.6819 27.477 23.6788 27.4861C23.6645 27.5323 23.6962 27.4596 23.6788 27.4861C23.6735 27.4944 23.6682 27.502 23.6637 27.5103C23.6463 27.5406 23.694 27.4785 23.669 27.5035C23.6622 27.5111 23.6554 27.5186 23.6478 27.5254C23.6425 27.53 23.638 27.5345 23.6327 27.5391C23.6176 27.5512 23.6221 27.5481 23.6463 27.5285C23.6372 27.5315 23.6281 27.5413 23.6198 27.5459C23.6107 27.5512 23.6017 27.5557 23.5918 27.561C23.5601 27.5791 23.6312 27.5481 23.5986 27.558C23.585 27.5618 23.5722 27.5663 23.5586 27.5701L23.548 27.5723C23.5275 27.5761 23.5344 27.5754 23.5676 27.5701C23.5586 27.5686 23.5457 27.5716 23.5366 27.5716C23.5298 27.5716 23.4829 27.5693 23.5207 27.5716C23.5586 27.5739 23.5117 27.5678 23.5026 27.5655C23.4935 27.5633 23.4769 27.5527 23.4701 27.5542C23.4958 27.5655 23.5018 27.5678 23.489 27.5618C23.4837 27.5595 23.4784 27.5572 23.4738 27.5542C23.4617 27.5481 23.4504 27.5413 23.439 27.5345C23.4307 27.5292 23.4156 27.5133 23.4058 27.5118L23.4262 27.527C23.4201 27.5224 23.4141 27.5171 23.4088 27.5118C23.3899 27.4952 23.3725 27.477 23.3558 27.4581C23.3521 27.4536 23.3483 27.449 23.3445 27.4445C23.3316 27.4286 23.3347 27.4324 23.3521 27.4551C23.3513 27.4468 23.3354 27.4324 23.3309 27.4264C23.3165 27.4052 23.3021 27.3832 23.2893 27.3605C23.2764 27.3379 23.2643 27.3152 23.253 27.2917C23.2477 27.2811 23.2431 27.2698 23.2378 27.2592C23.2295 27.2403 23.2318 27.2448 23.2431 27.2713C23.2401 27.2637 23.2371 27.2569 23.2348 27.2494C23.2167 27.2017 23.1932 27.1631 23.1478 27.1367C23.107 27.1132 23.0472 27.1026 23.0018 27.1177C22.9126 27.1465 22.8317 27.2516 22.8695 27.3507L22.8725 27.3515Z" fill="#F3ECE8"/>
<path d="M14.7471 31.7018C14.679 32.0422 14.8242 32.4045 15.1253 32.5868C15.4263 32.7691 15.8416 32.7177 16.1064 32.4809C16.1805 32.4144 16.179 32.2797 16.1064 32.2132C16.0277 32.1406 15.918 32.1428 15.8386 32.2132C15.8265 32.2238 15.8038 32.2419 15.8295 32.2222C15.8174 32.2313 15.8045 32.2396 15.7917 32.248C15.766 32.2639 15.7387 32.2782 15.7108 32.2903C15.7516 32.2729 15.7085 32.2903 15.6987 32.2934C15.6843 32.2979 15.6692 32.3024 15.6548 32.3062C15.6404 32.31 15.6253 32.313 15.6102 32.316C15.561 32.3259 15.6495 32.3138 15.5996 32.3176C15.5693 32.3198 15.5383 32.3213 15.508 32.3198C15.4929 32.3198 15.4778 32.3176 15.4627 32.316C15.5103 32.3206 15.4611 32.3145 15.4528 32.313C15.4226 32.3062 15.3946 32.2956 15.3651 32.2873C15.4052 32.2994 15.3636 32.2865 15.3545 32.282C15.3409 32.2752 15.328 32.2676 15.3152 32.2601C15.3023 32.2525 15.2909 32.2442 15.2781 32.2359C15.3046 32.2533 15.2841 32.2412 15.2705 32.2291C15.2486 32.2094 15.2289 32.1882 15.2085 32.1663C15.182 32.1383 15.2251 32.1935 15.2017 32.1587C15.1934 32.1466 15.1851 32.1345 15.1775 32.1216C15.1624 32.0967 15.1487 32.0702 15.1359 32.0437C15.1495 32.0725 15.1397 32.0521 15.1336 32.0339C15.1291 32.0203 15.1245 32.0059 15.1208 31.9915C15.1177 31.9794 15.1147 31.9681 15.1124 31.956C15.1109 31.9499 15.1041 31.9015 15.1071 31.9303C15.1102 31.959 15.1064 31.9099 15.1056 31.9046C15.1056 31.8902 15.1049 31.8751 15.1056 31.8607C15.1064 31.8463 15.1079 31.8312 15.1079 31.8168C15.1094 31.8024 15.1087 31.807 15.1056 31.8304C15.1071 31.8206 15.1087 31.8108 15.1109 31.8017C15.1306 31.7049 15.0829 31.5929 14.9786 31.5687C14.8848 31.5475 14.7668 31.5967 14.7456 31.7011L14.7471 31.7018Z" fill="#F3ECE8"/>
<path d="M24.7607 31.93C24.7364 32.0684 24.7584 32.2076 24.8431 32.3233C24.9278 32.4391 25.0451 32.5238 25.1842 32.5661C25.4717 32.6531 25.7463 32.5003 25.9134 32.2711C25.9989 32.1539 26.0541 32.0087 26.0753 31.8657C26.0829 31.8135 26.0844 31.7674 26.0564 31.7197C26.0337 31.6804 25.9883 31.6433 25.9437 31.6327C25.8537 31.6123 25.7266 31.66 25.7107 31.7651C25.7016 31.8294 25.6842 31.8899 25.6623 31.9504C25.6494 31.9867 25.6789 31.9186 25.6593 31.9557C25.6517 31.9701 25.6449 31.9845 25.6373 31.9988C25.623 32.0245 25.6071 32.0495 25.5904 32.0737C25.5693 32.1055 25.6139 32.0465 25.5821 32.0835C25.5715 32.0956 25.5609 32.107 25.5503 32.1183C25.5413 32.1274 25.5314 32.1365 25.5208 32.1456C25.514 32.1516 25.5072 32.1569 25.5004 32.1622C25.5193 32.1478 25.5231 32.1441 25.5118 32.1524C25.4868 32.1667 25.4634 32.1826 25.4376 32.1955C25.4036 32.2121 25.4739 32.1834 25.427 32.1985C25.4127 32.2031 25.3975 32.2061 25.3824 32.2106C25.3446 32.222 25.421 32.2106 25.3847 32.2106C25.368 32.2106 25.3522 32.2121 25.3355 32.2106H25.3234C25.3022 32.2076 25.3068 32.2083 25.337 32.2121C25.3355 32.2091 25.3068 32.2061 25.3007 32.2046C25.2969 32.2038 25.2531 32.1917 25.2538 32.1894C25.2425 32.1841 25.2319 32.1773 25.2213 32.1705C25.2145 32.166 25.2077 32.1622 25.2009 32.1569C25.1842 32.1448 25.1873 32.1478 25.21 32.1645C25.2062 32.1675 25.1631 32.1198 25.1578 32.1146C25.1449 32.0994 25.1472 32.1025 25.1646 32.1251C25.16 32.1191 25.1555 32.1123 25.151 32.1055C25.1449 32.0956 25.1396 32.0851 25.1336 32.0752C25.1154 32.045 25.1434 32.1161 25.1328 32.0722C25.1305 32.0639 25.1283 32.0389 25.123 32.0329C25.126 32.0624 25.1275 32.0692 25.126 32.054C25.126 32.048 25.1252 32.0427 25.1252 32.0366C25.1252 32.0223 25.1336 31.9701 25.1237 32.0276C25.1404 31.9307 25.098 31.8188 24.9914 31.7946C24.8998 31.7734 24.7765 31.8226 24.7584 31.927L24.7607 31.93Z" fill="#F3ECE8"/>
<path d="M18.4462 29.695C18.4878 29.9892 18.7177 30.2418 18.9976 30.3318C19.2775 30.4219 19.6246 30.3281 19.8266 30.1057C19.8932 30.0323 19.9045 29.9098 19.8266 29.8379C19.754 29.7713 19.6299 29.76 19.5588 29.8379C19.5414 29.8568 19.5225 29.875 19.5036 29.8924C19.4673 29.9257 19.5339 29.8742 19.493 29.9007C19.4824 29.9075 19.4718 29.9151 19.4605 29.9219C19.4492 29.9287 19.4378 29.9347 19.4265 29.9408C19.4219 29.9431 19.3833 29.962 19.4068 29.9514C19.4302 29.9408 19.3909 29.9574 19.3864 29.9589C19.372 29.9642 19.3569 29.9688 19.3417 29.9726C19.3319 29.9756 19.3213 29.9778 19.3115 29.9801C19.3039 29.9816 19.2532 29.9884 19.3001 29.9839C19.2744 29.9869 19.2487 29.9884 19.223 29.9884C19.2101 29.9884 19.1973 29.9884 19.1844 29.9869C19.1632 29.9854 19.1549 29.9824 19.1806 29.9869C19.1526 29.9816 19.1254 29.9756 19.0982 29.9673C19.0861 29.9635 19.074 29.9589 19.0626 29.9544C19.0868 29.9635 19.077 29.9604 19.0596 29.9514C19.0369 29.94 19.015 29.9272 18.9946 29.9128C18.9787 29.9022 18.9704 29.8939 18.99 29.9105C18.9787 29.9007 18.9666 29.8909 18.956 29.8803C18.9371 29.8629 18.9204 29.844 18.9038 29.8251C18.8803 29.7986 18.9121 29.8402 18.9008 29.8213C18.894 29.8107 18.8864 29.8001 18.8796 29.7895C18.866 29.7676 18.8561 29.7449 18.8433 29.7229C18.8637 29.7592 18.8433 29.7214 18.8395 29.7116C18.835 29.6995 18.8319 29.6874 18.8281 29.6753C18.8206 29.6481 18.8153 29.6208 18.8115 29.5936C18.7979 29.4953 18.667 29.4332 18.5785 29.4612C18.4704 29.496 18.4318 29.5891 18.4462 29.695Z" fill="#F3ECE8"/>
<path d="M24.6099 18.2677C24.6061 18.2578 24.6016 18.248 24.5963 18.2382C24.5486 18.1436 24.5743 18.0377 24.6644 17.9795C24.7468 17.9265 24.8784 17.959 24.923 18.0475C24.9737 18.1474 25.0017 18.2609 24.9896 18.3728C24.9783 18.4734 24.951 18.5748 24.8935 18.658C24.8361 18.7412 24.7619 18.8138 24.6689 18.8561C24.4821 18.9416 24.2559 18.9424 24.0804 18.8266L24.0812 18.8274C23.9927 18.7692 23.9632 18.6633 24.0131 18.5687C24.0592 18.4817 24.1893 18.4462 24.2718 18.5006C24.293 18.5142 24.3149 18.5263 24.3376 18.5362L24.2922 18.5173C24.3255 18.5309 24.3603 18.5392 24.3958 18.5445L24.3459 18.5377C24.3822 18.5415 24.4178 18.5415 24.4541 18.5377L24.4042 18.5445C24.4427 18.5392 24.4798 18.5294 24.5161 18.5142L24.4707 18.5332C24.501 18.5195 24.5297 18.5037 24.5562 18.4832L24.5176 18.5127C24.5411 18.4938 24.5622 18.4726 24.5812 18.4492L24.5517 18.4878C24.5736 18.459 24.591 18.4288 24.6054 18.3962L24.5864 18.4416C24.6016 18.4061 24.6114 18.369 24.6167 18.3312L24.6099 18.3811C24.6152 18.3433 24.6152 18.3055 24.6099 18.2677ZM24.6099 18.2677L24.591 18.2223C24.6031 18.2525 24.6114 18.2843 24.6167 18.3168L24.6099 18.2677ZM23.0918 22.4098C23.116 22.412 23.141 22.412 23.1652 22.412C23.1788 22.412 23.1917 22.4098 23.2045 22.4098C23.225 22.4098 23.1818 22.4136 23.1818 22.4136C23.1871 22.412 23.1932 22.4113 23.1985 22.4105C23.2219 22.406 23.2454 22.4007 23.2681 22.3931C23.2787 22.3894 23.2885 22.3848 23.2991 22.3818C23.2484 22.3969 23.2847 22.3871 23.2991 22.3795C23.3104 22.3735 23.3218 22.3667 23.3331 22.3599C23.3362 22.3576 23.3399 22.3546 23.3437 22.3523C23.3611 22.3432 23.318 22.3689 23.3225 22.3689C23.3339 22.3674 23.3558 22.3387 23.3634 22.3304C23.3672 22.3266 23.3709 22.3213 23.3747 22.3175C23.3883 22.3039 23.3551 22.3402 23.3588 22.3387C23.3641 22.3364 23.3709 22.3213 23.374 22.3167C23.3838 22.3016 23.3914 22.2865 23.3997 22.2706C23.4156 22.2411 23.3868 22.3061 23.3929 22.2872C23.3944 22.2835 23.3959 22.2789 23.3974 22.2751C23.4004 22.2668 23.4035 22.2585 23.4057 22.2502C23.4103 22.2328 23.4133 22.2161 23.4171 22.1987C23.4224 22.1715 23.4141 22.2229 23.4141 22.2229C23.4141 22.2229 23.4156 22.2078 23.4156 22.2055C23.4163 22.1972 23.4163 22.1889 23.4163 22.1798C23.4163 22.1707 23.4156 22.1624 23.4156 22.1541C23.4156 22.1496 23.4148 22.1458 23.4148 22.1412C23.4141 22.1254 23.4186 22.1707 23.4186 22.1707C23.4186 22.1707 23.4065 22.1178 23.405 22.114C23.4035 22.1102 23.402 22.1065 23.4004 22.1027C23.3959 22.0875 23.4118 22.1291 23.4118 22.1291C23.4118 22.1291 23.4012 22.1087 23.4004 22.1072C23.3952 22.0989 23.3891 22.0913 23.3846 22.083C23.3762 22.0686 23.4004 22.1065 23.4012 22.1049L23.3899 22.0928C23.3838 22.0868 23.3778 22.0815 23.3717 22.0754C23.3498 22.055 23.4073 22.1019 23.3823 22.0845L23.3838 22.086C23.2961 22.0263 23.2651 21.9234 23.3157 21.8273C23.3611 21.7411 23.4927 21.7033 23.5744 21.7593C23.7068 21.85 23.7764 21.9801 23.793 22.1382C23.8172 22.3712 23.6788 22.6208 23.4663 22.7191C23.203 22.8409 22.902 22.7925 22.6569 22.6503C22.5654 22.5974 22.5412 22.4824 22.5888 22.3916C22.6365 22.3009 22.762 22.2736 22.8475 22.3235C22.874 22.3387 22.9005 22.353 22.9285 22.3659C22.9511 22.3772 22.9224 22.3629 22.9148 22.3606C22.9201 22.3621 22.9254 22.3644 22.9307 22.3667C22.9428 22.3712 22.9557 22.3757 22.9685 22.3803C22.9943 22.3886 23.02 22.3954 23.0464 22.4015C23.0616 22.4045 23.0767 22.4075 23.0918 22.4098ZM23.0918 22.4098C23.0487 22.406 23.1228 22.4158 23.0918 22.4098ZM23.6788 27.4861C23.6819 27.477 23.6826 27.4664 23.6856 27.4581C23.6728 27.4944 23.6796 27.4959 23.6819 27.471C23.6849 27.4385 23.6962 27.5186 23.6834 27.4785C23.6803 27.468 23.6773 27.4566 23.6728 27.4453C23.6342 27.3462 23.7159 27.241 23.8051 27.2123C23.8505 27.1972 23.9103 27.2078 23.9511 27.2312C23.9965 27.2577 24.0192 27.2963 24.0381 27.3439C24.0903 27.4763 24.0502 27.6276 23.9663 27.7365C23.8936 27.8303 23.7915 27.8991 23.6766 27.9309C23.5457 27.9672 23.4164 27.9445 23.2953 27.8863C23.082 27.7841 22.9549 27.5625 22.8725 27.3515L22.8695 27.3507C22.8317 27.2516 22.9126 27.1465 23.0018 27.1177C23.0472 27.1026 23.107 27.1132 23.1478 27.1367C23.1932 27.1631 23.2167 27.2017 23.2348 27.2494C23.2371 27.2569 23.2401 27.2637 23.2431 27.2713C23.2318 27.2448 23.2295 27.2403 23.2378 27.2592C23.2431 27.2698 23.2477 27.2811 23.253 27.2917C23.2643 27.3152 23.2764 27.3379 23.2893 27.3605C23.3021 27.3832 23.3165 27.4052 23.3309 27.4264C23.3354 27.4324 23.3513 27.4468 23.3521 27.4551C23.3347 27.4324 23.3316 27.4286 23.3445 27.4445C23.3483 27.449 23.3521 27.4536 23.3558 27.4581C23.3725 27.477 23.3899 27.4952 23.4088 27.5118C23.4141 27.5171 23.4201 27.5224 23.4262 27.527L23.4058 27.5118C23.4156 27.5133 23.4307 27.5292 23.439 27.5345C23.4504 27.5413 23.4617 27.5481 23.4738 27.5542C23.4784 27.5572 23.4837 27.5595 23.489 27.5618C23.5018 27.5678 23.4958 27.5655 23.4701 27.5542C23.4769 27.5527 23.4935 27.5633 23.5026 27.5655C23.5117 27.5678 23.5586 27.5739 23.5207 27.5716C23.4829 27.5693 23.5298 27.5716 23.5366 27.5716C23.5457 27.5716 23.5586 27.5686 23.5676 27.5701C23.5344 27.5754 23.5275 27.5761 23.548 27.5723L23.5586 27.5701C23.5722 27.5663 23.585 27.5618 23.5986 27.558C23.6312 27.5481 23.5601 27.5791 23.5918 27.561C23.6017 27.5557 23.6107 27.5512 23.6198 27.5459C23.6281 27.5413 23.6372 27.5315 23.6463 27.5285C23.6221 27.5481 23.6176 27.5512 23.6327 27.5391C23.638 27.5345 23.6425 27.53 23.6478 27.5254C23.6554 27.5186 23.6622 27.5111 23.669 27.5035C23.694 27.4785 23.6463 27.5406 23.6637 27.5103C23.6682 27.502 23.6735 27.4944 23.6788 27.4861ZM23.6788 27.4861C23.6645 27.5323 23.6962 27.4596 23.6788 27.4861ZM21.5385 34.0231H19.4311V38.1501H21.5385V34.0231ZM20.4052 8.92554C18.5308 10.6865 15.9749 14.7831 14.7632 16.9873C14.5226 17.4253 14.453 17.9827 14.6361 18.4479C14.8191 18.9131 15.4787 19.2006 15.838 18.8526C15.2533 19.7512 14.6686 20.6498 14.0831 21.5484C13.8562 21.8971 13.6248 22.2549 13.5257 22.6596C13.4266 23.0643 13.4811 23.531 13.77 23.8313C14.0589 24.1316 14.6096 24.1769 14.8766 23.8577C14.3955 24.6701 13.9137 25.4833 13.4326 26.2956C13.1876 26.7094 12.9334 27.1799 13.0514 27.6458C13.1694 28.1118 13.885 28.3833 14.1338 27.9726C13.5295 28.9521 12.9251 29.9317 12.3215 30.9112C11.9917 31.446 11.6513 32.0133 11.6316 32.6419C11.6135 33.2236 11.9138 33.8226 12.4289 34.0927C12.944 34.3627 13.6558 34.2387 13.9962 33.7674C13.9583 34.514 14.5075 35.2485 15.2336 35.4247C15.9606 35.6009 16.7843 35.1993 17.0929 34.5185C17.4106 35.2114 18.0868 35.7386 18.8425 35.8362C19.5981 35.9338 20.4052 35.5783 20.8091 34.9315C21.0512 35.4746 21.5822 35.8785 22.1699 35.967C22.7576 36.0555 23.3839 35.8256 23.775 35.3778C23.9036 35.2303 24.1191 34.7651 24.1191 34.7651C24.1191 34.7651 24.5321 35.1055 24.6751 35.1804C25.3218 35.5185 26.1872 35.3695 26.6834 34.8332C26.9935 34.4974 27.349 33.8771 27.349 33.8771C27.349 33.8771 28.1379 34.0254 28.3679 34.0095C28.7196 33.9845 29.001 33.6736 29.0933 33.3332C29.1856 32.9929 29.1266 32.6305 29.0418 32.2879C28.7007 30.9074 27.9481 29.6314 26.9042 28.6662L27.6932 28.9052C28.0335 28.524 27.8891 27.9265 27.6917 27.4552C27.2446 26.3864 26.6206 25.3925 25.8521 24.5257C26.0714 24.9069 26.7242 24.7374 26.9027 24.335C27.0812 23.9326 26.936 23.4659 26.7681 23.0597C26.2401 21.7859 25.4822 20.6075 24.5435 19.5977C24.7288 19.7966 25.3014 19.7179 25.5041 19.5818C26.2235 19.0992 25.582 18.0849 25.3407 17.5032C24.0836 14.4776 22.4316 11.6395 20.5376 8.97016L20.4052 8.92554ZM19.6979 11.5413C18.7902 12.663 17.9612 13.8468 17.2222 15.0858C17.0142 15.4345 16.8138 15.7877 16.6201 16.144C16.5036 16.3581 16.8304 16.5494 16.9469 16.3346C17.6216 15.0911 18.3841 13.8952 19.2274 12.7591C19.4665 12.4369 19.7131 12.1199 19.9657 11.8075C20.03 11.7281 20.0436 11.6177 19.9657 11.5398C19.8991 11.4732 19.763 11.4596 19.6979 11.5398V11.5413ZM14.2149 22.4637C14.1098 22.6475 14.1113 22.8684 14.2021 23.0567C14.2928 23.2451 14.4729 23.348 14.665 23.3737C14.7868 23.3903 14.9002 23.3684 15.0114 23.3185C15.0523 23.3003 15.0871 23.2466 15.0984 23.2058C15.1105 23.1604 15.1052 23.0999 15.0795 23.0598C15.0538 23.0197 15.0145 22.9841 14.9668 22.9728C14.9139 22.9607 14.87 22.9698 14.8208 22.9917L14.8133 22.9955L14.8586 22.9766C14.8238 22.9909 14.7883 23.0008 14.752 23.0061L14.8019 22.9993C14.7648 23.0038 14.7278 23.0038 14.6907 22.9993L14.7406 23.0061C14.7005 23.0008 14.662 22.9902 14.6249 22.975L14.6703 22.994C14.6363 22.9796 14.6037 22.9607 14.5742 22.938L14.6128 22.9675C14.5878 22.9478 14.5659 22.9259 14.5455 22.9009L14.575 22.9395C14.5538 22.9115 14.5364 22.882 14.522 22.8502L14.5409 22.8956C14.5251 22.8578 14.5145 22.8192 14.5084 22.7784L14.5152 22.8283C14.5107 22.7905 14.5107 22.7527 14.5152 22.7148L14.5084 22.7648C14.5137 22.7269 14.5228 22.6906 14.5372 22.6558L14.5183 22.7012C14.5251 22.6853 14.5326 22.6695 14.5417 22.6543C14.5909 22.5689 14.5644 22.4433 14.4736 22.3956C14.3829 22.348 14.2679 22.3722 14.2149 22.4637ZM16.4817 25.5561C16.3561 25.7823 16.3592 26.0584 16.4779 26.286C16.5967 26.5137 16.841 26.6499 17.0952 26.6665C17.2359 26.6756 17.3796 26.64 17.5021 26.5712C17.5883 26.5228 17.6246 26.3972 17.5702 26.3125C17.5157 26.2278 17.4038 26.193 17.3115 26.2444C17.2986 26.2512 17.2858 26.258 17.2729 26.2641C17.2434 26.2792 17.3168 26.2482 17.2684 26.2656C17.2411 26.2754 17.2132 26.2815 17.1852 26.2875C17.1519 26.2951 17.2351 26.283 17.1821 26.2875C17.1678 26.2891 17.1534 26.2891 17.139 26.2898C17.1141 26.2898 17.0883 26.2853 17.0634 26.2853C17.1216 26.2853 17.0785 26.2868 17.0604 26.283C17.046 26.28 17.0324 26.2762 17.0188 26.2724C17.0051 26.2686 16.9915 26.2633 16.9779 26.2588C16.9469 26.2482 17.0203 26.2792 16.9734 26.2565C16.9507 26.2452 16.9287 26.2331 16.9083 26.2187C16.866 26.19 16.928 26.2376 16.9038 26.2157C16.8932 26.2058 16.8819 26.1968 16.872 26.1869C16.8622 26.1771 16.8524 26.1658 16.8425 26.1552C16.8206 26.131 16.8682 26.193 16.8395 26.1506C16.8251 26.1302 16.8123 26.1083 16.8017 26.0856C16.7782 26.0387 16.81 26.1128 16.7994 26.081C16.7949 26.0674 16.7896 26.0538 16.7858 26.0402C16.7775 26.0122 16.7744 25.9835 16.7669 25.9555C16.782 26.0122 16.7691 25.9699 16.7684 25.9517C16.7684 25.9411 16.7676 25.9298 16.7676 25.9192C16.7676 25.9048 16.7676 25.8904 16.7691 25.8761C16.7729 25.8231 16.7623 25.9063 16.7691 25.873C16.7752 25.845 16.7813 25.8171 16.7903 25.7898C16.807 25.7407 16.7767 25.8148 16.7911 25.7853C16.7979 25.7724 16.8039 25.7596 16.8107 25.7467C16.8584 25.6605 16.835 25.5364 16.7427 25.488C16.6504 25.4396 16.5354 25.4638 16.484 25.5561H16.4817ZM14.7471 31.7018C14.679 32.0422 14.8242 32.4045 15.1253 32.5868C15.4263 32.7691 15.8416 32.7177 16.1064 32.4809C16.1805 32.4144 16.179 32.2797 16.1064 32.2132C16.0277 32.1406 15.918 32.1428 15.8386 32.2132C15.8265 32.2238 15.8038 32.2419 15.8295 32.2222C15.8174 32.2313 15.8045 32.2396 15.7917 32.248C15.766 32.2639 15.7387 32.2782 15.7108 32.2903C15.7516 32.2729 15.7085 32.2903 15.6987 32.2934C15.6843 32.2979 15.6692 32.3024 15.6548 32.3062C15.6404 32.31 15.6253 32.313 15.6102 32.316C15.561 32.3259 15.6495 32.3138 15.5996 32.3176C15.5693 32.3198 15.5383 32.3213 15.508 32.3198C15.4929 32.3198 15.4778 32.3176 15.4627 32.316C15.5103 32.3206 15.4611 32.3145 15.4528 32.313C15.4226 32.3062 15.3946 32.2956 15.3651 32.2873C15.4052 32.2994 15.3636 32.2865 15.3545 32.282C15.3409 32.2752 15.328 32.2676 15.3152 32.2601C15.3023 32.2525 15.2909 32.2442 15.2781 32.2359C15.3046 32.2533 15.2841 32.2412 15.2705 32.2291C15.2486 32.2094 15.2289 32.1882 15.2085 32.1663C15.182 32.1383 15.2251 32.1935 15.2017 32.1587C15.1934 32.1466 15.1851 32.1345 15.1775 32.1216C15.1624 32.0967 15.1487 32.0702 15.1359 32.0437C15.1495 32.0725 15.1397 32.0521 15.1336 32.0339C15.1291 32.0203 15.1245 32.0059 15.1208 31.9915C15.1177 31.9794 15.1147 31.9681 15.1124 31.956C15.1109 31.9499 15.1041 31.9015 15.1071 31.9303C15.1102 31.959 15.1064 31.9099 15.1056 31.9046C15.1056 31.8902 15.1049 31.8751 15.1056 31.8607C15.1064 31.8463 15.1079 31.8312 15.1079 31.8168C15.1094 31.8024 15.1087 31.807 15.1056 31.8304C15.1071 31.8206 15.1087 31.8108 15.1109 31.8017C15.1306 31.7049 15.0829 31.5929 14.9786 31.5687C14.8848 31.5475 14.7668 31.5967 14.7456 31.7011L14.7471 31.7018ZM24.7607 31.93C24.7364 32.0684 24.7584 32.2076 24.8431 32.3233C24.9278 32.4391 25.0451 32.5238 25.1842 32.5661C25.4717 32.6531 25.7463 32.5003 25.9134 32.2711C25.9989 32.1539 26.0541 32.0087 26.0753 31.8657C26.0829 31.8135 26.0844 31.7674 26.0564 31.7197C26.0337 31.6804 25.9883 31.6433 25.9437 31.6327C25.8537 31.6123 25.7266 31.66 25.7107 31.7651C25.7016 31.8294 25.6842 31.8899 25.6623 31.9504C25.6494 31.9867 25.6789 31.9186 25.6593 31.9557C25.6517 31.9701 25.6449 31.9845 25.6373 31.9988C25.623 32.0245 25.6071 32.0495 25.5904 32.0737C25.5693 32.1055 25.6139 32.0465 25.5821 32.0835C25.5715 32.0956 25.5609 32.107 25.5503 32.1183C25.5413 32.1274 25.5314 32.1365 25.5208 32.1456C25.514 32.1516 25.5072 32.1569 25.5004 32.1622C25.5193 32.1478 25.5231 32.1441 25.5118 32.1524C25.4868 32.1667 25.4634 32.1826 25.4376 32.1955C25.4036 32.2121 25.4739 32.1834 25.427 32.1985C25.4127 32.2031 25.3975 32.2061 25.3824 32.2106C25.3446 32.222 25.421 32.2106 25.3847 32.2106C25.368 32.2106 25.3522 32.2121 25.3355 32.2106H25.3234C25.3022 32.2076 25.3068 32.2083 25.337 32.2121C25.3355 32.2091 25.3068 32.2061 25.3007 32.2046C25.2969 32.2038 25.2531 32.1917 25.2538 32.1894C25.2425 32.1841 25.2319 32.1773 25.2213 32.1705C25.2145 32.166 25.2077 32.1622 25.2009 32.1569C25.1842 32.1448 25.1873 32.1478 25.21 32.1645C25.2062 32.1675 25.1631 32.1198 25.1578 32.1146C25.1449 32.0994 25.1472 32.1025 25.1646 32.1251C25.16 32.1191 25.1555 32.1123 25.151 32.1055C25.1449 32.0956 25.1396 32.0851 25.1336 32.0752C25.1154 32.045 25.1434 32.1161 25.1328 32.0722C25.1305 32.0639 25.1283 32.0389 25.123 32.0329C25.126 32.0624 25.1275 32.0692 25.126 32.054C25.126 32.048 25.1252 32.0427 25.1252 32.0366C25.1252 32.0223 25.1336 31.9701 25.1237 32.0276C25.1404 31.9307 25.098 31.8188 24.9914 31.7946C24.8998 31.7734 24.7765 31.8226 24.7584 31.927L24.7607 31.93ZM18.4462 29.695C18.4878 29.9892 18.7177 30.2418 18.9976 30.3318C19.2775 30.4219 19.6246 30.3281 19.8266 30.1057C19.8932 30.0323 19.9045 29.9098 19.8266 29.8379C19.754 29.7713 19.6299 29.76 19.5588 29.8379C19.5414 29.8568 19.5225 29.875 19.5036 29.8924C19.4673 29.9257 19.5339 29.8742 19.493 29.9007C19.4824 29.9075 19.4718 29.9151 19.4605 29.9219C19.4492 29.9287 19.4378 29.9347 19.4265 29.9408C19.4219 29.9431 19.3833 29.962 19.4068 29.9514C19.4302 29.9408 19.3909 29.9574 19.3864 29.9589C19.372 29.9642 19.3569 29.9688 19.3417 29.9726C19.3319 29.9756 19.3213 29.9778 19.3115 29.9801C19.3039 29.9816 19.2532 29.9884 19.3001 29.9839C19.2744 29.9869 19.2487 29.9884 19.223 29.9884C19.2101 29.9884 19.1973 29.9884 19.1844 29.9869C19.1632 29.9854 19.1549 29.9824 19.1806 29.9869C19.1526 29.9816 19.1254 29.9756 19.0982 29.9673C19.0861 29.9635 19.074 29.9589 19.0626 29.9544C19.0868 29.9635 19.077 29.9605 19.0596 29.9514C19.0369 29.94 19.015 29.9272 18.9946 29.9128C18.9787 29.9022 18.9704 29.8939 18.99 29.9105C18.9787 29.9007 18.9666 29.8909 18.956 29.8803C18.9371 29.8629 18.9204 29.844 18.9038 29.8251C18.8803 29.7986 18.9121 29.8402 18.9008 29.8213C18.894 29.8107 18.8864 29.8001 18.8796 29.7895C18.866 29.7676 18.8561 29.7449 18.8433 29.7229C18.8637 29.7592 18.8433 29.7214 18.8395 29.7116C18.835 29.6995 18.8319 29.6874 18.8281 29.6753C18.8206 29.6481 18.8153 29.6208 18.8115 29.5936C18.7979 29.4953 18.667 29.4332 18.5785 29.4612C18.4704 29.496 18.4318 29.5891 18.4462 29.695Z" stroke="white" stroke-width="4.30727"/>
<path d="M21.538 34.0211L19.4307 34.0211L19.4307 38.1481L21.538 38.1481L21.538 34.0211Z" fill="#C0754F"/>
<path d="M20.4042 8.92407C18.5298 10.685 15.9739 14.7817 14.7622 16.9858C14.5216 17.4238 14.4521 17.9813 14.6351 18.4465C14.8182 18.9117 15.4777 19.1991 15.837 18.8511C15.2523 19.7498 14.6676 20.6484 14.0822 21.547C13.8553 21.8957 13.6238 22.2535 13.5247 22.6581C13.4256 23.0628 13.4801 23.5295 13.769 23.8298C14.058 24.1301 14.6086 24.1755 14.8756 23.8563C14.3946 24.6687 13.9127 25.4818 13.4317 26.2942C13.1866 26.7079 12.9324 27.1784 13.0504 27.6444C13.1684 28.1103 13.884 28.3819 14.1329 27.9711C13.5285 28.9507 12.9241 29.9302 12.3205 30.9098C11.9907 31.4445 11.6503 32.0119 11.6307 32.6404C11.6125 33.2221 11.9128 33.8212 12.4279 34.0912C12.943 34.3612 13.6548 34.2372 13.9952 33.766C13.9574 34.5125 14.5065 35.247 15.2327 35.4232C15.9596 35.5995 16.7833 35.1978 17.0919 34.5171C17.4096 35.2099 18.0858 35.7371 18.8415 35.8347C19.5971 35.9323 20.4042 35.5768 20.8081 34.9301C21.0502 35.4732 21.5812 35.8771 22.1689 35.9656C22.7566 36.0541 23.3829 35.8241 23.774 35.3763C23.9026 35.2288 24.1182 34.7637 24.1182 34.7637C24.1182 34.7637 24.5312 35.104 24.6741 35.1789C25.3209 35.517 26.1862 35.368 26.6824 34.8317C26.9925 34.4959 27.348 33.8756 27.348 33.8756C27.348 33.8756 28.137 34.0239 28.3669 34.008C28.7186 33.983 29 33.6722 29.0923 33.3318C29.1846 32.9914 29.1256 32.6291 29.0409 32.2864C28.6997 30.906 27.9471 29.6299 26.9033 28.6648L27.6922 28.9038C28.0326 28.5225 27.8881 27.925 27.6907 27.4537C27.2436 26.3849 26.6196 25.391 25.8511 24.5242C26.0705 24.9054 26.7232 24.736 26.9017 24.3336C27.0803 23.9312 26.935 23.4645 26.7671 23.0583C26.2391 21.7845 25.4812 20.606 24.5425 19.5962C24.7278 19.7951 25.3004 19.7165 25.5031 19.5803C26.2225 19.0977 25.5811 18.0834 25.3398 17.5017C24.0826 14.4761 22.4306 11.6381 20.5366 8.9687" fill="#00B428"/>
<path d="M19.6973 11.5399C18.7896 12.6617 17.9605 13.8455 17.2215 15.0845C17.0135 15.4332 16.8131 15.7864 16.6194 16.1427C16.503 16.3567 16.8297 16.5481 16.9462 16.3333C17.6209 15.0897 18.3834 13.8939 19.2268 12.7577C19.4658 12.4355 19.7124 12.1186 19.965 11.8062C20.0293 11.7268 20.0429 11.6163 19.965 11.5384C19.8985 11.4719 19.7623 11.4582 19.6973 11.5384L19.6973 11.5399Z" fill="#F3ECE8"/>
<path d="M24.0798 18.8254C24.2553 18.9411 24.4815 18.9403 24.6683 18.8549C24.7613 18.8125 24.8355 18.7399 24.8929 18.6567C24.9504 18.5735 24.9777 18.4721 24.989 18.3715C25.0011 18.2596 24.9731 18.1461 24.9224 18.0463C24.8778 17.9578 24.7462 17.9252 24.6638 17.9782C24.5737 18.0364 24.548 18.1423 24.5957 18.2369C24.601 18.2467 24.6055 18.2566 24.6093 18.2664L24.5904 18.221C24.6025 18.2513 24.6108 18.283 24.6161 18.3155L24.6093 18.2656C24.6146 18.3034 24.6146 18.342 24.6093 18.3798L24.6161 18.3299C24.6108 18.3677 24.601 18.4048 24.5858 18.4404L24.6048 18.395C24.5904 18.4275 24.573 18.4578 24.5511 18.4865L24.5806 18.4479C24.5616 18.4714 24.5405 18.4925 24.517 18.5115L24.5556 18.482C24.5291 18.5024 24.5004 18.5183 24.4701 18.5319L24.5155 18.513C24.4792 18.5281 24.4421 18.5379 24.4036 18.5432L24.4535 18.5364C24.4172 18.5402 24.3816 18.5402 24.3453 18.5364L24.3952 18.5432C24.3597 18.5379 24.3249 18.5296 24.2916 18.516L24.337 18.5349C24.3143 18.5251 24.2924 18.513 24.2712 18.4994C24.1887 18.4449 24.0586 18.4804 24.0125 18.5674C23.9626 18.662 23.9921 18.7679 24.0806 18.8261L24.0798 18.8254Z" fill="#F3ECE8"/>
<path d="M14.2147 22.4624C14.1096 22.6462 14.1111 22.8671 14.2019 23.0555C14.2926 23.2438 14.4727 23.3467 14.6648 23.3724C14.7866 23.389 14.9 23.3671 15.0112 23.3172C15.0521 23.299 15.0869 23.2453 15.0982 23.2045C15.1103 23.1591 15.105 23.0986 15.0793 23.0585C15.0536 23.0184 15.0142 22.9828 14.9666 22.9715C14.9136 22.9594 14.8698 22.9685 14.8206 22.9904L14.813 22.9942L14.8584 22.9753C14.8236 22.9896 14.7881 22.9995 14.7518 23.0048L14.8017 22.998C14.7646 23.0025 14.7276 23.0025 14.6905 22.998L14.7404 23.0048C14.7003 22.9995 14.6618 22.9889 14.6247 22.9738L14.6701 22.9927C14.636 22.9783 14.6035 22.9594 14.574 22.9367L14.6126 22.9662C14.5876 22.9465 14.5657 22.9246 14.5453 22.8996L14.5748 22.9382C14.5536 22.9102 14.5362 22.8807 14.5218 22.849L14.5407 22.8943C14.5248 22.8565 14.5143 22.8179 14.5082 22.7771L14.515 22.827C14.5105 22.7892 14.5105 22.7514 14.515 22.7136L14.5082 22.7635C14.5135 22.7257 14.5226 22.6894 14.537 22.6546L14.518 22.6999C14.5248 22.6841 14.5324 22.6682 14.5415 22.653C14.5907 22.5676 14.5642 22.442 14.4734 22.3944C14.3826 22.3467 14.2677 22.3709 14.2147 22.4624Z" fill="#F3ECE8"/>
<path d="M22.8719 27.3521C22.9544 27.5631 23.0815 27.7848 23.2948 27.8869C23.4158 27.9451 23.5451 27.9678 23.676 27.9315C23.791 27.8997 23.8931 27.8309 23.9657 27.7371C24.0497 27.6282 24.0898 27.4769 24.0376 27.3445C24.0187 27.2969 23.996 27.2583 23.9506 27.2318C23.9097 27.2084 23.85 27.1978 23.8046 27.2129C23.7153 27.2417 23.6336 27.3468 23.6722 27.4459C23.6768 27.4572 23.6798 27.4686 23.6828 27.4792C23.6957 27.5193 23.6843 27.4391 23.6813 27.4716C23.679 27.4966 23.6722 27.4951 23.6851 27.4588C23.682 27.4671 23.6813 27.4777 23.6783 27.4867C23.6639 27.5329 23.6957 27.4595 23.6783 27.486C23.673 27.4943 23.6677 27.5026 23.6631 27.5109C23.6457 27.5412 23.6934 27.4792 23.6684 27.5041C23.6616 27.5117 23.6548 27.5193 23.6473 27.5261C23.642 27.5306 23.6374 27.5352 23.6321 27.5397C23.617 27.5518 23.6215 27.5488 23.6457 27.5291C23.6367 27.5321 23.6276 27.542 23.6193 27.5465C23.6102 27.5518 23.6011 27.5563 23.5913 27.5616C23.5595 27.5798 23.6306 27.5488 23.5981 27.5586C23.5845 27.5624 23.5716 27.5669 23.558 27.5707L23.5474 27.573C23.527 27.5768 23.5338 27.576 23.5671 27.5707C23.558 27.5692 23.5451 27.5722 23.5361 27.5722C23.5293 27.5722 23.4824 27.5699 23.5202 27.5722C23.558 27.5745 23.5111 27.5684 23.502 27.5662C23.4929 27.5639 23.4763 27.5533 23.4695 27.5548C23.4952 27.5662 23.5013 27.5684 23.4884 27.5624C23.4831 27.5601 23.4778 27.5578 23.4733 27.5548C23.4612 27.5488 23.4498 27.542 23.4385 27.5352C23.4302 27.5299 23.415 27.514 23.4052 27.5125L23.4256 27.5276C23.4196 27.523 23.4135 27.5178 23.4082 27.5125C23.3893 27.4958 23.3719 27.4777 23.3553 27.4588C23.3515 27.4542 23.3477 27.4497 23.3439 27.4451C23.3311 27.4293 23.3341 27.433 23.3515 27.4557C23.3507 27.4474 23.3349 27.433 23.3303 27.427C23.3159 27.4058 23.3016 27.3839 23.2887 27.3612C23.2759 27.3385 23.2638 27.3158 23.2524 27.2923C23.2471 27.2818 23.2426 27.2704 23.2373 27.2598C23.229 27.2409 23.2312 27.2454 23.2426 27.2719C23.2396 27.2644 23.2365 27.2575 23.2343 27.25C23.2161 27.2023 23.1927 27.1638 23.1473 27.1373C23.1064 27.1138 23.0467 27.1032 23.0013 27.1184C22.912 27.1471 22.8311 27.2523 22.8689 27.3513L22.8719 27.3521Z" fill="#F3ECE8"/>
<path d="M14.747 31.7006C14.6789 32.041 14.8242 32.4033 15.1252 32.5856C15.4263 32.7679 15.8415 32.7164 16.1063 32.4797C16.1804 32.4131 16.1789 32.2785 16.1063 32.2119C16.0276 32.1393 15.9179 32.1416 15.8385 32.2119C15.8264 32.2225 15.8037 32.2407 15.8294 32.221C15.8173 32.2301 15.8045 32.2384 15.7916 32.2467C15.7659 32.2626 15.7387 32.277 15.7107 32.2891C15.7515 32.2717 15.7084 32.2891 15.6986 32.2921C15.6842 32.2966 15.6691 32.3012 15.6547 32.305C15.6403 32.3087 15.6252 32.3118 15.6101 32.3148C15.5609 32.3246 15.6494 32.3125 15.5995 32.3163C15.5692 32.3186 15.5382 32.3201 15.5079 32.3186C15.4928 32.3186 15.4777 32.3163 15.4626 32.3148C15.5102 32.3193 15.4611 32.3133 15.4527 32.3118C15.4225 32.305 15.3945 32.2944 15.365 32.286C15.4051 32.2981 15.3635 32.2853 15.3544 32.2807C15.3408 32.2739 15.3279 32.2664 15.3151 32.2588C15.3022 32.2512 15.2909 32.2429 15.278 32.2346C15.3045 32.252 15.2841 32.2399 15.2704 32.2278C15.2485 32.2081 15.2288 32.187 15.2084 32.165C15.1819 32.137 15.2251 32.1923 15.2016 32.1575C15.1933 32.1454 15.185 32.1333 15.1774 32.1204C15.1623 32.0954 15.1487 32.069 15.1358 32.0425C15.1494 32.0712 15.1396 32.0508 15.1335 32.0326C15.129 32.019 15.1245 32.0047 15.1207 31.9903C15.1176 31.9782 15.1146 31.9668 15.1123 31.9547C15.1108 31.9487 15.104 31.9003 15.1071 31.929C15.1101 31.9578 15.1063 31.9086 15.1055 31.9033C15.1055 31.8889 15.1048 31.8738 15.1055 31.8594C15.1063 31.8451 15.1078 31.8299 15.1078 31.8156C15.1093 31.8012 15.1086 31.8057 15.1055 31.8292C15.1071 31.8193 15.1086 31.8095 15.1108 31.8004C15.1305 31.7036 15.0828 31.5917 14.9785 31.5675C14.8847 31.5463 14.7667 31.5954 14.7455 31.6998L14.747 31.7006Z" fill="#F3ECE8"/>
<path d="M24.7602 31.9317C24.736 32.0701 24.7579 32.2093 24.8427 32.325C24.9274 32.4407 25.0446 32.5254 25.1838 32.5678C25.4712 32.6548 25.7458 32.502 25.913 32.2728C25.9985 32.1556 26.0537 32.0103 26.0749 31.8674C26.0824 31.8152 26.0839 31.769 26.0559 31.7214C26.0333 31.682 25.9879 31.645 25.9432 31.6344C25.8532 31.614 25.7261 31.6616 25.7103 31.7668C25.7012 31.8311 25.6838 31.8916 25.6619 31.9521C25.649 31.9884 25.6785 31.9203 25.6588 31.9574C25.6513 31.9718 25.6445 31.9861 25.6369 32.0005C25.6225 32.0262 25.6066 32.0512 25.59 32.0754C25.5688 32.1071 25.6134 32.0481 25.5817 32.0852C25.5711 32.0973 25.5605 32.1087 25.5499 32.12C25.5408 32.1291 25.531 32.1382 25.5204 32.1472C25.5136 32.1533 25.5068 32.1586 25.5 32.1639C25.5189 32.1495 25.5227 32.1457 25.5113 32.154C25.4864 32.1684 25.4629 32.1843 25.4372 32.1972C25.4032 32.2138 25.4735 32.1851 25.4266 32.2002C25.4122 32.2047 25.3971 32.2077 25.382 32.2123C25.3442 32.2236 25.4206 32.2123 25.3843 32.2123C25.3676 32.2123 25.3517 32.2138 25.3351 32.2123L25.323 32.2123C25.3018 32.2093 25.3063 32.21 25.3366 32.2138C25.3351 32.2108 25.3063 32.2077 25.3003 32.2062C25.2965 32.2055 25.2526 32.1934 25.2534 32.1911C25.2534 32.1911 25.2958 32.2115 25.2534 32.1904C25.242 32.1851 25.2315 32.179 25.2209 32.1722C25.2141 32.1677 25.2073 32.1639 25.2004 32.1586C25.1838 32.1465 25.1868 32.1495 25.2095 32.1661C25.2057 32.1692 25.1626 32.1215 25.1573 32.1162C25.1445 32.1011 25.1467 32.1041 25.1641 32.1268C25.1596 32.1208 25.1551 32.114 25.1505 32.1071C25.1445 32.0973 25.1392 32.0867 25.1331 32.0769C25.115 32.0466 25.143 32.1177 25.1324 32.0739C25.1301 32.0655 25.1278 32.0406 25.1225 32.0345C25.1256 32.064 25.1271 32.0708 25.1256 32.0557C25.1256 32.0497 25.1248 32.0444 25.1248 32.0383C25.1248 32.0239 25.1331 31.9717 25.1233 32.0292C25.1399 31.9324 25.0976 31.8205 24.9909 31.7963C24.8994 31.7751 24.7761 31.8243 24.7579 31.9286L24.7602 31.9317Z" fill="#F3ECE8"/>
</g>
<defs>
<filter id="filter0_ddd_752_17161" x="-3.75" y="0.472656" width="48" height="49.8311" filterUnits="userSpaceOnUse" color-interpolation-filters="sRGB">
<feFlood flood-opacity="0" result="BackgroundImageFix"/>
<feColorMatrix in="SourceAlpha" type="matrix" values="0 0 0 0 0 0 0 0 0 0 0 0 0 0 0 0 0 0 127 0" result="hardAlpha"/>
<feOffset/>
<feGaussianBlur stdDeviation="0.5"/>
<feComposite in2="hardAlpha" operator="out"/>
<feColorMatrix type="matrix" values="0 0 0 0 0 0 0 0 0 0 0 0 0 0 0 0 0 0 0.08 0"/>
<feBlend mode="normal" in2="BackgroundImageFix" result="effect1_dropShadow_752_17161"/>
<feColorMatrix in="SourceAlpha" type="matrix" values="0 0 0 0 0 0 0 0 0 0 0 0 0 0 0 0 0 0 127 0" result="hardAlpha"/>
<feOffset dy="1"/>
<feGaussianBlur stdDeviation="2"/>
<feComposite in2="hardAlpha" operator="out"/>
<feColorMatrix type="matrix" values="0 0 0 0 0 0 0 0 0 0 0 0 0 0 0 0 0 0 0.08 0"/>
<feBlend mode="normal" in2="effect1_dropShadow_752_17161" result="effect2_dropShadow_752_17161"/>
<feColorMatrix in="SourceAlpha" type="matrix" values="0 0 0 0 0 0 0 0 0 0 0 0 0 0 0 0 0 0 127 0" result="hardAlpha"/>
<feOffset dy="2"/>
<feGaussianBlur stdDeviation="4"/>
<feComposite in2="hardAlpha" operator="out"/>
<feColorMatrix type="matrix" values="0 0 0 0 0 0 0 0 0 0 0 0 0 0 0 0 0 0 0.12 0"/>
<feBlend mode="normal" in2="effect2_dropShadow_752_17161" result="effect3_dropShadow_752_17161"/>
<feBlend mode="normal" in="SourceGraphic" in2="effect3_dropShadow_752_17161" result="shape"/>
</filter>
</defs>
</svg>
