<svg width="41" height="43" viewBox="0 0 41 43" fill="none" xmlns="http://www.w3.org/2000/svg">
<g filter="url(#filter0_ddd_752_18657)">
<path d="M12.4211 14.0385C12.4211 14.0385 11.897 15.3253 11.7126 15.9233L11.2402 17.926V19.6931L11.5945 21.2246L12.1849 22.756L12.7753 23.8163L14.0742 25.4655L15.2551 26.408L15.9636 26.7614L17.2625 27.3504L19.1518 27.7038H20.9231L23.0486 27.3504L24.9379 26.408L26.473 25.3477L27.5358 24.2875L28.3624 23.1094L28.9528 21.8136L29.4251 20.5177L29.6613 18.9863V17.926L29.4251 16.748L28.7166 14.7453L28.0081 13.6851L27.0634 12.6248L26.1188 11.5646L24.7018 10.6221L23.0486 10.0331L21.5135 9.56189H20.9231H19.7423H18.7976L17.2625 10.0331L16.554 10.2687L15.0189 11.2112L14.3104 11.8002L13.6019 12.3892L13.1296 13.096L12.4211 14.0385Z" fill="#FFFBCA" stroke="white" stroke-width="4.45577"/>
<path d="M28.7733 16.8201C28.1677 16.8285 27.6095 17.0686 27.2829 17.423C27.0373 17.0769 26.5377 16.8481 25.9292 16.8564C25.3236 16.8648 24.7793 17.1048 24.4695 17.4593C24.2044 17.1132 23.6908 16.8843 23.0851 16.8927C22.4795 16.9011 21.9464 17.1411 21.6589 17.4956C21.3742 17.1495 20.8467 16.9234 20.241 16.929C19.6354 16.9374 19.1162 17.1774 18.8483 17.5319C18.5441 17.1858 18.0026 16.9597 17.3969 16.9653C16.7913 16.9737 16.2861 17.2137 16.0377 17.5654C15.7139 17.2221 15.1585 16.9932 14.5528 17.0016C13.9472 17.0099 13.456 17.25 13.2271 17.6016C12.8838 17.2583 12.3144 17.0295 11.7088 17.0378C11.2873 17.0434 10.9328 17.1634 10.6816 17.3504L10.9884 19.6911L11.3371 21.0858L11.6858 22.8292L12.088 24.2239L12.3832 25.9673L12.9487 27.913L13.376 29.9042L13.5397 30.6666H16.6824H20.241L24.3579 30.5662L27.5648 30.488L28.4224 27.0134L29.1198 23.1779L29.4685 20.0398L29.8172 17.2503C29.5576 17.0689 29.1948 16.8146 28.7761 16.8201H28.7733Z" fill="#F3ACB2"/>
<path d="M11.6858 22.8292L11.3371 21.0858L10.9884 19.6911L10.6816 17.3504C10.9328 17.1634 11.2873 17.0434 11.7088 17.0378C12.3144 17.0295 12.8838 17.2583 13.2271 17.6016C13.456 17.25 13.9472 17.0099 14.5528 17.0016C15.1585 16.9932 15.7139 17.2221 16.0377 17.5654C16.2861 17.2137 16.7913 16.9737 17.3969 16.9653C18.0026 16.9597 18.5441 17.1858 18.8483 17.5319C19.1162 17.1774 19.6354 16.9374 20.241 16.929C20.8467 16.9234 21.3742 17.1495 21.6589 17.4956C21.9464 17.1411 22.4795 16.9011 23.0851 16.8927C23.6908 16.8843 24.2044 17.1132 24.4695 17.4593C24.7793 17.1048 25.3236 16.8648 25.9292 16.8564C26.5377 16.8481 27.0373 17.0769 27.2829 17.423C27.6095 17.0686 28.1677 16.8285 28.7733 16.8201H28.7761C29.1948 16.8146 29.5576 17.0689 29.8172 17.2503L29.4685 20.0398L29.1198 23.1779L28.4224 27.0134L27.5648 30.488L24.3579 30.5662M11.6858 22.8292L12.088 24.2239L12.3832 25.9673M11.6858 22.8292L12.3832 25.9673M12.3832 25.9673L12.9487 27.913L13.376 29.9042L13.5397 30.6666H16.6824M16.6824 30.6666H20.241L24.3579 30.5662M16.6824 30.6666C19.1014 30.6366 24.0229 30.5744 24.3579 30.5662" stroke="white" stroke-width="4.45577"/>
<path d="M21.0515 9.61526C21.0515 9.61526 20.9086 9.9518 20.8583 10.1082L20.7295 10.632V11.0942L20.8261 11.4947L20.9871 11.8952L21.1482 12.1725L21.5024 12.6039L21.8244 12.8504L22.0177 12.9428L22.3719 13.0968L22.8872 13.1893H23.3703L23.95 13.0968L24.4652 12.8504L24.8839 12.5731L25.1737 12.2958L25.3992 11.9877L25.5602 11.6487L25.689 11.3098L25.7534 10.9093V10.632L25.689 10.3239L25.4958 9.80012L25.3025 9.52282L25.0449 9.24553L24.7873 8.96824L24.4008 8.72175L23.95 8.5677L23.5313 8.44446H23.3703H23.0482H22.7906L22.3719 8.5677L22.1787 8.62932L21.76 8.8758L21.5668 9.02986L21.3736 9.18391L21.2448 9.36877L21.0515 9.61526Z" fill="#F72B3E" stroke="white" stroke-width="4.45577"/>
<path d="M15.4521 15.7436C15.4521 15.8664 15.3544 15.9669 15.2316 15.9696L14.1626 15.9836C14.0398 15.9836 13.9393 15.8859 13.9365 15.7631C13.9365 15.6403 14.0342 15.5398 14.157 15.537L15.226 15.5231C15.3488 15.5231 15.4493 15.6208 15.4521 15.7436Z" fill="#935A41" stroke="white" stroke-width="4.45577"/>
<path d="M17.8386 12.8555C17.7325 12.9169 17.5958 12.8806 17.5344 12.7745L16.9957 11.8507C16.9343 11.7446 16.9706 11.6079 17.0766 11.5465C17.1827 11.4851 17.3195 11.5214 17.3809 11.6274L17.9195 12.5513C17.9809 12.6573 17.9447 12.7941 17.8386 12.8555Z" fill="#935A41" stroke="white" stroke-width="4.45577"/>
<path d="M19.3849 15.4117C19.491 15.4731 19.5245 15.6099 19.4631 15.7159L18.9188 16.6342C18.8546 16.7403 18.7207 16.7737 18.6146 16.7123C18.5086 16.6509 18.4751 16.5142 18.5365 16.4081L19.0807 15.4899C19.1421 15.3838 19.2789 15.3503 19.3849 15.4117Z" fill="#935A41" stroke="white" stroke-width="4.45577"/>
<path d="M23.8139 16.5362C23.7106 16.6032 23.5738 16.5725 23.5068 16.4692L22.9291 15.5705C22.8621 15.4672 22.8928 15.3304 22.9961 15.2634C23.0993 15.1965 23.2361 15.2272 23.3031 15.3304L23.8781 16.2292C23.945 16.3324 23.9143 16.4692 23.8111 16.5362H23.8139Z" fill="#935A41" stroke="white" stroke-width="4.45577"/>
<path d="M27.1106 14.1951C27.1386 14.3151 27.0632 14.4351 26.946 14.463L25.9077 14.7086C25.7877 14.7365 25.6677 14.6612 25.6398 14.5439C25.6118 14.4239 25.6844 14.3039 25.8044 14.276L26.8427 14.0304C26.9627 14.0025 27.0827 14.075 27.1106 14.1951Z" fill="#935A41" stroke="white" stroke-width="4.45577"/>
<path d="M12.4211 14.0385C12.4211 14.0385 11.897 15.3253 11.7126 15.9233L11.2402 17.926V19.6931L11.5945 21.2246L12.1849 22.756L12.7753 23.8163L14.0742 25.4655L15.2551 26.408L15.9636 26.7614L17.2625 27.3504L19.1518 27.7038H20.9231L23.0486 27.3504L24.9379 26.408L26.473 25.3477L27.5358 24.2875L28.3624 23.1094L28.9528 21.8136L29.4251 20.5177L29.6613 18.9863V17.926L29.4251 16.748L28.7166 14.7453L28.0081 13.6851L27.0634 12.6248L26.1188 11.5646L24.7018 10.6221L23.0486 10.0331L21.5135 9.56189H20.9231H19.7423H18.7976L17.2625 10.0331L16.554 10.2687L15.0189 11.2112L14.3104 11.8002L13.6019 12.3892L13.1296 13.096L12.4211 14.0385Z" fill="#FFFBCA"/>
<path d="M28.7733 16.8201C28.1677 16.8285 27.6095 17.0686 27.2829 17.423C27.0373 17.0769 26.5377 16.8481 25.9292 16.8564C25.3236 16.8648 24.7793 17.1048 24.4695 17.4593C24.2044 17.1132 23.6908 16.8843 23.0851 16.8927C22.4795 16.9011 21.9464 17.1411 21.6589 17.4956C21.3742 17.1495 20.8467 16.9234 20.241 16.929C19.6354 16.9374 19.1162 17.1774 18.8483 17.5319C18.5441 17.1858 18.0026 16.9597 17.3969 16.9653C16.7913 16.9737 16.2861 17.2137 16.0377 17.5654C15.7139 17.2221 15.1585 16.9932 14.5528 17.0016C13.9472 17.0099 13.456 17.25 13.2271 17.6016C12.8838 17.2583 12.3144 17.0295 11.7088 17.0378C11.2873 17.0434 10.9328 17.1634 10.6816 17.3504L10.9884 19.6911L11.3371 21.0858L11.6858 22.8292L12.088 24.2239L12.3832 25.9673L12.9487 27.913L13.376 29.9042L13.5397 30.6666H16.6824H20.241L24.3579 30.5662L27.5648 30.488L28.4224 27.0134L29.1198 23.1779L29.4685 20.0398L29.8172 17.2503C29.5576 17.0689 29.1948 16.8146 28.7761 16.8201H28.7733Z" fill="#5AC0F3"/>
<path d="M21.0515 9.61526C21.0515 9.61526 20.9086 9.9518 20.8583 10.1082L20.7295 10.632V11.0942L20.8261 11.4947L20.9871 11.8952L21.1482 12.1725L21.5024 12.6039L21.8244 12.8504L22.0177 12.9428L22.3719 13.0968L22.8872 13.1893H23.3703L23.95 13.0968L24.4652 12.8504L24.8839 12.5731L25.1737 12.2958L25.3992 11.9877L25.5602 11.6487L25.689 11.3098L25.7534 10.9093V10.632L25.689 10.3239L25.4958 9.80012L25.3025 9.52282L25.0449 9.24553L24.7873 8.96824L24.4008 8.72175L23.95 8.5677L23.5313 8.44446H23.3703H23.0482H22.7906L22.3719 8.5677L22.1787 8.62932L21.76 8.8758L21.5668 9.02986L21.3736 9.18391L21.2448 9.36877L21.0515 9.61526Z" fill="#F72B3E"/>
<path d="M15.4521 15.7436C15.4521 15.8664 15.3544 15.9669 15.2316 15.9696L14.1626 15.9836C14.0398 15.9836 13.9393 15.8859 13.9365 15.7631C13.9365 15.6403 14.0342 15.5398 14.157 15.537L15.226 15.5231C15.3488 15.5231 15.4493 15.6208 15.4521 15.7436Z" fill="#935A41"/>
<path d="M17.8386 12.8555C17.7325 12.9169 17.5958 12.8806 17.5344 12.7745L16.9957 11.8507C16.9343 11.7446 16.9706 11.6079 17.0766 11.5465C17.1827 11.4851 17.3195 11.5214 17.3809 11.6274L17.9195 12.5513C17.9809 12.6573 17.9447 12.7941 17.8386 12.8555Z" fill="#935A41"/>
<path d="M19.3849 15.4117C19.491 15.4731 19.5245 15.6099 19.4631 15.7159L18.9188 16.6342C18.8546 16.7403 18.7207 16.7737 18.6146 16.7123C18.5086 16.6509 18.4751 16.5142 18.5365 16.4081L19.0807 15.4899C19.1421 15.3838 19.2789 15.3503 19.3849 15.4117Z" fill="#935A41"/>
<path d="M23.8139 16.5362C23.7106 16.6032 23.5738 16.5725 23.5068 16.4692L22.9291 15.5705C22.8621 15.4672 22.8928 15.3304 22.9961 15.2634C23.0993 15.1965 23.2361 15.2272 23.3031 15.3304L23.8781 16.2292C23.945 16.3324 23.9143 16.4692 23.8111 16.5362H23.8139Z" fill="#935A41"/>
<path d="M27.1106 14.1951C27.1386 14.3151 27.0632 14.4351 26.946 14.463L25.9077 14.7086C25.7877 14.7365 25.6677 14.6612 25.6398 14.5439C25.6118 14.4239 25.6844 14.3039 25.8044 14.276L26.8427 14.0304C26.9627 14.0025 27.0827 14.075 27.1106 14.1951Z" fill="#935A41"/>
<path d="M20.6328 20.3489C20.6328 20.8885 20.6328 21.4281 20.6615 22.3998C20.6901 23.3716 20.7474 24.7591 20.7769 25.595C20.8064 26.4309 20.8064 26.6732 20.8096 26.8641C20.8128 27.055 20.8192 27.1871 20.8257 27.3566" stroke="#E2F4FE" stroke-linecap="round"/>
<path d="M26.3747 20.3489C26.3399 20.6488 26.3052 20.9488 26.1727 21.7595C26.0402 22.5703 25.811 23.8826 25.6513 24.6712C25.4916 25.4598 25.4082 25.6847 25.3618 25.885C25.2774 26.2493 25.2874 26.5154 25.242 26.7229C25.2106 26.843 25.162 26.993 25.1334 27.0952C25.1049 27.1975 25.098 27.2475 25.0908 27.3179" stroke="#E2F4FE" stroke-linecap="round"/>
<path d="M15.127 20.4543C15.1686 20.5932 15.252 20.7806 15.4477 21.8271C15.6434 22.8736 15.949 24.7735 16.1065 25.8146C16.2639 26.8558 16.2639 26.9808 16.2743 27.0796C16.2847 27.1783 16.3056 27.2471 16.327 27.3179" stroke="#E2F4FE" stroke-linecap="round"/>
</g>
<defs>
<filter id="filter0_ddd_752_18657" x="-3.75" y="-2" width="48" height="48" filterUnits="userSpaceOnUse" color-interpolation-filters="sRGB">
<feFlood flood-opacity="0" result="BackgroundImageFix"/>
<feColorMatrix in="SourceAlpha" type="matrix" values="0 0 0 0 0 0 0 0 0 0 0 0 0 0 0 0 0 0 127 0" result="hardAlpha"/>
<feOffset/>
<feGaussianBlur stdDeviation="0.5"/>
<feComposite in2="hardAlpha" operator="out"/>
<feColorMatrix type="matrix" values="0 0 0 0 0 0 0 0 0 0 0 0 0 0 0 0 0 0 0.08 0"/>
<feBlend mode="normal" in2="BackgroundImageFix" result="effect1_dropShadow_752_18657"/>
<feColorMatrix in="SourceAlpha" type="matrix" values="0 0 0 0 0 0 0 0 0 0 0 0 0 0 0 0 0 0 127 0" result="hardAlpha"/>
<feOffset dy="1"/>
<feGaussianBlur stdDeviation="2"/>
<feComposite in2="hardAlpha" operator="out"/>
<feColorMatrix type="matrix" values="0 0 0 0 0 0 0 0 0 0 0 0 0 0 0 0 0 0 0.08 0"/>
<feBlend mode="normal" in2="effect1_dropShadow_752_18657" result="effect2_dropShadow_752_18657"/>
<feColorMatrix in="SourceAlpha" type="matrix" values="0 0 0 0 0 0 0 0 0 0 0 0 0 0 0 0 0 0 127 0" result="hardAlpha"/>
<feOffset dy="2"/>
<feGaussianBlur stdDeviation="4"/>
<feComposite in2="hardAlpha" operator="out"/>
<feColorMatrix type="matrix" values="0 0 0 0 0 0 0 0 0 0 0 0 0 0 0 0 0 0 0.12 0"/>
<feBlend mode="normal" in2="effect2_dropShadow_752_18657" result="effect3_dropShadow_752_18657"/>
<feBlend mode="normal" in="SourceGraphic" in2="effect3_dropShadow_752_18657" result="shape"/>
</filter>
</defs>
</svg>
