<svg width="41" height="48" viewBox="0 0 41 48" fill="none" xmlns="http://www.w3.org/2000/svg">
<g filter="url(#filter0_ddd_752_16554)">
<path d="M21.8898 12.3397L23.0986 10.6201L22.3242 10.0757L21.4034 10.2947L21.8898 12.3397ZM24.0787 13.8784L22.8698 15.598L22.9034 15.6216L22.9378 15.6438L24.0787 13.8784ZM26.1829 15.2381L27.8918 16.462L29.1756 14.6694L27.3237 13.4727L26.1829 15.2381ZM23.8515 18.4935L22.1425 17.2697L22.0686 17.373L22.0076 17.4844L23.8515 18.4935ZM22.1486 21.605L22.6542 23.6452L23.5496 23.4234L23.9925 22.6141L22.1486 21.605ZM22.0042 21.6407L21.4987 19.6005L21.8194 23.7346L22.0042 21.6407ZM26.168 22.7959L27.3584 21.0635L27.205 20.9581L27.0354 20.8813L26.168 22.7959ZM28.8377 26.1033L30.8404 25.465L30.8403 25.4649L28.8377 26.1033ZM24.2802 34.6356L24.9184 36.6383L24.9186 36.6383L24.2802 34.6356ZM15.6264 30.3146L13.6237 30.9531L13.6238 30.9532L15.6264 30.3146ZM15.6811 26.1389L13.6895 25.4665L13.6895 25.4667L15.6811 26.1389ZM18.9537 22.3733L20.0836 24.1458L24.0142 21.6403L19.5342 20.3531L18.9537 22.3733ZM15.4717 21.3728L14.7477 23.3462L14.8187 23.3722L14.8913 23.3931L15.4717 21.3728ZM11.5043 19.9172L9.48872 19.321L8.92942 21.2115L10.7803 21.8906L11.5043 19.9172ZM12.3085 17.1989L14.3242 17.7952L14.3481 17.7143L14.3654 17.6318L12.3085 17.1989ZM12.7157 15.2641L11.9472 13.3076L10.8922 13.722L10.6588 14.8312L12.7157 15.2641ZM17.5062 13.3824L17.0198 11.3374L16.8757 11.3717L16.7377 11.4259L17.5062 13.3824ZM20.7622 23.5997L20.3722 21.5343L20.1348 21.5791L19.9138 21.6766L20.7622 23.5997ZM17.4973 29.7142L15.4946 30.3525L15.509 30.3979L15.5256 30.4427L17.4973 29.7142ZM23.6988 32.812L24.337 34.8147L24.3372 34.8147L23.6988 32.812ZM26.9616 26.6972L29.043 26.4035L29.0182 26.2278L28.9643 26.0587L26.9616 26.6972ZM21.8898 12.3397L20.6809 14.0593L22.8698 15.598L24.0787 13.8784L25.2875 12.1588L23.0986 10.6201L21.8898 12.3397ZM24.0787 13.8784L22.9378 15.6438L25.042 17.0036L26.1829 15.2381L27.3237 13.4727L25.2195 12.113L24.0787 13.8784ZM26.1829 15.2381L24.4739 14.0143L22.1425 17.2697L23.8515 18.4935L25.5604 19.7174L27.8918 16.462L26.1829 15.2381ZM23.8515 18.4935L22.0076 17.4844L20.3047 20.5958L22.1486 21.605L23.9925 22.6141L25.6954 19.5027L23.8515 18.4935ZM22.1486 21.605L21.6431 19.5647L21.4987 19.6005L22.0042 21.6407L22.5098 23.681L22.6542 23.6452L22.1486 21.605ZM22.0042 21.6407L21.8194 23.7346C22.583 23.802 23.4445 24.033 24.1658 24.2764C24.515 24.3942 24.8084 24.507 25.0116 24.5892C25.1128 24.6301 25.1906 24.6629 25.2404 24.6844C25.2653 24.6951 25.2831 24.7029 25.2934 24.7074C25.2985 24.7097 25.3017 24.7111 25.3029 24.7117C25.3035 24.7119 25.3037 24.712 25.3033 24.7118C25.3031 24.7117 25.3028 24.7116 25.3023 24.7114C25.3021 24.7113 25.3018 24.7112 25.3016 24.711C25.3014 24.711 25.3012 24.7109 25.3011 24.7108C25.3009 24.7107 25.3006 24.7106 26.168 22.7959C27.0354 20.8813 27.0351 20.8812 27.0348 20.881C27.0347 20.881 27.0344 20.8809 27.0342 20.8808C27.0338 20.8806 27.0334 20.8804 27.0329 20.8801C27.0319 20.8797 27.0308 20.8792 27.0296 20.8787C27.0271 20.8775 27.0241 20.8762 27.0206 20.8746C27.0135 20.8714 27.0043 20.8674 26.9932 20.8624C26.9708 20.8525 26.9403 20.8392 26.9022 20.8228C26.8261 20.79 26.7195 20.7451 26.5869 20.6915C26.3226 20.5847 25.951 20.4419 25.5098 20.293C24.6503 20.0031 23.4299 19.6565 22.1891 19.5469L22.0042 21.6407ZM26.168 22.7959L24.9776 24.5284C24.9212 24.4896 25.326 24.7641 25.7944 25.2319C26.2915 25.7283 26.6843 26.2691 26.835 26.7417L28.8377 26.1033L30.8403 25.4649C30.3904 24.0534 29.4513 22.9425 28.7651 22.2573C28.0502 21.5433 27.4205 21.1062 27.3584 21.0635L26.168 22.7959ZM28.8377 26.1033L26.8349 26.7415C27.5975 29.1343 26.237 31.8056 23.6418 32.6329L24.2802 34.6356L24.9186 36.6383C29.6212 35.1392 32.3408 30.173 30.8404 25.465L28.8377 26.1033ZM24.2802 34.6356L23.6419 32.6329C21.0469 33.4599 18.392 32.0688 17.6291 29.6761L15.6264 30.3146L13.6238 30.9532C15.1247 35.6606 20.2158 38.1371 24.9184 36.6383L24.2802 34.6356ZM15.6264 30.3146L17.6291 29.6762C17.496 29.2587 17.4352 28.7248 17.4554 28.1593C17.4756 27.5925 17.5732 27.106 17.6727 26.811L15.6811 26.1389L13.6895 25.4667C13.2252 26.8424 13.0147 29.0423 13.6237 30.9531L15.6264 30.3146ZM15.6811 26.1389L17.6726 26.8113C17.672 26.8132 17.7191 26.6913 17.868 26.4491C18.0054 26.2258 18.1948 25.9562 18.4284 25.67C18.9059 25.085 19.4924 24.5227 20.0836 24.1458L18.9537 22.3733L17.8239 20.6008C16.7543 21.2826 15.845 22.1867 15.1716 23.0116C14.5307 23.7969 13.9476 24.7023 13.6895 25.4665L15.6811 26.1389ZM18.9537 22.3733L19.5342 20.3531L16.0522 19.3526L15.4717 21.3728L14.8913 23.3931L18.3733 24.3936L18.9537 22.3733ZM15.4717 21.3728L16.1957 19.3995L12.2284 17.9439L11.5043 19.9172L10.7803 21.8906L14.7477 23.3462L15.4717 21.3728ZM11.5043 19.9172L13.52 20.5135L14.3242 17.7952L12.3085 17.1989L10.2929 16.6026L9.48872 19.321L11.5043 19.9172ZM12.3085 17.1989L14.3654 17.6318L14.7726 15.697L12.7157 15.2641L10.6588 14.8312L10.2516 16.766L12.3085 17.1989ZM12.7157 15.2641L13.4842 17.2206L18.2747 15.3388L17.5062 13.3824L16.7377 11.4259L11.9472 13.3076L12.7157 15.2641ZM17.5062 13.3824L17.9927 15.4273L22.3762 14.3846L21.8898 12.3397L21.4034 10.2947L17.0198 11.3374L17.5062 13.3824ZM20.7622 23.5997L19.9138 21.6766C16.6918 23.0981 14.2646 26.4934 15.4946 30.3525L17.4973 29.7142L19.5 29.0759C19.1105 27.8537 19.7297 26.3527 21.6107 25.5229L20.7622 23.5997ZM17.4973 29.7142L15.5256 30.4427C16.7636 33.7933 20.5652 36.0167 24.337 34.8147L23.6988 32.812L23.0606 30.8092C21.6162 31.2695 19.9975 30.416 19.469 28.9857L17.4973 29.7142ZM23.6988 32.812L24.3372 34.8147C28.2546 33.5659 29.5137 29.7392 29.043 26.4035L26.9616 26.6972L24.8803 26.9909C25.1746 29.0765 24.3597 30.3951 23.0604 30.8093L23.6988 32.812ZM26.9616 26.6972L28.9643 26.0587C28.3413 24.1047 26.8928 22.8114 25.317 22.1067C23.7631 21.4119 21.9789 21.2309 20.3722 21.5343L20.7622 23.5997L21.1523 25.6652C21.9477 25.515 22.8582 25.6124 23.6009 25.9445C24.3218 26.2668 24.7719 26.749 24.959 27.3357L26.9616 26.6972Z" fill="white"/>
<path d="M14.9345 7.89757C14.8623 7.59759 14.9919 7.34435 15.1642 7.19354C15.3177 7.05926 15.5064 6.99658 15.6643 6.97426C15.8239 6.9517 16.0179 6.96175 16.1983 7.04207C16.3931 7.12881 16.5914 7.31323 16.6305 7.60942L16.6309 7.61233C16.656 7.81301 16.6879 8.01232 16.7215 8.22581C16.7545 8.43553 16.7886 8.65679 16.8117 8.8827L16.8135 8.89724C16.8151 8.90781 16.8168 8.92131 16.8197 8.93878C16.8251 8.97149 16.8336 9.01763 16.8407 9.067C16.8543 9.16215 16.87 9.30109 16.8602 9.44275C16.8514 9.56975 16.8161 9.80194 16.6347 9.98363C16.4226 10.1958 16.146 10.2149 15.9257 10.169L15.7794 10.1247C15.4662 9.99677 15.3408 9.70846 15.2917 9.53138C15.2627 9.42646 15.2487 9.32451 15.2401 9.25259C15.2292 9.16197 15.2281 9.1366 15.2234 9.11196C15.1474 8.71095 15.0408 8.33427 14.9347 7.89854L14.9345 7.89757Z" fill="#5AC0F3" stroke="white"/>
<path d="M11.5059 10.6182C11.3088 10.4957 11.1828 10.3032 11.1515 10.0816C11.1196 9.8548 11.1923 9.64754 11.2903 9.49803C11.3896 9.34658 11.5461 9.20576 11.75 9.13496C11.9689 9.05893 12.2247 9.07273 12.4546 9.2178C12.8225 9.44997 13.1679 9.72133 13.4783 9.94854C13.5345 9.98961 13.5884 10.0245 13.6706 10.0799C13.7441 10.1295 13.8352 10.1928 13.9214 10.2684C14.0996 10.4246 14.2944 10.6679 14.3103 11.0284L14.3117 11.0287C14.3234 11.2819 14.1861 11.4645 14.066 11.5625C13.9476 11.659 13.7933 11.7216 13.6326 11.7292L13.6321 11.7284C13.2894 11.745 13.0359 11.5906 12.8722 11.4633C12.7926 11.4015 12.7168 11.3326 12.664 11.2851C12.6045 11.2316 12.5653 11.198 12.5304 11.1731L12.5295 11.1714C12.2662 10.9822 11.9503 10.8338 11.5939 10.6661L11.5059 10.6182Z" fill="#5AC0F3" stroke="white"/>
<path d="M18.1385 9.03256L18.1405 9.03323C18.184 8.67539 18.3344 8.33452 18.4301 8.10574C18.5795 7.74864 18.7449 7.41968 18.9439 7.08467L18.9441 7.08563C19.0914 6.83666 19.3279 6.69462 19.5846 6.66952C19.8214 6.64639 20.0405 6.72405 20.2038 6.83756C20.3674 6.95137 20.5172 7.13108 20.5776 7.36419C20.6426 7.61553 20.5908 7.88477 20.416 8.11108L20.415 8.11123C20.2262 8.35604 20.0547 8.58758 19.9405 8.81015L19.9382 8.81446C19.8339 9.01359 19.6987 9.30452 19.5402 9.55108L19.5384 9.55234C19.2972 9.92409 18.8813 9.94531 18.6119 9.83242C18.3595 9.72655 18.0847 9.44044 18.1385 9.03256Z" fill="#5AC0F3" stroke="white"/>
<path d="M11.4772 19.8324L19.0906 22.58L22.1487 21.6051L25.9687 14.5661L21.7876 12.0181L12.6134 14.9426L11.4772 19.8324Z" fill="#5AC0F3"/>
<path d="M19.0318 22.3955L22.1487 21.6051L23.8517 18.4933L26.1831 15.2387L24.0788 13.8787L21.8901 12.3396L17.5065 13.3828L12.7159 15.2641L12.3088 17.1988L11.5044 19.9179L15.4718 21.3725L19.0318 22.3955Z" fill="#5AC0F3"/>
<path d="M11.4287 19.6829L26.1065 14.9998" stroke="white" stroke-width="0.494665" stroke-linecap="round"/>
<path d="M13.1025 14.7865L20.1841 22.2312L21.1758 12.213" stroke="white" stroke-width="0.494665" stroke-linecap="round"/>
<path d="M16.4735 17.7543L17.7502 13.3047L20.7299 15.8887" stroke="white" stroke-width="0.494665" stroke-linecap="round"/>
<ellipse cx="22.3443" cy="28.5592" rx="4.62193" ry="5.00709" transform="rotate(-17.6809 22.3443 28.5592)" fill="white"/>
<path d="M20.1826 21.7817C17.9831 22.4828 16.0282 25.1087 15.6805 26.1392C15.3327 27.1697 15.1763 28.9038 15.6259 30.3142C16.7577 33.8647 20.6309 35.7987 24.28 34.6355C27.9291 33.4722 29.9685 29.6535 28.8367 26.103C28.2353 24.2164 26.1672 22.7963 26.1672 22.7963C26.1672 22.7963 22.3821 21.0806 20.1826 21.7817ZM23.6985 32.8114C21.0902 33.6429 18.3798 32.1052 17.4965 29.7146C16.6865 27.1737 18.2102 24.7252 20.7621 23.5997C23.1643 23.146 26.151 24.1567 26.961 26.6975C27.3435 29.4082 26.3068 31.98 23.6985 32.8114Z" fill="#FFCC00"/>
</g>
<defs>
<filter id="filter0_ddd_752_16554" x="-7.1123" y="-3.36182" width="54.7236" height="54.7238" filterUnits="userSpaceOnUse" color-interpolation-filters="sRGB">
<feFlood flood-opacity="0" result="BackgroundImageFix"/>
<feColorMatrix in="SourceAlpha" type="matrix" values="0 0 0 0 0 0 0 0 0 0 0 0 0 0 0 0 0 0 127 0" result="hardAlpha"/>
<feOffset/>
<feGaussianBlur stdDeviation="0.5"/>
<feComposite in2="hardAlpha" operator="out"/>
<feColorMatrix type="matrix" values="0 0 0 0 0 0 0 0 0 0 0 0 0 0 0 0 0 0 0.08 0"/>
<feBlend mode="normal" in2="BackgroundImageFix" result="effect1_dropShadow_752_16554"/>
<feColorMatrix in="SourceAlpha" type="matrix" values="0 0 0 0 0 0 0 0 0 0 0 0 0 0 0 0 0 0 127 0" result="hardAlpha"/>
<feOffset dy="1"/>
<feGaussianBlur stdDeviation="2"/>
<feComposite in2="hardAlpha" operator="out"/>
<feColorMatrix type="matrix" values="0 0 0 0 0 0 0 0 0 0 0 0 0 0 0 0 0 0 0.08 0"/>
<feBlend mode="normal" in2="effect1_dropShadow_752_16554" result="effect2_dropShadow_752_16554"/>
<feColorMatrix in="SourceAlpha" type="matrix" values="0 0 0 0 0 0 0 0 0 0 0 0 0 0 0 0 0 0 127 0" result="hardAlpha"/>
<feOffset dy="2"/>
<feGaussianBlur stdDeviation="4"/>
<feComposite in2="hardAlpha" operator="out"/>
<feColorMatrix type="matrix" values="0 0 0 0 0 0 0 0 0 0 0 0 0 0 0 0 0 0 0.12 0"/>
<feBlend mode="normal" in2="effect2_dropShadow_752_16554" result="effect3_dropShadow_752_16554"/>
<feBlend mode="normal" in="SourceGraphic" in2="effect3_dropShadow_752_16554" result="shape"/>
</filter>
</defs>
</svg>
