<svg width="16" height="16" viewBox="0 0 16 16" fill="none" xmlns="http://www.w3.org/2000/svg">
<g clip-path="url(#clip0_0_19)">
<path d="M1.33301 13.3344H2.66634M2.66634 13.3344H6.66634M2.66634 13.3344V7.63579C2.66634 7.27956 2.66634 7.10136 2.70966 6.9356C2.74804 6.7887 2.81154 6.64969 2.89681 6.52407C2.99304 6.38232 3.12677 6.26477 3.39486 6.03019L6.59591 3.22927C7.0929 2.7944 7.34142 2.57696 7.62129 2.49419C7.86808 2.42121 8.13113 2.42121 8.37793 2.49419C8.65801 2.57702 8.90688 2.79467 9.40462 3.23019L12.6046 6.03019C12.8727 6.26476 13.0065 6.38232 13.1027 6.52407C13.188 6.64969 13.251 6.7887 13.2894 6.9356C13.3327 7.10136 13.333 7.27956 13.333 7.63579V13.3344M6.66634 13.3344H9.33301M6.66634 13.3344V10.6677C6.66634 9.93131 7.26329 9.33436 7.99967 9.33436C8.73605 9.33436 9.33301 9.93131 9.33301 10.6677V13.3344M9.33301 13.3344H13.333M13.333 13.3344H14.6663" stroke="#48464C" stroke-width="0.933333" stroke-linecap="round" stroke-linejoin="round"/>
</g>
<defs>
<clipPath id="clip0_0_19">
<rect width="16" height="16" fill="white"/>
</clipPath>
</defs>
</svg>
