<svg width="16" height="16" viewBox="0 0 16 16" fill="none" xmlns="http://www.w3.org/2000/svg">
<path d="M2 3.99935H2.01279M2.01279 3.99935H13.9873M2.01279 3.99935C2 4.20893 2 4.46729 2 4.79948V11.1995C2 11.9462 2 12.3191 2.14532 12.6043C2.27316 12.8552 2.47698 13.0597 2.72786 13.1875C3.0128 13.3327 3.386 13.3327 4.13129 13.3327L11.8687 13.3327C12.614 13.3327 12.9867 13.3327 13.2716 13.1875C13.5225 13.0597 13.727 12.8552 13.8548 12.6043C14 12.3193 14 11.9467 14 11.2014L14 4.79729C14 4.46615 14 4.20847 13.9873 3.99935M2.01279 3.99935C2.02876 3.73781 2.06465 3.55222 2.14532 3.39388C2.27316 3.143 2.47698 2.93917 2.72786 2.81134C3.01308 2.66602 3.38673 2.66602 4.13346 2.66602H11.8668C12.6135 2.66602 12.9864 2.66602 13.2716 2.81134C13.5225 2.93917 13.727 3.143 13.8548 3.39388C13.9355 3.55222 13.9713 3.73781 13.9873 3.99935M13.9873 3.99935H14" stroke="#48464C" stroke-width="0.933333" stroke-linecap="round" stroke-linejoin="round"/>
</svg>
