<svg width="101" height="100" viewBox="0 0 101 100" fill="none" xmlns="http://www.w3.org/2000/svg">
<g clip-path="url(#clip0_1021_17786)">
<g filter="url(#filter0_ddd_1021_17786)">
<path d="M47.8937 15.54C48.802 13.9667 51.073 13.9667 51.9813 15.54L86.2153 74.835C87.1237 76.4083 85.9882 78.375 84.1715 78.375H15.7035C13.8868 78.375 12.7513 76.4083 13.6597 74.835L47.8937 15.54Z" fill="white"/>
<path d="M47.8938 22.62C48.8021 21.0466 51.073 21.0466 51.9814 22.62L80.0839 71.295C80.9923 72.8683 79.8568 74.835 78.0401 74.835H21.8351C20.0183 74.835 18.8829 72.8683 19.7912 71.295L47.8938 22.62Z" fill="#F7D428"/>
<path d="M53.3609 23.8412C53.8882 24.7238 54.5477 25.8991 55.0403 26.7973C55.1947 27.0788 55.0863 26.9536 55.1917 27.1486C55.3978 27.53 55.613 27.872 55.8145 28.2501C55.8812 28.3754 55.75 28.2472 55.8209 28.3781C56.2096 29.0953 56.6063 29.7571 57.0102 30.4777C58.9997 34.0275 60.9834 37.5006 63.0232 41.0788C63.6958 42.2586 64.4823 43.7108 65.2007 44.9158C65.2846 45.0564 65.2735 44.9501 65.2922 44.9753C65.584 45.371 65.4267 45.2742 65.5762 45.5564C66.1694 46.676 66.87 47.8975 67.4939 48.9445C67.7594 49.3899 67.5743 48.8965 67.7933 49.3728C67.8086 49.4059 67.7029 49.315 67.7697 49.4406C67.9213 49.7254 68.2343 50.2511 68.3561 50.4693C68.5906 50.8901 68.6309 50.9588 68.8582 51.3536C69.1686 51.8935 69.519 52.5464 69.8622 53.1198C69.9355 53.2421 69.8821 53.055 70.0028 53.2479C70.1236 53.441 70.4213 53.9646 70.5131 54.146C70.605 54.3275 70.5295 54.2712 70.5401 54.3066C70.6256 54.5986 71.0603 55.1521 71.1072 55.2285C71.9607 56.6228 72.6123 57.8649 73.3794 59.1933C73.962 60.2018 74.6008 61.2708 75.1527 62.2318C75.8099 63.3767 76.3472 64.3586 76.9923 65.4671C77.0603 65.5841 77.0292 65.4189 77.1124 65.5617C77.9962 67.0796 78.863 68.5931 79.7049 70.1264C79.7893 70.2802 79.6339 70.1089 79.7157 70.264C79.8647 70.5459 80.0369 70.8779 80.2186 71.2172C80.724 72.0868 80.5093 73.1635 80.3953 73.6517C80.0494 74.3934 79.1459 74.9915 78.4264 75.0199C78.0363 75.0381 78.3005 74.9724 78.0401 74.9844C77.9989 74.9848 77.9438 74.9865 77.8695 74.9898C77.7534 74.9948 77.9044 75.0415 77.7302 75.0455C76.997 75.0626 76.1959 75.0474 75.4705 75.0715C75.323 75.0765 75.3633 75.1183 75.3215 75.1258C74.9701 75.1867 74.3853 75.086 74.2577 75.0787C73.2868 75.0242 72.5778 75.0456 71.6733 75.0443C71.4634 75.044 71.7115 75.1001 71.5096 75.1018C70.4621 75.1098 69.377 75.105 68.3513 75.0801C68.1231 75.0744 68.3329 75.0266 68.2239 75.0215C67.7432 74.9993 67.6366 75.0896 67.1756 75.0701C67.0784 75.0661 67.1332 75.0252 67.1154 75.0207C66.8379 74.9501 66.5968 75.0501 66.5255 75.0523C65.6226 75.0824 65.0456 74.9781 64.1734 74.9929C64.069 74.9947 64.3043 75.0465 64.011 75.0486C62.057 75.0629 59.9904 75.0487 58.0563 75.0073C57.7555 75.0009 57.9702 74.962 57.9513 74.9572C57.6429 74.8823 57.4433 74.9827 57.3453 74.9865C56.5717 75.0137 55.8491 74.9295 55.3235 75.0491C52.0474 75.0076 48.7863 75.0747 45.5372 74.9676C45.4959 74.9664 45.57 74.9169 45.4875 74.9147C44.4952 74.8869 44.6857 74.9637 44.0291 75.0577C43.8637 75.0813 43.3605 74.9678 43.316 74.9595C43.1538 74.9289 43.322 74.8553 43.2677 74.8494C42.8183 74.8028 42.8915 75.046 42.2852 75.0461C42.2662 75.0457 42.3458 75.0009 42.295 74.9965C42.1369 74.9825 41.9801 75.0003 41.8254 74.9849C41.4713 74.9492 41.3452 74.831 40.8044 74.8998C40.7359 74.9087 40.8404 75.0467 40.2991 75.0402C40.0833 75.0375 39.128 75.0398 38.8603 75.0309C38.5929 75.022 38.7765 74.9775 38.7574 74.9756C38.0369 74.9168 38.3101 74.8924 37.9491 74.8054C37.5882 74.7187 37.6883 74.9255 37.5411 74.9486C37.3937 74.9716 36.8654 74.9231 36.7356 74.9062C36.6059 74.8894 36.7677 74.8611 36.6523 74.8516C35.8873 74.7892 36.3166 74.9542 36.0645 74.987C35.4702 75.0648 35.0074 74.9114 34.4633 74.8964C34.3161 74.8923 34.4362 74.9272 34.3052 74.9305C33.786 74.943 33.4738 74.8951 32.8831 74.939C32.7865 74.9462 32.309 75.0384 32 74.9707C31.9562 74.9609 32.0806 74.9227 31.8593 74.9142C31.5288 74.9013 30.9332 74.893 30.5779 74.9057C30.3156 74.9152 30.6163 74.9782 30.2861 74.9586C30.1394 74.9499 30.4113 74.913 30.1356 74.8997C29.8614 74.8863 29.1603 74.888 28.8935 74.8892C28.6271 74.8905 28.7729 74.9383 28.7514 74.9415C28.6212 74.96 28.1101 74.983 28.0649 74.9829C25.9128 74.9884 23.919 74.9169 21.8351 74.9314C21.7072 74.9323 21.5805 74.9241 21.4538 74.9064C21.2744 74.878 21.3843 74.9477 21.3569 74.9439C20.7382 74.8063 21.2474 74.8163 20.8706 74.6279C20.8897 74.7415 20.6461 74.6496 20.2976 74.3862C20.1335 74.2548 20.1949 74.3574 20.1774 74.3485C19.8965 74.1774 19.8287 73.9359 19.8111 73.8843C19.7414 73.6842 19.582 73.516 19.5666 73.3688C19.556 73.2262 19.7101 73.4997 19.5823 73.1207C19.516 73.0191 19.5064 73.3457 19.4083 73.0399C19.2591 72.5639 19.2942 71.8215 19.6627 71.2208C20.1421 70.4109 20.6513 69.5847 20.9281 69.1145C21.3975 68.3169 21.5411 68.0547 21.8222 67.5943C22.3299 66.7627 22.09 67.0364 22.3643 66.4964C22.6395 65.9548 22.6432 66.2975 22.7193 66.2407C22.7946 66.1854 22.8079 66.0851 22.879 66.0032C22.9499 65.9216 22.8571 66.1333 22.9886 65.9211C23.1202 65.7086 23.4038 65.084 23.414 64.9877C23.4356 64.7841 23.2062 65.0069 23.5632 64.45C23.5837 64.418 23.5618 64.5477 23.6386 64.424C24.2471 63.4407 24.8494 62.4019 25.4537 61.4178C25.5368 61.2825 25.5101 61.431 25.559 61.3525C26.0683 60.5356 25.8218 60.7904 26.0026 60.2859C26.0537 60.4521 26.2669 60.2384 26.6327 59.6064C26.8526 59.2265 26.7667 59.2641 26.8747 58.9987C26.9071 58.919 27.0954 58.6691 27.1009 58.6073C27.1197 58.4038 26.8906 58.6093 27.3 57.9764C27.3181 57.9487 27.306 58.0631 27.3656 57.9657C27.7505 57.336 27.7172 57.2149 28.1066 56.5188C28.4118 55.9732 29.0149 55.0376 29.3785 54.4256C29.4949 54.5102 29.8027 53.9115 29.8536 53.626C30.0881 53.228 30.3327 52.7931 30.5678 52.4133C30.6486 52.2825 30.634 52.3907 30.6476 52.3761C30.857 52.1539 30.8743 51.932 30.9208 51.8438C31.4295 50.8896 31.9327 50.1635 32.3868 49.2348C32.4029 49.2019 32.3464 49.1008 32.5472 48.8983C32.5604 48.8854 32.4293 49.203 32.6749 48.7846C32.9205 48.3661 33.424 47.6006 33.7209 46.9942C33.7928 46.8475 33.9291 46.45 34.1492 46.195C34.1786 46.1611 34.1792 46.2171 34.2248 46.1699C34.3714 46.017 34.3406 45.8695 34.5354 45.7028C34.7302 45.5361 35.037 45.1324 35.3257 44.5147C35.3351 44.4951 35.3465 44.316 35.4544 44.1316C35.6267 43.8373 35.8832 43.4263 36.0608 43.1176C36.1458 42.9698 36.0484 43.0396 36.0624 43.0135C36.6116 42.0069 37.0578 41.3223 37.6884 40.2682C37.8041 40.0751 38.0692 39.4811 38.3333 39.1303C38.6231 38.745 38.5875 39.2923 39.0874 38.3107C39.2892 37.9149 39.3033 37.2744 39.8402 36.6637C40.5791 35.3047 41.3649 34.1071 42.0913 32.7359C42.124 32.6743 42.1598 32.4404 42.2428 32.299C42.3662 32.0891 42.4677 31.9935 42.5569 31.8444C42.9315 31.2198 43.2349 30.6255 43.5906 30.0201C43.7256 29.7903 43.7149 29.8918 43.8759 29.6176C44.0367 29.3436 44.0953 29.1327 44.3335 28.7731C44.5135 28.5015 44.7729 28.2759 45 27.9086C44.9127 27.8392 45.0629 27.5836 45.3011 27.1128C45.3469 27.0222 45.2593 27.0971 45.2792 27.0533C45.3596 26.8745 45.4774 26.7342 45.5513 26.5631C45.5693 26.5215 45.5378 26.5008 45.5507 26.4657C45.6592 26.1669 45.9904 25.7625 46.0475 25.6932C46.2658 25.4272 46.3027 25.2653 46.452 25.0508C46.6011 24.8366 46.4306 25.1871 46.5941 24.9308C46.9328 24.3994 47.332 23.6959 47.6531 23.143C47.7811 22.9223 47.6505 23.0479 47.6678 23.0158C47.7413 22.881 47.82 22.7487 47.8959 22.6212C48.0816 22.3071 48.3176 22.0838 48.4402 21.8981C48.8913 21.9098 48.6639 21.629 49.4318 21.4626C49.4937 21.4552 49.5824 21.5581 49.3755 21.6242C49.1716 21.6911 48.8452 21.7834 48.6181 21.9877C48.5541 22.0305 48.3459 22.3865 48.3282 22.4334C48.2245 22.5985 48.1462 22.6813 48.0768 22.7257C47.9975 22.7804 47.9392 22.7747 47.9282 22.7831C47.6967 22.9672 47.5415 23.4832 47.4799 23.6071C47.1979 24.1738 46.9072 24.6258 46.6672 25.0974C46.51 25.4058 46.5969 25.495 46.458 25.7282C45.9964 26.5034 45.6942 26.6926 45.3946 27.5013C45.3303 27.6746 45.5343 27.5833 45.1185 28.0974C45.0923 28.1297 44.7682 28.5026 44.6798 28.775C44.6687 28.8093 44.7023 28.8274 44.6819 28.8692C44.5443 29.1489 44.4143 29.3134 44.2575 29.6141C44.1007 29.9147 43.9158 30.2784 43.7112 30.6069C43.5879 30.805 43.3768 31.0284 43.3059 31.1164C43.1049 31.3642 43.0072 31.6979 42.857 31.8366C42.7057 31.9765 42.8178 31.5969 42.5255 32.0242C42.6019 32.0904 42.6681 32.1793 42.7391 32.2558C42.1704 33.2338 41.5861 34.1817 41.0224 35.1669C40.9526 35.2891 41.0707 35.1911 40.9971 35.3228C40.6862 35.8782 40.3753 36.3406 40.0584 36.9198C39.8133 37.3682 39.582 37.8816 39.3272 38.3514C39.0658 38.5773 38.7028 39.2831 38.4059 39.7766C38.3019 39.9495 38.2824 39.9227 38.2021 40.042C37.8998 40.4924 38.1135 40.3229 38.0529 40.4593C37.793 41.0443 37.5691 40.978 37.1987 41.6308C37.179 41.6653 37.0408 42.1468 37.0139 42.2085C36.8437 42.6014 36.9422 42.2484 36.8013 42.4745C36.5442 42.8872 36.3503 43.1653 36.0958 43.6769C36.0218 43.8261 35.8877 44.2093 35.6757 44.4597C35.6478 44.4927 35.6249 44.4524 35.6058 44.4808C35.2625 44.9973 35.3633 45.0742 35.2233 45.4018C35.0833 45.7294 34.735 46.1591 34.6577 46.2429C34.4563 46.4625 34.7452 46.0361 34.7476 46.0193C34.7747 45.8212 34.5867 46.1728 34.429 46.4333C34.3002 46.4098 34.0937 46.7823 34.2659 46.7036C34.285 46.6943 34.3935 46.4834 34.429 46.4333C34.4001 46.7252 34.1795 47.1381 33.8233 47.5292C33.6565 47.7123 33.7173 47.4833 33.3694 48.131C33.2115 48.425 33.3494 48.3558 33.2223 48.6223C32.9318 49.231 32.4264 49.9481 32.0906 50.5547C31.9687 50.7749 32.1315 50.5858 32.0496 50.7371C31.8323 51.1386 31.6009 51.4697 31.3872 51.8755C31.3679 51.9123 31.4607 51.8487 31.39 51.9725C30.8547 52.9109 30.3574 53.7101 29.7926 54.6866C29.5198 55.1584 29.0558 56.0156 28.7688 56.5019C28.2717 57.3448 27.6085 58.352 27.2054 59.0846C26.9423 59.5622 27.0443 59.483 26.9562 59.7018C26.7864 60.1244 26.2878 60.7579 26.2186 60.8421C26.2164 60.8446 26.4411 60.4326 26.2943 60.6369C26.1765 60.7369 26.221 60.8374 26.2186 60.8421C26.1733 60.8974 25.6952 61.7036 25.6102 61.8694C25.564 61.9595 25.6322 61.9336 25.6074 61.9801C25.0165 63.086 24.3989 64.1791 23.7447 65.2691C23.7327 65.288 23.7049 65.2331 23.6773 65.2779C23.2895 65.9037 23.1085 66.3433 22.8375 66.8876C22.5665 67.4318 22.315 67.8423 22.0588 68.1091C21.8395 68.5112 21.4772 69.0605 21.2677 69.376C21.0581 69.6914 21.1186 69.7873 21.1037 69.8171C20.7638 70.499 20.4852 70.9447 20.1456 71.4995C20.0415 71.6681 19.953 71.8631 19.9036 72.096C19.7694 72.5118 19.9932 73.3809 20.3318 73.7087C20.571 73.9769 20.7406 74.1289 21.047 74.2557C21.0888 74.2716 21.0653 74.2127 21.0784 74.2165C21.43 74.293 21.238 74.3319 21.3047 74.3755C21.4712 74.4675 21.6132 74.5226 21.8351 74.5317C21.9658 74.5353 22.1197 74.5322 22.3166 74.5208C22.4496 74.5132 22.837 74.356 23.0794 74.3468C23.3946 74.3351 23.2756 74.3915 23.6056 74.3778C23.6339 74.3767 23.628 74.3419 23.8317 74.3435C24.7772 74.3501 25.808 74.3703 26.7905 74.3669C26.9247 74.3665 26.7527 74.3114 26.9466 74.31C27.8565 74.3034 28.8538 74.3055 29.7402 74.3313C29.9584 74.3378 29.8217 74.3764 29.869 74.3879C30.1598 74.4573 30.5722 74.3565 30.6402 74.3545C32.2632 74.3061 33.5054 74.3973 35.1596 74.3539C35.2497 74.3514 35.9428 74.2433 36.2521 74.336C36.2732 74.3421 36.5792 74.437 36.8497 74.3721C36.8665 74.3681 36.6759 74.3193 37.0085 74.3242C37.3413 74.3292 37.8767 74.2966 38.334 74.3502C38.4788 74.3671 38.821 74.4617 39.2529 74.3863C39.281 74.3811 39.9477 74.2106 40.1857 74.3282C40.2243 74.3476 40.1839 74.472 40.6994 74.4082C40.7979 74.3958 40.6191 74.3681 40.8785 74.3507C41.2761 74.324 41.8028 74.3574 42.2915 74.3019C42.3767 74.2921 42.7395 74.2076 43.0305 74.2717C43.0761 74.2818 42.9895 74.3233 43.1432 74.328C43.8739 74.3503 44.6392 74.3225 45.3812 74.3512C45.644 74.3613 45.5096 74.4285 45.7836 74.4465C46.0576 74.4645 46.6096 74.4818 46.8963 74.4511C47.183 74.4204 46.8698 74.3134 47.2994 74.3048C49.1669 74.2676 51.017 74.3304 52.8818 74.3396C53.1584 74.3409 52.9291 74.3026 53.3367 74.3019C54.8394 74.2991 57.4339 74.2631 58.7379 74.3445C59.7827 74.4097 58.4679 74.4594 59.2663 74.4859C59.6515 74.4986 60.0683 74.3741 60.1613 74.3702C61.0699 74.3304 61.7013 74.3855 62.519 74.3686C62.6879 74.3651 62.5222 74.3146 62.666 74.3122C63.1569 74.3035 63.6728 74.326 64.1419 74.3219C64.3523 74.3199 64.3136 74.2814 64.5072 74.2843C64.9705 74.291 65.3803 74.3072 65.8319 74.3433C65.8731 74.3466 65.5955 74.3945 65.9383 74.3963C66.4931 74.3991 67.1818 74.4347 67.8201 74.3979C68.0095 74.3868 68.0169 74.2988 68.4241 74.3596C68.5095 74.3723 68.4005 74.478 68.8747 74.3867C68.9545 74.3715 69.7512 74.2482 70.1421 74.3277C70.2453 74.3486 70.5085 74.4351 70.7363 74.4215C70.7671 74.4194 70.6434 74.3721 70.8321 74.3674C71.4973 74.352 72.1944 74.3571 72.8777 74.3422C73.0602 74.3382 72.7884 74.2892 73.0604 74.2848C73.8082 74.2724 74.742 74.2849 75.4733 74.3002C75.743 74.3059 75.5566 74.3465 75.5762 74.3509C75.8917 74.4226 76.0782 74.3258 76.1829 74.3201C76.8342 74.2863 77.3301 74.3318 77.9304 74.3198C78.0961 74.3166 77.9786 74.2704 78.0116 74.2663C78.0216 74.2651 78.0311 74.264 78.0401 74.263C78.2691 74.2236 78.0916 74.3108 78.2573 74.306C78.7361 74.2866 79.2345 74.0004 79.5182 73.6037C79.6204 73.4584 79.4627 73.5894 79.5496 73.4597C79.9118 72.9012 79.9403 72.1537 79.6061 71.5708C79.4401 71.2739 79.2772 70.979 79.1191 70.6884C79.014 70.4952 79.1189 70.5944 79.1042 70.55C79.0033 70.2435 78.694 69.8876 78.6333 69.7996C78.3573 69.3997 78.2948 69.2186 78.0751 68.8516C77.0011 67.0591 75.7321 64.8129 74.759 63.0975C73.4906 60.8622 72.5275 59.1155 71.2933 56.9982C71.2149 56.8636 71.2459 57.0271 71.1777 56.9114C70.2995 55.4167 69.4647 53.928 68.5825 52.4316C68.5101 52.3087 68.5678 52.5127 68.4503 52.3164C68.2088 51.9139 67.914 51.3977 67.6911 50.9785C67.5824 50.7741 67.7762 51.0206 67.6659 50.8153C67.4092 50.3372 67.1217 49.8318 66.8359 49.3535C66.7142 49.15 66.847 49.4864 66.6924 49.2198C65.6382 47.4044 64.5994 45.6236 63.5984 43.752C63.5298 43.6237 63.5596 43.4591 63.387 43.2017C63.3494 43.1965 63.3195 43.2153 63.2866 43.2225C61.7437 40.5846 60.2638 37.9463 58.7365 35.2895C58.6721 35.1775 58.7342 35.3995 58.6092 35.1828C57.8861 33.9285 57.1694 32.7189 56.4782 31.4079C56.4095 31.2779 56.5345 31.2928 56.3048 30.9254C56.2642 30.8606 55.9265 30.3025 55.8232 30.1675C55.8089 30.1493 55.8277 30.2758 55.7214 30.0945C55.1046 29.0404 54.474 27.9267 53.8893 26.8565C53.795 26.6838 53.9432 26.8402 53.8764 26.7169C53.4024 25.8427 52.8287 24.9253 52.3932 24.0799C52.1018 23.514 52.2945 23.6745 52.1993 23.3393C52.1859 23.2919 51.9907 22.95 52.0234 22.9076C52.1053 22.7999 52.3189 22.8968 52.3949 22.7626C52.4114 22.734 52.121 22.2927 52.3371 22.5285C52.352 22.5451 52.563 22.8647 52.6304 22.9345C52.6773 22.9831 52.6619 22.8556 52.7467 22.9611C52.8316 23.0665 52.8685 23.2149 53.0005 23.3948C53.1327 23.5744 53.1336 23.4613 53.3609 23.8412ZM20.3248 70.7969C20.1081 71.0759 20.2351 71.2088 20.3878 70.8599C20.395 70.8429 20.3359 70.7824 20.3248 70.7969ZM41.474 34.1096C41.1778 34.467 41.1204 34.7954 41.3338 34.5459C41.5472 34.2964 41.5642 34.0007 41.474 34.1096ZM43.7972 29.9721C43.4767 30.4046 43.6513 30.6026 43.8939 30.0813C43.908 30.051 43.8159 29.9468 43.7972 29.9721ZM53.0038 24.6841C53.0034 24.6788 52.8639 24.4325 52.8585 24.4278C52.7346 24.3254 53.0137 24.8177 53.0038 24.6841ZM46.0978 25.8636C45.985 25.9913 45.7785 26.4271 45.9187 26.2685C46.0315 26.1408 46.2382 25.7046 46.0978 25.8636ZM34.4486 74.8102C34.4541 74.8129 34.657 74.8152 34.653 74.8004C34.6392 74.7525 34.3568 74.766 34.4486 74.8102ZM51.5405 22.1519C51.133 21.7417 50.6837 21.5575 50.5331 21.4684C50.3718 21.3977 50.5537 21.3077 51.1603 21.6278C51.3737 21.7403 50.661 21.4593 50.9316 21.6072C51.4042 21.8682 51.792 22.0442 52.0375 22.5754C52.0873 22.6552 51.6004 22.1757 51.5388 22.1507C51.5394 22.1511 51.5399 22.1515 51.5405 22.1519ZM20.0405 70.8654C20.035 70.8703 19.8926 71.1125 19.8912 71.1195C19.8637 71.2792 20.1505 70.7914 20.0405 70.8654ZM46.2888 74.9193C46.3043 74.9243 46.9562 74.929 46.9775 74.9244C47.3175 74.8328 45.9996 74.8231 46.2888 74.9193ZM29.3874 54.4179C29.4918 54.1242 29.6694 53.8034 29.8529 53.6272C29.6973 53.8891 29.5435 54.1544 29.3874 54.4179Z" fill="#F7D428"/>
<path d="M51.2575 62.1887L48.3086 62.27L46.9873 35.7463L52.2953 35.6L51.2575 62.1887Z" fill="white"/>
<path d="M48.8773 61.6701C49.221 61.6453 49.6725 61.6493 50.0159 61.6624C50.1235 61.6664 50.07 61.6992 50.1443 61.7033C50.2897 61.7115 50.4244 61.6924 50.5681 61.703C50.6157 61.7066 50.558 61.7578 50.6079 61.7605C50.8246 61.7718 51.0314 61.7618 51.2456 61.7586L50.8275 62.1719C50.8304 62.1158 50.8338 62.0592 50.8382 62.0018C50.9433 60.6425 51.0141 59.305 51.0904 57.9279C51.1156 57.4738 51.182 56.9232 51.1807 56.4531C51.1805 56.3982 51.1358 56.4292 51.1326 56.4186C51.0842 56.253 51.1698 56.3108 51.1856 56.2045C51.2481 55.7826 51.2705 55.3116 51.2697 54.9033C51.2692 54.7295 51.1761 54.9001 51.2314 54.7273C51.2351 54.7153 51.2795 54.7611 51.2863 54.7137C51.3016 54.6063 51.3013 54.4013 51.3083 54.3178C51.3218 54.157 51.3224 54.1303 51.3289 53.9779C51.3381 53.7696 51.3707 53.5227 51.369 53.2987C51.3685 53.2509 51.3187 53.3122 51.3137 53.2358C51.3086 53.1593 51.3205 52.958 51.3343 52.8905C51.3481 52.823 51.3841 52.8534 51.3931 52.8417C51.4689 52.7456 51.3784 52.5086 51.3771 52.4785C51.3565 51.9301 51.4315 51.4634 51.4514 50.9501C51.4663 50.5605 51.4639 50.1431 51.4809 49.7725C51.5014 49.3309 51.5416 48.9575 51.554 48.5283C51.5553 48.483 51.4977 48.5338 51.4992 48.4785C51.5157 47.8906 51.5445 47.3073 51.6049 46.7237C51.611 46.6651 51.6569 46.7427 51.6659 46.6843C51.72 46.3269 51.8386 45.7628 51.6343 45.5413C51.6521 45.2985 51.6722 45.0037 51.7236 44.7878C51.7566 44.6487 51.8045 44.7869 51.7885 44.6138C51.785 44.5747 51.7364 44.6234 51.7346 44.565C51.7272 44.319 51.7528 44.0516 51.7382 43.808C51.7351 43.7584 51.6928 43.7702 51.6858 43.756C51.6296 43.636 51.7378 43.4443 51.7468 43.4019C51.814 43.0792 51.8018 42.8411 51.815 42.5386C51.818 42.4684 51.7587 42.5492 51.7597 42.4815C51.7653 42.1308 51.7843 41.7679 51.8226 41.4257C51.8312 41.3496 51.8762 41.4216 51.8828 41.3854C51.9112 41.2254 51.8224 41.1862 51.8479 41.0327C51.8532 41.0004 51.8934 41.0203 51.8981 41.0145C51.9722 40.9244 51.8755 40.8399 51.8742 40.8159C51.8559 40.5127 51.9677 40.3237 51.9643 40.0313C51.9638 39.9963 51.909 40.073 51.9107 39.9748C51.9219 39.3205 51.9631 38.6296 52.0298 37.9841C52.0401 37.8837 52.0761 37.957 52.0812 37.9509C52.16 37.8506 52.0624 37.7799 52.0599 37.747C52.0428 37.4871 52.1363 37.2486 52.0237 37.0681C52.0616 36.5757 52.0775 36.0835 52.0971 35.5923L52.3008 35.7983C51.6999 35.8143 51.1003 35.8246 50.5005 35.7822C50.4866 35.7813 50.51 35.7312 50.4824 35.7297C50.1494 35.7112 50.2154 35.7862 49.9982 35.8862C49.9435 35.9113 49.7719 35.8025 49.7568 35.7946C49.7016 35.7655 49.7559 35.6904 49.7376 35.685C49.5859 35.6426 49.6171 35.885 49.4141 35.8907C49.4078 35.8904 49.4332 35.845 49.4161 35.841C49.3628 35.8285 49.3108 35.8477 49.2586 35.8337C49.1391 35.8013 49.0936 35.6844 48.9145 35.7581C48.8918 35.7677 48.9306 35.9046 48.7492 35.9031C48.6769 35.9024 48.3573 35.9135 48.2674 35.9071C48.1776 35.9006 48.2379 35.8545 48.2314 35.8527C47.9887 35.8006 48.0794 35.7737 47.9562 35.6901C47.833 35.6067 47.8722 35.8125 47.8236 35.837C47.7749 35.8613 47.5968 35.8177 47.5528 35.8021C47.5089 35.7864 47.5623 35.7567 47.5235 35.7482C47.2657 35.6929 47.4139 35.8539 47.3304 35.889C47.2074 35.941 47.0991 35.9022 46.9905 35.8634L47.1043 35.7405C47.0825 35.806 47.0607 35.8716 47.0584 35.9401C47.0568 35.9895 47.0897 35.9476 47.0952 35.9913C47.1163 36.1643 47.0737 36.2711 47.1274 36.4664C47.1361 36.4984 47.2362 36.6535 47.1737 36.7602C47.1647 36.7753 47.1245 36.7356 47.1196 36.81C47.1123 36.9212 47.1138 37.1208 47.1325 37.239C47.1463 37.3262 47.2042 37.2225 47.1902 37.3339C47.1839 37.3834 47.1426 37.2943 47.1338 37.3872C47.1251 37.4795 47.1384 37.7139 47.1441 37.8031C47.1498 37.8921 47.1951 37.841 47.1987 37.848C47.2193 37.8906 47.2508 38.0604 47.2515 38.0755C47.2953 38.8371 47.2499 39.5437 47.3134 40.2841C47.3183 40.3422 47.3667 40.3009 47.368 40.3098C47.399 40.508 47.2574 40.3576 47.2196 40.499C47.3207 40.4738 47.3063 40.5569 47.3245 40.6967C47.3333 40.7641 47.371 40.7253 47.3754 40.7312C47.4404 40.8286 47.3663 40.9023 47.3514 40.9211C47.2963 40.9904 47.3689 41.0593 47.3321 41.1064C47.2956 41.1535 47.2331 41.0524 47.2405 41.187C47.2789 41.2229 47.3695 41.1182 47.39 41.2197C47.4678 41.6024 47.4287 42.3261 47.4364 42.6365C47.444 42.9464 47.4557 43.046 47.4515 43.227C47.4439 43.5539 47.5088 43.431 47.5513 43.6317C47.5938 43.8329 47.4146 43.743 47.3785 43.774C47.3425 43.8045 47.3826 43.8338 47.3638 43.8704C47.345 43.907 47.3157 43.8314 47.3121 43.9152C47.3085 43.9991 47.3865 44.2242 47.4272 44.2518C47.5134 44.3103 47.5954 44.203 47.5758 44.4255C47.5746 44.4383 47.5267 44.3994 47.5245 44.4483C47.5084 44.8365 47.5262 45.2382 47.5143 45.6258C47.5125 45.6791 47.4592 45.6342 47.4576 45.6652C47.441 45.9886 47.5213 45.8693 47.6256 46.0409C47.4965 46.0077 47.4236 46.1091 47.435 46.3533C47.4418 46.5001 47.4961 46.4721 47.5399 46.5651C47.5531 46.593 47.5202 46.6988 47.5472 46.7163C47.6357 46.7741 47.7264 46.6715 47.7009 46.9252C47.6996 46.9363 47.6511 46.9035 47.6502 46.9418C47.644 47.1894 47.7347 47.2145 47.7588 47.4807C47.7777 47.6893 47.7418 48.0638 47.7448 48.3023C47.6016 48.3044 47.6455 48.5276 47.7486 48.6139C47.7523 48.7685 47.7662 48.9351 47.76 49.0851C47.7579 49.1367 47.7148 49.105 47.7107 49.1117C47.6455 49.2146 47.7447 49.277 47.7501 49.3101C47.8047 49.6697 47.7467 49.9677 47.8349 50.3091C47.838 50.3212 47.9383 50.3361 47.8704 50.4319C47.8657 50.4381 47.8149 50.3265 47.8195 50.4889C47.824 50.6513 47.7861 50.9599 47.8433 51.1828C47.8571 51.2368 47.9445 51.3707 47.8871 51.4845C47.8793 51.4996 47.85 51.4849 47.8352 51.507C47.7881 51.5783 47.8904 51.6109 47.8091 51.696C47.7279 51.7811 47.6725 51.9525 47.7426 52.1767C47.7447 52.1839 47.8269 52.2337 47.8292 52.3052C47.8328 52.4194 47.8243 52.5821 47.8307 52.7012C47.8338 52.7582 47.8814 52.7192 47.8828 52.7291C47.9296 53.1111 47.8991 53.3861 47.9005 53.7978C47.9006 53.8732 47.9788 54.0862 47.9328 54.2346C47.8825 54.3976 47.6318 54.2452 47.7079 54.6102C47.7384 54.7574 48.0554 54.9299 47.9093 55.2045C47.9745 55.7197 47.9168 56.202 47.999 56.7178C48.0027 56.7409 48.0922 56.8104 48.0938 56.8653C48.0959 56.9468 48.058 56.9935 48.0583 57.0517C48.0583 57.2958 48.1037 57.517 48.1101 57.752C48.1126 57.8413 48.0696 57.8121 48.0725 57.9186C48.0755 58.0249 48.1337 58.0931 48.1145 58.2384C48.0998 58.3481 47.9935 58.4624 47.9877 58.6074C48.0981 58.6074 48.1008 58.7067 48.1387 58.8814C48.146 58.915 48.1825 58.8768 48.188 58.8926C48.211 58.9568 48.1822 59.0187 48.2068 59.0795C48.2127 59.0944 48.2504 59.0932 48.2573 59.1052C48.3179 59.2071 48.2419 59.3838 48.2287 59.4142C48.1784 59.5305 48.2299 59.5811 48.2122 59.6693C48.1945 59.7574 48.1605 59.6287 48.1522 59.731C48.1351 59.9429 48.1546 60.2131 48.1635 60.427C48.1673 60.5123 48.2146 60.4516 48.2163 60.4637C48.2379 60.6395 48.1933 60.8206 48.2982 60.9134C48.0457 61.0486 48.3286 61.0185 48.2894 61.2733C48.2862 61.2933 48.1652 61.3247 48.1434 61.2493C48.1217 61.174 48.1541 61.0564 48.1209 60.952C48.1131 60.9273 47.9913 60.7895 47.9834 60.7703C47.9215 60.6196 48.1032 60.5887 48.1128 60.5801C48.2166 60.4827 48.0844 60.3134 48.0735 60.2677C48.0239 60.0583 48.0407 59.8776 48.004 59.7022C47.9802 59.5875 47.8599 59.5822 47.859 59.4913C47.8561 59.1889 48.0179 59.0753 47.8589 58.7982C47.825 58.7388 47.6972 58.8059 47.7892 58.5823C47.795 58.5683 47.881 58.4014 47.8168 58.3107C47.8087 58.2993 47.7706 58.3016 47.7666 58.2862C47.7407 58.1832 47.7677 58.1123 47.7475 57.9998C47.7273 57.8872 47.6988 57.752 47.7053 57.622C47.7091 57.5437 47.7752 57.4401 47.7907 57.4019C47.8356 57.2941 47.7478 57.1852 47.8052 57.1169C47.8629 57.048 47.962 57.1721 47.9928 56.9975C47.8934 56.996 47.791 56.9864 47.6908 56.9811C47.6754 56.6026 47.6889 56.2288 47.6657 55.8494C47.6627 55.8024 47.6118 55.8532 47.6072 55.8028C47.5882 55.5904 47.6169 55.4026 47.5908 55.1826C47.5703 55.0124 47.5046 54.8278 47.4815 54.6499C47.5894 54.5351 47.5377 54.2719 47.5385 54.0788C47.5387 54.0112 47.5692 54.0142 47.5767 53.9657C47.6042 53.7829 47.5083 53.8727 47.49 53.8238C47.4122 53.6143 47.638 53.5848 47.6199 53.3341C47.619 53.3208 47.49 53.1643 47.4814 53.1423C47.4252 53.0025 47.5223 53.1166 47.5268 53.0272C47.535 52.8638 47.5583 52.7494 47.5134 52.5605C47.5001 52.5054 47.4181 52.3758 47.471 52.2649C47.4779 52.2503 47.5183 52.2561 47.52 52.2446C47.5487 52.0357 47.4229 52.0365 47.3745 51.9203C47.3261 51.8042 47.4037 51.6171 47.4268 51.5787C47.4866 51.4782 47.4581 51.6519 47.4647 51.6568C47.5433 51.715 47.5236 51.5824 47.5249 51.4802C47.6473 51.4594 47.6328 51.3173 47.5258 51.3744C47.5141 51.3808 47.5296 51.4595 47.5249 51.4802C47.3997 51.3969 47.3765 51.2412 47.4807 51.0627C47.5296 50.9792 47.5951 51.0526 47.5603 50.8079C47.5445 50.6969 47.4619 50.7442 47.4339 50.647C47.37 50.4247 47.4345 50.1286 47.4105 49.8974C47.4018 49.8135 47.3595 49.8977 47.3519 49.8405C47.3317 49.6885 47.3598 49.5522 47.3343 49.3998C47.332 49.386 47.2851 49.4224 47.2821 49.3747C47.2585 49.0137 47.2739 48.6976 47.256 48.3203C47.2473 48.138 47.2043 47.8135 47.2003 47.6244C47.193 47.2967 47.2436 46.8906 47.2125 46.6119C47.1924 46.4301 47.1458 46.4725 47.1089 46.3961C47.0372 46.2485 47.1388 45.9759 47.1548 45.9391C47.1553 45.938 47.1746 46.0943 47.1954 46.0093C47.2449 45.9581 47.1551 45.9409 47.1548 45.9391C47.1651 45.9149 47.1605 45.6009 47.1482 45.5392C47.1414 45.5056 47.0963 45.5268 47.0937 45.5093C47.0316 45.0922 46.999 44.673 46.9993 44.2468C46.9999 44.2393 47.0519 44.248 47.0526 44.2304C47.0632 43.9831 46.9924 43.8287 46.9449 43.6276C46.8974 43.4265 46.9019 43.265 46.9843 43.1405C46.9656 42.9879 46.9937 42.7663 47.0111 42.6387C47.0285 42.5111 46.9274 42.4985 46.9249 42.4875C46.8442 42.1437 46.8916 41.9403 46.8826 41.58C46.8785 41.4087 46.847 41.07 46.8268 40.8853C46.8107 40.7393 46.8298 40.6499 46.8081 40.5157C46.8052 40.4976 46.7615 40.5183 46.7595 40.5128C46.6986 40.3649 46.8113 40.4318 46.8292 40.3997C46.8944 40.2835 46.9287 40.212 46.8857 40.0208C46.8759 39.9767 46.7124 39.855 46.6992 39.7744C46.6823 39.6696 46.7405 39.7066 46.7214 39.5969C46.7198 39.5875 46.6852 39.5912 46.6833 39.523C46.6742 39.2065 46.6773 38.8607 46.6574 38.5323C46.6548 38.4875 46.6026 38.5478 46.598 38.483C46.5763 38.179 46.5617 37.8454 46.5727 37.5477C46.5756 37.4744 46.6165 37.5182 46.6271 37.5018C46.6916 37.4011 46.584 37.2682 46.581 37.2456C46.5072 36.717 46.573 36.3037 46.5095 35.7701L46.4943 35.2721L46.9741 35.2681C46.9861 35.267 46.9981 35.2658 47.0101 35.2645C47.0402 35.2611 47.2692 35.1467 47.3753 35.2365C47.3825 35.2424 47.4875 35.3344 47.5763 35.2671C47.5818 35.2629 47.5167 35.2159 47.6281 35.2178C47.7396 35.2197 47.918 35.1821 48.0725 35.2315C48.1214 35.2471 48.2386 35.3385 48.381 35.2591C48.3903 35.2536 48.6088 35.077 48.6917 35.1924C48.7051 35.2114 48.695 35.3362 48.8658 35.2677C48.8984 35.2544 48.8378 35.2283 48.9242 35.2086C49.0565 35.1782 49.2337 35.2066 49.3957 35.1467C49.424 35.1361 49.5431 35.0483 49.6423 35.1097C49.6578 35.1193 49.63 35.1617 49.6815 35.1649C49.9267 35.1805 50.1821 35.1456 50.4312 35.1675C50.5195 35.1752 50.4764 35.2436 50.5685 35.2591C50.6608 35.2745 50.846 35.2867 50.9411 35.2534C51.0362 35.22 50.9284 35.1159 51.072 35.1034C51.4757 35.0682 51.8781 35.0749 52.281 35.0818L52.845 35.0771L52.8133 35.6203C52.7949 35.8394 52.7764 36.0587 52.7646 36.2789C52.7596 36.3714 52.8008 36.2961 52.7962 36.4325C52.7795 36.9354 52.7815 37.8049 52.6831 38.238C52.6043 38.585 52.5719 38.1432 52.5349 38.4092C52.5173 38.5376 52.6362 38.682 52.6389 38.7132C52.6668 39.0187 52.6035 39.2279 52.6097 39.5021C52.611 39.5587 52.6636 39.5053 52.6641 39.5535C52.6665 39.7181 52.6372 39.8898 52.6352 40.0469C52.6344 40.1174 52.6734 40.1059 52.6679 40.1706C52.6552 40.3254 52.6337 40.4618 52.5917 40.6115C52.5879 40.6252 52.5436 40.5304 52.5373 40.645C52.5273 40.8306 52.4827 41.0596 52.5112 41.2746C52.5198 41.3384 52.6077 41.3443 52.5416 41.4781C52.5278 41.5062 52.4235 41.4656 52.5086 41.6279C52.5228 41.6552 52.6355 41.9265 52.551 42.0542C52.5288 42.0879 52.4389 42.1726 52.4495 42.2493C52.4512 42.2598 52.5001 42.2202 52.5023 42.2835C52.509 42.5067 52.4949 42.7397 52.5008 42.9689C52.5024 43.0301 52.5549 42.9411 52.5558 43.0323C52.5584 43.283 52.5337 43.5949 52.5089 43.839C52.4996 43.929 52.4615 43.865 52.4569 43.8714C52.381 43.9742 52.4754 44.0404 52.4797 44.0756C52.505 44.2948 52.453 44.459 52.4572 44.6603C52.4583 44.7158 52.5059 44.6783 52.5096 44.6895C52.5454 44.8055 52.4658 44.7171 52.4538 44.7891C52.4201 44.991 52.4149 45.2174 52.4128 45.4228C52.4121 45.4982 52.4689 45.4156 52.4677 45.4833C52.4613 45.884 52.4399 46.3 52.3952 46.6896C52.3866 46.7629 52.3472 46.715 52.3372 46.73C52.2672 46.8331 52.351 46.9915 52.3582 47.0274C52.3909 47.191 52.352 47.2525 52.3533 47.3959C52.3598 48.0962 52.302 48.9584 52.2613 49.6177C52.2086 50.4768 52.1433 51.1425 52.1215 51.9628C52.1201 52.015 52.1769 51.9646 52.1764 52.0095C52.167 52.5901 52.1233 53.1602 52.1164 53.742C52.1158 53.7897 52.1704 53.723 52.1711 53.7997C52.1729 53.957 52.1623 54.1558 52.1395 54.3139C52.1285 54.391 52.088 54.2854 52.0778 54.3631C52.054 54.5439 52.0427 54.7383 52.0437 54.925C52.0443 55.0045 52.1021 54.8869 52.0987 54.99C52.0766 55.6926 52.0588 56.3827 51.9623 57.0898C51.9556 57.1383 51.8459 57.1767 51.8626 57.281C51.8923 57.29 51.9276 57.2909 51.9595 57.2956C51.9368 58.3187 51.8599 59.3292 51.8141 60.3543C51.8122 60.3975 51.8723 60.3251 51.8689 60.4088C51.8491 60.8931 51.8466 61.3641 51.7704 61.8574C51.7629 61.9063 51.6632 61.8772 51.6728 62.0227C51.6739 62.0384 51.6761 62.1263 51.6822 62.2053L51.6586 62.6104L51.2692 62.6136C51.2194 62.6208 51.1732 62.6293 51.1515 62.6384C51.144 62.6419 51.1851 62.6879 51.1148 62.6912C50.7062 62.7096 50.2776 62.7107 49.8687 62.6932C49.8027 62.6903 49.8715 62.6383 49.8245 62.6357C49.491 62.6183 49.1302 62.6664 48.811 62.6297C48.5973 62.6049 48.6737 62.5162 48.5583 62.4341C48.5419 62.4225 48.4101 62.4243 48.4019 62.3749C48.381 62.2507 48.4411 62.1124 48.4112 61.9803C48.4049 61.9518 48.2292 61.9875 48.3318 61.9155C48.339 61.9106 48.4663 61.8842 48.4972 61.8598C48.5187 61.843 48.4778 61.7937 48.522 61.7717C48.5662 61.7497 48.6165 61.7906 48.6901 61.7642C48.7636 61.7374 48.7294 61.681 48.8773 61.6701ZM47.0887 42.0643C47.131 41.9448 46.9539 41.9363 47.0024 42.0608C47.0049 42.0668 47.0866 42.0704 47.0887 42.0643ZM47.822 56.2243C47.8921 56.0674 47.7726 55.9684 47.7179 56.0793C47.6633 56.1902 47.8007 56.2721 47.822 56.2243ZM47.9578 57.8082C48.0102 57.6263 47.7588 57.6106 47.8189 57.7996C47.8223 57.8106 47.9547 57.8188 47.9578 57.8082ZM49.082 62.3954C49.0804 62.3931 48.9856 62.3934 48.9834 62.3958C48.9345 62.4532 49.124 62.4525 49.082 62.3954ZM48.098 59.3796C48.129 59.3221 48.082 59.1633 48.0434 59.2348C48.0124 59.2923 48.0594 59.4513 48.098 59.3796ZM46.9727 35.9493C46.9752 35.9473 46.9742 35.8793 46.9594 35.8814C46.9118 35.8884 46.93 35.9822 46.9727 35.9493ZM48.2342 62.0556C48.2239 61.6598 48.4184 61.4098 48.4166 61.8415C48.4162 61.9197 48.3424 61.6767 48.3287 61.7769C48.3038 61.9602 48.4395 62.0743 48.3792 62.2631C48.3682 62.2973 48.2343 62.0782 48.2339 62.0549C48.234 62.0552 48.2341 62.0554 48.2342 62.0556ZM47.297 41.9863C47.2993 41.9839 47.2968 41.8898 47.2944 41.8877C47.2359 41.8396 47.2408 42.0291 47.297 41.9863ZM50.7507 35.727C50.756 35.7319 50.9743 35.7305 50.9813 35.7257C51.0926 35.631 50.6512 35.6335 50.7507 35.727ZM47.7412 48.3062C47.8026 48.4059 47.8153 48.5282 47.7487 48.6134C47.7474 48.5114 47.7428 48.4088 47.7412 48.3062Z" fill="white"/>
<circle cx="50.528" cy="68.64" r="2.36" fill="white"/>
<path d="M53.4668 68.8157C53.4765 68.9203 53.4441 69.0548 53.4036 69.1518C53.391 69.1822 53.3631 69.1605 53.353 69.1809C53.3331 69.2202 53.3397 69.2626 53.3159 69.3003C53.3079 69.3126 53.2637 69.2845 53.2564 69.2975C53.2169 69.3683 53.2089 69.4425 53.174 69.5145C53.0027 69.8664 52.7948 70.1822 52.5228 70.4492C52.4328 70.538 52.2936 70.6085 52.2074 70.7034C52.1973 70.7146 52.2315 70.7428 52.2316 70.7474C52.2304 70.8187 52.1874 70.7407 52.1574 70.7493C52.038 70.7836 51.9329 70.8491 51.846 70.9186C51.809 70.9482 51.8927 71 51.8271 70.9813C51.8227 70.98 51.8106 70.9339 51.797 70.9358C51.7664 70.9402 51.7218 70.9729 51.7 70.9796C51.6581 70.9923 51.652 70.9957 51.6148 71.0124C51.5635 71.0348 51.4941 71.039 51.4423 71.0696C51.4312 71.0763 51.4638 71.1146 51.4472 71.1294C51.4306 71.1443 51.3774 71.1586 51.3564 71.1536C51.3354 71.1487 51.3314 71.1109 51.3257 71.1037C51.2791 71.0434 51.2499 71.156 51.242 71.1606C51.1107 71.2411 50.9726 71.2099 50.8385 71.2262C50.7364 71.2388 50.6273 71.2634 50.528 71.2611C50.5271 71.2611 50.5263 71.261 50.5255 71.261C50.4064 71.2574 50.3092 71.2252 50.1956 71.2154C50.1836 71.2143 50.1905 71.2713 50.1756 71.27C50.0167 71.2555 49.8599 71.2136 49.7221 71.1295C49.7084 71.121 49.7426 71.0808 49.73 71.0696C49.6504 71.0021 49.561 70.8607 49.4204 71.0291C49.3645 70.9942 49.2974 70.9498 49.2684 70.8841C49.25 70.8419 49.3073 70.8134 49.2575 70.8108C49.2463 70.8101 49.234 70.857 49.2188 70.8527C49.1542 70.8343 49.1032 70.7832 49.0368 70.766C49.0232 70.7625 49.002 70.7986 48.9945 70.8026C48.9326 70.8335 48.9495 70.7203 48.9455 70.7079C48.9106 70.6121 48.8506 70.5894 48.7923 70.5345C48.7789 70.5217 48.7571 70.5779 48.7426 70.5669C48.6681 70.5089 48.6027 70.4342 48.5615 70.3488C48.5525 70.3297 48.6008 70.3126 48.5985 70.3019C48.5883 70.256 48.5129 70.3064 48.5021 70.2621C48.4998 70.2528 48.5348 70.2311 48.5374 70.2271C48.5777 70.1645 48.4864 70.2097 48.4806 70.2058C48.4077 70.1597 48.4638 70.0578 48.411 70.0038C48.4046 69.9972 48.3722 70.0426 48.3565 70.022C48.2515 69.8847 48.1804 69.7106 48.1599 69.5389C48.1566 69.5122 48.1996 69.5161 48.2035 69.5128C48.2646 69.4623 48.1648 69.4811 48.1583 69.4741C48.1101 69.419 48.1732 69.3366 48.046 69.3247C48.0169 69.0944 47.9506 68.8695 47.9901 68.64C47.9998 68.5838 48.016 68.5292 48.0407 68.4756C48.0421 68.4721 48.0911 68.4816 48.0938 68.4749C48.1277 68.3943 48.05 68.4053 47.9628 68.3369C47.9411 68.3191 48.0594 68.2902 48.0681 68.2882C48.1004 68.279 48.1712 68.3034 48.1777 68.2998C48.2291 68.271 47.9876 68.2397 47.9968 68.1863C47.9975 68.1848 48.0403 68.1994 48.0455 68.1959C48.0616 68.1849 48.0466 68.1684 48.0643 68.1582C48.1052 68.1349 48.2226 68.15 48.1654 68.0915C48.1581 68.0838 48.0213 68.0616 48.039 68.0167C48.0459 67.999 48.0659 67.9171 48.0816 67.8975C48.097 67.8778 48.1348 67.9062 48.1371 67.9051C48.2116 67.8641 48.2279 67.8938 48.3196 67.8936C48.4108 67.8947 48.2129 67.8346 48.1953 67.8151C48.1777 67.7955 48.2388 67.77 48.2584 67.7663C48.278 67.7623 48.2996 67.785 48.3119 67.7796C48.3926 67.7451 48.2268 67.7159 48.2044 67.6836C48.1526 67.6056 48.3098 67.6299 48.3422 67.5968C48.3511 67.5876 48.3153 67.5815 48.3172 67.5701C48.3253 67.525 48.3795 67.5241 48.3645 67.4597C48.3618 67.4496 48.3018 67.3678 48.3739 67.3788C48.3842 67.3806 48.4119 67.4088 48.4287 67.3973C48.4537 67.38 48.4868 67.3427 48.4923 67.311C48.4965 67.2876 48.43 67.274 48.4618 67.2614C48.4759 67.256 48.4939 67.2954 48.5177 67.2838C48.5414 67.2723 48.5734 67.2242 48.5857 67.2058C48.5978 67.1873 48.5524 67.1684 48.5508 67.1651C48.5425 67.1452 48.5509 67.0965 48.5535 67.0934C48.6717 66.9341 48.8542 66.8647 48.9803 66.7278C48.9904 66.7171 48.9512 66.684 48.9525 66.6819C48.9793 66.6335 49.0314 66.7632 49.0857 66.7775C49.0191 66.6999 49.0465 66.7018 49.068 66.6718C49.0784 66.6573 49.0475 66.6309 49.0463 66.6268C49.0316 66.5629 49.092 66.6154 49.1047 66.6258C49.1519 66.664 49.1273 66.5971 49.1588 66.6229C49.1898 66.6487 49.2012 66.7103 49.2276 66.6917C49.2151 66.656 49.141 66.5905 49.154 66.5632C49.2042 66.4575 49.4055 66.432 49.4786 66.4081C49.5526 66.3823 49.5736 66.3668 49.6205 66.362C49.7053 66.3547 49.652 66.2994 49.6903 66.251C49.7297 66.2031 49.7612 66.3769 49.7801 66.4101C49.7985 66.4435 49.7935 66.4045 49.808 66.4215C49.8224 66.4385 49.813 66.4683 49.834 66.4697C49.8546 66.471 49.8868 66.392 49.8837 66.3522C49.8762 66.2681 49.8276 66.1907 49.8909 66.2055C49.8945 66.2065 49.8959 66.2535 49.909 66.2549C50.0117 66.2648 50.1104 66.2479 50.2087 66.2664C50.2221 66.269 50.2173 66.3211 50.2251 66.3233C50.3053 66.3464 50.2676 66.2644 50.3029 66.1648C50.3048 66.2926 50.3351 66.3674 50.3917 66.3646C50.4261 66.3632 50.4172 66.3081 50.4387 66.268C50.4452 66.2559 50.4714 66.2934 50.4754 66.2672C50.489 66.1816 50.4624 66.0859 50.528 66.1235C50.528 66.1235 50.528 66.1235 50.528 66.1235C50.5291 66.1242 50.5286 66.1304 50.528 66.1383C50.5272 66.1487 50.5262 66.1621 50.528 66.1695C50.5287 66.1724 50.5298 66.1745 50.5316 66.175C50.5936 66.194 50.6028 66.1047 50.6732 66.0974C50.7289 66.0916 50.8198 66.155 50.878 66.1726C50.8574 66.3141 50.9145 66.2894 50.9545 66.1964C50.9924 66.2071 51.035 66.2099 51.0691 66.2315C51.0808 66.2389 51.0633 66.2774 51.0639 66.2821C51.0719 66.356 51.1098 66.2665 51.1191 66.2649C51.2175 66.2519 51.2659 66.3427 51.3709 66.3049C51.3746 66.3035 51.4138 66.2119 51.4109 66.2883C51.4105 66.2935 51.3678 66.3257 51.4048 66.3435C51.4425 66.3614 51.4911 66.4392 51.561 66.4213C51.5777 66.4167 51.6453 66.3596 51.6423 66.4288C51.6418 66.4381 51.6253 66.4617 51.6229 66.4783C51.6149 66.5309 51.6697 66.4461 51.6475 66.531C51.6253 66.6159 51.6272 66.6894 51.7026 66.6658C51.7049 66.6652 51.7568 66.6034 51.7712 66.6137C51.7939 66.63 51.8179 66.6652 51.842 66.6808C51.8535 66.6883 51.8739 66.6424 51.8764 66.643C51.9706 66.6737 51.9995 66.7506 52.0631 66.8291C52.0744 66.8433 52.1596 66.8282 52.1498 66.892C52.138 66.9612 51.9441 67.1109 52.0417 67.1257C52.0792 67.1304 52.336 66.9527 52.2608 67.1083C52.3731 67.176 52.376 67.3151 52.4889 67.3865C52.4939 67.3897 52.5762 67.3588 52.5824 67.3712C52.5914 67.3894 52.5627 67.4196 52.5675 67.433C52.5871 67.4896 52.6431 67.5207 52.6642 67.5748C52.6721 67.5952 52.6315 67.6067 52.6405 67.6306C52.6493 67.6544 52.7064 67.6473 52.6964 67.6901C52.6887 67.7228 52.5955 67.7894 52.5953 67.8243C52.6982 67.7849 52.705 67.8075 52.7468 67.8375C52.7549 67.8433 52.788 67.8219 52.7937 67.824C52.8178 67.8326 52.7927 67.8571 52.818 67.8646C52.8241 67.8665 52.8598 67.8546 52.8668 67.8556C52.9281 67.8635 52.8604 67.9314 52.8482 67.9421C52.8025 67.9849 52.853 67.9836 52.8374 68.0103C52.8216 68.0365 52.7869 68.0133 52.7802 68.0403C52.7664 68.0958 52.7865 68.1563 52.7941 68.2063C52.7974 68.2262 52.8443 68.2035 52.8459 68.2061C52.8663 68.2462 52.8198 68.2961 52.9222 68.3059C52.6694 68.3697 52.951 68.328 52.9062 68.3968C52.9025 68.4022 52.7812 68.4198 52.7616 68.4042C52.7419 68.3887 52.7768 68.3576 52.7458 68.3371C52.7385 68.3319 52.6204 68.3169 52.6128 68.3142C52.5541 68.2905 52.7335 68.255 52.7431 68.2512C52.8462 68.2109 52.7168 68.193 52.7063 68.1852C52.6583 68.1463 52.6738 68.1016 52.6364 68.0702C52.6122 68.0497 52.4962 68.0803 52.4944 68.0612C52.4885 67.999 52.6383 67.92 52.4809 67.9117C52.4472 67.9102 52.3298 67.9692 52.4093 67.89C52.4145 67.8854 52.4886 67.8173 52.4257 67.8221C52.4178 67.8228 52.3828 67.8381 52.3786 67.8364C52.351 67.8252 52.3729 67.7997 52.3497 67.7846C52.3266 67.7697 52.295 67.7546 52.2944 67.7254C52.2941 67.7079 52.347 67.656 52.3583 67.6405C52.3912 67.5962 52.3077 67.6158 52.3532 67.5733C52.3983 67.5297 52.4935 67.5083 52.5067 67.4533C52.4208 67.5031 52.332 67.5529 52.2455 67.6028C52.2085 67.5348 52.191 67.4526 52.1387 67.3923C52.1321 67.385 52.0962 67.4256 52.0882 67.4187C52.0551 67.3903 52.0598 67.3366 52.0183 67.3126C51.9859 67.2942 51.919 67.3055 51.8844 67.2909C51.9497 67.1954 51.8828 67.1843 51.8606 67.1508C51.8527 67.1389 51.8735 67.1168 51.8725 67.1028C51.8677 67.0502 51.8157 67.138 51.7979 67.1434C51.7224 67.1681 51.8636 66.99 51.8163 66.9603C51.8135 66.9584 51.7133 67.0344 51.7055 67.0381C51.6532 67.0608 51.7266 67.0013 51.7168 66.9832C51.6989 66.9503 51.6948 66.9123 51.6417 66.92C51.6259 66.9222 51.5631 66.9717 51.5746 66.9105C51.5761 66.9024 51.5982 66.869 51.5973 66.8658C51.5793 66.8095 51.5148 66.9177 51.4737 66.9433C51.4329 66.9692 51.442 66.876 51.4461 66.85C51.4575 66.7832 51.4726 66.8325 51.4764 66.8275C51.5233 66.7667 51.492 66.7649 51.4751 66.7493C51.5277 66.6377 51.4949 66.6299 51.4573 66.7337C51.4532 66.745 51.4737 66.7423 51.4751 66.7493C51.4032 66.8485 51.3709 66.8499 51.3837 66.7318C51.3894 66.6764 51.4297 66.6263 51.3701 66.6255C51.3432 66.6254 51.3198 66.7075 51.2919 66.7212C51.2292 66.7529 51.1989 66.6581 51.1469 66.6551C51.1285 66.6541 51.1313 66.7036 51.1186 66.7046C51.085 66.7076 51.0674 66.6664 51.0319 66.6757C51.0287 66.6767 51.0233 66.7255 51.0139 66.7237C50.9422 66.7116 50.8855 66.6685 50.8086 66.6567C50.7714 66.6509 50.7026 66.6707 50.665 66.663C50.6225 66.6542 50.5746 66.621 50.528 66.604C50.5023 66.5946 50.4778 66.5901 50.4572 66.5969C50.4195 66.6094 50.4303 66.6577 50.4163 66.6916C50.3906 66.7572 50.329 66.6473 50.3188 66.6305C50.3185 66.6299 50.3498 66.6154 50.3301 66.5922C50.3148 66.5414 50.3191 66.6303 50.3188 66.6305C50.3128 66.6193 50.2463 66.6162 50.2349 66.6275C50.2286 66.6336 50.2392 66.6786 50.2359 66.6809C50.1577 66.7342 50.0817 66.7624 49.9942 66.7648C49.9925 66.7643 49.9806 66.7141 49.9767 66.7136C49.9216 66.7056 49.9091 66.7762 49.8843 66.8246C49.8593 66.8732 49.8274 66.8724 49.7711 66.7998C49.7468 66.8218 49.6903 66.8042 49.6561 66.7942C49.6218 66.7842 49.6627 66.8761 49.6616 66.8788C49.6283 66.9664 49.568 66.934 49.5006 66.9644C49.4687 66.9785 49.4196 67.0285 49.3963 67.0591C49.3779 67.0832 49.3497 67.075 49.3375 67.1034C49.3358 67.1072 49.3661 67.1403 49.3663 67.1423C49.3764 67.2023 49.3198 67.108 49.3028 67.0965C49.2409 67.0552 49.2045 67.0359 49.1953 67.0877C49.1927 67.0999 49.2768 67.2352 49.272 67.2521C49.265 67.2743 49.2324 67.2276 49.2259 67.2524C49.2253 67.2545 49.2494 67.2795 49.2389 67.2874C49.1906 67.3242 49.1296 67.3588 49.0907 67.4097C49.0853 67.4165 49.1344 67.444 49.1275 67.4542C49.0953 67.5022 49.0562 67.5498 49.0029 67.5813C48.9896 67.589 48.9628 67.56 48.9516 67.556C48.8833 67.5327 48.9519 67.6118 48.9514 67.6161C48.9368 67.7281 48.8184 67.7544 48.8128 67.8714C48.8123 67.8785 48.8947 67.9599 48.8019 67.9427C48.7958 67.9413 48.7 67.9253 48.7542 67.9652C48.7576 67.9676 48.8075 67.9737 48.7954 67.9917C48.7832 68.01 48.803 68.0516 48.7431 68.0628C48.7243 68.0659 48.6268 68.0604 48.6912 68.1091C48.6953 68.1134 48.8489 68.1976 48.7316 68.1823C48.7123 68.1798 48.5919 68.1471 48.646 68.1955C48.6566 68.2046 48.6862 68.1997 48.6993 68.2198C48.7197 68.2503 48.6802 68.277 48.7294 68.3172C48.738 68.3246 48.8176 68.3598 48.7517 68.3674C48.7413 68.3687 48.701 68.3571 48.695 68.366C48.6661 68.409 48.6884 68.4606 48.6564 68.5056C48.6452 68.5219 48.5787 68.5087 48.5596 68.5262C48.5405 68.5436 48.5218 68.581 48.5522 68.6013C48.5826 68.6211 48.6899 68.6022 48.6982 68.6296C48.6992 68.633 48.7002 68.6365 48.7012 68.64C48.7317 68.7526 48.6825 68.868 48.6951 68.9847C48.697 69.0023 48.7318 68.9809 48.7375 69.0057C48.7578 69.0993 48.8382 69.2377 48.7954 69.3442C48.7613 69.4319 48.6819 69.371 48.6784 69.431C48.6775 69.4611 48.8026 69.4351 48.8085 69.4384C48.8692 69.4741 48.8388 69.5349 48.8799 69.5735C48.8884 69.5813 48.9269 69.547 48.9336 69.5537C48.9564 69.576 48.9541 69.6154 48.9737 69.6383C48.9826 69.6484 49.0136 69.6253 49.0177 69.6369C49.028 69.6645 49.0291 69.6945 49.0169 69.7391C49.0158 69.7433 48.9663 69.7567 48.9782 69.776C48.9973 69.8068 48.998 69.8656 49.0535 69.8745C49.0702 69.8771 49.1371 69.82 49.1083 69.8796C49.1023 69.8919 49.0184 69.9569 49.1075 69.9195C49.1229 69.9141 49.2463 69.8661 49.2065 69.9386C49.196 69.9578 49.1471 70.0313 49.1677 70.0324C49.1706 70.0323 49.1979 69.9928 49.2099 69.9981C49.2515 70.017 49.2815 70.0509 49.3246 70.0679C49.3361 70.0723 49.3545 70.0238 49.3704 70.0313C49.4138 70.0515 49.4516 70.0961 49.4804 70.1349C49.4909 70.1493 49.4582 70.1759 49.4567 70.1802C49.4327 70.251 49.4976 70.1778 49.506 70.1766C49.5585 70.1709 49.5606 70.2258 49.5998 70.2348C49.6104 70.2373 49.6272 70.1936 49.6311 70.1911C49.6693 70.1666 49.6144 70.2308 49.6217 70.2455C49.6424 70.287 49.6829 70.304 49.7206 70.3156C49.7344 70.3198 49.7432 70.2646 49.7551 70.2688C49.8257 70.2921 49.8934 70.3248 49.9532 70.3757C49.9645 70.3853 49.9435 70.4218 49.9433 70.4317C49.9429 70.5009 49.9986 70.4238 50.0069 70.4173C50.047 70.3882 50.0485 70.4263 50.0765 70.4264C50.2112 70.4263 50.3647 70.4703 50.4909 70.4869C50.5034 70.4886 50.5158 70.4903 50.528 70.4919C50.6739 70.5115 50.8009 70.5306 50.943 70.49C50.9527 70.4872 50.9308 70.4359 50.9388 70.4328C51.0413 70.3959 51.1503 70.3831 51.2449 70.3256C51.2526 70.3211 51.2205 70.2782 51.2318 70.2693C51.2549 70.2508 51.2882 70.2384 51.3216 70.2403C51.3379 70.2411 51.3406 70.2897 51.3569 70.2895C51.395 70.289 51.4299 70.2745 51.4564 70.2495C51.4675 70.2388 51.4214 70.2041 51.4376 70.1939C51.5473 70.1231 51.6401 70.0434 51.7853 70.0034C51.7952 70.0007 51.8753 70.0739 51.8761 70.0444C51.8564 70.0217 51.8319 69.9963 51.8101 69.9727C51.9367 69.827 52.0828 69.6969 52.182 69.5249C52.186 69.5177 52.1289 69.5031 52.1364 69.4894C52.1796 69.4093 52.1991 69.3258 52.2839 69.2566C52.2922 69.2496 52.3859 69.2874 52.3807 69.2549C52.3798 69.2492 52.3802 69.2036 52.3622 69.1869C52.3594 69.1846 52.3122 69.1784 52.3147 69.1652C52.3297 69.0885 52.3578 69.0131 52.3985 68.9393C52.4052 68.9274 52.4526 68.9487 52.4577 68.9401C52.4943 68.8777 52.4636 68.8021 52.5121 68.7404C52.5446 68.6984 52.6304 68.7178 52.7164 68.6951C52.7285 68.6919 52.7309 68.6622 52.7805 68.661C52.9052 68.6577 53.0416 68.6752 53.1746 68.67C53.2033 68.6689 53.1726 68.6203 53.2417 68.6492C53.2464 68.6512 53.269 68.6871 53.2922 68.6966C53.3083 68.7032 53.359 68.6928 53.3795 68.7063C53.3999 68.7199 53.3573 68.7329 53.3808 68.7552C53.4045 68.7779 53.4625 68.7706 53.4668 68.8157ZM49.4992 66.7551C49.4531 66.7255 49.5364 66.8811 49.5391 66.8314C49.5391 66.8288 49.5015 66.7565 49.4992 66.7551ZM52.2981 67.3762C52.3409 67.3024 52.2349 67.352 52.2007 67.4067C52.1656 67.4603 52.2847 67.3981 52.2981 67.3762ZM52.5305 67.6539C52.5667 67.5891 52.3417 67.6987 52.405 67.7121C52.4086 67.7129 52.5284 67.6576 52.5305 67.6539ZM52.7345 68.8144C52.7369 68.8143 52.7408 68.793 52.7385 68.7923C52.6834 68.7774 52.6758 68.8188 52.7345 68.8144ZM52.7221 67.97C52.7507 67.9474 52.7017 67.923 52.6667 67.9515C52.6384 67.9739 52.6864 67.9975 52.7221 67.97ZM48.4204 67.6329C48.4178 67.6322 48.4087 67.6458 48.4223 67.6519C48.4661 67.6712 48.4634 67.6455 48.4204 67.6329ZM52.8238 68.5887C52.8308 68.4982 53.0319 68.4207 53.0149 68.5324C53.0115 68.5521 52.947 68.4935 52.9296 68.5192C52.8978 68.5642 53.0283 68.5917 52.9589 68.6392C52.9463 68.6469 52.8231 68.5933 52.8235 68.5885C52.8236 68.5886 52.8237 68.5886 52.8238 68.5887ZM49.3832 66.577C49.3816 66.5752 49.3607 66.5844 49.3614 66.5868C49.3786 66.6413 49.4198 66.6233 49.3832 66.577ZM48.0855 68.5415C48.0804 68.5426 48.0742 68.5971 48.0789 68.599C48.1697 68.6279 48.1823 68.522 48.0855 68.5415ZM50.8784 66.1765C50.912 66.1243 50.946 66.123 50.9544 66.1963C50.9295 66.1882 50.9036 66.1836 50.8784 66.1765Z" fill="white"/>
</g>
</g>
<defs>
<filter id="filter0_ddd_1021_17786" x="5.33984" y="8.35999" width="89.1953" height="80.015" filterUnits="userSpaceOnUse" color-interpolation-filters="sRGB">
<feFlood flood-opacity="0" result="BackgroundImageFix"/>
<feColorMatrix in="SourceAlpha" type="matrix" values="0 0 0 0 0 0 0 0 0 0 0 0 0 0 0 0 0 0 127 0" result="hardAlpha"/>
<feOffset/>
<feGaussianBlur stdDeviation="0.5"/>
<feComposite in2="hardAlpha" operator="out"/>
<feColorMatrix type="matrix" values="0 0 0 0 0 0 0 0 0 0 0 0 0 0 0 0 0 0 0.08 0"/>
<feBlend mode="normal" in2="BackgroundImageFix" result="effect1_dropShadow_1021_17786"/>
<feColorMatrix in="SourceAlpha" type="matrix" values="0 0 0 0 0 0 0 0 0 0 0 0 0 0 0 0 0 0 127 0" result="hardAlpha"/>
<feOffset dy="1"/>
<feGaussianBlur stdDeviation="2"/>
<feComposite in2="hardAlpha" operator="out"/>
<feColorMatrix type="matrix" values="0 0 0 0 0 0 0 0 0 0 0 0 0 0 0 0 0 0 0.08 0"/>
<feBlend mode="normal" in2="effect1_dropShadow_1021_17786" result="effect2_dropShadow_1021_17786"/>
<feColorMatrix in="SourceAlpha" type="matrix" values="0 0 0 0 0 0 0 0 0 0 0 0 0 0 0 0 0 0 127 0" result="hardAlpha"/>
<feOffset dy="2"/>
<feGaussianBlur stdDeviation="4"/>
<feComposite in2="hardAlpha" operator="out"/>
<feColorMatrix type="matrix" values="0 0 0 0 0 0 0 0 0 0 0 0 0 0 0 0 0 0 0.12 0"/>
<feBlend mode="normal" in2="effect2_dropShadow_1021_17786" result="effect3_dropShadow_1021_17786"/>
<feBlend mode="normal" in="SourceGraphic" in2="effect3_dropShadow_1021_17786" result="shape"/>
</filter>
<clipPath id="clip0_1021_17786">
<rect width="100" height="100" fill="white" transform="translate(0.1875)"/>
</clipPath>
</defs>
</svg>
