<svg width="121" height="120" viewBox="0 0 121 120" fill="none" xmlns="http://www.w3.org/2000/svg">
<g clip-path="url(#clip0_818_37640)">
<g filter="url(#filter0_ddd_818_37640)">
<path d="M56.1334 12.568L56.5191 8.75362L56.4967 8.75136L56.4743 8.74936L56.1334 12.568ZM58.4141 12.9566L59.4688 9.2707L59.4687 9.2707L58.4141 12.9566ZM59.5923 13.3173L60.8221 9.68605L60.8192 9.6851L59.5923 13.3173ZM61.657 14.4851L63.8069 11.3108L63.8069 11.3108L61.657 14.4851ZM64.1902 16.6586L61.5286 19.418L62.9122 20.7526L64.8093 20.4421L64.1902 16.6586ZM66.3693 16.3967L66.9228 12.603L66.9228 12.603L66.3693 16.3967ZM68.5461 16.7487L67.7204 20.4926L67.7205 20.4926L68.5461 16.7487ZM70.1914 17.1761L71.6076 13.6134L71.6074 13.6133L70.1914 17.1761ZM71.2217 17.5217L72.6479 13.9631L72.6474 13.9629L71.2217 17.5217ZM72.5507 18.1244L74.4857 14.8147L74.4851 14.8144L72.5507 18.1244ZM73.7764 18.9192L76.3085 16.0404L76.3084 16.0404L73.7764 18.9192ZM75.7224 20.7722L78.5679 18.2029L78.5677 18.2027L75.7224 20.7722ZM76.7356 22.0984L79.9544 20.0157L79.954 20.0151L76.7356 22.0984ZM77.9536 24.3293L81.7058 23.5422L81.7056 23.5414L77.9536 24.3293ZM78.1704 26.604L81.9998 26.7883L81.9998 26.7879L78.1704 26.604ZM78.038 27.4778L74.2995 26.6283L74.2993 26.6289L78.038 27.4778ZM77.6287 28.6017L74.0711 27.1728L74.071 27.173L77.6287 28.6017ZM77.2037 29.364L79.6815 32.2895L79.6834 32.2879L77.2037 29.364ZM76.4586 29.7628L77.3649 33.488L77.3666 33.4876L76.4586 29.7628ZM74.6023 29.8395L75.7022 26.1669L75.7021 26.1668L74.6023 29.8395ZM73.5351 29.5443L72.2345 33.1507L72.2346 33.1508L73.5351 29.5443ZM72.1842 28.9667L70.6972 32.5004L70.6985 32.5009L72.1842 28.9667ZM71.354 28.4358L73.4812 25.2462L73.4811 25.2461L71.354 28.4358ZM70.2464 27.5652L67.568 30.3082L67.5681 30.3083L70.2464 27.5652ZM69.0186 26.2814L71.6572 23.5L71.6571 23.4999L69.0186 26.2814ZM67.9051 25.0982L71.0564 22.9148L71.0564 22.9147L67.9051 25.0982ZM67.1791 24.1004L70.2685 21.8301L63.4515 24.9964L67.1791 24.1004ZM67.8499 28.1372L71.6639 27.7477L71.6639 27.7476L67.8499 28.1372ZM67.9427 32.029L71.771 32.2348L71.771 32.2347L67.9427 32.029ZM67.5721 35.9904L71.3766 36.464L71.3766 36.4639L67.5721 35.9904ZM67.2628 37.7626L63.5698 36.733L62.6911 39.8848L65.6657 41.2479L67.2628 37.7626ZM67.6631 37.948L66.2099 41.4957L66.2101 41.4958L67.6631 37.948ZM68.5989 38.4683L70.9232 35.4194L70.9225 35.4189L68.5989 38.4683ZM69.5157 39.0509L71.5121 35.7779L71.512 35.7778L69.5157 39.0509ZM70.3516 39.6688L73.0256 36.9214L73.0253 36.9212L70.3516 39.6688ZM71.3481 40.7559L74.2578 38.2596L74.2578 38.2596L71.3481 40.7559ZM71.9584 41.7044L75.5512 40.3666L75.551 40.3661L71.9584 41.7044ZM72.2658 42.7275L76.0745 42.2894L76.0745 42.2892L72.2658 42.7275ZM72.3294 44.377L76.1139 44.9905L76.1139 44.9902L72.3294 44.377ZM71.8855 46.4736L68.4102 44.8549L68.4101 44.8551L71.8855 46.4736ZM71.4394 47.4214L68.2669 45.2689L68.2668 45.269L71.4394 47.4214ZM70.7824 48.3826L73.6095 50.9722L73.6097 50.972L70.7824 48.3826ZM70.0039 49.3429L72.7939 51.9723L72.794 51.9722L70.0039 49.3429ZM68.8741 50.4264L66.6357 47.3138L66.6354 47.314L68.8741 50.4264ZM67.7878 51.0629L67.0312 47.3045L67.0309 47.3045L67.7878 51.0629ZM66.3964 51.4334L66.7461 55.2512L66.7463 55.2512L66.3964 51.4334ZM64.6934 51.5161L64.1623 55.313L64.1624 55.313L64.6934 51.5161ZM62.3923 51.1252L61.6763 54.8916L61.6763 54.8916L62.3923 51.1252ZM61.6585 50.9402L63.3196 47.4849L63.3196 47.4849L61.6585 50.9402ZM60.9232 50.575L59.0875 53.9408L59.0875 53.9408L60.9232 50.575ZM60.0158 50.1176L61.231 46.4815L61.2298 46.4811L60.0158 50.1176ZM59.299 49.699L61.5347 46.5846L61.5347 46.5845L59.299 49.699ZM58.5778 49.0145L55.1292 50.6895L55.1292 50.6895L58.5778 49.0145ZM58.1969 48.1032L54.5218 49.1948L54.5219 49.1953L58.1969 48.1032ZM57.8509 46.7988L61.5887 45.9463L61.5887 45.9463L57.8509 46.7988ZM57.6497 45.8225L53.8539 46.3617L53.8539 46.3617L57.6497 45.8225ZM57.6877 44.6574L53.9623 43.7523L53.9621 43.7531L57.6877 44.6574ZM58.4862 42.075L55.1318 40.2185L55.1318 40.2185L58.4862 42.075ZM59.8324 39.7513L56.7806 37.4309L56.7798 37.4319L59.8324 39.7513ZM60.0777 39.4032L62.806 42.0966L62.8063 42.0963L60.0777 39.4032ZM60.7567 38.7097L58.3458 35.7288L58.3456 35.7289L60.7567 38.7097ZM61.5651 38.1519L59.5883 34.867L59.5883 34.867L61.5651 38.1519ZM63.8006 37.4738L63.1496 33.6956L63.1495 33.6956L63.8006 37.4738ZM65.3709 37.3557L65.2634 41.188L68.024 41.2655L68.9718 38.6715L65.3709 37.3557ZM65.3797 37.3314L68.9807 38.6472L69.0042 38.5829L69.0254 38.5177L65.3797 37.3314ZM65.6569 35.7519L69.4614 36.2254L69.4614 36.2254L65.6569 35.7519ZM66.0156 31.9251L69.8439 32.1309L69.8439 32.1308L66.0156 31.9251ZM65.9298 28.3331L69.7437 27.9436L69.7437 27.9435L65.9298 28.3331ZM65.2356 24.2758L68.9505 23.3282L68.9504 23.3281L65.2356 24.2758ZM63.9921 20.826L67.4489 19.1681L67.4489 19.168L63.9921 20.826ZM63.5151 19.8971L66.8817 18.0629L62.8108 10.5911L59.9108 18.5904L63.5151 19.8971ZM62.119 22.8715L65.4443 24.7795L65.4444 24.7794L62.119 22.8715ZM58.9566 27.3113L61.8548 29.821L61.8549 29.8209L58.9566 27.3113ZM55.0202 31.1293L57.489 34.0625L57.489 34.0624L55.0202 31.1293ZM52.1263 33.3521L54.2936 36.5145L54.2937 36.5145L52.1263 33.3521ZM52.1098 33.3623L49.945 30.1981L46.5671 32.5092L49.0937 35.729L52.1098 33.3623ZM52.5337 34.0748L49.0688 35.7157L49.0694 35.7169L52.5337 34.0748ZM52.9415 35.2052L56.641 34.1992L56.6408 34.1986L52.9415 35.2052ZM53.0778 35.9158L49.3094 36.6208L49.3094 36.6209L53.0778 35.9158ZM53.1721 36.4771L49.3425 36.6571L49.3425 36.6572L53.1721 36.4771ZM53.1303 37.5674L49.3283 37.0742L49.3283 37.0743L53.1303 37.5674ZM52.9166 39.0662L56.6771 39.8123L56.6771 39.8122L52.9166 39.0662ZM52.6376 40.0024L56.1206 41.6046L56.1206 41.6045L52.6376 40.0024ZM52.158 40.9675L55.5226 42.8053L55.5227 42.8052L52.158 40.9675ZM51.8161 41.5216L48.5826 39.4619L48.5824 39.4621L51.8161 41.5216ZM51.3752 42.1804L54.4198 44.5104L54.4199 44.5102L51.3752 42.1804ZM50.729 42.9286L48.0698 40.1669L48.0694 40.1673L50.729 42.9286ZM49.9612 43.5899L48.0078 40.291L48.0077 40.2911L49.9612 43.5899ZM48.9802 44.1385L50.6501 47.5895L50.6504 47.5894L48.9802 44.1385ZM48.0142 44.5205L46.8392 40.8712L46.839 40.8712L48.0142 44.5205ZM47.2469 44.7506L47.9246 48.524L47.9247 48.524L47.2469 44.7506ZM46.2089 44.7588L45.7067 48.5596L45.7069 48.5596L46.2089 44.7588ZM44.7259 44.5269L44.0711 48.3044L44.0712 48.3044L44.7259 44.5269ZM44.2224 44.4286L44.9581 40.666L44.9576 40.6659L44.2224 44.4286ZM43.3111 44.21L42.2487 47.8937L42.2487 47.8937L43.3111 44.21ZM42.7455 43.988L44.1518 40.4214L44.1513 40.4212L42.7455 43.988ZM42.2267 43.8071L40.4338 47.1959L40.4351 47.1966L42.2267 43.8071ZM41.5917 43.464L43.7969 40.3279L43.7939 40.3258L41.5917 43.464ZM41.0007 43.0321L38.0566 45.4878L38.0568 45.4881L41.0007 43.0321ZM40.4963 42.4381L43.379 39.9106L43.379 39.9106L40.4963 42.4381ZM39.8595 41.6961L42.8873 39.3443L42.887 39.3439L39.8595 41.6961ZM39.3888 41.0531L42.8506 39.4058L42.8506 39.4056L39.3888 41.0531ZM39.1065 40.2418L42.8796 39.5622L42.8796 39.5622L39.1065 40.2418ZM38.9347 39.0101L35.1148 39.3367L35.1148 39.3367L38.9347 39.0101ZM38.917 37.095L35.0922 36.8314L35.0922 36.8316L38.917 37.095ZM39.1747 35.2749L35.4254 34.4741L35.4254 34.4742L39.1747 35.2749ZM39.5061 34.1434L35.9481 32.7154L35.9481 32.7155L39.5061 34.1434ZM39.9323 33.2814L36.6074 31.3727L36.6074 31.3728L39.9323 33.2814ZM40.5273 32.3676L43.4568 34.8407L43.4784 34.8151L43.4996 34.789L40.5273 32.3676ZM40.5458 32.3449L37.6163 29.8717L37.5946 29.8974L37.5734 29.9235L40.5458 32.3449ZM41.2931 31.4983L39.221 28.2726L39.212 28.2784L41.2931 31.4983ZM42.1942 30.9238L40.3444 27.5658L40.3441 27.5659L42.1942 30.9238ZM42.9972 30.5402L41.9441 26.8539L41.9428 26.8543L42.9972 30.5402ZM44.0083 30.2517L43.215 26.5008L43.2149 26.5009L44.0083 30.2517ZM45.2149 30.064L44.8887 26.2441L44.8885 26.2441L45.2149 30.064ZM46.5008 30.0711L46.8368 26.252L46.8368 26.252L46.5008 30.0711ZM47.6372 30.2559L48.5265 26.5266L48.5264 26.5266L47.6372 30.2559ZM48.6814 30.5464L49.8054 26.8811L49.8054 26.881L48.6814 30.5464ZM48.9906 30.6469L47.6482 34.238L47.7032 34.2586L47.7589 34.2774L48.9906 30.6469ZM49.4678 30.8586L48.2125 34.4811L48.2315 34.4877L48.2507 34.4941L49.4678 30.8586ZM49.8657 31.1752L52.1868 28.1238L51.967 27.9567L51.7256 27.8227L49.8657 31.1752ZM50.6035 31.7209L52.9906 28.7209L52.9905 28.7208L50.6035 31.7209ZM50.815 31.9054L48.2161 34.7239L50.4404 36.7749L52.9522 35.0883L50.815 31.9054ZM51.0354 31.76L53.2027 34.9225L53.2028 34.9224L51.0354 31.76ZM53.777 29.6531L56.2458 32.5863L56.2458 32.5862L53.777 29.6531ZM57.4971 26.0474L60.3953 28.5571L60.3953 28.557L57.4971 26.0474ZM60.4444 21.9102L63.7697 23.8182L63.7698 23.8181L60.4444 21.9102ZM61.6354 19.4081L65.2244 20.7563L68.4788 12.0925L60.0512 15.9169L61.6354 19.4081ZM61.0778 19.6513L62.5512 23.1907L62.5513 23.1907L61.0778 19.6513ZM60.0621 20.0351L58.7062 16.449L58.706 16.4491L60.0621 20.0351ZM58.762 20.3541L57.8213 16.6375L57.8212 16.6375L58.762 20.3541ZM56.0993 20.6704L56.273 24.5003L56.2731 24.5003L56.0993 20.6704ZM54.551 20.6831L54.4979 16.8497L54.4977 16.8497L54.551 20.6831ZM52.9363 20.6297L53.0527 16.7977L53.0522 16.7977L52.9363 20.6297ZM50.5358 20.2603L49.4626 23.9409L49.4626 23.9409L50.5358 20.2603ZM49.5258 19.9357L47.7492 23.3331L47.7511 23.3341L49.5258 19.9357ZM48.6251 19.3083L46.1883 22.268L46.1883 22.268L48.6251 19.3083ZM47.3975 17.7298L51.0712 16.6332L51.0705 16.6311L47.3975 17.7298ZM47.2182 16.1595L50.9304 17.1173L50.9306 17.1168L47.2182 16.1595ZM47.5868 14.9994L44.6492 12.536L44.6489 12.5364L47.5868 14.9994ZM49.6863 13.2912L48.3459 9.69929L48.3416 9.70091L49.6863 13.2912ZM52.2313 12.7669L51.6179 8.9825L51.6178 8.98252L52.2313 12.7669ZM53.2703 12.6609L53.5711 16.483L53.5712 16.4829L53.2703 12.6609ZM55.4684 12.5267L55.3257 8.69557L55.3251 8.69559L55.4684 12.5267ZM56.1198 12.5668L55.734 16.3812L55.7565 16.3834L55.7789 16.3854L56.1198 12.5668ZM56.1334 12.568L55.7478 16.3824C56.4527 16.4537 57.0692 16.5595 57.3595 16.6425L58.4141 12.9566L59.4687 9.2707C58.5184 8.99879 57.3662 8.83927 56.5191 8.75362L56.1334 12.568ZM58.4141 12.9566L57.3595 16.6425C57.8533 16.7838 58.1891 16.8899 58.3655 16.9495L59.5923 13.3173L60.8192 9.6851C60.4972 9.57632 60.0408 9.43439 59.4688 9.2707L58.4141 12.9566ZM59.5923 13.3173L58.3626 16.9486C58.2966 16.9262 58.2488 16.9077 58.2285 16.8997C58.2046 16.8903 58.189 16.8837 58.1833 16.8813C58.1722 16.8766 58.1783 16.879 58.2026 16.8904C58.2506 16.9129 58.3399 16.9566 58.465 17.0237C58.7147 17.1576 59.0769 17.3681 59.5071 17.6595L61.657 14.4851L63.8069 11.3108C62.58 10.4799 61.4444 9.8968 60.8221 9.68605L59.5923 13.3173ZM61.657 14.4851L59.5071 17.6594C59.936 17.9499 60.3898 18.3196 61.5286 19.418L64.1902 16.6586L66.8517 13.8992C65.6409 12.7313 64.8018 11.9847 63.8069 11.3108L61.657 14.4851ZM64.1902 16.6586L64.8093 20.4421C64.9253 20.4231 65.0217 20.4024 65.0728 20.3911C65.1304 20.3783 65.183 20.3657 65.2205 20.3566C65.2701 20.3445 65.3939 20.3137 65.4233 20.3064C65.5443 20.2767 65.649 20.2525 65.7503 20.2334C65.854 20.2139 65.9225 20.206 65.9583 20.2035C66.0013 20.2005 65.9446 20.2092 65.8158 20.1904L66.3693 16.3967L66.9228 12.603C65.8572 12.4476 64.8749 12.596 64.3325 12.698C64.0269 12.7555 63.7645 12.8182 63.5908 12.861C63.4729 12.89 63.4675 12.8918 63.4101 12.9058C63.3426 12.9221 63.4355 12.8973 63.571 12.8751L64.1902 16.6586ZM66.3693 16.3967L65.8158 20.1904C66.5078 20.2913 67.3537 20.4117 67.7204 20.4926L68.5461 16.7487L69.3717 13.0049C68.6548 12.8468 67.4137 12.6747 66.9228 12.603L66.3693 16.3967ZM68.5461 16.7487L67.7205 20.4926C68.1601 20.5896 68.3964 20.6403 68.5939 20.6893C68.7652 20.7318 68.7942 20.7463 68.7753 20.7388L70.1914 17.1761L71.6074 13.6133C70.8386 13.3078 70.0072 13.145 69.3717 13.0049L68.5461 16.7487ZM70.1914 17.1761L68.7751 20.7387C69.1095 20.8716 69.4418 20.9702 69.5794 21.0123C69.7753 21.0721 69.8002 21.0823 69.7959 21.0806L71.2217 17.5217L72.6474 13.9629C72.3041 13.8253 71.9742 13.7264 71.82 13.6793C71.6073 13.6143 71.594 13.608 71.6076 13.6134L70.1914 17.1761ZM71.2217 17.5217L69.7954 21.0804C69.9792 21.154 70.1936 21.2438 70.3815 21.3276C70.4751 21.3693 70.5496 21.4041 70.6032 21.4302C70.6664 21.461 70.6622 21.4613 70.6162 21.4344L72.5507 18.1244L74.4851 14.8144C73.9171 14.4824 73.0528 14.1254 72.6479 13.9631L71.2217 17.5217ZM72.5507 18.1244L70.6157 21.4341C70.7076 21.4878 70.7905 21.5325 70.8406 21.5593C70.8862 21.5836 70.9492 21.6167 70.9733 21.6294C71.0428 21.6661 71.0809 21.687 71.1139 21.7063C71.1709 21.7396 71.2089 21.7666 71.2445 21.798L73.7764 18.9192L76.3084 16.0404C75.4122 15.2522 74.2889 14.6997 74.4857 14.8147L72.5507 18.1244ZM73.7764 18.9192L71.2444 21.7979C72.024 22.4836 72.5949 23.0292 72.877 23.3416L75.7224 20.7722L78.5677 18.2027C77.9761 17.5475 77.1299 16.763 76.3085 16.0404L73.7764 18.9192ZM75.7224 20.7722L72.8769 23.3415C72.9535 23.4263 73.0811 23.5821 73.2282 23.7773C73.3745 23.9712 73.4804 24.1249 73.5171 24.1816L76.7356 22.0984L79.954 20.0151C79.6665 19.571 79.0955 18.7872 78.5679 18.2029L75.7224 20.7722ZM76.7356 22.0984L73.5168 24.1811C73.5753 24.2716 73.6379 24.3644 73.6866 24.4363C73.7428 24.5195 73.787 24.5844 73.8408 24.6644C73.9434 24.8171 74.0357 24.9581 74.1169 25.0915C74.2007 25.2292 74.2493 25.3207 74.2723 25.3693C74.3052 25.4387 74.2486 25.3406 74.2016 25.1171L77.9536 24.3293L81.7056 23.5414C81.4815 22.474 80.932 21.5406 80.6662 21.104C80.4976 20.8272 80.3323 20.5773 80.2046 20.3872C80.0468 20.1525 80.0018 20.089 79.9544 20.0157L76.7356 22.0984ZM77.9536 24.3293L74.2015 25.1163C74.2402 25.3011 74.2819 25.5266 74.3105 25.7695C74.3397 26.018 74.3497 26.2402 74.341 26.42L78.1704 26.604L81.9998 26.7879C82.0663 25.4035 81.8337 24.1518 81.7058 23.5422L77.9536 24.3293ZM78.1704 26.604L74.341 26.4196C74.3389 26.4645 74.3365 26.4857 74.3362 26.4878C74.3361 26.4886 74.3374 26.4779 74.3409 26.4595C74.3443 26.4411 74.3471 26.4302 74.3442 26.4424C74.3411 26.4553 74.3396 26.461 74.3311 26.4955C74.3247 26.5213 74.3124 26.5714 74.2995 26.6283L78.038 27.4778L81.7765 28.3273C81.773 28.3428 81.7712 28.3499 81.776 28.3303C81.7787 28.3195 81.7891 28.2774 81.7983 28.2391C81.82 28.1491 81.8491 28.0226 81.878 27.8682C81.9374 27.5503 81.98 27.1991 81.9998 26.7883L78.1704 26.604ZM78.038 27.4778L74.2993 26.6289C74.3094 26.5846 74.3141 26.5859 74.2796 26.6728C74.2617 26.7181 74.2403 26.7692 74.2041 26.8543C74.1742 26.9246 74.1207 27.0494 74.0711 27.1728L77.6287 28.6017L81.1863 30.0306C81.2001 29.9963 81.2171 29.9564 81.2602 29.8549C81.2971 29.7681 81.3514 29.6402 81.4075 29.4987C81.5211 29.2122 81.6671 28.8093 81.7767 28.3267L78.038 27.4778ZM77.6287 28.6017L74.071 27.173C74.0275 27.2814 74.0112 27.3225 73.9952 27.3604C73.9815 27.3929 73.9932 27.3624 74.0239 27.3027C74.0867 27.1805 74.2943 26.8045 74.7241 26.44L77.2037 29.364L79.6834 32.2879C80.3011 31.7641 80.65 31.1842 80.8428 30.8092C81.0097 30.4845 81.1464 30.1299 81.1864 30.0304L77.6287 28.6017ZM77.2037 29.364L74.726 26.4384C74.8139 26.3639 74.9007 26.3035 74.9976 26.2495C75.0875 26.1993 75.2729 26.1058 75.5507 26.038L76.4586 29.7628L77.3666 33.4876C78.4036 33.2348 79.206 32.6923 79.6815 32.2895L77.2037 29.364ZM76.4586 29.7628L75.5524 26.0376C75.4984 26.0508 75.4492 26.0634 75.4083 26.074C75.3683 26.0844 75.3295 26.0947 75.3009 26.1023C75.2359 26.1196 75.2055 26.1276 75.1782 26.1343C75.1313 26.1459 75.1552 26.138 75.213 26.1309C75.2766 26.1231 75.3643 26.1181 75.4648 26.1255C75.5656 26.1329 75.6471 26.1504 75.7022 26.1669L74.6023 29.8395L73.5023 33.5122C75.5395 34.1223 77.2237 33.5223 77.3649 33.488L76.4586 29.7628ZM74.6023 29.8395L75.7021 26.1668C75.525 26.1138 75.3723 26.0753 75.2541 26.047C75.198 26.0335 75.1447 26.0212 75.1079 26.0127C75.0667 26.0032 75.041 25.9973 75.0163 25.9914C74.9531 25.9763 74.9147 25.9663 74.8356 25.9378L73.5351 29.5443L72.2346 33.1508C72.6497 33.3005 72.9743 33.387 73.2358 33.4494C73.2923 33.4629 73.3454 33.4752 73.382 33.4836C73.423 33.4931 73.4467 33.4986 73.468 33.5037C73.5047 33.5125 73.5089 33.5141 73.5024 33.5122L74.6023 29.8395ZM73.5351 29.5443L74.8358 25.9378C74.68 25.8816 74.5343 25.8201 74.3607 25.7418C74.259 25.696 74.1896 25.6636 74.0632 25.606C73.9549 25.5566 73.8174 25.4945 73.67 25.4325L72.1842 28.9667L70.6985 32.5009C70.8282 32.5555 70.8844 32.5855 71.2101 32.7323C71.4765 32.8523 71.8204 33.0014 72.2345 33.1507L73.5351 29.5443ZM72.1842 28.9667L73.6712 25.433C73.7579 25.4695 73.8249 25.5026 73.8689 25.5255C73.9135 25.5487 73.9452 25.5671 73.9613 25.5767C73.9894 25.5933 73.9918 25.5962 73.9508 25.5685C73.9081 25.5397 73.8621 25.5076 73.7754 25.4474C73.6989 25.3942 73.5945 25.3217 73.4812 25.2462L71.354 28.4358L69.2269 31.6253C69.2733 31.6563 69.3248 31.6918 69.3993 31.7436C69.4637 31.7883 69.5638 31.8582 69.6611 31.9239C69.76 31.9907 69.8962 32.0805 70.0508 32.1722C70.1999 32.2606 70.4237 32.3853 70.6972 32.5004L72.1842 28.9667ZM71.354 28.4358L73.4811 25.2461C73.3743 25.1749 73.2446 25.0816 73.1227 24.9865C73.0634 24.9401 73.0136 24.8994 72.9753 24.8666C72.9349 24.8321 72.9198 24.8172 72.9247 24.822L70.2464 27.5652L67.5681 30.3083C68.0766 30.8048 68.7361 31.2981 69.227 31.6254L71.354 28.4358ZM70.2464 27.5652L72.9248 24.8221C72.7435 24.6451 72.5757 24.465 72.377 24.2491C72.2167 24.075 71.9337 23.7624 71.6572 23.5L69.0186 26.2814L66.38 29.0628C66.3798 29.0625 66.3819 29.0645 66.3865 29.0691C66.3912 29.0737 66.3978 29.0803 66.4067 29.0893C66.4248 29.1078 66.4488 29.1327 66.4807 29.1666C66.5498 29.2398 66.6236 29.3205 66.7343 29.4407C66.9399 29.6642 67.2276 29.9758 67.568 30.3082L70.2464 27.5652ZM69.0186 26.2814L71.6571 23.4999C71.5554 23.4035 71.4216 23.2797 71.3582 23.2205C71.2755 23.1431 71.2183 23.0883 71.171 23.0408C71.0803 22.9497 71.0571 22.9157 71.0564 22.9148L67.9051 25.0982L64.7538 27.2817C65.3843 28.1916 66.204 28.8958 66.3801 29.0628L69.0186 26.2814ZM67.9051 25.0982L71.0564 22.9147C70.7408 22.4592 70.4234 22.0408 70.2685 21.8301L67.1791 24.1004L64.0898 26.3707C64.3413 26.7129 64.519 26.9428 64.7539 27.2818L67.9051 25.0982ZM67.1791 24.1004L63.4515 24.9964C63.7262 26.1393 63.9209 27.4009 64.036 28.5268L67.8499 28.1372L71.6639 27.7476C71.5225 26.363 71.2789 24.7525 70.9068 23.2043L67.1791 24.1004ZM67.8499 28.1372L64.0359 28.5267C64.1552 29.6949 64.1788 30.6242 64.1144 31.8234L67.9427 32.029L71.771 32.2347C71.8568 30.6377 71.8235 29.3104 71.6639 27.7477L67.8499 28.1372ZM67.9427 32.029L64.1144 31.8233C64.0471 33.0746 63.8835 34.5859 63.7677 35.517L67.5721 35.9904L71.3766 36.4639C71.5019 35.4576 71.6898 33.7449 71.771 32.2348L67.9427 32.029ZM67.5721 35.9904L63.7677 35.5169C63.6533 36.4356 63.5746 36.7158 63.5698 36.733L67.2628 37.7626L70.9558 38.7922C71.0993 38.2775 71.2363 37.5909 71.3766 36.464L67.5721 35.9904ZM67.2628 37.7626L65.6657 41.2479C65.7049 41.2659 65.7236 41.2753 65.8239 41.3231C65.8971 41.358 66.0429 41.4273 66.2099 41.4957L67.6631 37.948L69.1164 34.4003C69.1311 34.4063 69.1422 34.4111 69.1491 34.4141C69.1526 34.4156 69.1553 34.4168 69.157 34.4176C69.1588 34.4184 69.1597 34.4188 69.1597 34.4188C69.1598 34.4188 69.1591 34.4185 69.1575 34.4178C69.1559 34.4171 69.1537 34.416 69.1506 34.4145C69.1441 34.4115 69.1355 34.4075 69.1233 34.4017C69.1107 34.3956 69.0975 34.3893 69.0796 34.3807C69.0629 34.3727 69.0421 34.3628 69.0205 34.3525C68.9769 34.3317 68.9216 34.3056 68.8599 34.2773L67.2628 37.7626ZM67.6631 37.948L66.2101 41.4958C66.1942 41.4893 66.1875 41.4862 66.1904 41.4875C66.1926 41.4885 66.1996 41.4917 66.2109 41.4971C66.2344 41.5084 66.2641 41.5234 66.2943 41.5397C66.3089 41.5476 66.3216 41.5547 66.3322 41.5608C66.3429 41.5669 66.3494 41.5709 66.3519 41.5725C66.3546 41.5742 66.3501 41.5715 66.3393 41.5641C66.329 41.5571 66.3067 41.5417 66.2753 41.5178L68.5989 38.4683L70.9225 35.4189C70.2944 34.9403 69.5294 34.5695 69.1162 34.4002L67.6631 37.948ZM68.5989 38.4683L66.2746 41.5173C66.7204 41.8571 67.3918 42.2461 67.5194 42.324L69.5157 39.0509L71.512 35.7778C71.4243 35.7243 71.3297 35.6675 71.2559 35.6231C71.1758 35.5749 71.109 35.5344 71.0483 35.4969C70.9873 35.4592 70.9453 35.4323 70.9173 35.4138C70.8864 35.3933 70.893 35.3964 70.9232 35.4194L68.5989 38.4683ZM69.5157 39.0509L67.5193 42.3239C67.6112 42.38 67.6621 42.413 67.6987 42.439C67.7151 42.4506 67.7213 42.4557 67.7194 42.4542C67.7178 42.4529 67.7027 42.4406 67.6779 42.4165L70.3516 39.6688L73.0253 36.9212C72.4171 36.3293 71.7674 35.9336 71.5121 35.7779L69.5157 39.0509ZM70.3516 39.6688L67.6776 42.4162C67.8747 42.608 68.0651 42.8172 68.4383 43.2522L71.3481 40.7559L74.2578 38.2596C73.8554 37.7905 73.4809 37.3646 73.0256 36.9214L70.3516 39.6688ZM71.3481 40.7559L68.4383 43.2522C68.5043 43.3291 68.5351 43.3664 68.5512 43.3866C68.5645 43.4034 68.5503 43.3867 68.5238 43.3471C68.495 43.3038 68.4612 43.2478 68.4285 43.1835C68.3963 43.1203 68.376 43.0702 68.3657 43.0427L71.9584 41.7044L75.551 40.3661C75.1671 39.3354 74.6358 38.7002 74.2578 38.2596L71.3481 40.7559ZM71.9584 41.7044L68.3655 43.0422C68.3855 43.0958 68.405 43.147 68.4203 43.1872C68.4372 43.2314 68.449 43.2622 68.4612 43.2945C68.485 43.3574 68.496 43.3887 68.5018 43.4061C68.5072 43.4224 68.5019 43.4085 68.4931 43.3727C68.4843 43.3367 68.4686 43.2654 68.4571 43.1658L72.2658 42.7275L76.0745 42.2892C75.9645 41.3334 75.5615 40.3941 75.5512 40.3666L71.9584 41.7044ZM72.2658 42.7275L68.4571 43.1656C68.4693 43.272 68.483 43.3679 68.493 43.4358C68.5003 43.485 68.5157 43.5866 68.5191 43.6093C68.5331 43.7025 68.5381 43.7439 68.5407 43.7721C68.5441 43.8091 68.5404 43.7922 68.545 43.7638L72.3294 44.377L76.1139 44.9902C76.344 43.5699 76.0621 42.1817 76.0745 42.2894L72.2658 42.7275ZM72.3294 44.377L68.545 43.7635C68.4236 44.5127 68.3625 44.867 68.3203 45.0686C68.3021 45.1556 68.3003 45.15 68.3164 45.0974C68.3382 45.0261 68.3709 44.9393 68.4102 44.8549L71.8855 46.4736L75.3608 48.0924C75.7854 47.181 75.9234 46.1653 76.1139 44.9905L72.3294 44.377ZM71.8855 46.4736L68.4101 44.8551C68.3441 44.9969 68.2862 45.1339 68.2503 45.2192C68.2055 45.3259 68.1853 45.3748 68.1596 45.4343C68.1367 45.4871 68.131 45.4973 68.1377 45.484C68.1415 45.4764 68.1838 45.3913 68.2669 45.2689L71.4394 47.4214L74.612 49.5739C74.7801 49.3261 74.9043 49.095 74.9873 48.9302C75.0731 48.7597 75.1437 48.6013 75.1947 48.4838C75.2428 48.3728 75.2941 48.2494 75.3185 48.1912C75.352 48.1116 75.3614 48.0912 75.361 48.0921L71.8855 46.4736ZM71.4394 47.4214L68.2668 45.269C68.1693 45.4128 68.083 45.5531 68.0346 45.6319C67.9725 45.7331 67.9448 45.779 67.9099 45.834C67.8798 45.8814 67.8684 45.8972 67.8698 45.8954C67.8706 45.8941 67.8992 45.8543 67.9552 45.7932L70.7824 48.3826L73.6097 50.972C73.9781 50.5697 74.2424 50.1659 74.3865 49.9385C74.4599 49.8227 74.5343 49.7002 74.5689 49.6439C74.6173 49.565 74.6225 49.5583 74.612 49.5738L71.4394 47.4214ZM70.7824 48.3826L67.9554 45.793C67.8079 45.954 67.6805 46.109 67.5851 46.2285C67.4895 46.3482 67.3985 46.4671 67.3355 46.5493C67.263 46.644 67.2226 46.6965 67.1889 46.7386C67.1527 46.7839 67.1665 46.7637 67.2138 46.7135L70.0039 49.3429L72.794 51.9722C72.9541 51.8023 73.0886 51.6383 73.1783 51.5261C73.2705 51.4108 73.361 51.2923 73.4219 51.2129C73.5816 51.0044 73.6132 50.9681 73.6095 50.9722L70.7824 48.3826ZM70.0039 49.3429L67.2139 46.7134C67.0817 46.8537 66.9224 47.0219 66.7661 47.1767C66.6888 47.2533 66.6285 47.3103 66.5869 47.3479C66.5336 47.3958 66.5558 47.3713 66.6357 47.3138L68.8741 50.4264L71.1125 53.5389C71.8169 53.0323 72.6467 52.1285 72.7939 51.9723L70.0039 49.3429ZM68.8741 50.4264L66.6354 47.314C66.5478 47.3771 66.4713 47.4354 66.4158 47.4783C66.367 47.516 66.3052 47.5646 66.282 47.5826C66.2098 47.639 66.2088 47.6382 66.2294 47.624C66.2753 47.5928 66.5638 47.3986 67.0312 47.3045L67.7878 51.0629L68.5444 54.8213C69.4697 54.6351 70.1511 54.2307 70.5505 53.9582C70.7479 53.8235 70.9138 53.6943 71.0019 53.6255C71.1223 53.5314 71.1168 53.5358 71.1127 53.5387L68.8741 50.4264ZM67.7878 51.0629L67.0309 47.3045C66.6988 47.3714 66.4258 47.4559 66.2259 47.5243C66.1313 47.5566 66.0469 47.5876 65.9941 47.607C65.9307 47.6302 65.9087 47.6384 65.8834 47.6474C65.8492 47.6595 65.8755 47.649 65.9258 47.6368C65.9796 47.6238 66.0234 47.6177 66.0464 47.6156L66.3964 51.4334L66.7463 55.2512C67.4948 55.1826 68.0506 55.0143 68.446 54.8741C68.524 54.8465 68.6023 54.8175 68.6385 54.8042C68.6853 54.787 68.6999 54.7819 68.706 54.7798C68.7074 54.7793 68.6427 54.8015 68.5447 54.8212L67.7878 51.0629ZM66.3964 51.4334L66.0466 47.6156C65.7436 47.6433 65.4808 47.6939 65.3868 47.7113C65.2592 47.7351 65.26 47.7342 65.2634 47.7338C65.2847 47.7311 65.3095 47.7297 65.3246 47.7298C65.3354 47.7299 65.3061 47.7306 65.2244 47.7192L64.6934 51.5161L64.1624 55.313C65.6565 55.5219 67.2847 55.2019 66.7461 55.2512L66.3964 51.4334ZM64.6934 51.5161L65.2244 47.7192C64.0572 47.556 63.3369 47.4023 63.1082 47.3588L62.3923 51.1252L61.6763 54.8916C61.6753 54.8914 61.6795 54.8922 61.6936 54.8949C61.7069 54.8976 61.7231 54.9008 61.7454 54.9052C61.7883 54.9137 61.8461 54.9252 61.9143 54.9385C62.0519 54.9654 62.2315 54.9998 62.4488 55.0392C62.8833 55.1178 63.463 55.2152 64.1623 55.313L64.6934 51.5161ZM62.3923 51.1252L63.1082 47.3588C63.0387 47.3456 62.9825 47.3345 62.9368 47.325C62.89 47.3153 62.8646 47.3094 62.8551 47.3071C62.8423 47.304 62.871 47.3104 62.9264 47.3277C62.9556 47.3369 63.0029 47.3524 63.063 47.375C63.1211 47.3968 63.2107 47.4326 63.3196 47.4849L61.6585 50.9402L59.9974 54.3955C60.4543 54.6152 60.8962 54.7219 61.0459 54.7582C61.2684 54.8122 61.4959 54.8573 61.6763 54.8916L62.3923 51.1252ZM61.6585 50.9402L63.3196 47.4849C63.016 47.339 62.8994 47.2858 62.7588 47.2092L60.9232 50.575L59.0875 53.9408C59.4516 54.1393 59.8266 54.3134 59.9974 54.3955L61.6585 50.9402ZM60.9232 50.575L62.7588 47.2092C62.5608 47.1012 61.8816 46.6989 61.231 46.4815L60.0158 50.1176L58.8006 53.7538C58.6319 53.6974 58.5402 53.6438 58.6152 53.683C58.6495 53.701 58.6985 53.7274 58.7834 53.7739C58.8573 53.8145 58.9727 53.8782 59.0875 53.9408L60.9232 50.575ZM60.0158 50.1176L61.2298 46.4811C61.36 46.5245 61.4618 46.5704 61.5321 46.6057C61.6021 46.6407 61.6493 46.6695 61.6691 46.682C61.6883 46.694 61.6917 46.6971 61.6678 46.6802C61.6561 46.672 61.6414 46.6615 61.6187 46.6451C61.6018 46.6329 61.564 46.6056 61.5347 46.5846L59.299 49.699L57.0633 52.8134C57.0929 52.8347 57.8511 53.4368 58.8018 53.7542L60.0158 50.1176ZM59.299 49.699L61.5347 46.5845C61.4446 46.5198 61.3652 46.4672 61.3168 46.4353C61.2918 46.419 61.2685 46.4038 61.2532 46.3939C61.2354 46.3823 61.2264 46.3765 61.2177 46.3708C61.1808 46.3467 61.2359 46.3808 61.315 46.4438C61.4022 46.5133 61.5299 46.6258 61.665 46.7855C61.8029 46.9484 61.9269 47.1348 62.0263 47.3396L58.5778 49.0145L55.1292 50.6895C55.5319 51.5186 56.079 52.0759 56.5372 52.441C56.7455 52.6069 56.9319 52.7298 57.0216 52.7884C57.1615 52.8799 57.0982 52.8385 57.0633 52.8135L59.299 49.699ZM58.5778 49.0145L62.0264 47.3396C61.9472 47.1767 61.9038 47.0808 61.8786 47.0211C61.8553 46.966 61.8596 46.9697 61.8719 47.011L58.1969 48.1032L54.5219 49.1953C54.6926 49.7697 54.9306 50.2807 55.1292 50.6895L58.5778 49.0145ZM58.1969 48.1032L61.872 47.0115C61.7925 46.7438 61.7011 46.4391 61.5887 45.9463L57.8509 46.7988L54.113 47.6512C54.2818 48.3915 54.4303 48.8868 54.5218 49.1948L58.1969 48.1032ZM57.8509 46.7988L61.5887 45.9463C61.4848 45.4908 61.46 45.3861 61.4454 45.2833L57.6497 45.8225L53.8539 46.3617C53.9257 46.8666 54.0514 47.3812 54.113 47.6512L57.8509 46.7988ZM57.6497 45.8225L61.4454 45.2833C61.4486 45.3062 61.4493 45.3177 61.4495 45.3201C61.4497 45.323 61.4498 45.3263 61.4497 45.3327C61.4495 45.3387 61.449 45.3573 61.4453 45.3891C61.4418 45.4195 61.4335 45.4788 61.4134 45.5617L57.6877 44.6574L53.9621 43.7531C53.7259 44.726 53.7587 45.6911 53.8539 46.3617L57.6497 45.8225ZM57.6877 44.6574L61.4132 45.5625C61.4609 45.3661 61.517 45.1031 61.5496 44.9558C61.5907 44.7699 61.6291 44.6038 61.671 44.4454C61.7129 44.2867 61.7521 44.1597 61.788 44.0608C61.825 43.9587 61.8459 43.9218 61.8406 43.9314L58.4862 42.075L55.1318 40.2185C54.3355 41.6574 53.9875 43.6485 53.9623 43.7523L57.6877 44.6574ZM58.4862 42.075L61.8405 43.9315C62.1951 43.2908 62.4957 42.7639 62.7132 42.3911C62.8227 42.2036 62.9062 42.0636 62.9621 41.9719C62.9907 41.9251 63.0056 41.9014 63.0095 41.8953C63.0355 41.8546 62.9785 41.9477 62.8851 42.0707L59.8324 39.7513L56.7798 37.4319C56.5582 37.7235 56.26 38.2365 56.0911 38.5259C55.8405 38.9552 55.511 39.5334 55.1318 40.2185L58.4862 42.075ZM59.8324 39.7513L62.8843 42.0717C62.9837 41.941 63.0604 41.8266 63.1093 41.7518C63.1337 41.7143 63.1546 41.6815 63.1675 41.6611C63.1733 41.652 63.1807 41.6402 63.1836 41.6357C63.1877 41.6292 63.1896 41.6262 63.1907 41.6245C63.1932 41.6206 63.1869 41.6305 63.1758 41.6472C63.1644 41.6642 63.1437 41.6947 63.1155 41.7334C63.0872 41.7723 63.0478 41.8244 62.9978 41.8848C62.9476 41.9453 62.8839 42.0177 62.806 42.0966L60.0777 39.4032L57.3494 36.7098C57.1529 36.9088 57.0091 37.0935 56.916 37.2213C56.825 37.3464 56.7551 37.4557 56.7254 37.5022C56.7123 37.5227 56.692 37.5549 56.6904 37.5574C56.6837 37.5681 56.6845 37.5667 56.6883 37.5608C56.696 37.5491 56.7291 37.4986 56.7806 37.4309L59.8324 39.7513ZM60.0777 39.4032L62.8063 42.0963C62.9113 41.9899 63.0039 41.89 63.0698 41.8183C63.1023 41.7829 63.1366 41.7453 63.1606 41.7191C63.1873 41.6898 63.2076 41.6676 63.2258 41.648C63.2635 41.6074 63.275 41.5962 63.2721 41.5991C63.2693 41.6018 63.2325 41.6381 63.1677 41.6905L60.7567 38.7097L58.3456 35.7289C58.0042 36.005 57.7365 36.2909 57.6036 36.4342C57.544 36.4985 57.4483 36.6036 57.423 36.6311C57.3767 36.6815 57.3571 36.7019 57.3491 36.71L60.0777 39.4032ZM60.7567 38.7097L63.1676 41.6906C63.2608 41.6152 63.3795 41.5345 63.5419 41.4368L61.5651 38.1519L59.5883 34.867C59.2628 35.0629 58.8171 35.3476 58.3458 35.7288L60.7567 38.7097ZM61.5651 38.1519L63.5418 41.4368C63.3881 41.5293 63.2789 41.5772 63.2745 41.5792C63.2523 41.5891 63.2537 41.5877 63.2854 41.5755C63.3484 41.5513 63.4588 41.5122 63.6064 41.466C63.9162 41.3691 64.2357 41.2891 64.4517 41.2519L63.8006 37.4738L63.1495 33.6956C62.5036 33.8069 61.8417 33.984 61.3174 34.148C60.9413 34.2656 60.1732 34.5151 59.5883 34.867L61.5651 38.1519ZM63.8006 37.4738L64.4517 41.2519C64.7475 41.2009 65.0203 41.1812 65.2634 41.188L65.3709 37.3557L65.4784 33.5234C64.6715 33.5008 63.8881 33.5683 63.1496 33.6956L63.8006 37.4738ZM65.3709 37.3557L68.9718 38.6715L68.9807 38.6472L65.3797 37.3314L61.7788 36.0157L61.7699 36.04L65.3709 37.3557ZM65.3797 37.3314L69.0254 38.5177C69.0219 38.5287 69.0394 38.4756 69.0566 38.4194C69.075 38.3596 69.0941 38.2938 69.1137 38.2205C69.1525 38.0759 69.19 37.9155 69.2272 37.7326C69.3002 37.3729 69.3784 36.8926 69.4614 36.2254L65.6569 35.7519L61.8525 35.2784C61.7852 35.8189 61.7354 36.0956 61.7127 36.2074C61.702 36.2603 61.6997 36.2643 61.7081 36.2333C61.7204 36.1871 61.7363 36.1383 61.7341 36.1452L65.3797 37.3314ZM65.6569 35.7519L69.4614 36.2254C69.5843 35.2381 69.7663 33.576 69.8439 32.1309L66.0156 31.9251L62.1873 31.7194C62.1236 32.9053 61.966 34.3658 61.8525 35.2785L65.6569 35.7519ZM66.0156 31.9251L69.8439 32.1308C69.9244 30.6332 69.8931 29.4063 69.7437 27.9436L65.9298 28.3331L62.1158 28.7227C62.225 29.7922 62.2463 30.621 62.1873 31.7195L66.0156 31.9251ZM65.9298 28.3331L69.7437 27.9435C69.5992 26.5284 69.3445 24.873 68.9505 23.3282L65.2356 24.2758L61.5207 25.2233C61.7972 26.3072 61.9983 27.5729 62.1158 28.7227L65.9298 28.3331ZM65.2356 24.2758L68.9504 23.3281C68.5526 21.7687 68.0353 20.3908 67.4489 19.1681L63.9921 20.826L60.5352 22.4838C60.9082 23.2615 61.2506 24.1643 61.5207 25.2234L65.2356 24.2758ZM63.9921 20.826L67.4489 19.168C67.2566 18.7672 67.0625 18.3948 66.8817 18.0629L63.5151 19.8971L60.1485 21.7313C60.2802 21.973 60.4115 22.2259 60.5353 22.4839L63.9921 20.826ZM63.5151 19.8971L59.9108 18.5904C59.6968 19.1807 59.3735 19.9529 58.7936 20.9636L62.119 22.8715L65.4444 24.7794C66.2689 23.3424 66.7721 22.1616 67.1194 21.2037L63.5151 19.8971ZM62.119 22.8715L58.7937 20.9635C58.139 22.1045 57.1748 23.5122 56.0583 24.8017L58.9566 27.3113L61.8549 29.8209C63.3143 28.1354 64.5602 26.3205 65.4443 24.7795L62.119 22.8715ZM58.9566 27.3113L56.0584 24.8016C54.9489 26.0829 53.6835 27.2433 52.5514 28.1962L55.0202 31.1293L57.489 34.0624C58.7886 32.9686 60.3839 31.5197 61.8548 29.821L58.9566 27.3113ZM55.0202 31.1293L52.5514 28.1962C51.4309 29.1393 50.5468 29.7868 49.9589 30.1897L52.1263 33.3521L54.2937 36.5145C55.0848 35.9722 56.1706 35.1722 57.489 34.0625L55.0202 31.1293ZM52.1263 33.3521L49.959 30.1896C49.9958 30.1644 50.0285 30.1429 50.0557 30.1255C50.0829 30.1081 50.1062 30.0937 50.1239 30.0829C50.1414 30.0721 50.1556 30.0637 50.1638 30.0588C50.1681 30.0563 50.1714 30.0543 50.1734 30.0532C50.1751 30.0521 50.1765 30.0513 50.176 30.0516C50.1759 30.0517 50.1753 30.052 50.1747 30.0524C50.174 30.0528 50.1729 30.0534 50.1717 30.0542C50.1692 30.0556 50.1652 30.058 50.1604 30.0608C50.1511 30.0664 50.1358 30.0755 50.1171 30.0869C50.0982 30.0984 50.0737 30.1135 50.0454 30.1317C50.017 30.1498 49.983 30.1721 49.945 30.1981L52.1098 33.3623L54.2746 36.5264C54.2379 36.5515 54.2052 36.5729 54.1782 36.5902C54.1512 36.6075 54.1281 36.6218 54.1106 36.6325C54.0933 36.643 54.0794 36.6513 54.0714 36.656C54.0673 36.6585 54.0641 36.6604 54.0623 36.6614C54.0607 36.6624 54.0594 36.6632 54.0601 36.6627C54.0602 36.6626 54.0624 36.6614 54.0648 36.6599C54.0675 36.6584 54.0715 36.656 54.0765 36.6531C54.0861 36.6473 54.1017 36.6381 54.1206 36.6265C54.1397 36.6148 54.1643 36.5996 54.1929 36.5813C54.2214 36.563 54.2555 36.5406 54.2936 36.5145L52.1263 33.3521ZM52.1098 33.3623L49.0937 35.729C49.078 35.709 49.0652 35.692 49.0554 35.6789C49.0456 35.6656 49.0378 35.6547 49.032 35.6466C49.0209 35.6308 49.0146 35.6213 49.0133 35.6193C49.0117 35.6169 49.0128 35.6185 49.0163 35.6241C49.0197 35.6296 49.0244 35.6374 49.0301 35.647C49.0358 35.6566 49.0417 35.667 49.0477 35.6776C49.0537 35.6883 49.0591 35.6981 49.0637 35.7066C49.0683 35.7153 49.0713 35.7212 49.0727 35.724C49.0743 35.727 49.0728 35.7242 49.0688 35.7157L52.5337 34.0748L55.9986 32.4339C55.8243 32.0657 55.4959 31.4671 55.1259 30.9955L52.1098 33.3623ZM52.5337 34.0748L49.0694 35.7169C49.0858 35.7515 49.0829 35.7451 49.0874 35.7553C49.0917 35.7649 49.1018 35.7878 49.1159 35.8239C49.1445 35.8963 49.192 36.0272 49.2422 36.2118L52.9415 35.2052L56.6408 34.1986C56.5103 33.7191 56.3715 33.3219 56.2501 33.0138C56.1893 32.8595 56.1335 32.729 56.0863 32.6235C56.0627 32.5707 56.042 32.5259 56.025 32.4897C56.0125 32.463 55.9912 32.4182 55.998 32.4327L52.5337 34.0748ZM52.9415 35.2052L49.242 36.2112C49.2382 36.1974 49.2398 36.1984 49.2471 36.2419C49.2519 36.2711 49.2557 36.2956 49.2656 36.3601C49.2731 36.4083 49.2888 36.5109 49.3094 36.6208L53.0778 35.9158L56.8463 35.2107C56.8508 35.2348 56.8517 35.2432 56.8433 35.189C56.8374 35.151 56.8244 35.0649 56.8094 34.9753C56.7769 34.7814 56.7263 34.5129 56.641 34.1992L52.9415 35.2052ZM53.0778 35.9158L49.3094 36.6209C49.3245 36.7016 49.3386 36.7744 49.3488 36.8274C49.3541 36.8553 49.3583 36.877 49.3619 36.8961C49.3655 36.915 49.3678 36.9275 49.3693 36.9359C49.3708 36.9443 49.3709 36.9451 49.3702 36.9405C49.3694 36.936 49.3672 36.9225 49.3644 36.902C49.3616 36.8817 49.3576 36.8505 49.3537 36.8109C49.3497 36.7712 49.3454 36.7191 49.3425 36.6571L53.1721 36.4771L57.0017 36.2971C56.9862 35.9676 56.9351 35.6849 56.9152 35.5747C56.9025 35.5042 56.8887 35.4328 56.8784 35.3792C56.867 35.3197 56.857 35.2682 56.8463 35.2107L53.0778 35.9158ZM53.1721 36.4771L49.3425 36.6572C49.3511 36.8411 49.3506 36.8267 49.3503 36.8445C49.3503 36.8468 49.3499 36.908 49.3283 37.0742L53.1303 37.5674L56.9323 38.0606C57.0495 37.1568 57.0178 36.6403 57.0017 36.2969L53.1721 36.4771ZM53.1303 37.5674L49.3283 37.0743C49.2613 37.5909 49.2003 38.0973 49.1561 38.3201L52.9166 39.0662L56.6771 39.8122C56.787 39.2582 56.8959 38.3412 56.9323 38.0605L53.1303 37.5674ZM52.9166 39.0662L49.1561 38.3201C49.1455 38.3733 49.137 38.4154 49.1297 38.4507C49.1225 38.4859 49.1174 38.5097 49.1138 38.5257C49.1066 38.5578 49.1085 38.5457 49.1186 38.5113C49.1237 38.4935 49.1301 38.4731 49.1376 38.4511C49.145 38.4292 49.1521 38.4102 49.1579 38.3953C49.1688 38.3671 49.1719 38.3625 49.1545 38.4003L52.6376 40.0024L56.1206 41.6045C56.4519 40.8843 56.5604 40.4005 56.6771 39.8123L52.9166 39.0662ZM52.6376 40.0024L49.1546 38.4002C49.0568 38.6129 48.886 38.9602 48.7933 39.1298L52.158 40.9675L55.5227 42.8052C55.7289 42.4277 55.9803 41.9094 56.1206 41.6046L52.6376 40.0024ZM52.158 40.9675L48.7934 39.1297C48.7262 39.2527 48.7987 39.1227 48.5826 39.4619L51.8161 41.5216L55.0497 43.5813C55.0579 43.5684 55.0677 43.5534 55.0933 43.5146C55.1154 43.4811 55.1559 43.4201 55.1993 43.3524C55.2975 43.1991 55.4021 43.0259 55.5226 42.8053L52.158 40.9675ZM51.8161 41.5216L48.5824 39.4621C48.5419 39.5258 48.4981 39.5965 48.4763 39.6316C48.4487 39.6758 48.4299 39.7057 48.4122 39.733C48.3802 39.7826 48.3558 39.8176 48.3306 39.8505L51.3752 42.1804L54.4199 44.5102C54.7571 44.0695 55.0248 43.6203 55.0498 43.5811L51.8161 41.5216ZM51.3752 42.1804L48.3307 39.8504C48.2751 39.9229 48.2036 40.011 48.1351 40.0906C48.1018 40.1293 48.0757 40.1585 48.0583 40.1772C48.038 40.1992 48.0429 40.1928 48.0698 40.1669L50.729 42.9286L53.3881 45.6903C53.7588 45.3334 54.1594 44.8507 54.4198 44.5104L51.3752 42.1804ZM50.729 42.9286L48.0694 40.1673C47.9951 40.2388 47.9316 40.3036 47.8805 40.357C47.8317 40.4079 47.7886 40.4545 47.7657 40.4792C47.7371 40.5101 47.7314 40.5161 47.7273 40.5204C47.7264 40.5214 47.7369 40.5103 47.7548 40.4929C47.7735 40.4748 47.7975 40.4524 47.8258 40.4277C47.8542 40.4031 47.8826 40.3799 47.9102 40.3588C47.9665 40.3159 48.0034 40.2936 48.0078 40.291L49.9612 43.5899L51.9146 46.8887C52.3929 46.6055 52.7714 46.3099 53.1007 45.9896C53.2381 45.856 53.3525 45.7312 53.3889 45.6919C53.4399 45.6369 53.4206 45.659 53.3885 45.6899L50.729 42.9286ZM49.9612 43.5899L48.0077 40.2911C47.8457 40.387 47.7438 40.449 47.6062 40.528C47.4788 40.601 47.3815 40.653 47.3099 40.6877L48.9802 44.1385L50.6504 47.5894C51.199 47.3239 51.7364 46.9942 51.9146 46.8887L49.9612 43.5899ZM48.9802 44.1385L47.3102 40.6875C47.1566 40.7619 47.081 40.791 47.0542 40.8009C47.0075 40.8183 47.0154 40.8144 46.8392 40.8712L48.0142 44.5205L49.1892 48.1698C49.4333 48.0912 49.894 47.9554 50.6501 47.5895L48.9802 44.1385ZM48.0142 44.5205L46.839 40.8712C46.6695 40.9258 46.5307 40.9803 46.4762 41.0016C46.4046 41.0296 46.4249 41.0214 46.4424 41.0152C46.4744 41.0039 46.5112 40.9924 46.5458 40.9833C46.5773 40.975 46.5878 40.9738 46.5692 40.9771L47.2469 44.7506L47.9247 48.524C48.6677 48.3906 49.6149 48.0327 49.1894 48.1697L48.0142 44.5205ZM47.2469 44.7506L46.5693 40.9771C46.522 40.9856 46.5383 40.9821 46.5702 40.9779C46.6096 40.9728 46.6571 40.9684 46.7064 40.9666C46.8049 40.9629 46.8238 40.9729 46.7109 40.958L46.2089 44.7588L45.7069 48.5596C46.7202 48.6934 47.375 48.6227 47.9246 48.524L47.2469 44.7506ZM46.2089 44.7588L46.7111 40.958C46.3632 40.912 45.7306 40.81 45.3807 40.7494L44.7259 44.5269L44.0712 48.3044C44.4606 48.3719 45.2093 48.4938 45.7067 48.5596L46.2089 44.7588ZM44.7259 44.5269L45.3807 40.7494C45.2249 40.7224 45.167 40.7104 45.1548 40.7078C45.148 40.7064 45.1453 40.7058 45.1211 40.7004C45.0991 40.6955 45.0352 40.6811 44.9581 40.666L44.2224 44.4286L43.4868 48.1912C43.453 48.1846 43.4274 48.1787 43.4503 48.1838C43.4709 48.1884 43.5194 48.1993 43.5814 48.2123C43.707 48.2386 43.8575 48.2673 44.0711 48.3044L44.7259 44.5269ZM44.2224 44.4286L44.9576 40.6659C44.6899 40.6136 44.573 40.5839 44.3734 40.5263L43.3111 44.21L42.2487 47.8937C42.6617 48.0128 42.997 48.0955 43.4873 48.1913L44.2224 44.4286ZM43.3111 44.21L44.3734 40.5263C44.4374 40.5448 44.4813 40.5606 44.4988 40.5671C44.5161 40.5736 44.5195 40.5754 44.4989 40.5667C44.489 40.5626 44.4764 40.5572 44.4574 40.5491C44.4479 40.545 44.4382 40.5408 44.4263 40.5357C44.415 40.5308 44.4017 40.5251 44.388 40.5192C44.3378 40.4977 44.25 40.4601 44.1518 40.4214L42.7455 43.988L41.3393 47.5546C41.3242 47.5486 41.3235 47.548 41.3635 47.5652C41.3877 47.5755 41.4647 47.6089 41.5315 47.6369C41.6705 47.6953 41.9323 47.8025 42.2487 47.8937L43.3111 44.21ZM42.7455 43.988L44.1513 40.4212C44.0622 40.3861 43.982 40.3574 43.9157 40.3349C43.8494 40.3124 43.7908 40.2939 43.7454 40.2799C43.7008 40.2662 43.6606 40.2543 43.6357 40.2469C43.6046 40.2377 43.5961 40.2353 43.5845 40.2318C43.5761 40.2293 43.5809 40.2306 43.5928 40.2345C43.605 40.2384 43.6302 40.2467 43.6642 40.2592C43.6983 40.2716 43.7463 40.29 43.8043 40.315C43.8622 40.34 43.9351 40.3737 44.0183 40.4177L42.2267 43.8071L40.4351 47.1966C40.6733 47.3225 40.8854 47.4073 41.0346 47.4618C41.1831 47.516 41.3119 47.5553 41.3803 47.5758C41.4138 47.5859 41.4506 47.5967 41.4646 47.6008C41.4847 47.6067 41.4894 47.6082 41.4891 47.6081C41.488 47.6078 41.4732 47.6032 41.4498 47.5952C41.4263 47.5873 41.3881 47.5738 41.3397 47.5547L42.7455 43.988ZM42.2267 43.8071L44.0196 40.4184C43.9135 40.3622 43.8223 40.3155 43.7489 40.2782C43.7149 40.2609 43.6786 40.2426 43.6556 40.2309C43.6291 40.2175 43.612 40.2088 43.5988 40.202C43.5698 40.1871 43.5842 40.1939 43.6167 40.2125C43.6542 40.2341 43.7185 40.2728 43.7969 40.3279L41.5917 43.464L39.3865 46.6002C39.6835 46.809 39.954 46.9497 40.0883 47.0188C40.2759 47.1154 40.2857 47.1175 40.4338 47.1959L42.2267 43.8071ZM41.5917 43.464L43.7939 40.3258C43.6435 40.2203 43.509 40.1401 43.4074 40.0832C43.3102 40.0288 43.2275 39.9872 43.193 39.9699C43.1832 39.965 43.1744 39.9606 43.1684 39.9576C43.1612 39.954 43.1586 39.9527 43.155 39.9509C43.1488 39.9478 43.1517 39.9493 43.1584 39.9527C43.1729 39.9601 43.2117 39.9803 43.2629 40.01C43.3753 40.0753 43.5082 40.1637 43.6439 40.2774C43.7758 40.3879 43.8751 40.4928 43.9446 40.5762L41.0007 43.0321L38.0568 45.4881C38.4837 45.9997 38.9435 46.3685 39.413 46.641C39.5126 46.6989 39.5982 46.744 39.6579 46.7746C39.6871 46.7896 39.7123 46.8022 39.7279 46.81C39.7516 46.8219 39.7459 46.819 39.7542 46.8232C39.7819 46.8371 39.6017 46.7512 39.3895 46.6023L41.5917 43.464ZM41.0007 43.0321L43.9449 40.5765C43.8234 40.4308 43.6617 40.233 43.379 39.9106L40.4963 42.4381L37.6136 44.9656C37.8193 45.2002 37.9105 45.3126 38.0566 45.4878L41.0007 43.0321ZM40.4963 42.4381L43.379 39.9106C43.2612 39.7763 43.1884 39.6952 43.0678 39.5567C43.0167 39.498 42.9728 39.4469 42.9371 39.4045C42.8985 39.3586 42.8845 39.3406 42.8873 39.3443L39.8595 41.6961L36.8318 44.0479C37.0859 44.375 37.524 44.8634 37.6136 44.9656L40.4963 42.4381ZM39.8595 41.6961L42.887 39.3439C42.7936 39.2236 42.711 39.1245 42.6581 39.0612C42.6455 39.0462 42.6321 39.0302 42.6232 39.0196C42.6131 39.0075 42.6058 38.9988 42.5995 38.9913C42.5867 38.9759 42.5848 38.9734 42.5879 38.9773C42.5952 38.9864 42.6363 39.0381 42.6886 39.1177C42.715 39.158 42.743 39.2033 42.7713 39.2533C42.7996 39.3033 42.8261 39.3543 42.8506 39.4058L39.3888 41.0531L35.9269 42.7004C36.1568 43.1835 36.4144 43.5346 36.5992 43.7657C36.6731 43.8581 36.7561 43.9562 36.7782 43.9826C36.8138 44.0251 36.8253 44.0395 36.8321 44.0483L39.8595 41.6961ZM39.3888 41.0531L42.8506 39.4056C42.8426 39.3889 42.8349 39.3729 42.8293 39.3612C42.8231 39.3481 42.8189 39.3396 42.8147 39.3308C42.8068 39.3141 42.8034 39.3068 42.8018 39.3034C42.7994 39.2982 42.8066 39.3134 42.817 39.3404C42.8278 39.3681 42.8401 39.4034 42.8518 39.444C42.8635 39.4846 42.8728 39.5245 42.8796 39.5622L39.1065 40.2418L35.3334 40.9213C35.5043 41.8704 35.8526 42.5443 35.927 42.7006L39.3888 41.0531ZM39.1065 40.2418L42.8796 39.5622C42.8369 39.3252 42.7861 39.0517 42.7546 38.6834L38.9347 39.0101L35.1148 39.3367C35.1797 40.096 35.2902 40.6817 35.3334 40.9214L39.1065 40.2418ZM38.9347 39.0101L42.7546 38.6835C42.721 38.291 42.7105 37.812 42.7417 37.3584L38.917 37.095L35.0922 36.8316C35.0307 37.7249 35.0519 38.6013 35.1148 39.3367L38.9347 39.0101ZM38.917 37.095L42.7417 37.3586C42.7735 36.8966 42.8487 36.4282 42.924 36.0756L39.1747 35.2749L35.4254 34.4742C35.2886 35.1147 35.1532 35.9466 35.0922 36.8314L38.917 37.095ZM39.1747 35.2749L42.9239 36.0757C42.96 35.9071 42.9887 35.799 43.0095 35.7289C43.0291 35.6631 43.0461 35.6161 43.0641 35.5712L39.5061 34.1434L35.9481 32.7155C35.7328 33.2519 35.5695 33.7998 35.4254 34.4741L39.1747 35.2749ZM39.5061 34.1434L43.064 35.5713C43.0993 35.4836 43.1444 35.3868 43.2573 35.1901L39.9323 33.2814L36.6074 31.3728C36.3775 31.7732 36.1548 32.2004 35.9481 32.7154L39.5061 34.1434ZM39.9323 33.2814L43.2572 35.1902C43.3075 35.1027 43.3396 35.0462 43.3761 34.9836C43.4099 34.9258 43.4349 34.8843 43.455 34.8522C43.4992 34.7816 43.4981 34.7917 43.4568 34.8407L40.5273 32.3676L37.5978 29.8945C37.0927 30.4928 36.7244 31.1689 36.6074 31.3727L39.9323 33.2814ZM40.5273 32.3676L43.4996 34.789L43.5181 34.7663L40.5458 32.3449L37.5734 29.9235L37.5549 29.9462L40.5273 32.3676ZM40.5458 32.3449L43.4752 34.818C43.5855 34.6874 43.6788 34.577 43.7592 34.4825C43.8403 34.387 43.9004 34.3171 43.9449 34.2661C43.9667 34.2412 43.981 34.2251 43.9893 34.2159C43.9985 34.2057 43.9948 34.2101 43.9813 34.2242C43.9741 34.2317 43.9614 34.2449 43.9441 34.2622C43.9272 34.2791 43.9006 34.3051 43.8662 34.3371C43.8332 34.3677 43.7801 34.4157 43.711 34.4724C43.6755 34.5015 43.6308 34.5371 43.5777 34.5767C43.5254 34.6157 43.4569 34.6646 43.3741 34.7181L41.2931 31.4983L39.212 28.2784C38.9191 28.4677 38.7134 28.6582 38.652 28.7152C38.5603 28.8003 38.485 28.8774 38.4364 28.9282C38.3386 29.0306 38.2448 29.1364 38.1716 29.2202C38.0219 29.3915 37.8282 29.6208 37.6163 29.8717L40.5458 32.3449ZM41.2931 31.4983L43.3651 34.7239C43.4676 34.6581 43.5689 34.5883 43.6186 34.5542C43.6839 34.5094 43.7293 34.4782 43.7796 34.4446C43.8731 34.3822 43.9572 34.3296 44.0443 34.2817L42.1942 30.9238L40.3441 27.5659C40.0071 27.7516 39.7298 27.929 39.5234 28.0667C39.4237 28.1333 39.3345 28.1947 39.2804 28.2318C39.2107 28.2797 39.2077 28.2811 39.221 28.2726L41.2931 31.4983ZM42.1942 30.9238L44.044 34.2818C44.0843 34.2596 44.1247 34.2372 44.1565 34.2196C44.1905 34.2007 44.2177 34.1857 44.2429 34.1719C44.2676 34.1584 44.2866 34.1481 44.3018 34.14C44.3169 34.132 44.3261 34.1273 44.3307 34.125C44.3353 34.1226 44.3334 34.1237 44.3259 34.1272C44.3185 34.1306 44.3036 34.1374 44.2822 34.1464C44.2609 34.1553 44.2309 34.1673 44.1933 34.1808C44.1556 34.1943 44.1081 34.2101 44.0516 34.2262L42.9972 30.5402L41.9428 26.8543C41.1605 27.078 40.4158 27.5264 40.3444 27.5658L42.1942 30.9238ZM42.9972 30.5402L44.0502 34.2266C44.1866 34.1877 44.3072 34.1489 44.3862 34.1232C44.4807 34.0926 44.5176 34.0803 44.5721 34.0633C44.648 34.0395 44.712 34.0215 44.8018 34.0025L44.0083 30.2517L43.2149 26.5009C42.8305 26.5822 42.5258 26.6693 42.2832 26.7452C42.1783 26.778 42.0685 26.8141 42.0218 26.8293C41.9922 26.8389 41.9736 26.8448 41.9598 26.8491C41.9467 26.8532 41.9425 26.8543 41.9441 26.8539L42.9972 30.5402ZM44.0083 30.2517L44.8017 34.0025C44.899 33.9819 45.0285 33.9563 45.1689 33.9331C45.3133 33.9091 45.4416 33.8924 45.5413 33.8839L45.2149 30.064L44.8885 26.2441C44.1972 26.3031 43.5454 26.431 43.215 26.5008L44.0083 30.2517ZM45.2149 30.064L45.5412 33.8839C45.7333 33.8675 45.9378 33.8702 46.1648 33.8902L46.5008 30.0711L46.8368 26.252C46.2724 26.2024 45.614 26.1821 44.8887 26.2441L45.2149 30.064ZM46.5008 30.0711L46.1647 33.8902C46.3733 33.9085 46.5377 33.935 46.7481 33.9852L47.6372 30.2559L48.5264 26.5266C47.9536 26.39 47.4195 26.3033 46.8368 26.252L46.5008 30.0711ZM47.6372 30.2559L46.748 33.9851C47.0145 34.0487 47.3391 34.1448 47.5574 34.2118L48.6814 30.5464L49.8054 26.881C49.5618 26.8063 49.0431 26.6498 48.5265 26.5266L47.6372 30.2559ZM48.6814 30.5464L47.5574 34.2118C47.6081 34.2273 47.6436 34.2384 47.668 34.2461C47.6926 34.2538 47.7021 34.257 47.7016 34.2568C47.6996 34.2562 47.6871 34.252 47.6679 34.2451C47.65 34.2387 47.6334 34.2325 47.6482 34.238L48.9906 30.6469L50.333 27.0557C50.1899 27.0022 50.0671 26.9613 49.8054 26.8811L48.6814 30.5464ZM48.9906 30.6469L47.7589 34.2774C47.6973 34.2565 47.6497 34.2386 47.6268 34.2298C47.6005 34.2197 47.5797 34.2114 47.5672 34.2064C47.5427 34.1965 47.5259 34.1894 47.5218 34.1876C47.5129 34.1838 47.5137 34.1841 47.5295 34.191C47.5592 34.2042 47.6027 34.2238 47.6576 34.2486C47.7053 34.2702 47.7692 34.2992 47.8153 34.3199C47.8385 34.3304 47.8684 34.3438 47.8971 34.3564C47.9105 34.3623 47.9341 34.3727 47.9616 34.3843C47.9751 34.3901 47.9987 34.4 48.0278 34.4118C48.0427 34.4178 48.0643 34.4264 48.0905 34.4365C48.114 34.4455 48.1575 34.462 48.2125 34.4811L49.4678 30.8586L50.7231 27.2361C50.8165 27.2684 50.8878 27.2974 50.9007 27.3027C50.9267 27.3132 50.9466 27.3216 50.9557 27.3254C50.9662 27.3299 50.9741 27.3333 50.9781 27.335C50.9825 27.3369 50.9854 27.3382 50.9864 27.3387C50.9878 27.3393 50.9815 27.3365 50.9626 27.328C50.9243 27.3107 50.8795 27.2904 50.8173 27.2623C50.7621 27.2373 50.6943 27.2067 50.6342 27.1801C50.605 27.1672 50.5662 27.1501 50.5259 27.133C50.5062 27.1245 50.4757 27.1117 50.4401 27.0973C50.422 27.09 50.3962 27.0797 50.3655 27.0679C50.3382 27.0575 50.2869 27.0382 50.2223 27.0163L48.9906 30.6469ZM49.4678 30.8586L48.2507 34.4941C48.1288 34.4533 48.0282 34.4128 47.9548 34.3812C47.8796 34.3489 47.8159 34.3187 47.7663 34.2941C47.6697 34.2461 47.5929 34.2029 47.5438 34.1744C47.4921 34.1443 47.4495 34.1179 47.4188 34.0984C47.3872 34.0784 47.3605 34.0608 47.3399 34.0469C47.2998 34.02 47.2681 33.9976 47.2486 33.9836C47.228 33.9689 47.2115 33.9567 47.2004 33.9484C47.1789 33.9323 47.164 33.9208 47.159 33.917C47.153 33.9123 47.1503 33.9101 47.1518 33.9113C47.1634 33.9205 47.1898 33.942 47.2378 33.9812C47.2747 34.0114 47.3354 34.0613 47.3805 34.0979C47.4027 34.1159 47.4384 34.1448 47.4761 34.1743C47.4934 34.1879 47.5289 34.2156 47.5724 34.2479C47.5938 34.2638 47.6329 34.2925 47.6822 34.3266C47.7075 34.3441 47.7447 34.3694 47.7903 34.3987C47.8315 34.4252 47.9075 34.4731 48.0058 34.5276L49.8657 31.1752L51.7256 27.8227C51.8944 27.9164 52.0182 28.0026 52.0426 28.0195C52.0892 28.0517 52.1249 28.078 52.1423 28.0909C52.178 28.1174 52.2033 28.1373 52.2087 28.1415C52.2223 28.1522 52.2264 28.1557 52.2121 28.144C52.1839 28.1212 52.1513 28.0943 52.0948 28.0481C52.0495 28.0109 51.9826 27.9563 51.9214 27.9077C51.8939 27.8858 51.8414 27.8443 51.7812 27.7995C51.7545 27.7796 51.692 27.7333 51.612 27.6797C51.5734 27.6538 51.4972 27.6035 51.3982 27.5459C51.3477 27.5166 51.2697 27.4727 51.172 27.4242C51.0864 27.3818 50.9135 27.2996 50.6849 27.2231L49.4678 30.8586ZM49.8657 31.1752L47.5447 34.2266C47.6541 34.3098 47.7546 34.3786 47.7888 34.4021C47.8371 34.4354 47.8563 34.4485 47.8869 34.4701C47.9359 34.5048 48.0346 34.5762 48.2165 34.7209L50.6035 31.7209L52.9905 28.7208C52.7044 28.4931 52.4907 28.3347 52.3161 28.2111C52.2348 28.1536 52.1645 28.1055 52.137 28.0866C52.0953 28.0579 52.1338 28.0835 52.1868 28.1238L49.8657 31.1752ZM50.6035 31.7209L48.2164 34.7209C48.201 34.7086 48.1902 34.6996 48.1844 34.6948C48.1786 34.6899 48.1761 34.6877 48.1775 34.6888C48.1787 34.6899 48.1825 34.6933 48.1893 34.6995C48.1961 34.7056 48.2049 34.7136 48.2161 34.7239L50.815 31.9054L53.4139 29.0869C53.3184 28.9988 53.1655 28.86 52.9906 28.7209L50.6035 31.7209ZM50.815 31.9054L52.9522 35.0883C52.9507 35.0893 52.9535 35.0874 52.9645 35.0803C52.9781 35.0713 52.9874 35.0653 53.0125 35.049C53.0527 35.0229 53.1235 34.9767 53.2027 34.9225L51.0354 31.76L48.8681 28.5976C48.8704 28.596 48.8655 28.5995 48.8319 28.6213C48.8201 28.629 48.793 28.6466 48.7709 28.661C48.7461 28.6772 48.7137 28.6985 48.6779 28.7225L50.815 31.9054ZM51.0354 31.76L53.2028 34.9224C53.9427 34.4153 54.9774 33.6539 56.2458 32.5863L53.777 29.6531L51.3083 26.72C50.2378 27.621 49.4046 28.2299 48.868 28.5977L51.0354 31.76ZM53.777 29.6531L56.2458 32.5862C57.5039 31.5274 59.0156 30.1504 60.3953 28.5571L57.4971 26.0474L54.5988 23.5377C53.5796 24.7147 52.397 25.8036 51.3082 26.72L53.777 29.6531ZM57.4971 26.0474L60.3953 28.557C61.7687 26.9709 62.9435 25.2581 63.7697 23.8182L60.4444 21.9102L57.119 20.0022C56.5219 21.0429 55.6287 22.3484 54.5988 23.5378L57.4971 26.0474ZM60.4444 21.9102L63.7698 23.8181C64.4703 22.597 64.9126 21.5864 65.2244 20.7563L61.6354 19.4081L58.0465 18.06C57.8644 18.5446 57.5931 19.1759 57.119 20.0024L60.4444 21.9102ZM61.6354 19.4081L60.0512 15.9169C59.9034 15.984 59.7568 16.0485 59.6042 16.112L61.0778 19.6513L62.5513 23.1907C62.7946 23.0894 63.0169 22.9913 63.2197 22.8993L61.6354 19.4081ZM61.0778 19.6513L59.6043 16.1119C59.239 16.264 59.2166 16.256 58.7062 16.449L60.0621 20.0351L61.4179 23.6211C61.5177 23.5834 62.0666 23.3924 62.5512 23.1907L61.0778 19.6513ZM60.0621 20.0351L58.706 16.4491C58.7545 16.4307 58.7495 16.4389 58.5961 16.4711C58.5018 16.4908 58.4544 16.4994 58.3032 16.5299C58.1849 16.5537 58.0099 16.5897 57.8213 16.6375L58.762 20.3541L59.7027 24.0707C59.7023 24.0708 59.727 24.0647 59.8168 24.0466C59.8737 24.0352 60.0425 24.0022 60.1693 23.9756C60.4582 23.915 60.915 23.8113 61.4181 23.6211L60.0621 20.0351ZM58.762 20.3541L57.8212 16.6375C57.8423 16.6322 57.6661 16.6731 57.2831 16.7235C56.929 16.7701 56.4633 16.8161 55.9255 16.8405L56.0993 20.6704L56.2731 24.5003C57.7486 24.4333 59.0148 24.2449 59.7028 24.0707L58.762 20.3541ZM56.0993 20.6704L55.9255 16.8405C55.5716 16.8565 55.3225 16.8579 55.1382 16.8563C55.0391 16.8554 54.9584 16.8537 54.8581 16.8519C54.7732 16.8503 54.6371 16.8477 54.4979 16.8497L54.551 20.6831L54.6041 24.5166C54.6015 24.5166 54.6194 24.5164 54.7158 24.5182C54.7967 24.5197 54.9243 24.5224 55.0703 24.5237C55.3764 24.5264 55.7649 24.5233 56.273 24.5003L56.0993 20.6704ZM54.551 20.6831L54.4977 16.8497C54.1963 16.8539 53.9792 16.8463 53.7932 16.8366C53.6865 16.831 53.6025 16.8255 53.475 16.8179C53.3604 16.811 53.2126 16.8025 53.0527 16.7977L52.9363 20.6297L52.8198 24.4618C52.8312 24.4621 53.7428 24.5286 54.6043 24.5166L54.551 20.6831ZM52.9363 20.6297L53.0522 16.7977C52.9088 16.7933 52.7781 16.7935 52.5413 16.7672C52.3008 16.7404 51.977 16.6871 51.6089 16.5797L50.5358 20.2603L49.4626 23.9409C50.3289 24.1935 51.0972 24.3215 51.6942 24.3879C51.994 24.4212 52.2511 24.439 52.4552 24.4491C52.6416 24.4582 52.8306 24.4621 52.8204 24.4618L52.9363 20.6297ZM50.5358 20.2603L51.6089 16.5798C51.4465 16.5324 51.3176 16.4946 51.2123 16.4633C51.1055 16.4315 51.0367 16.4104 50.9917 16.3961C50.943 16.3806 50.9501 16.3818 50.9868 16.3956C51.0201 16.4081 51.1409 16.4541 51.3004 16.5374L49.5258 19.9357L47.7511 23.3341C48.1357 23.535 48.5122 23.6536 48.667 23.7028C48.876 23.7693 49.1463 23.8487 49.4626 23.9409L50.5358 20.2603ZM49.5258 19.9357L51.3024 16.5384C51.3353 16.5556 51.3341 16.5584 51.2901 16.5271C51.244 16.4944 51.1745 16.4412 51.062 16.3486L48.6251 19.3083L46.1883 22.268C46.5382 22.5562 47.0753 22.9807 47.7492 23.3331L49.5258 19.9357ZM48.6251 19.3083L51.062 16.3486C50.9914 16.2905 50.9507 16.2563 50.9106 16.22C50.871 16.1842 50.8494 16.1615 50.8411 16.1523C50.8313 16.1413 50.8554 16.1661 50.8947 16.2291C50.9335 16.2914 51.0096 16.4269 51.0712 16.6332L47.3975 17.7298L43.7239 18.8264C44.0605 19.9542 44.6908 20.777 45.123 21.2607C45.5759 21.7676 46.026 22.1344 46.1883 22.268L48.6251 19.3083ZM47.3975 17.7298L51.0705 16.6311C51.0092 16.4262 50.9438 16.2602 50.9094 16.175C50.891 16.1294 50.8739 16.0884 50.8639 16.0646C50.8514 16.0346 50.8476 16.0257 50.8426 16.0135C50.8285 15.9794 50.8711 16.0765 50.9082 16.2247C50.9486 16.3859 50.9733 16.5659 50.9723 16.75C50.9713 16.9287 50.9463 17.0559 50.9304 17.1173L47.2182 16.1595L43.5059 15.2018C43.2364 16.2463 43.2509 17.2112 43.47 18.0865C43.5685 18.48 43.6923 18.7872 43.7556 18.9404C43.8625 19.1993 43.7746 18.9959 43.7245 18.8285L47.3975 17.7298ZM47.2182 16.1595L50.9306 17.1168C50.9964 16.8617 51.0378 16.642 51.062 16.511C51.0778 16.4247 51.0793 16.4151 51.0875 16.3713C51.0928 16.3434 51.0924 16.3477 51.0879 16.3674C51.079 16.4063 51.0413 16.566 50.9501 16.7756C50.8519 17.0013 50.7121 17.2391 50.5248 17.4625L47.5868 14.9994L44.6489 12.5364C43.9725 13.3432 43.7251 14.167 43.612 14.6633C43.567 14.8608 43.5285 15.082 43.521 15.1227C43.5058 15.2054 43.503 15.2132 43.5058 15.2023L47.2182 16.1595ZM47.5868 14.9994L50.5245 17.4628C50.7025 17.2505 50.9162 17.0471 51.1041 16.8971C51.1956 16.8241 51.2561 16.7836 51.2772 16.7705C51.2866 16.7646 51.2751 16.7723 51.2433 16.7888C51.2144 16.8037 51.1418 16.8399 51.0309 16.8815L49.6863 13.2912L48.3416 9.70091C47.534 10.0034 46.8156 10.5095 46.3212 10.904C45.7612 11.3509 45.1762 11.9075 44.6492 12.536L47.5868 14.9994ZM49.6863 13.2912L51.0266 16.8831C50.9587 16.9084 50.9086 16.9245 50.8887 16.9308C50.8653 16.9381 50.8515 16.9421 50.8504 16.9424C50.8492 16.9427 50.8683 16.9373 50.9132 16.9261C51.002 16.904 51.142 16.8714 51.3318 16.831C51.7093 16.7508 52.231 16.6509 52.8448 16.5514L52.2313 12.7669L51.6178 8.98252C50.8878 9.10086 50.2431 9.22346 49.7371 9.33107C49.3552 9.41226 48.766 9.54254 48.3459 9.6993L49.6863 13.2912ZM52.2313 12.7669L52.8447 16.5514C53.0102 16.5246 53.0686 16.5194 53.104 16.5164C53.1372 16.5136 53.1741 16.511 53.2572 16.5054C53.3347 16.5002 53.4418 16.4931 53.5711 16.483L53.2703 12.6609L52.9696 8.83894C52.8908 8.84514 52.8253 8.84952 52.7458 8.85484C52.6718 8.85978 52.5671 8.86671 52.454 8.87633C52.1968 8.89821 51.9439 8.92966 51.6179 8.9825L52.2313 12.7669ZM53.2703 12.6609L53.5712 16.4829C54.6113 16.4011 55.3947 16.366 55.6117 16.3579L55.4684 12.5267L55.3251 8.69559C55.0169 8.70712 54.1275 8.74779 52.9695 8.83895L53.2703 12.6609ZM55.4684 12.5267L55.6111 16.3579C55.5616 16.3597 55.5252 16.3592 55.506 16.3587C55.4875 16.3582 55.4819 16.3576 55.4948 16.3585C55.5082 16.3594 55.5322 16.3614 55.5744 16.3653C55.6177 16.3694 55.6661 16.3743 55.734 16.3812L56.1198 12.5668L56.5055 8.75241C56.3224 8.73389 55.8311 8.67674 55.3257 8.69557L55.4684 12.5267ZM56.1198 12.5668L55.7789 16.3854L55.7926 16.3866L56.1334 12.568L56.4743 8.74936L56.4606 8.74814L56.1198 12.5668Z" fill="white"/>
<path d="M56.1327 12.5685C56.9088 12.647 57.793 12.7797 58.4134 12.9572C58.9464 13.1097 59.3424 13.2337 59.5916 13.3179C59.7532 13.3725 60.5655 13.747 61.6563 14.4857C62.3682 14.9678 63.0145 15.5259 64.1894 16.6592C64.4229 16.6211 65.4987 16.2704 66.3686 16.3973C66.96 16.4835 68.0035 16.6298 68.5454 16.7493C69.3451 16.9257 69.7856 17.0156 70.1906 17.1766C70.5115 17.3042 70.8828 17.3865 71.2219 17.5224C71.6604 17.6982 72.2642 17.958 72.55 18.125C72.7745 18.2562 73.2498 18.4572 73.7757 18.9197C74.5764 19.624 75.2846 20.2898 75.7215 20.7737C76.0847 21.1759 76.5348 21.7885 76.7358 22.0991C77.0174 22.5343 77.7967 23.5851 77.9529 24.3298C78.0595 24.8379 78.2127 25.7108 78.1697 26.6045C78.1459 27.0987 78.0749 27.3125 78.0373 27.4784C77.9377 27.9168 77.7548 28.2866 77.628 28.6023C77.4857 28.9567 77.3911 29.2052 77.203 29.3645C77.0162 29.5227 76.7378 29.6952 76.4579 29.7634C76.0121 29.8718 75.4429 30.0921 74.6015 29.8401C74.2603 29.7379 74.0286 29.723 73.5344 29.5448C72.9645 29.3393 72.5553 29.1235 72.1835 28.9673C71.9623 28.8742 71.6726 28.6493 71.3533 28.4363C70.9758 28.1846 70.5251 27.8396 70.2455 27.5667C69.7237 27.0571 69.3347 26.5825 69.0179 26.2819C68.656 25.9386 68.2458 25.5915 67.9044 25.0988C67.6291 24.7015 67.3816 24.3775 67.1784 24.1009C67.5019 25.4466 67.721 26.8824 67.8492 28.1377C67.9887 29.5034 68.0171 30.6312 67.942 32.0296C67.8678 33.4105 67.692 35.0223 67.5714 35.991C67.4201 37.2069 67.2986 37.6606 67.2253 37.8927C67.1592 38.1501 67.0574 38.5345 66.8863 38.9122C66.7783 39.4208 66.2859 39.7544 65.7711 39.6608C65.2469 39.5652 64.8996 39.0632 64.9949 38.5391L65.0066 38.4727C65.0226 38.3973 65.0504 38.2933 65.1069 38.1645L65.1128 38.1525L65.1177 38.1405C65.2204 37.9224 65.2901 37.6696 65.3616 37.3905L65.3694 37.3611L65.379 37.332C65.4 37.2674 65.5057 36.9621 65.6562 35.7525C65.7744 34.8025 65.9442 33.2414 66.0149 31.9257C66.0847 30.6275 66.0584 29.5999 65.929 28.3337C65.798 27.0511 65.5701 25.5908 65.2349 24.2763C64.9009 22.967 64.471 21.8267 63.9913 20.8265C63.8333 20.497 63.6707 20.1845 63.5144 19.8976C63.2337 20.6718 62.8206 21.648 62.1183 22.8721C61.3488 24.2132 60.244 25.8243 58.9559 27.3118C57.6655 28.8019 56.2354 30.1064 55.0195 31.1299C53.7998 32.1564 52.8151 32.8801 52.1256 33.3526C51.1724 34.0058 50.5152 34.3553 50.344 34.4653C49.7514 34.8462 49.2092 35.0911 48.7872 35.2651C48.4703 35.409 48.1817 35.5331 47.9422 35.627C47.7412 35.7059 47.4916 35.7979 47.2834 35.8351L47.2473 35.8441C47.2185 35.8523 47.1802 35.8646 47.1004 35.8896C46.5918 36.0488 46.0503 35.7653 45.891 35.2567C45.7318 34.7481 46.0152 34.2065 46.5239 34.0473C46.6607 34.0045 46.7769 33.9669 46.9242 33.939L46.9396 33.9355C46.9457 33.9339 46.9641 33.9297 46.9967 33.919C47.0547 33.9001 47.1351 33.8706 47.2376 33.8304C47.442 33.7502 47.7083 33.6362 48.019 33.4947L48.035 33.4874L48.0508 33.4811C48.4177 33.3298 48.8438 33.1352 49.3008 32.8414C49.7455 32.5555 50.0246 32.4529 51.0347 31.7606C51.673 31.3231 52.6066 30.6382 53.7763 29.6537C54.9498 28.666 56.2968 27.4332 57.4963 26.048C58.698 24.6603 59.7318 23.152 60.4435 21.9117C61.0311 20.8876 61.3877 20.0662 61.6347 19.4087C61.4593 19.4883 61.2751 19.5694 61.077 19.6518C60.652 19.8288 60.3665 19.9202 60.0613 20.0356C59.6067 20.2076 59.1377 20.2594 58.7613 20.3546C58.3971 20.4468 57.4029 20.6117 56.0985 20.6709C55.2363 20.71 54.8233 20.6808 54.5501 20.6846C53.7468 20.6958 53.3377 20.6425 52.9355 20.6303C52.7192 20.6237 51.7694 20.6208 50.535 20.2609C49.8808 20.0701 49.6422 19.9975 49.5251 19.9363C49.2112 19.7722 48.9201 19.5524 48.6244 19.3089C48.3231 19.0608 47.6201 18.4783 47.3968 17.7303C47.3048 17.4225 46.9928 17.0307 47.2175 16.1601C47.3435 15.6716 47.3199 15.3184 47.5859 15.0009C48.291 14.1599 49.1832 13.4808 49.6854 13.2927C49.8963 13.2137 50.8854 12.9855 52.2306 12.7675C52.7223 12.6878 52.8532 12.6943 53.2696 12.6615C54.3688 12.575 55.2051 12.5371 55.4677 12.5273C55.6537 12.5203 55.8571 12.5408 56.119 12.5673L56.1327 12.5685Z" fill="#00B428"/>
<path d="M61.5647 38.1518C61.8376 37.9876 62.9385 37.6229 63.8006 37.4743C64.6693 37.3246 65.5683 37.3 66.4329 37.4724C66.5443 37.4947 66.6211 37.5113 66.6368 37.5181C66.7075 37.5485 66.7593 37.5756 66.8321 37.5967C67.1751 37.7001 67.4382 37.8564 67.6629 37.9484C67.8939 38.043 68.3297 38.2632 68.5991 38.4686C68.8355 38.6488 69.2128 38.8665 69.5159 39.0513C69.7486 39.1932 70.0761 39.4005 70.3518 39.6689C70.678 39.9864 70.9599 40.3041 71.3477 40.7562C71.6486 41.107 71.817 41.3251 71.9584 41.7049C72.071 42.0074 72.2233 42.364 72.2651 42.7278C72.3085 43.1047 72.4474 43.6463 72.3288 44.3774C72.0938 45.8271 72.0278 46.1683 71.8855 46.4737C71.7544 46.7552 71.6094 47.1706 71.4392 47.4215C71.265 47.6782 71.0561 48.0847 70.7826 48.3833C70.5182 48.6719 70.2297 49.104 70.004 49.3435C69.7396 49.6241 69.2058 50.1884 68.8743 50.4268C68.5737 50.6429 68.2458 50.9712 67.7878 51.0634C67.3194 51.1577 67.0581 51.3726 66.3959 51.4332C65.9831 51.471 65.6266 51.6472 64.6935 51.5167C63.4103 51.3373 62.5786 51.1607 62.3922 51.1253C62.0625 51.0626 61.7883 51.0028 61.6583 50.9403C61.4211 50.8262 61.1752 50.7129 60.9229 50.5753C60.4804 50.334 60.2452 50.1941 60.0152 50.1173C59.7368 50.0244 59.4992 49.8426 59.2989 49.6988C59.0782 49.5404 58.7658 49.4013 58.578 49.0145C58.3936 48.635 58.2731 48.3596 58.1968 48.1029C58.1113 47.815 57.9908 47.4157 57.8502 46.7992C57.7674 46.4364 57.6924 46.1266 57.6493 45.8226C57.6009 45.4821 57.5969 45.0291 57.6873 44.6571C57.828 44.0779 58.0185 42.9202 58.4859 42.0756C59.2199 40.7494 59.7459 39.8644 59.832 39.7512C59.9278 39.6253 59.9894 39.4927 60.0772 39.4037C60.3033 39.1747 60.5239 38.8985 60.7565 38.7104C61.0389 38.482 61.3208 38.2986 61.5647 38.1518Z" fill="#F72B3E"/>
<path d="M48.681 30.5466C48.912 30.6174 48.9513 30.6321 48.9906 30.6468C49.0389 30.6632 49.4436 30.8503 49.4677 30.8583C49.4918 30.8664 49.8419 31.1634 49.8653 31.1757C49.9783 31.2617 50.1351 31.3484 50.6031 31.7208C50.7818 31.863 51.0207 32.0997 51.2464 32.3214C51.3334 32.4069 51.5317 32.6391 51.7841 32.931C51.9146 33.0818 51.9926 33.216 52.0992 33.3477C52.2327 33.5126 52.4266 33.8501 52.5328 34.0745C52.5673 34.1472 52.7595 34.5391 52.9407 35.2048C53.0224 35.505 53.0454 35.7439 53.0775 35.9155C53.1292 36.1922 53.1658 36.3572 53.1714 36.4767C53.1838 36.7405 53.204 36.9947 53.1298 37.5671C53.0781 37.9657 52.9936 38.6775 52.9166 39.066C52.825 39.5275 52.7873 39.6767 52.6374 40.0024C52.5184 40.2612 52.3068 40.6937 52.1573 40.9674C52.0079 41.241 51.9232 41.3524 51.8152 41.5219C51.7072 41.6915 51.5797 41.9126 51.3746 42.1807C51.1694 42.4487 50.9019 42.7614 50.7285 42.9283C50.5055 43.1431 50.4047 43.3275 49.9611 43.5902C49.71 43.7389 49.3456 43.9616 48.9792 44.1389C48.4774 44.3817 48.2315 44.4504 48.0133 44.5207C47.8136 44.585 47.6819 44.6725 47.2469 44.7506C47.0134 44.7926 46.7622 44.8322 46.208 44.7589C45.7853 44.7031 45.0949 44.5914 44.7252 44.5274C44.3555 44.4633 44.3084 44.4461 44.2216 44.4291C43.8426 44.3551 43.6168 44.2985 43.3104 44.2102C43.1091 44.1521 42.911 44.0537 42.7447 43.9881C42.5817 43.9238 42.379 43.8882 42.2259 43.8072C41.9041 43.6369 41.7381 43.5677 41.5915 43.4646C41.4441 43.361 41.2591 43.3422 41.0003 43.0319C40.8665 42.8715 40.7398 42.7169 40.4956 42.4384C40.3292 42.2486 40.0209 41.9047 39.8593 41.6967C39.6587 41.4385 39.5071 41.3034 39.3883 41.0536C39.3034 40.8753 39.1749 40.6257 39.1059 40.2422C39.063 40.0039 38.9824 39.5741 38.9342 39.0101C38.886 38.4461 38.8705 37.7684 38.917 37.0948C38.9634 36.4212 39.0685 35.7713 39.1745 35.2747C39.2806 34.7781 39.3845 34.4448 39.5055 34.1433C39.6265 33.8418 39.7606 33.5801 39.932 33.2815C40.1034 32.9828 40.2919 32.6458 40.5267 32.3676L40.5457 32.3451C40.9857 31.824 41.2236 31.5422 41.2925 31.4979C41.471 31.3833 41.7698 31.1573 42.1941 30.9236C42.4724 30.7703 42.7407 30.6134 42.9971 30.5402C43.2709 30.4619 43.5333 30.352 44.0075 30.2517C44.2823 30.1935 44.7553 30.1033 45.2142 30.0641C45.673 30.0249 46.1046 30.0364 46.5004 30.0712C46.8961 30.106 47.2454 30.1625 47.6371 30.2559C48.0288 30.3493 48.4501 30.4758 48.681 30.5466Z" fill="#F72B3E"/>
</g>
<g filter="url(#filter1_ddd_818_37640)">
<path d="M107.645 87.133C106.465 82.1145 91.1184 82.1145 91.1184 82.1145C91.1184 82.1145 109.709 75.3262 103.216 72.0816C96.7227 68.837 89.6436 80.0498 89.6436 80.0498C89.6436 80.0498 98.4967 63.8185 91.1184 62.0487C83.7402 60.2789 86.694 77.6901 86.694 77.6901C86.694 77.6901 80.4956 59.0991 76.3661 63.2285C73.1423 66.4524 81.2476 76.1529 84.9574 80.2533C75.2444 72.6632 65.3528 74.8069 66.9231 80.0498C68.6929 85.9532 82.2695 82.1145 82.2695 82.1145C82.2695 82.1145 68.992 90.0827 73.7114 93.3273C78.0653 96.3226 82.9218 87.0209 83.6488 85.5585C82.7473 87.4197 75.9008 101.944 81.9746 102.77C88.4679 103.655 86.6981 86.539 86.6981 86.539C86.6981 86.539 92.8965 101 96.4361 97.4568C99.9757 93.9172 89.0578 85.6541 89.0578 85.6541C89.0578 85.6541 108.829 92.1474 107.649 87.1289L107.645 87.133Z" fill="white"/>
<path d="M87.6706 86.4308C90.0542 85.8932 91.5508 83.525 91.0131 81.1414C90.4755 78.7577 88.1073 77.2612 85.7236 77.7988C83.34 78.3364 81.8434 80.7046 82.3811 83.0883C82.9187 85.4719 85.2869 86.9685 87.6706 86.4308Z" fill="#F72B3E"/>
<path d="M107.645 87.133C106.465 82.1145 91.1184 82.1145 91.1184 82.1145C91.1184 82.1145 109.709 75.3262 103.216 72.0816C96.7227 68.837 89.6436 80.0498 89.6436 80.0498C89.6436 80.0498 98.4967 63.8185 91.1184 62.0487C83.7402 60.2789 86.694 77.6901 86.694 77.6901C86.694 77.6901 80.4956 59.0991 76.3661 63.2285C73.1423 66.4524 81.2476 76.1529 84.9574 80.2533C75.2444 72.6632 65.3528 74.8069 66.9231 80.0498C68.6929 85.9532 82.2695 82.1145 82.2695 82.1145C82.2695 82.1145 68.992 90.0827 73.7114 93.3273C78.0653 96.3226 82.9218 87.0209 83.6488 85.5585C82.7473 87.4197 75.9008 101.944 81.9746 102.77C88.4679 103.655 86.6981 86.539 86.6981 86.539C86.6981 86.539 92.8965 101 96.4361 97.4568C99.9757 93.9172 89.0578 85.6541 89.0578 85.6541C89.0578 85.6541 108.829 92.1474 107.649 87.1289L107.645 87.133Z" stroke="white" stroke-width="7.09268" stroke-linecap="round" stroke-linejoin="round"/>
<path d="M87.6706 86.4308C90.0542 85.8932 91.5508 83.525 91.0131 81.1414C90.4755 78.7577 88.1073 77.2612 85.7236 77.7988C83.34 78.3364 81.8434 80.7046 82.3811 83.0883C82.9187 85.4719 85.2869 86.9685 87.6706 86.4308Z" stroke="white" stroke-width="7.09268" stroke-linecap="round" stroke-linejoin="round"/>
<path d="M107.645 87.133C106.465 82.1145 91.1184 82.1145 91.1184 82.1145C91.1184 82.1145 109.709 75.3262 103.216 72.0816C96.7227 68.837 89.6436 80.0498 89.6436 80.0498C89.6436 80.0498 98.4967 63.8185 91.1184 62.0487C83.7402 60.2789 86.694 77.6901 86.694 77.6901C86.694 77.6901 80.4956 59.0991 76.3661 63.2285C73.1423 66.4524 81.2476 76.1529 84.9574 80.2533C75.2444 72.6632 65.3528 74.8069 66.9231 80.0498C68.6929 85.9532 82.2695 82.1145 82.2695 82.1145C82.2695 82.1145 68.992 90.0827 73.7114 93.3273C78.0653 96.3226 82.9218 87.0209 83.6488 85.5585C82.7473 87.4197 75.9008 101.944 81.9746 102.77C88.4679 103.655 86.6981 86.539 86.6981 86.539C86.6981 86.539 92.8965 101 96.4361 97.4568C99.9757 93.9172 89.0578 85.6541 89.0578 85.6541C89.0578 85.6541 108.829 92.1474 107.649 87.1289L107.645 87.133Z" fill="#FFCC00"/>
<path d="M87.6692 86.4308C90.0529 85.8932 91.5494 83.525 91.0118 81.1413C90.4742 78.7577 88.106 77.2611 85.7223 77.7988C83.3386 78.3364 81.8421 80.7046 82.3797 83.0882C82.9173 85.4719 85.2855 86.9685 87.6692 86.4308Z" fill="#F72B3E"/>
</g>
<g filter="url(#filter2_ddd_818_37640)">
<path d="M18.5395 70.6732C18.5395 70.6732 17.5438 73.1182 17.1933 74.2545L16.2959 78.0596V81.417L16.969 84.3268L18.0908 87.2366L19.2126 89.251L21.6805 92.3846L23.9241 94.1753L25.2703 94.8468L27.7382 95.9659L31.3279 96.6374H34.6933L38.7318 95.9659L42.3215 94.1753L45.2382 92.1608L47.2574 90.1464L48.8279 87.9081L49.9497 85.4459L50.8472 82.9838L51.2959 80.0741V78.0596L50.8472 75.8213L49.501 72.0162L48.1548 70.0017L46.36 67.9873L44.5651 65.9728L41.8728 64.1822L38.7318 63.063L35.8151 62.1677H34.6933H32.4497H30.6549L27.7382 63.063L26.392 63.5107L23.4754 65.3013L22.1292 66.4205L20.7831 67.5396L19.8856 68.8826L18.5395 70.6732Z" fill="#FFFBCA" stroke="white" stroke-width="7.66765"/>
<path d="M49.6105 75.9585C48.4598 75.9744 47.3992 76.4305 46.7787 77.104C46.3121 76.4464 45.3628 76.0115 44.2068 76.0274C43.056 76.0434 42.0219 76.4994 41.4333 77.1729C40.9295 76.5153 39.9537 76.0805 38.803 76.0964C37.6522 76.1123 36.6393 76.5684 36.0931 77.2418C35.5522 76.5843 34.55 76.1547 33.3992 76.1653C32.2484 76.1812 31.2621 76.6373 30.753 77.3108C30.175 76.6532 29.1462 76.2237 27.9954 76.2343C26.8447 76.2502 25.8848 76.7062 25.4128 77.3744C24.7977 76.7221 23.7424 76.2873 22.5916 76.3032C21.4409 76.3191 20.5075 76.7752 20.0727 77.4434C19.4204 76.7911 18.3386 76.3562 17.1878 76.3721C16.3871 76.3828 15.7136 76.6108 15.2363 76.9661L15.8192 81.4133L16.4817 84.0633L17.1442 87.3758L17.9083 90.0257L18.4692 93.3382L19.5437 97.0349L20.3557 100.818L20.6666 102.267H26.6378H33.3992L41.2212 102.076L47.3143 101.927L48.9438 95.3257L50.2688 88.0383L50.9313 82.0758L51.5938 76.7759C51.1006 76.4312 50.4113 75.9479 49.6159 75.9585H49.6105Z" fill="#F3ACB2"/>
<path d="M17.1442 87.3758L16.4817 84.0633L15.8192 81.4133L15.2363 76.9661C15.7136 76.6108 16.3871 76.3828 17.1878 76.3721C18.3386 76.3562 19.4204 76.7911 20.0727 77.4434C20.5075 76.7752 21.4409 76.3191 22.5916 76.3032C23.7424 76.2873 24.7977 76.7221 25.4128 77.3744C25.8848 76.7062 26.8447 76.2502 27.9954 76.2343C29.1462 76.2237 30.175 76.6532 30.753 77.3108C31.2621 76.6373 32.2484 76.1812 33.3992 76.1653C34.55 76.1547 35.5522 76.5843 36.0931 77.2418C36.6393 76.5684 37.6522 76.1123 38.803 76.0964C39.9537 76.0805 40.9295 76.5153 41.4333 77.1729C42.0219 76.4994 43.056 76.0434 44.2068 76.0274C45.3628 76.0115 46.3121 76.4464 46.7787 77.104C47.3992 76.4305 48.4598 75.9744 49.6105 75.9585H49.6159C50.4113 75.9479 51.1006 76.4312 51.5938 76.7759L50.9313 82.0758L50.2688 88.0383L48.9438 95.3257L47.3143 101.927L41.2212 102.076M17.1442 87.3758L17.9083 90.0257L18.4692 93.3382M17.1442 87.3758L18.4692 93.3382M18.4692 93.3382L19.5437 97.0349L20.3557 100.818L20.6666 102.267H26.6378M26.6378 102.267H33.3992L41.2212 102.076M26.6378 102.267C31.2338 102.21 40.5848 102.092 41.2212 102.076" stroke="white" stroke-width="7.66765"/>
<path d="M34.9381 62.2692C34.9381 62.2692 34.6665 62.9086 34.5709 63.2058L34.3262 64.201V65.0791L34.5097 65.8401L34.8157 66.6011L35.1216 67.128L35.7947 67.9476L36.4066 68.4159L36.7737 68.5915L37.4468 68.8842L38.4258 69.0598H39.3437L40.4451 68.8842L41.4241 68.4159L42.2195 67.889L42.7702 67.3622L43.1985 66.7768L43.5045 66.1328L43.7492 65.4889L43.8716 64.7279V64.201L43.7492 63.6156L43.3821 62.6204L43.015 62.0936L42.5255 61.5667L42.036 61.0399L41.3017 60.5715L40.4451 60.2788L39.6496 60.0447H39.3437H38.7318H38.2423L37.4468 60.2788L37.0797 60.3959L36.2842 60.8642L35.9171 61.1569L35.5499 61.4496L35.3052 61.8009L34.9381 62.2692Z" fill="#F72B3E" stroke="white" stroke-width="7.66765"/>
<path d="M24.2995 73.9128C24.2995 74.1462 24.1139 74.3371 23.8805 74.3424L21.8495 74.3689C21.6161 74.3689 21.4252 74.1833 21.4199 73.95C21.4199 73.7166 21.6055 73.5257 21.8389 73.5204L23.8699 73.4939C24.1033 73.4939 24.2942 73.6795 24.2995 73.9128Z" fill="#935A41" stroke="white" stroke-width="7.66765"/>
<path d="M28.8341 68.4255C28.6326 68.5421 28.3727 68.4732 28.256 68.2717L27.2325 66.5164C27.1159 66.3149 27.1848 66.055 27.3863 65.9384C27.5879 65.8217 27.8477 65.8906 27.9644 66.0921L28.9879 67.8474C29.1045 68.049 29.0356 68.3088 28.8341 68.4255Z" fill="#935A41" stroke="white" stroke-width="7.66765"/>
<path d="M31.7718 73.2824C31.9733 73.3991 32.037 73.6589 31.9203 73.8604L30.8862 75.6051C30.7642 75.8066 30.5097 75.8703 30.3082 75.7536C30.1067 75.6369 30.043 75.3771 30.1597 75.1756L31.1938 73.4309C31.3105 73.2294 31.5703 73.1657 31.7718 73.2824Z" fill="#935A41" stroke="white" stroke-width="7.66765"/>
<path d="M40.1871 75.4188C39.9908 75.5461 39.731 75.4877 39.6037 75.2915L38.506 73.584C38.3787 73.3877 38.4371 73.1279 38.6333 73.0006C38.8295 72.8733 39.0893 72.9317 39.2166 73.1279L40.309 74.8355C40.4363 75.0317 40.378 75.2915 40.1817 75.4188H40.1871Z" fill="#935A41" stroke="white" stroke-width="7.66765"/>
<path d="M46.4496 70.9707C46.5026 71.1987 46.3594 71.4268 46.1367 71.4798L44.164 71.9465C43.936 71.9995 43.7079 71.8563 43.6549 71.6336C43.6019 71.4055 43.7397 71.1775 43.9678 71.1245L45.9405 70.6578C46.1685 70.6048 46.3966 70.7427 46.4496 70.9707Z" fill="#935A41" stroke="white" stroke-width="7.66765"/>
<path d="M18.5395 70.6732C18.5395 70.6732 17.5438 73.1182 17.1933 74.2545L16.2959 78.0596V81.417L16.969 84.3268L18.0908 87.2366L19.2126 89.251L21.6805 92.3846L23.9241 94.1753L25.2703 94.8468L27.7382 95.9659L31.3279 96.6374H34.6933L38.7318 95.9659L42.3215 94.1753L45.2382 92.1608L47.2574 90.1464L48.8279 87.9081L49.9497 85.4459L50.8472 82.9838L51.2959 80.0741V78.0596L50.8472 75.8213L49.501 72.0162L48.1548 70.0017L46.36 67.9873L44.5651 65.9728L41.8728 64.1822L38.7318 63.063L35.8151 62.1677H34.6933H32.4497H30.6549L27.7382 63.063L26.392 63.5107L23.4754 65.3013L22.1292 66.4205L20.7831 67.5396L19.8856 68.8826L18.5395 70.6732Z" fill="#FFFBCA"/>
<path d="M49.6105 75.9585C48.4598 75.9744 47.3992 76.4305 46.7787 77.104C46.3121 76.4464 45.3628 76.0115 44.2068 76.0274C43.056 76.0434 42.0219 76.4994 41.4333 77.1729C40.9295 76.5153 39.9537 76.0805 38.803 76.0964C37.6522 76.1123 36.6393 76.5684 36.0931 77.2418C35.5522 76.5843 34.55 76.1547 33.3992 76.1653C32.2484 76.1812 31.2621 76.6373 30.753 77.3108C30.175 76.6532 29.1462 76.2237 27.9954 76.2343C26.8447 76.2502 25.8848 76.7062 25.4128 77.3744C24.7977 76.7221 23.7424 76.2873 22.5916 76.3032C21.4409 76.3191 20.5075 76.7752 20.0727 77.4434C19.4204 76.7911 18.3386 76.3562 17.1878 76.3721C16.3871 76.3828 15.7136 76.6108 15.2363 76.9661L15.8192 81.4133L16.4817 84.0633L17.1442 87.3758L17.9083 90.0257L18.4692 93.3382L19.5437 97.0349L20.3557 100.818L20.6666 102.267H26.6378H33.3992L41.2212 102.076L47.3143 101.927L48.9438 95.3257L50.2688 88.0383L50.9313 82.0758L51.5938 76.7759C51.1006 76.4312 50.4113 75.9479 49.6159 75.9585H49.6105Z" fill="#5AC0F3"/>
<path d="M34.9381 62.2692C34.9381 62.2692 34.6665 62.9086 34.5709 63.2058L34.3262 64.201V65.0791L34.5097 65.8401L34.8157 66.6011L35.1216 67.128L35.7947 67.9476L36.4066 68.4159L36.7737 68.5915L37.4468 68.8842L38.4258 69.0598H39.3437L40.4451 68.8842L41.4241 68.4159L42.2195 67.889L42.7702 67.3622L43.1985 66.7768L43.5045 66.1328L43.7492 65.4889L43.8716 64.7279V64.201L43.7492 63.6156L43.3821 62.6204L43.015 62.0936L42.5255 61.5667L42.036 61.0399L41.3017 60.5715L40.4451 60.2788L39.6496 60.0447H39.3437H38.7318H38.2423L37.4468 60.2788L37.0797 60.3959L36.2842 60.8642L35.9171 61.1569L35.5499 61.4496L35.3052 61.8009L34.9381 62.2692Z" fill="#F72B3E"/>
<path d="M24.2995 73.9128C24.2995 74.1462 24.1139 74.3371 23.8805 74.3424L21.8495 74.3689C21.6161 74.3689 21.4252 74.1833 21.4199 73.95C21.4199 73.7166 21.6055 73.5257 21.8389 73.5204L23.8699 73.4939C24.1033 73.4939 24.2942 73.6795 24.2995 73.9128Z" fill="#935A41"/>
<path d="M28.8341 68.4255C28.6326 68.5421 28.3727 68.4732 28.256 68.2717L27.2325 66.5164C27.1159 66.3149 27.1848 66.055 27.3863 65.9384C27.5879 65.8217 27.8477 65.8906 27.9644 66.0921L28.9879 67.8474C29.1045 68.049 29.0356 68.3088 28.8341 68.4255Z" fill="#935A41"/>
<path d="M31.7718 73.2824C31.9733 73.3991 32.037 73.6589 31.9203 73.8604L30.8862 75.6051C30.7642 75.8066 30.5097 75.8703 30.3082 75.7536C30.1067 75.6369 30.043 75.3771 30.1597 75.1756L31.1938 73.4309C31.3105 73.2294 31.5703 73.1657 31.7718 73.2824Z" fill="#935A41"/>
<path d="M40.1871 75.4188C39.9908 75.5461 39.731 75.4877 39.6037 75.2915L38.506 73.584C38.3787 73.3877 38.4371 73.1279 38.6333 73.0006C38.8295 72.8733 39.0893 72.9317 39.2166 73.1279L40.309 74.8355C40.4363 75.0317 40.378 75.2915 40.1817 75.4188H40.1871Z" fill="#935A41"/>
<path d="M46.4496 70.9707C46.5026 71.1987 46.3594 71.4268 46.1367 71.4798L44.164 71.9465C43.936 71.9995 43.7079 71.8563 43.6549 71.6336C43.6019 71.4055 43.7397 71.1775 43.9678 71.1245L45.9405 70.6578C46.1685 70.6048 46.3966 70.7427 46.4496 70.9707Z" fill="#935A41"/>
<path d="M34.1436 82.663C34.1436 83.6882 34.1436 84.7134 34.198 86.5597C34.2524 88.4061 34.3613 91.0424 34.4173 92.6306C34.4734 94.2189 34.4734 94.6792 34.4795 95.0419C34.4855 95.4045 34.4976 95.6556 34.5101 95.9777" stroke="#E2F4FE" stroke-width="1.72084" stroke-linecap="round"/>
<path d="M45.0526 82.663C44.9866 83.2329 44.9206 83.8029 44.6689 85.3432C44.4172 86.8836 43.9817 89.3771 43.6782 90.8754C43.3747 92.3737 43.2163 92.8011 43.1281 93.1816C42.9677 93.8737 42.9868 94.3793 42.9006 94.7736C42.8408 95.0018 42.7484 95.2867 42.6943 95.481C42.6401 95.6753 42.6269 95.7703 42.6133 95.9042" stroke="#E2F4FE" stroke-width="1.72084" stroke-linecap="round"/>
<path d="M23.6807 82.8634C23.7598 83.1271 23.9182 83.4834 24.2901 85.4717C24.662 87.46 25.2426 91.0697 25.5417 93.048C25.8409 95.0262 25.8409 95.2637 25.8607 95.4514C25.8804 95.639 25.92 95.7696 25.9608 95.9042" stroke="#E2F4FE" stroke-width="1.72084" stroke-linecap="round"/>
</g>
</g>
<defs>
<filter id="filter0_ddd_818_37640" x="18.7773" y="-6.10608" width="79.1514" height="79.1516" filterUnits="userSpaceOnUse" color-interpolation-filters="sRGB">
<feFlood flood-opacity="0" result="BackgroundImageFix"/>
<feColorMatrix in="SourceAlpha" type="matrix" values="0 0 0 0 0 0 0 0 0 0 0 0 0 0 0 0 0 0 127 0" result="hardAlpha"/>
<feOffset/>
<feGaussianBlur stdDeviation="0.5"/>
<feComposite in2="hardAlpha" operator="out"/>
<feColorMatrix type="matrix" values="0 0 0 0 0 0 0 0 0 0 0 0 0 0 0 0 0 0 0.08 0"/>
<feBlend mode="normal" in2="BackgroundImageFix" result="effect1_dropShadow_818_37640"/>
<feColorMatrix in="SourceAlpha" type="matrix" values="0 0 0 0 0 0 0 0 0 0 0 0 0 0 0 0 0 0 127 0" result="hardAlpha"/>
<feOffset dy="1"/>
<feGaussianBlur stdDeviation="2"/>
<feComposite in2="hardAlpha" operator="out"/>
<feColorMatrix type="matrix" values="0 0 0 0 0 0 0 0 0 0 0 0 0 0 0 0 0 0 0.08 0"/>
<feBlend mode="normal" in2="effect1_dropShadow_818_37640" result="effect2_dropShadow_818_37640"/>
<feColorMatrix in="SourceAlpha" type="matrix" values="0 0 0 0 0 0 0 0 0 0 0 0 0 0 0 0 0 0 127 0" result="hardAlpha"/>
<feOffset dy="2"/>
<feGaussianBlur stdDeviation="4"/>
<feComposite in2="hardAlpha" operator="out"/>
<feColorMatrix type="matrix" values="0 0 0 0 0 0 0 0 0 0 0 0 0 0 0 0 0 0 0.12 0"/>
<feBlend mode="normal" in2="effect2_dropShadow_818_37640" result="effect3_dropShadow_818_37640"/>
<feBlend mode="normal" in="SourceGraphic" in2="effect3_dropShadow_818_37640" result="shape"/>
</filter>
<filter id="filter1_ddd_818_37640" x="53.0205" y="50.1863" width="67.625" height="67.6251" filterUnits="userSpaceOnUse" color-interpolation-filters="sRGB">
<feFlood flood-opacity="0" result="BackgroundImageFix"/>
<feColorMatrix in="SourceAlpha" type="matrix" values="0 0 0 0 0 0 0 0 0 0 0 0 0 0 0 0 0 0 127 0" result="hardAlpha"/>
<feOffset/>
<feGaussianBlur stdDeviation="0.5"/>
<feComposite in2="hardAlpha" operator="out"/>
<feColorMatrix type="matrix" values="0 0 0 0 0 0 0 0 0 0 0 0 0 0 0 0 0 0 0.08 0"/>
<feBlend mode="normal" in2="BackgroundImageFix" result="effect1_dropShadow_818_37640"/>
<feColorMatrix in="SourceAlpha" type="matrix" values="0 0 0 0 0 0 0 0 0 0 0 0 0 0 0 0 0 0 127 0" result="hardAlpha"/>
<feOffset dy="1"/>
<feGaussianBlur stdDeviation="2"/>
<feComposite in2="hardAlpha" operator="out"/>
<feColorMatrix type="matrix" values="0 0 0 0 0 0 0 0 0 0 0 0 0 0 0 0 0 0 0.08 0"/>
<feBlend mode="normal" in2="effect1_dropShadow_818_37640" result="effect2_dropShadow_818_37640"/>
<feColorMatrix in="SourceAlpha" type="matrix" values="0 0 0 0 0 0 0 0 0 0 0 0 0 0 0 0 0 0 127 0" result="hardAlpha"/>
<feOffset dy="2"/>
<feGaussianBlur stdDeviation="4"/>
<feComposite in2="hardAlpha" operator="out"/>
<feColorMatrix type="matrix" values="0 0 0 0 0 0 0 0 0 0 0 0 0 0 0 0 0 0 0.12 0"/>
<feBlend mode="normal" in2="effect2_dropShadow_818_37640" result="effect3_dropShadow_818_37640"/>
<feBlend mode="normal" in="SourceGraphic" in2="effect3_dropShadow_818_37640" result="shape"/>
</filter>
<filter id="filter2_ddd_818_37640" x="-4.98438" y="45.6001" width="76.7998" height="76.8" filterUnits="userSpaceOnUse" color-interpolation-filters="sRGB">
<feFlood flood-opacity="0" result="BackgroundImageFix"/>
<feColorMatrix in="SourceAlpha" type="matrix" values="0 0 0 0 0 0 0 0 0 0 0 0 0 0 0 0 0 0 127 0" result="hardAlpha"/>
<feOffset/>
<feGaussianBlur stdDeviation="0.5"/>
<feComposite in2="hardAlpha" operator="out"/>
<feColorMatrix type="matrix" values="0 0 0 0 0 0 0 0 0 0 0 0 0 0 0 0 0 0 0.08 0"/>
<feBlend mode="normal" in2="BackgroundImageFix" result="effect1_dropShadow_818_37640"/>
<feColorMatrix in="SourceAlpha" type="matrix" values="0 0 0 0 0 0 0 0 0 0 0 0 0 0 0 0 0 0 127 0" result="hardAlpha"/>
<feOffset dy="1"/>
<feGaussianBlur stdDeviation="2"/>
<feComposite in2="hardAlpha" operator="out"/>
<feColorMatrix type="matrix" values="0 0 0 0 0 0 0 0 0 0 0 0 0 0 0 0 0 0 0.08 0"/>
<feBlend mode="normal" in2="effect1_dropShadow_818_37640" result="effect2_dropShadow_818_37640"/>
<feColorMatrix in="SourceAlpha" type="matrix" values="0 0 0 0 0 0 0 0 0 0 0 0 0 0 0 0 0 0 127 0" result="hardAlpha"/>
<feOffset dy="2"/>
<feGaussianBlur stdDeviation="4"/>
<feComposite in2="hardAlpha" operator="out"/>
<feColorMatrix type="matrix" values="0 0 0 0 0 0 0 0 0 0 0 0 0 0 0 0 0 0 0.12 0"/>
<feBlend mode="normal" in2="effect2_dropShadow_818_37640" result="effect3_dropShadow_818_37640"/>
<feBlend mode="normal" in="SourceGraphic" in2="effect3_dropShadow_818_37640" result="shape"/>
</filter>
<clipPath id="clip0_818_37640">
<rect width="120" height="120" fill="white" transform="translate(0.25)"/>
</clipPath>
</defs>
</svg>
