<svg width="41" height="41" viewBox="0 0 41 41" fill="none" xmlns="http://www.w3.org/2000/svg">
<g clip-path="url(#clip0_1107_15242)">
<g filter="url(#filter0_ddd_1107_15242)">
<path d="M20.75 15.8128C18.4167 10.336 10.25 10.9193 10.25 17.9193C10.25 24.9194 20.75 30.7529 20.75 30.7529C20.75 30.7529 31.25 24.9194 31.25 17.9193C31.25 10.9193 23.0833 10.336 20.75 15.8128Z" fill="#FF3A4E"/>
<path d="M20.75 15.8128C18.4167 10.336 10.25 10.9193 10.25 17.9193C10.25 24.9194 20.75 30.7529 20.75 30.7529C20.75 30.7529 31.25 24.9194 31.25 17.9193C31.25 10.9193 23.0833 10.336 20.75 15.8128Z" stroke="white" stroke-width="1.63333" stroke-linecap="round" stroke-linejoin="round"/>
</g>
</g>
<defs>
<filter id="filter0_ddd_1107_15242" x="1.43335" y="5.31641" width="38.6333" height="36.2539" filterUnits="userSpaceOnUse" color-interpolation-filters="sRGB">
<feFlood flood-opacity="0" result="BackgroundImageFix"/>
<feColorMatrix in="SourceAlpha" type="matrix" values="0 0 0 0 0 0 0 0 0 0 0 0 0 0 0 0 0 0 127 0" result="hardAlpha"/>
<feOffset/>
<feGaussianBlur stdDeviation="0.5"/>
<feComposite in2="hardAlpha" operator="out"/>
<feColorMatrix type="matrix" values="0 0 0 0 0 0 0 0 0 0 0 0 0 0 0 0 0 0 0.08 0"/>
<feBlend mode="normal" in2="BackgroundImageFix" result="effect1_dropShadow_1107_15242"/>
<feColorMatrix in="SourceAlpha" type="matrix" values="0 0 0 0 0 0 0 0 0 0 0 0 0 0 0 0 0 0 127 0" result="hardAlpha"/>
<feOffset dy="1"/>
<feGaussianBlur stdDeviation="2"/>
<feComposite in2="hardAlpha" operator="out"/>
<feColorMatrix type="matrix" values="0 0 0 0 0 0 0 0 0 0 0 0 0 0 0 0 0 0 0.08 0"/>
<feBlend mode="normal" in2="effect1_dropShadow_1107_15242" result="effect2_dropShadow_1107_15242"/>
<feColorMatrix in="SourceAlpha" type="matrix" values="0 0 0 0 0 0 0 0 0 0 0 0 0 0 0 0 0 0 127 0" result="hardAlpha"/>
<feOffset dy="2"/>
<feGaussianBlur stdDeviation="4"/>
<feComposite in2="hardAlpha" operator="out"/>
<feColorMatrix type="matrix" values="0 0 0 0 0 0 0 0 0 0 0 0 0 0 0 0 0 0 0.12 0"/>
<feBlend mode="normal" in2="effect2_dropShadow_1107_15242" result="effect3_dropShadow_1107_15242"/>
<feBlend mode="normal" in="SourceGraphic" in2="effect3_dropShadow_1107_15242" result="shape"/>
</filter>
<clipPath id="clip0_1107_15242">
<rect width="28" height="28" fill="white" transform="translate(6.75 6.83594)"/>
</clipPath>
</defs>
</svg>
